<svg id="Layer_1" data-name="Layer 1" xmlns="http://www.w3.org/2000/svg" viewBox="0 0 600 400"><defs><style>.cls-1{fill:#e8163f;}</style></defs><title>murtao-logo6</title><path class="cls-1" d="M285.21,266V205.1a5.1,5.1,0,0,0-5.1-5.1c-31.13,0-35.49,53.41-35.66,55.68a5.09,5.09,0,0,0,2.8,4.94l7.38,3.69V266l-3.95,39.5a15.29,15.29,0,0,0,15.21,16.81h8.05a15.29,15.29,0,0,0,15.22-16.81ZM255,253.09a111.48,111.48,0,0,1,4.69-21c3.92-11.52,9.06-18.54,15.35-20.93v50h-10.2A5.1,5.1,0,0,0,262,256.6Zm22.74,57.36a5,5,0,0,1-3.78,1.68h-8.05a5.1,5.1,0,0,1-5.07-5.61l3.52-35.17H275.5L279,306.52a5,5,0,0,1-1.3,3.93Zm0,0"/><path class="cls-1" d="M448.31,42H407.53a5.09,5.09,0,0,0-5.09,5.1v5.09H296a27.74,27.74,0,0,0-13.19,3.36l-49.9,27.22H173.08c-8.57,0-15.29,9-15.29,20.39,0,10.67,5.85,19.18,13.6,20.27l-23,77.79a1.6,1.6,0,0,0,0,.21,25.2,25.2,0,0,0-.76,6.18V352.9a5.09,5.09,0,0,0,5.09,5.1H382.05a5.1,5.1,0,0,0,5.1-5.1V208a25.42,25.42,0,0,0-1-7.19l-21.24-72.2a27.58,27.58,0,0,0,27.3-25.48h10.27v10.19a5.09,5.09,0,0,0,5.09,5.1h40.78a5.09,5.09,0,0,0,5.09-5.1V47.1a5.09,5.09,0,0,0-5.09-5.1ZM168,103.16c0-6.22,3-10.19,5.1-10.19h145.7l-20.39,20.38H173.08c-2.08,0-5.1-4-5.1-10.19Zm158.76,98.27a25.7,25.7,0,0,0-.76,6.18v140.2H157.79V207.61a15.63,15.63,0,0,1,.43-3.61L182,123.55H289.17a22.45,22.45,0,0,0,33.06,29.2l24.52-19.08L326.8,201.22l-.06.21Zm29.82,133.2,13.18,13.18H343.38Zm19.77-130.91A15.33,15.33,0,0,1,377,208V340.6l-15.29-15.29v-110a5.1,5.1,0,1,0-10.19,0v110L336.18,340.6v-133a15.11,15.11,0,0,1,.43-3.61l19.94-67.52ZM402.44,93H390.18a8.14,8.14,0,0,0-8.13,8.13,17.37,17.37,0,0,1-17.35,17.35H352.17a7.27,7.27,0,0,0-4.39,1.51L316,144.7a12.25,12.25,0,0,1-16.18-18.33l34.89-34.89a5.1,5.1,0,0,0-3.6-8.71H254.23L287.72,64.5A17.48,17.48,0,0,1,296,62.39H402.44Zm40.77,15.29H412.63V52.19h30.58Zm0,0"/><path class="cls-1" d="M239.34,205.1a5.1,5.1,0,1,0-10.19,0v15.29H219V205.1a5.1,5.1,0,1,0-10.19,0v15.29h-10.2V205.1a5.1,5.1,0,1,0-10.19,0v20.38h0a5.12,5.12,0,0,0,.53,2.28l9.57,19.14-4.22,59a15.29,15.29,0,0,0,15.25,16.38h8.69a15.29,15.29,0,0,0,15.25-16.38l-4.22-59,9.57-19.14a5.12,5.12,0,0,0,.53-2.28h0ZM226,230.58l-5.1,10.19H206.81l-5.1-10.19Zm-4.07,79.93a5.06,5.06,0,0,1-3.73,1.62h-8.69a5.09,5.09,0,0,1-5.08-5.46l4-55.7H219.3l4,55.7a5.05,5.05,0,0,1-1.35,3.84Zm0,0"/></svg>