<?xml version="1.0" encoding="utf-8"?>
<!-- Generator: Adobe Illustrator 24.0.3, SVG Export Plug-In . SVG Version: 6.00 Build 0)  -->
<svg version="1.1" id="Layer_1" xmlns="http://www.w3.org/2000/svg" xmlns:xlink="http://www.w3.org/1999/xlink" x="0px" y="0px"
	 viewBox="0 0 600 400" style="enable-background:new 0 0 600 400;" xml:space="preserve">
<style type="text/css">
	.st0{display:none;}
	.st1{display:inline;fill:#E8163F;}
	.st2{fill:#E8163F;}
</style>
<g class="st0">
	<path class="st1" d="M285.2,266v-60.9c0-2.8-2.3-5.1-5.1-5.1c-31.1,0-35.5,53.4-35.7,55.7c-0.2,2.1,1,4,2.8,4.9l7.4,3.7v1.7
		l-3.9,39.5c-0.4,4.3,1,8.6,3.9,11.8c2.9,3.2,7,5,11.3,5h8c4.3,0,8.4-1.8,11.3-5c2.9-3.2,4.3-7.5,3.9-11.8L285.2,266z M255,253.1
		c0.9-7.1,2.5-14.2,4.7-21c3.9-11.5,9.1-18.5,15.3-20.9v50h-10.2c0-1.9-1.1-3.7-2.8-4.6L255,253.1z M277.7,310.5
		c-1,1.1-2.3,1.7-3.8,1.7h-8c-1.4,0-2.8-0.6-3.8-1.7c-1-1.1-1.4-2.5-1.3-3.9l3.5-35.2h11.2l3.5,35.2
		C279.2,308,278.7,309.4,277.7,310.5L277.7,310.5z M277.7,310.5"/>
	<path class="st1" d="M448.3,42h-40.8c-2.8,0-5.1,2.3-5.1,5.1v5.1H296c-4.6,0-9.1,1.2-13.2,3.4l-49.9,27.2h-59.9
		c-8.6,0-15.3,9-15.3,20.4c0,10.7,5.9,19.2,13.6,20.3l-23,77.8c0,0.1,0,0.1-0.1,0.2c-0.5,2-0.8,4.1-0.8,6.2v145.3
		c0,2.8,2.3,5.1,5.1,5.1H382c2.8,0,5.1-2.3,5.1-5.1V208c0-2.4-0.3-4.9-1-7.2l-21.2-72.2c14.3-0.1,26.2-11.2,27.3-25.5h10.3v10.2
		c0,2.8,2.3,5.1,5.1,5.1h40.8c2.8,0,5.1-2.3,5.1-5.1V47.1C453.4,44.3,451.1,42,448.3,42L448.3,42z M168,103.2c0-6.2,3-10.2,5.1-10.2
		h145.7l-20.4,20.4H173.1C171,113.4,168,109.4,168,103.2L168,103.2z M326.7,201.4c-0.5,2-0.8,4.1-0.8,6.2v140.2H157.8V207.6
		c0-1.2,0.1-2.4,0.4-3.6l23.8-80.4h107.2c-5.5,9.3-3.6,21.1,4.5,28.3c8.1,7.1,20.1,7.5,28.6,0.9l24.5-19.1l-20,67.5
		C326.8,201.3,326.8,201.4,326.7,201.4L326.7,201.4z M356.6,334.6l13.2,13.2h-26.4L356.6,334.6z M376.3,203.7
		c0.4,1.4,0.6,2.9,0.6,4.3v132.6l-15.3-15.3v-110c0-2.8-2.3-5.1-5.1-5.1c-2.8,0-5.1,2.3-5.1,5.1v110l-15.3,15.3v-133
		c0-1.2,0.1-2.4,0.4-3.6l19.9-67.5L376.3,203.7z M402.4,93h-12.3c-4.5,0-8.1,3.6-8.1,8.1c0,9.6-7.8,17.3-17.3,17.3h-12.5
		c-1.6,0-3.1,0.5-4.4,1.5L316,144.7c-5.1,4-12.4,3.3-16.7-1.6c-4.3-4.9-4.1-12.2,0.5-16.8l34.9-34.9c1.5-1.5,1.9-3.7,1.1-5.6
		c-0.8-1.9-2.7-3.1-4.7-3.1h-76.8l33.5-18.3c2.6-1.4,5.4-2.1,8.3-2.1h106.4V93z M443.2,108.3h-30.6V52.2h30.6V108.3z M443.2,108.3"
		/>
	<path class="st1" d="M239.3,205.1c0-2.8-2.3-5.1-5.1-5.1c-2.8,0-5.1,2.3-5.1,5.1v15.3H219v-15.3c0-2.8-2.3-5.1-5.1-5.1
		s-5.1,2.3-5.1,5.1v15.3h-10.2v-15.3c0-2.8-2.3-5.1-5.1-5.1c-2.8,0-5.1,2.3-5.1,5.1v20.4h0c0,0.8,0.2,1.6,0.5,2.3l9.6,19.1l-4.2,59
		c-0.3,4.2,1.2,8.4,4.1,11.5c2.9,3.1,6.9,4.9,11.2,4.9h8.7c4.2,0,8.3-1.8,11.2-4.9c2.9-3.1,4.4-7.3,4.1-11.5l-4.2-59l9.6-19.1
		c0.4-0.7,0.5-1.5,0.5-2.3h0V205.1z M226,230.6l-5.1,10.2h-14.1l-5.1-10.2H226z M221.9,310.5c-1,1-2.3,1.6-3.7,1.6h-8.7
		c-1.4,0-2.8-0.6-3.7-1.6c-1-1-1.5-2.4-1.4-3.8l4-55.7h10.9l4,55.7C223.4,308.1,222.9,309.5,221.9,310.5L221.9,310.5z M221.9,310.5"
		/>
</g>
<g>
	<path class="st2" d="M425.7,42.4H173.3c-2.9,0-5.3,2.4-5.3,5.3v15.8h-5.3c-2.9,0-5.3,2.4-5.3,5.3c0,2.9,2.4,5.3,5.3,5.3h5.3v21
		h-5.3c-2.9,0-5.3,2.4-5.3,5.3s2.4,5.3,5.3,5.3h5.3v21h-5.3c-2.9,0-5.3,2.4-5.3,5.3s2.4,5.3,5.3,5.3h5.3v21h-5.3
		c-2.9,0-5.3,2.4-5.3,5.3s2.4,5.3,5.3,5.3h5.3v21h-5.3c-2.9,0-5.3,2.4-5.3,5.3c0,2.9,2.4,5.3,5.3,5.3h5.3v21h-5.3
		c-2.9,0-5.3,2.4-5.3,5.3s2.4,5.3,5.3,5.3h5.3v21h-5.3c-2.9,0-5.3,2.4-5.3,5.3c0,2.9,2.4,5.3,5.3,5.3h5.3v21h-5.3
		c-2.9,0-5.3,2.4-5.3,5.3s2.4,5.3,5.3,5.3h5.3v21h-5.3c-2.9,0-5.3,2.4-5.3,5.3c0,2.9,2.4,5.3,5.3,5.3h5.3v26.3
		c0,2.9,2.4,5.3,5.3,5.3h252.5c2.9,0,5.3-2.4,5.3-5.3V47.7C431,44.8,428.6,42.4,425.7,42.4L425.7,42.4z M199.6,347.5h-21v-21h5.3
		c2.9,0,5.3-2.4,5.3-5.3c0-2.9-2.4-5.3-5.3-5.3h-5.3v-21h5.3c2.9,0,5.3-2.4,5.3-5.3s-2.4-5.3-5.3-5.3h-5.3v-21h5.3
		c2.9,0,5.3-2.4,5.3-5.3c0-2.9-2.4-5.3-5.3-5.3h-5.3v-21h5.3c2.9,0,5.3-2.4,5.3-5.3s-2.4-5.3-5.3-5.3h-5.3v-21h5.3
		c2.9,0,5.3-2.4,5.3-5.3c0-2.9-2.4-5.3-5.3-5.3h-5.3v-21h5.3c2.9,0,5.3-2.4,5.3-5.3s-2.4-5.3-5.3-5.3h-5.3v-21h5.3
		c2.9,0,5.3-2.4,5.3-5.3s-2.4-5.3-5.3-5.3h-5.3v-21h5.3c2.9,0,5.3-2.4,5.3-5.3s-2.4-5.3-5.3-5.3h-5.3V74h5.3c2.9,0,5.3-2.4,5.3-5.3
		c0-2.9-2.4-5.3-5.3-5.3h-5.3V52.9h21V347.5z M420.5,347.5H210.1V52.9h210.4V347.5z M420.5,347.5"/>
	<path class="st2" d="M225.9,231.8h36.8c2.9,0,5.3-2.4,5.3-5.3s-2.4-5.3-5.3-5.3h-36.8c-2.9,0-5.3,2.4-5.3,5.3
		S223,231.8,225.9,231.8L225.9,231.8z M225.9,231.8"/>
	<path class="st2" d="M294.2,221.2h-10.5c-2.9,0-5.3,2.4-5.3,5.3s2.4,5.3,5.3,5.3h10.5c2.9,0,5.3-2.4,5.3-5.3
		S297.2,221.2,294.2,221.2L294.2,221.2z M294.2,221.2"/>
	<path class="st2" d="M225.9,263.3h36.8c2.9,0,5.3-2.4,5.3-5.3c0-2.9-2.4-5.3-5.3-5.3h-36.8c-2.9,0-5.3,2.4-5.3,5.3
		C220.6,261,223,263.3,225.9,263.3L225.9,263.3z M225.9,263.3"/>
	<path class="st2" d="M294.2,252.8h-10.5c-2.9,0-5.3,2.4-5.3,5.3c0,2.9,2.4,5.3,5.3,5.3h10.5c2.9,0,5.3-2.4,5.3-5.3
		C299.5,255.2,297.2,252.8,294.2,252.8L294.2,252.8z M294.2,252.8"/>
	<path class="st2" d="M225.9,294.9h36.8c2.9,0,5.3-2.4,5.3-5.3s-2.4-5.3-5.3-5.3h-36.8c-2.9,0-5.3,2.4-5.3,5.3
		S223,294.9,225.9,294.9L225.9,294.9z M225.9,294.9"/>
	<path class="st2" d="M294.2,284.4h-10.5c-2.9,0-5.3,2.4-5.3,5.3s2.4,5.3,5.3,5.3h10.5c2.9,0,5.3-2.4,5.3-5.3
		S297.2,284.4,294.2,284.4L294.2,284.4z M294.2,284.4"/>
	<path class="st2" d="M262.7,315.9h-36.8c-2.9,0-5.3,2.4-5.3,5.3c0,2.9,2.4,5.3,5.3,5.3h36.8c2.9,0,5.3-2.4,5.3-5.3
		C268,318.3,265.6,315.9,262.7,315.9L262.7,315.9z M262.7,315.9"/>
	<path class="st2" d="M294.2,315.9h-10.5c-2.9,0-5.3,2.4-5.3,5.3c0,2.9,2.4,5.3,5.3,5.3h10.5c2.9,0,5.3-2.4,5.3-5.3
		C299.5,318.3,297.2,315.9,294.2,315.9L294.2,315.9z M294.2,315.9"/>
	<path class="st2" d="M331.1,226.5c0,2.9,2.4,5.3,5.3,5.3h36.8c2.9,0,5.3-2.4,5.3-5.3s-2.4-5.3-5.3-5.3h-36.8
		C333.4,221.2,331.1,223.6,331.1,226.5L331.1,226.5z M331.1,226.5"/>
	<path class="st2" d="M394.2,231.8h10.5c2.9,0,5.3-2.4,5.3-5.3s-2.4-5.3-5.3-5.3h-10.5c-2.9,0-5.3,2.4-5.3,5.3
		S391.3,231.8,394.2,231.8L394.2,231.8z M394.2,231.8"/>
	<path class="st2" d="M373.1,252.8h-36.8c-2.9,0-5.3,2.4-5.3,5.3c0,2.9,2.4,5.3,5.3,5.3h36.8c2.9,0,5.3-2.4,5.3-5.3
		C378.4,255.2,376,252.8,373.1,252.8L373.1,252.8z M373.1,252.8"/>
	<path class="st2" d="M394.2,263.3h10.5c2.9,0,5.3-2.4,5.3-5.3c0-2.9-2.4-5.3-5.3-5.3h-10.5c-2.9,0-5.3,2.4-5.3,5.3
		C388.9,261,391.3,263.3,394.2,263.3L394.2,263.3z M394.2,263.3"/>
	<path class="st2" d="M373.1,284.4h-36.8c-2.9,0-5.3,2.4-5.3,5.3s2.4,5.3,5.3,5.3h36.8c2.9,0,5.3-2.4,5.3-5.3S376,284.4,373.1,284.4
		L373.1,284.4z M373.1,284.4"/>
	<path class="st2" d="M394.2,294.9h10.5c2.9,0,5.3-2.4,5.3-5.3s-2.4-5.3-5.3-5.3h-10.5c-2.9,0-5.3,2.4-5.3,5.3
		S391.3,294.9,394.2,294.9L394.2,294.9z M394.2,294.9"/>
	<path class="st2" d="M373.1,315.9h-36.8c-2.9,0-5.3,2.4-5.3,5.3c0,2.9,2.4,5.3,5.3,5.3h36.8c2.9,0,5.3-2.4,5.3-5.3
		C378.4,318.3,376,315.9,373.1,315.9L373.1,315.9z M373.1,315.9"/>
	<path class="st2" d="M394.2,326.4h10.5c2.9,0,5.3-2.4,5.3-5.3c0-2.9-2.4-5.3-5.3-5.3h-10.5c-2.9,0-5.3,2.4-5.3,5.3
		C388.9,324.1,391.3,326.4,394.2,326.4L394.2,326.4z M394.2,326.4"/>
	<path class="st2" d="M310,216v115.7c0,2.9,2.4,5.3,5.3,5.3c2.9,0,5.3-2.4,5.3-5.3V216c0-2.9-2.4-5.3-5.3-5.3
		C312.4,210.7,310,213.1,310,216L310,216z M310,216"/>
	<path class="st2" d="M262.7,95.5c0,0.2,0,0.4,0.1,0.6v0c0,0.2,0.1,0.4,0.2,0.6c0,0,0,0.1,0.1,0.1c0.1,0.2,0.1,0.3,0.2,0.5
		c0,0,0,0.1,0,0.1l9.9,19.8l-4.4,60.9c-0.3,4.4,1.2,8.7,4.2,11.9c3,3.2,7.2,5,11.5,5h9c4.4,0,8.6-1.8,11.5-5c3-3.2,4.5-7.5,4.2-11.9
		l-4.4-60.9l9.9-19.7c0,0,0-0.1,0-0.1c0.1-0.2,0.1-0.3,0.2-0.5c0,0,0-0.1,0.1-0.1c0.1-0.2,0.1-0.4,0.2-0.6v0c0-0.2,0.1-0.4,0.1-0.6
		c0-0.1,0-0.1,0-0.2c0-0.1,0-0.2,0-0.3V74c0-2.9-2.4-5.3-5.3-5.3c-2.9,0-5.3,2.4-5.3,5.3v15.8h-10.5V74c0-2.9-2.4-5.3-5.3-5.3
		c-2.9,0-5.3,2.4-5.3,5.3v15.8h-10.5V74c0-2.9-2.4-5.3-5.3-5.3c-2.9,0-5.3,2.4-5.3,5.3v21c0,0.1,0,0.2,0,0.3
		C262.7,95.4,262.7,95.4,262.7,95.5L262.7,95.5z M297.3,182.8c-1,1.1-2.4,1.7-3.8,1.7h-9c-1.5,0-2.9-0.6-3.8-1.7
		c-1-1.1-1.5-2.5-1.4-4l4.1-57.5h11.2l4.1,57.5C298.8,180.3,298.3,181.7,297.3,182.8L297.3,182.8z M301.5,100.3l-5.3,10.5h-14.5
		l-5.3-10.5H301.5z M301.5,100.3"/>
	<path class="st2" d="M323.5,131.3l7.6,3.8v1.7l-4.1,40.8c-0.4,4.4,1,8.9,4,12.2c3,3.3,7.2,5.2,11.7,5.2h8.3c4.5,0,8.7-1.9,11.7-5.2
		c3-3.3,4.4-7.7,4-12.2l-4.1-40.8V74c0-2.9-2.4-5.3-5.3-5.3c-32.1,0-36.6,55.1-36.8,57.5C320.4,128.3,321.5,130.3,323.5,131.3
		L323.5,131.3z M354.9,182.7c-1,1.1-2.4,1.7-3.9,1.7h-8.3c-1.5,0-2.9-0.6-3.9-1.7c-1-1.1-1.5-2.6-1.3-4.1l3.6-36.3h11.5l3.6,36.3
		C356.4,180.1,355.9,181.6,354.9,182.7L354.9,182.7z M336.3,101.8c4-11.9,9.4-19.1,15.8-21.6v51.6h-10.5c0-2-1.1-3.8-2.9-4.7
		l-7.3-3.6C332.3,116.1,334,108.9,336.3,101.8L336.3,101.8z M336.3,101.8"/>
</g>
</svg>
