<?xml version="1.0" encoding="utf-8"?>
<!-- Generator: Adobe Illustrator 22.1.0, SVG Export Plug-In . SVG Version: 6.00 Build 0)  -->
<svg version="1.1" id="Layer_1" xmlns="http://www.w3.org/2000/svg" xmlns:xlink="http://www.w3.org/1999/xlink" x="0px" y="0px"
	 viewBox="0 0 80 80" style="enable-background:new 0 0 80 80;" xml:space="preserve">
<style type="text/css">
	.Drop_x0020_Shadow{fill:none;}
	.Round_x0020_Corners_x0020_2_x0020_pt{fill:#FFFFFF;stroke:#000000;stroke-miterlimit:10;}
	.Live_x0020_Reflect_x0020_X{fill:none;}
	.Bevel_x0020_Soft{fill:url(#SVGID_1_);}
	.Dusk{fill:#FFFFFF;}
	.Foliage_GS{fill:#FFE501;}
	.Pompadour_GS{fill-rule:evenodd;clip-rule:evenodd;fill:#5BA4CC;}
	.st0{fill:#FF8D00;}
	.st1{fill:#FFFFFF;}
	.st2{fill:#E8163F;}
	.st3{fill:#FFFDFA;}
	.st4{fill:#379640;}
	.st5{fill:#070606;}
</style>
<linearGradient id="SVGID_1_" gradientUnits="userSpaceOnUse" x1="0" y1="0" x2="0.7071" y2="0.7071">
	<stop  offset="0" style="stop-color:#E1DFDF"/>
	<stop  offset="0.1638" style="stop-color:#DDDBDB"/>
	<stop  offset="0.3317" style="stop-color:#D1CFCF"/>
	<stop  offset="0.5016" style="stop-color:#BCBABA"/>
	<stop  offset="0.6727" style="stop-color:#A09D9D"/>
	<stop  offset="0.8432" style="stop-color:#7B7979"/>
	<stop  offset="1" style="stop-color:#535050"/>
</linearGradient>
<path class="st0" d="M41.6,0.4c-15.4,0-27.9,12.5-27.9,27.9c0,5.2,1.4,10.3,4.2,14.6l21.8,35.7c0.4,0.6,0.9,1,1.6,1.1
	c0.9,0.1,1.9-0.2,2.4-1.1l21.9-36c2.6-4.3,4-9.3,4-14.3C69.5,12.9,57,0.4,41.6,0.4z M41.6,42.2c-7.8,0-13.9-6.3-13.9-13.9
	c0-7.7,6.3-13.9,13.9-13.9s13.9,6.3,13.9,13.9C55.5,35.8,49.5,42.2,41.6,42.2z"/>
<circle class="st1" cx="41.7" cy="28.3" r="23.8"/>
<g>
	<g>
		<path class="st1" d="M51.4,13.5c-1-1.2-3.7-3.7-7.4-0.8c-4.7,3.6,1.1,11.9,6.4,8"/>
	</g>
	<g>
		<path class="st2" d="M47.5,22.2c-3.2,0-5.7-3-5.7-6l0,0c0-1.4,0.6-2.8,1.9-3.8l0,0c1.3-1,2.6-1.3,3.7-1.3l0,0
			c2.2,0,3.6,1.4,4.3,2.2l0,0c0.2,0.2,0.1,0.5-0.1,0.6l0,0c-0.2,0.2-0.5,0.1-0.6-0.1l0,0c-0.6-0.8-1.8-2.2-3.6-2.2l0,0
			c-0.9,0-2.2,0.3-3.4,1.2l0,0c-1.1,0.9-1.4,2.1-1.4,3.3l0,0c0,1.2,0.3,2.6,1.2,3.5l0,0c0.9,1,2.3,1.9,3.5,1.9l0,0
			c0.8,0,1.8-0.5,2.7-1.2l0,0c0.2-0.1,0.5-0.1,0.6,0.1l0,0c0.1,0.2,0,0.4-0.2,0.5l0,0C49.6,21.8,48.6,22.2,47.5,22.2L47.5,22.2
			L47.5,22.2L47.5,22.2z"/>
	</g>
	<g>
		<path class="st2" d="M48.6,16.2c0,0,1-1.1-0.7-2.3c0,0,1.9,0,2,1C49.9,15.1,49.6,16.1,48.6,16.2"/>
	</g>
	<g>
		<path class="st2" d="M51,20.2c-0.3-0.5-1-1.2-1-1.2c0.7,0,1.2,0,1.5-0.1c0.5-0.2,0.6,0.4,0.6,0.9c0,0.9-0.4,1.5-0.7,1.5
			C51.4,21.3,51.4,20.9,51,20.2z"/>
	</g>
	<g>
		<path class="st2" d="M52.4,16.1c-0.1-0.3,0.6,0.9,1.5,1.4c0.9,0.5,1,0.8,1,0.8c0,0-0.3,0.2-1.2,0.1c-0.5-0.1-1.5,0.2-1.7,0.1
			C52,18.5,52.7,17.3,52.4,16.1"/>
	</g>
	<g>
		<path class="st2" d="M48.4,16.8c0,0,1.1,0.7,0.9,1.6c-0.2,0.9-1,1.5-2.2,1.4C47.2,19.8,49,18.4,48.4,16.8"/>
	</g>
	<g>
		<path class="st3" d="M38.2,24.8c-7.9-0.6-6.6-12.8,0.6-12.3c5.7,0.4,6.2,4.7,6.1,6.6l-0.6,1.6L38.2,24.8z"/>
	</g>
	<g>
		<path class="st2" d="M38.1,25.3c-2-0.2-3.4-1-4.4-2.2l0,0c-1-1.2-1.5-2.7-1.5-4.3l0,0c0-1.7,0.5-3.4,1.6-4.7l0,0
			c1.2-1.3,2.5-2,4.6-2.1l0,0c0.1,0,0.3,0,0.4,0l0,0c2.8,0.2,4.6,1.3,5.5,2.7l0,0c0.9,1.4,1,3,1,4.1l0,0c0,0.1,0,0.2,0,0.3l0,0
			c0,0.3-0.2,0.6-0.5,0.6l0,0c-0.3,0-0.5-0.3-0.5-0.6l0,0c0-0.1,0-0.2,0-0.3l0,0c0-0.9,0.1-2.5-0.7-3.6l0,0c-0.8-1.1-2.2-2.3-5-2.3
			l0,0c-0.1,0-0.2,0-0.3,0l0,0c-1.6,0-3.2,1-4.1,2l0,0c-0.8,1.1-1.2,2.6-1.2,4.1l0,0c0,1.3,0.6,2.6,1.3,3.6l0,0
			c0.8,1,2.1,1.6,3.8,1.7l0,0c0.3,0,0.6,0.3,0.6,0.6l0,0C38.7,25.2,38.5,25.3,38.1,25.3L38.1,25.3C38.1,25.3,38.1,25.3,38.1,25.3
			L38.1,25.3z"/>
	</g>
	<g>
		<path class="st2" d="M40.1,19.1c0,0,1.7-0.2,1.2-2.7c0,0,1.2,0.4,1,2.5C42.3,18.9,41.1,19.8,40.1,19.1"/>
	</g>
	<g>
		<path class="st2" d="M37.3,26.7c0.4,0.3,1.8,0,2.6-0.8c0.4-0.4,1.4-1.7,0.8-1.9c-0.4-0.2-0.8-0.6-1.5-1.1c0,0,0.2,0.7,0,1.9
			C39,25.9,37.3,26.7,37.3,26.7z"/>
	</g>
	<g>
		<path class="st2" d="M43.7,22.1c0.2-0.3-0.2,1.3,0.2,2.4c0.4,1.1,0.2,1.5,0.2,1.5c-0.1,0-0.4-0.1-1.1-0.8c-0.5-0.5-1.5-1-1.6-1.2
			C41.4,24.1,43,23.4,43.7,22.1"/>
	</g>
	<g>
		<path class="st2" d="M43.8,21.3c0.4,1,2.6-2,2.6-2s-1.7,1.4-2.9,0.3c0,0-0.7-0.6-0.3,0.2C43.6,20.6,43.8,21.3,43.8,21.3"/>
	</g>
	<g>
		<path class="st2" d="M39.5,19.6c0,0,0.5,1.5-0.4,2.2c-0.9,0.7-2.2,0.6-3.1-0.4C35.9,21.4,38.7,21.5,39.5,19.6"/>
	</g>
	<g>
		<g>
			<path class="st4" d="M43.5,11.6c-0.1-0.1-0.2-0.3-0.1-0.4l0,0c0,0,0-0.1,0.1-0.2l0,0c0.1-0.1,0.2-0.2,0.2-0.4l0,0
				c0.2-0.4,0.4-1.2,0.4-1.9l0,0c0-0.8-0.3-1.8-1.2-2.6l0,0c-0.9-0.8-2.7-1.5-5.3-1.5l0,0c-0.2,0-0.3-0.2-0.3-0.3l0,0
				c0-0.2,0.2-0.3,0.3-0.3l0,0c2.8,0.3,4.5,1,5.5,1.8l0,0c1.1,0.9,1.4,2,1.4,2.9l0,0c0,1.5-0.8,2.7-0.8,2.7l0,0l0,0
				c-0.1,0.1-0.2,0.1-0.2,0.1l0,0C43.6,11.6,43.6,11.6,43.5,11.6L43.5,11.6z"/>
		</g>
		<g>
			<path class="st4" d="M42.3,12.1c-2-0.3-3.2-1.1-3.9-2l0,0c-0.7-1-0.9-2.1-0.9-3l0,0c0-1.1,0.2-1.9,0.2-1.9l0,0
				C37.8,5,38,4.9,38.1,5l0,0c0.2,0,0.2,0.2,0.2,0.4l0,0c0,0-0.1,0.2-0.2,0.5l0,0C38.1,6.1,38,6.5,38,7l0,0c0,0.8,0.2,1.9,0.8,2.8
				l0,0c0.6,0.8,1.7,1.5,3.6,1.7l0,0c0.2,0,0.3,0.2,0.3,0.3l0,0C42.6,12,42.5,12.1,42.3,12.1L42.3,12.1
				C42.3,12.1,42.3,12.1,42.3,12.1L42.3,12.1z"/>
		</g>
		<g>
			<path class="st4" d="M42.3,10c-0.5-3.5-3.7-5.2-4.4-5.5l0,0c-0.2-0.1-0.3-0.1-0.3-0.3l0,0C37.7,4,37.9,4,38,4l0,0
				c0.9,0.3,4.2,2.2,4.8,6l0,0c0,0.2-0.1,0.3-0.3,0.3l0,0c0,0,0,0,0,0l0,0C42.4,10.4,42.3,10.1,42.3,10L42.3,10z"/>
		</g>
	</g>
	<g>
		<path class="st2" d="M52,15.7c0.8,0.4,0.7-2.8,0.7-2.8s-0.3,2-1.7,2c0,0-0.8,0-0.1,0.3C51.4,15.4,51.9,15.7,52,15.7"/>
	</g>
</g>
<g>
	<path class="st5" d="M71.5,27.1c-0.4-0.6-2.1,0.1-3.3,0.6c-1.2,0.4-7,2.1-7,2.1c-0.3-0.4-1.3-1.3-2.3-1.1c-1,0.2,0,2.1,0,2.1
		c0.3,1.1,0.6,2.8,0.2,3.8c-0.4,1-1.2-2.6-1.7-4.8c-0.5-2.4-1.8-0.2-2.1,0.3c-1.3,1.8-4.2,4.8-4.2,4.8c-1,1-1.6-0.2-1.1-2
		c0.5-1.8,1.3-4.5,2-6.2c0,0,7.6-0.9,9.2-1.1c1.6-0.2,5.2-0.2,5.7-0.6s1.1-1.3-0.9-1c-2,0.3-12.6,1.4-13.6,1.5c0,0,0.5-1.6,1-2.7
		c0.5-1.1,0.6-1.5-0.2-1.5c-0.8,0-0.9,0.8-1.1,1.5c-0.2,0.7-1,2.8-1,2.8s-3.1,0.6-4.6,1c-1.5,0.4-1.8,0-1.3,0.9
		c0.5,0.8,1.3,0.2,2.6-0.1c1.3-0.3,2.9-0.6,2.9-0.6s-0.7,1.6-1.1,3.1c-0.7-0.1-0.8,0.1-1,0.4c-0.1,0.1-2.2,0.8-2.2,0.5
		c0.2-1.1-0.1-1.9-0.7-1.7c-0.7,0.2-0.3,1.6-0.5,2.1c-0.2,0.5-2.2,3.5-2.5,3.9c0,0-0.3-1.6,0.2-2.5c0.5-0.9,1.2-1.9,0.2-2.2
		c-0.7-0.2-0.9,0.9-1.1,1.3c-0.2,0.4-2.9,3.5-3,2.9c-0.1-0.6,1.3-2.7,1.6-2.9c0.3-0.2,0.9-1.2,0.4-1.4c0,0-0.4-0.6-1.5,0.8
		c-0.7,0.9-2.7,3.3-4.2,3.7c0,0,0.1-1.4,0.7-2.4c0.6-1,1.4-2.8,0.4-2.8c-1.3,0-3.7,2.3-3.7,2.3s1.8-2.8,0.6-2.8
		c-1.3,0-4.1,1.4-5.9,2.8c0,0,3.1-3.7,3.7-5c0.7-1.3,0.9-2-1.3-1.5c-2.2,0.5-6.7,2.2-10.7,3.7c0,0-6.5,2.7-8.3,2.7
		c0,0-1.7,0.1-2.1,0c-0.3-0.1-1.6-0.2-0.7,0.6c0.8,0.8,2.8,0.8,5.8-0.2c3.1-1,15.1-5.8,16.2-5.8c0,0-0.9,1.6-2,3
		c-1.1,1.3-3.2,4.2-3.8,5s-1.1,1-0.7,1.5c0.4,0.6,0.5,0.7,2.5-1.3c2-2,5.3-3.6,5.8-3.9c0.5-0.3-2.8,4-2.1,4.8c0.8,0.9,3.3-3,5.3-4
		c0,0-1,2.5-0.9,3.5c0.1,0.9,0.8,1.9,3.5-0.7c0,0,0.1,2.2,1.2,1.7c1.2-0.5,2.4-1.8,2.7-2.3c0,0-0.3,2.7,0.9,2.7
		c0.9-0.1,1.5-1.9,2.6-3.3c0,0-0.6,3.4,0.6,3.2c1.3-0.2-0.4-3.5,1.2-4.6c1-0.7,1.9-0.6,2.3-0.6c-0.3,1-0.5,1.9-0.5,2.6
		c-0.2,2.2,1.4,4.3,4,1l0.9-1.2c0,0-0.6,2.7,0.9,2.9c1.5,0.2,2.5-3.8,2.5-3.8c0.4,1.7,1.4,3.8,2,3.7c0.7-0.1,1.2-3.1,1.2-3.1
		c0.6,1.1,1.5,2.5,2.6,2.3c1.1-0.2-1.3-5.2-1.3-5.2c1.1-0.2,7.1-2,8.5-2.3C71.3,27.9,71.8,27.6,71.5,27.1z M54.5,34.3
		c0.1-1.6,1.8-3.4,1.8-3.4C56.5,32.4,54.5,36,54.5,34.3z M62.2,34.3c-0.6,0.1-1.8-2.2-2.4-3.6l0.9-0.1
		C60.7,30.6,62.5,34.3,62.2,34.3z"/>
</g>
<g>
	<path class="st5" d="M19.4,40.5c0,0,0,0.1,0,0.2c0,0.1,0,0.2,0,0.2c0,0.1,0,0.2-0.1,0.3c0,0.1,0,0.2-0.1,0.3c0,0.1,0,0.2,0,0.2
		c0,0.1,0,0.1,0,0.1c0,0,0,0.1,0,0.1s0,0.1,0,0.1c0,0,0,0.1,0,0.1c0,0,0,0,0.1,0c0,0,0.1,0,0.1,0c0.1,0,0.1,0,0.2-0.1
		c0.1,0,0.1-0.1,0.2-0.1c0.1,0,0.1-0.1,0.2-0.1c0.1,0,0.1-0.1,0.2-0.1s0.1-0.1,0.1-0.1c0,0.1,0,0.1,0,0.2c0,0,0,0.1,0,0.1
		c0,0,0,0.1,0,0.1c0,0,0,0.1,0,0.1c0,0-0.1,0.1-0.1,0.1c-0.1,0-0.1,0.1-0.2,0.1c-0.1,0-0.1,0.1-0.2,0.1c-0.1,0-0.1,0.1-0.2,0.1
		c-0.1,0-0.1,0.1-0.2,0.1c-0.1,0-0.1,0-0.2,0s-0.1,0-0.2,0s-0.1-0.1-0.1-0.1c0,0-0.1-0.1-0.1-0.2c0-0.1,0-0.1-0.1-0.2
		c-0.1,0.1-0.1,0.2-0.2,0.2c-0.1,0.1-0.1,0.1-0.2,0.2c-0.1,0-0.1,0.1-0.2,0.1c-0.1,0-0.1,0-0.2,0c-0.1,0-0.1,0-0.2,0
		c0,0-0.1,0-0.1-0.1c0,0-0.1-0.1-0.1-0.2c0-0.1,0-0.2,0-0.3c0-0.1,0-0.3,0-0.5c0-0.2,0.1-0.4,0.1-0.7c0,0,0-0.1,0-0.1
		c0,0,0-0.1,0-0.1c0-0.1,0-0.1,0.1-0.2c0-0.1,0.1-0.1,0.1-0.1c0,0,0.1-0.1,0.1-0.1c0,0,0.1,0,0.1,0c0.1,0,0.2,0,0.2,0
		c0,0,0.1,0,0.1,0.1c0,0.1,0,0.2,0,0.3c0,0.1,0,0.2-0.1,0.3c0,0.1,0,0.2-0.1,0.3c0,0.1,0,0.2,0,0.3s0,0.1,0,0.2c0,0.1,0,0.1,0,0.1
		c0,0,0,0.1,0,0.1c0,0,0,0.1,0,0.1s0,0,0,0.1c0,0,0,0,0.1,0c0,0,0.1,0,0.1,0c0,0,0.1,0,0.1-0.1c0,0,0.1-0.1,0.1-0.1
		c0-0.1,0-0.1,0.1-0.2l0.2-1.2c0,0,0-0.1,0.1-0.1c0.1,0,0.1,0,0.2,0c0.1,0,0.2,0,0.2,0C19.4,40.5,19.4,40.5,19.4,40.5z"/>
	<path class="st5" d="M19.9,42.2c0-0.1,0-0.2,0-0.4s0-0.3,0.1-0.4c0-0.1,0-0.3,0.1-0.4c0-0.1,0-0.2,0.1-0.3c0-0.1,0.1-0.1,0.1-0.2
		c0.1-0.1,0.1-0.1,0.2-0.1c0.1,0,0.2,0,0.2,0.1c0,0.1,0.1,0.1,0.1,0.2c0,0,0,0.1,0,0.1c0,0,0,0.1,0,0.1c0,0.1,0,0.1,0,0.2
		c0,0.1,0,0.1,0,0.2c0,0,0,0.1,0,0.1c0,0,0,0.1,0,0.1h0.1c0,0,0,0,0-0.1c0,0,0-0.1,0.1-0.1c0-0.1,0.1-0.1,0.1-0.2
		c0-0.1,0.1-0.1,0.1-0.2c0-0.1,0.1-0.1,0.1-0.1c0,0,0-0.1,0.1-0.1c0.1-0.1,0.1-0.2,0.2-0.2c0.1,0,0.1-0.1,0.2-0.1s0.2,0,0.2,0.1
		c0,0.1,0.1,0.2,0.1,0.3c0,0,0,0,0,0.1s0,0.1,0,0.2s0,0.1,0,0.2c0,0.1,0,0.1,0,0.2c0,0.1,0,0.1,0,0.2c0,0.1,0,0.1,0,0.2
		c0,0.1,0,0.2,0,0.2c0,0.1,0.1,0.1,0.1,0.1c0,0,0.1,0,0.1,0c0,0,0.1,0,0.1-0.1S22,42.1,22,42c0,0,0.1-0.1,0.1-0.1
		c0.1-0.1,0.2-0.2,0.3-0.3l0,0.6l-0.1,0.1c-0.1,0.1-0.1,0.1-0.2,0.2c-0.1,0.1-0.1,0.1-0.2,0.1c-0.1,0-0.2,0.1-0.2,0.1
		c-0.1,0-0.2,0-0.3,0c-0.1,0-0.2-0.1-0.2-0.2c-0.1-0.1-0.1-0.3-0.1-0.6c0-0.1,0-0.2,0-0.3c0-0.1,0-0.2,0.1-0.4h0l-0.6,1.3
		c0,0.1-0.1,0.1-0.1,0.1c0,0-0.1,0-0.1,0c-0.1,0-0.1,0-0.2,0S20,42.6,20,42.6c0,0,0-0.1,0-0.2C19.9,42.4,19.9,42.3,19.9,42.2z"/>
	<path class="st0" d="M23.5,42.2c0-0.1,0-0.2,0-0.2s0-0.2,0-0.3s0-0.2,0.1-0.3c0-0.1,0-0.2,0.1-0.3c0-0.1,0-0.2,0.1-0.3
		c0-0.1,0-0.2,0.1-0.2c0,0,0-0.1,0-0.1c0,0,0,0,0-0.1c0,0,0,0,0.1,0c0,0,0.1,0,0.1,0s0.1,0,0.1,0c0,0,0,0,0.1,0c0,0,0,0,0,0.1
		c0,0,0,0.1,0,0.1c0,0.1,0,0.1,0,0.2c0,0.1,0,0.2,0,0.2h0c0-0.1,0.1-0.1,0.1-0.2c0-0.1,0.1-0.2,0.1-0.2c0.1-0.1,0.1-0.1,0.2-0.2
		c0.1,0,0.2-0.1,0.2-0.1c0,0,0.1,0,0.1,0c0,0,0.1,0,0.1,0c0,0,0,0,0.1,0.1c0,0,0,0.1,0,0.1c0,0,0,0.1,0,0.1c0,0.1,0,0.1,0,0.2
		c0,0.1,0,0.1,0,0.2c0,0.1,0,0.1,0,0.1c0,0.1,0,0.1,0,0.2s0,0.1,0,0.1s0,0,0.1,0.1c0,0,0,0,0.1,0c0.1,0,0.2,0,0.2-0.1
		c0.1,0,0.2-0.1,0.2-0.1c0.1,0,0.2-0.1,0.2-0.2l0,0.6c0,0-0.1,0.1-0.1,0.1c-0.1,0-0.1,0.1-0.2,0.1S25.5,42,25.5,42
		c-0.1,0-0.1,0-0.2,0C25.1,42,25,42,25,42c-0.1-0.1-0.1-0.1-0.2-0.2c0-0.1-0.1-0.2-0.1-0.3c0-0.1,0-0.2-0.1-0.3h0l-0.4,1.2
		c0,0.1,0,0.1-0.1,0.2c0,0,0,0.1-0.1,0.1c0,0,0,0-0.1,0.1s-0.1,0-0.1,0c-0.1,0-0.1,0-0.2,0c0,0-0.1-0.1-0.1-0.1c0,0,0-0.1,0-0.2
		C23.6,42.4,23.5,42.3,23.5,42.2z"/>
	<path class="st0" d="M26.5,42.7c-0.2,0-0.3,0-0.4-0.1c-0.1-0.1-0.2-0.1-0.3-0.2c-0.1-0.1-0.1-0.2-0.2-0.3c0-0.1-0.1-0.2-0.1-0.4
		c0-0.1,0-0.2,0-0.3c0-0.1,0-0.2,0.1-0.3c0-0.1,0.1-0.2,0.1-0.3c0.1-0.1,0.1-0.2,0.2-0.2c0.1-0.1,0.2-0.1,0.2-0.2
		c0.1,0,0.2-0.1,0.3-0.1c0.1,0,0.2,0,0.2,0c0.1,0,0.2,0.1,0.2,0.1c0.1,0.1,0.1,0.1,0.1,0.2c0,0.1,0.1,0.2,0.1,0.2
		c0,0.1,0,0.2-0.1,0.3c-0.1,0.1-0.1,0.2-0.2,0.3c-0.1,0.1-0.2,0.2-0.3,0.2c-0.1,0.1-0.2,0.1-0.4,0.2c0,0,0,0.1,0.1,0.1
		c0,0,0,0.1,0.1,0.1c0,0,0.1,0,0.1,0c0,0,0.1,0,0.1,0c0.1,0,0.2,0,0.3-0.1c0.1,0,0.2-0.1,0.3-0.2c0.1-0.1,0.2-0.1,0.3-0.2
		c0.1-0.1,0.2-0.1,0.2-0.2l0.3,0.3c-0.1,0.2-0.3,0.3-0.5,0.4c-0.1,0.1-0.1,0.1-0.2,0.1c-0.1,0-0.2,0.1-0.2,0.1
		c-0.1,0-0.2,0.1-0.3,0.1C26.7,42.7,26.6,42.7,26.5,42.7z M26.2,41.6c0.1,0,0.1,0,0.2,0c0.1,0,0.1-0.1,0.2-0.1
		c0.1,0,0.1-0.1,0.2-0.2c0-0.1,0.1-0.1,0.1-0.2c0-0.1,0-0.1,0-0.2c0,0-0.1-0.1-0.1-0.1c-0.1,0-0.1,0-0.2,0c-0.1,0-0.1,0.1-0.1,0.1
		c0,0-0.1,0.1-0.1,0.1c0,0.1,0,0.1,0,0.2c0,0.1,0,0.1,0,0.2C26.2,41.5,26.2,41.6,26.2,41.6z"/>
	<path class="st0" d="M27.5,41.8c0.1-0.1,0.2-0.1,0.2-0.2c0.1-0.1,0.1-0.1,0.2-0.1s0.1-0.1,0.1-0.1c0,0,0.1-0.1,0.1-0.2
		c0-0.1,0.1-0.1,0.2-0.2c0.1-0.1,0.2-0.2,0.2-0.3c0,0,0-0.1,0.1-0.1c0,0,0.1-0.1,0.1-0.1s0.1,0,0.1-0.1c0,0,0.1,0,0.1,0
		c0.1,0,0.1,0,0.2,0c0,0,0.1,0,0.1,0.1c0,0,0,0.1,0,0.1s0,0.1,0,0.1c0,0,0,0.1,0,0.1c0,0-0.1,0.1-0.1,0.1S29,41,29,41
		c0,0-0.1,0.1-0.1,0.1c0,0.1,0,0.1,0,0.1c0,0,0,0.1,0,0.1c0,0,0,0.1,0,0.1c0,0,0,0.1,0,0.2c0,0.1,0,0.1,0,0.2c0,0.1,0,0.2,0,0.3
		c0.1,0,0.1-0.1,0.2-0.1c0.1,0,0.1-0.1,0.2-0.1c0.1,0,0.2-0.1,0.2-0.1c0.1,0,0.2-0.1,0.2-0.2v0.6c-0.1,0.1-0.2,0.2-0.3,0.2
		c-0.1,0.1-0.3,0.1-0.4,0.2c-0.1,0.1-0.3,0.1-0.4,0.1c-0.2,0-0.3,0-0.4,0c-0.1,0-0.2,0-0.3,0c-0.1,0-0.2,0-0.2-0.1
		c-0.1,0-0.1-0.1-0.2-0.2c0-0.1-0.1-0.1-0.1-0.2c0,0,0,0-0.1,0c0,0,0,0-0.1,0c0,0-0.1,0-0.1,0c0,0,0,0-0.1,0c0,0,0,0,0-0.1
		c0,0,0-0.1,0-0.1s0-0.1,0-0.1c0,0,0-0.1,0.1-0.1C27.4,41.9,27.5,41.9,27.5,41.8C27.5,41.8,27.5,41.8,27.5,41.8z M27.8,42.1
		C27.9,42.1,27.9,42.1,27.8,42.1c0.1,0.1,0.1,0.1,0.2,0.1c0,0,0.1,0.1,0.1,0.1c0,0,0.1,0,0.1,0c0.1,0,0.1,0,0.2,0
		c0,0,0.1-0.1,0.1-0.1c0,0,0-0.1,0.1-0.1s0-0.1,0-0.1s0-0.1,0-0.1c0,0,0-0.1,0-0.1c0,0,0-0.1,0-0.1c0,0,0-0.1,0-0.1L27.8,42.1z"/>
	<path class="st0" d="M31.8,42.2c-0.2,0.1-0.3,0.2-0.4,0.2c-0.1,0.1-0.2,0.1-0.3,0.2s-0.2,0.1-0.2,0.1c-0.1,0-0.1,0-0.2,0
		c-0.1,0-0.2,0-0.3-0.1c-0.1-0.1-0.2-0.2-0.2-0.3c-0.1-0.1-0.1-0.3-0.1-0.5c0-0.2,0-0.4,0-0.7c0-0.1,0-0.2,0-0.3s0-0.2,0-0.3
		c-0.1,0-0.1,0-0.1,0s-0.1,0-0.1,0c0,0-0.1,0-0.1,0c0,0-0.1,0-0.2,0c0,0-0.1,0-0.1,0c0,0,0,0,0-0.1c0,0,0,0,0-0.1c0,0,0,0,0-0.1
		c0,0,0-0.1,0-0.1c0,0,0.1,0,0.1,0c0.1,0,0.1,0,0.2,0s0.1,0,0.2,0s0.1,0,0.2,0s0.1,0,0.1,0c0-0.2,0.1-0.4,0.2-0.6
		c0.1-0.2,0.1-0.4,0.2-0.6s0.2-0.3,0.3-0.4c0.1-0.1,0.2-0.1,0.3-0.1c0.1,0,0.1,0,0.2,0.1c0.1,0,0.1,0.1,0.2,0.2
		c0,0.1,0.1,0.1,0.1,0.2s0,0.2,0,0.3c0,0.1,0,0.2,0,0.2c0,0.1-0.1,0.2-0.1,0.3c0,0.1-0.1,0.2-0.1,0.3C31,40,31,40,30.9,40.1
		c0,0,0,0,0.1,0s0.1,0,0.1,0s0.1,0,0.1,0c0.1,0,0.1,0,0.2,0c0.1,0,0.1,0,0.1,0c0,0,0.1,0,0.1,0c0,0,0.1,0,0.1,0.1c0,0,0,0.1,0,0.1
		s0,0.1-0.1,0.1c0,0-0.1,0.1-0.1,0.1h-0.9c0,0.1-0.1,0.1-0.1,0.2s-0.1,0.1-0.1,0.2c0,0.1,0,0.2,0,0.3c0,0,0,0.1,0,0.1s0,0.1,0,0.1
		s0,0.1,0,0.1c0,0,0,0.1,0,0.1c0,0.1,0,0.2,0,0.2c0,0.1,0,0.1,0.1,0.2c0,0,0.1,0.1,0.1,0.1c0,0,0.1,0,0.2,0c0,0,0.1,0,0.1,0
		c0.1,0,0.1,0,0.2-0.1c0.1,0,0.1-0.1,0.2-0.1c0.1,0,0.1-0.1,0.2-0.1c0.1,0,0.1-0.1,0.2-0.2c0.1-0.1,0.1-0.1,0.2-0.2L31.8,42.2
		L31.8,42.2L31.8,42.2z M31,39.1C31,39.1,31,39.1,31,39.1c0-0.1,0-0.1,0-0.1c0,0,0,0,0-0.1c0,0,0,0-0.1,0c0,0-0.1,0-0.1,0.1
		c0,0.1-0.1,0.2-0.1,0.3c0,0.1-0.1,0.2-0.1,0.4c0,0.1-0.1,0.3-0.1,0.4c0,0,0.1,0,0.1,0s0.1,0,0.1,0c0.1-0.1,0.1-0.2,0.2-0.3
		c0.1-0.1,0.1-0.2,0.1-0.3c0-0.1,0.1-0.2,0.1-0.3C31,39.2,31,39.1,31,39.1z"/>
	<path class="st0" d="M33.2,40.9c0,0.1,0.1,0.2,0.1,0.3c0,0.1,0,0.2,0,0.3c0,0.1,0,0.2,0,0.3s-0.1,0.2-0.1,0.3
		c0,0.1-0.1,0.2-0.2,0.3c-0.1,0.1-0.1,0.2-0.2,0.2s-0.2,0.1-0.2,0.1s-0.2,0.1-0.3,0.1c-0.1,0-0.3,0-0.4-0.1
		c-0.1-0.1-0.2-0.1-0.2-0.2c-0.1-0.1-0.1-0.2-0.1-0.3c0-0.1,0-0.3,0-0.4c0-0.2,0-0.3,0.1-0.5c0.1-0.2,0.1-0.3,0.2-0.4
		c0.1-0.1,0.2-0.2,0.4-0.3s0.3-0.1,0.5-0.1c0.2,0,0.3,0,0.4,0.1c0.1,0,0.3,0.1,0.4,0.2c0.1,0.1,0.2,0.2,0.3,0.3
		c0.1,0.1,0.2,0.2,0.3,0.3l0,0.3c0-0.1-0.1-0.1-0.2-0.2c-0.1-0.1-0.2-0.1-0.2-0.2s-0.2-0.1-0.2-0.2C33.3,41,33.3,40.9,33.2,40.9
		L33.2,40.9z M32.4,42.3c0.1,0,0.1,0,0.2-0.1c0.1-0.1,0.1-0.1,0.1-0.2c0-0.1,0.1-0.2,0.1-0.3c0-0.1,0-0.2,0-0.3c0-0.1,0-0.1,0-0.2
		c0-0.1,0-0.1-0.1-0.2c0,0-0.1-0.1-0.1-0.1c0,0-0.1,0-0.1,0c-0.1,0-0.1,0-0.2,0.1c-0.1,0.1-0.1,0.1-0.2,0.2c0,0.1-0.1,0.2-0.1,0.3
		s0,0.2,0,0.3c0,0.1,0,0.1,0,0.2c0,0.1,0,0.1,0.1,0.2c0,0,0.1,0.1,0.1,0.1C32.3,42.3,32.4,42.3,32.4,42.3z"/>
	<path class="st0" d="M33.8,42.2c0-0.1,0-0.2,0-0.2s0-0.2,0-0.3s0-0.2,0.1-0.3c0-0.1,0-0.2,0.1-0.3c0-0.1,0-0.2,0.1-0.3
		c0-0.1,0-0.2,0.1-0.2c0,0,0-0.1,0-0.1c0,0,0,0,0-0.1c0,0,0,0,0.1,0c0,0,0.1,0,0.1,0s0.1,0,0.1,0c0,0,0,0,0.1,0c0,0,0,0,0,0.1
		c0,0,0,0.1,0,0.1c0,0.1,0,0.1,0,0.2c0,0.1,0,0.2,0,0.2h0c0-0.1,0.1-0.1,0.1-0.2s0.1-0.2,0.1-0.2c0.1-0.1,0.1-0.1,0.2-0.2
		c0.1,0,0.2-0.1,0.2-0.1c0,0,0.1,0,0.1,0c0,0,0.1,0,0.1,0c0,0,0,0,0.1,0.1c0,0,0,0.1,0,0.1c0,0,0,0.1,0,0.1c0,0.1,0,0.1,0,0.2
		c0,0.1,0,0.1,0,0.2c0,0.1,0,0.1,0,0.1c0,0.1,0,0.1,0,0.2s0,0.1,0,0.1s0,0,0.1,0.1s0,0,0.1,0c0.1,0,0.2,0,0.2-0.1
		c0.1,0,0.2-0.1,0.2-0.1c0.1,0,0.2-0.1,0.2-0.2l0,0.6c0,0-0.1,0.1-0.1,0.1c-0.1,0-0.1,0.1-0.2,0.1c-0.1,0-0.1,0.1-0.2,0.1
		s-0.1,0-0.2,0c-0.1,0-0.2,0-0.3-0.1c-0.1-0.1-0.1-0.1-0.2-0.2c0-0.1-0.1-0.2-0.1-0.3c0-0.1,0-0.2-0.1-0.3h0l-0.4,1.2
		c0,0.1,0,0.1-0.1,0.2s0,0.1-0.1,0.1s0,0-0.1,0.1s-0.1,0-0.1,0c-0.1,0-0.1,0-0.2,0c0,0-0.1-0.1-0.1-0.1c0,0,0-0.1,0-0.2
		C33.8,42.4,33.8,42.3,33.8,42.2z"/>
	<path class="st0" d="M38.5,42.1c0,0.1-0.1,0.1-0.2,0.2c-0.1,0.1-0.1,0.1-0.2,0.2c-0.1,0.1-0.2,0.1-0.2,0.2c-0.1,0-0.2,0.1-0.3,0.1
		c-0.1,0-0.2,0-0.3-0.1c-0.1-0.1-0.1-0.2-0.2-0.3c0,0-0.1,0.1-0.1,0.1c-0.1,0-0.1,0.1-0.2,0.1c-0.1,0-0.1,0.1-0.2,0.1
		c-0.1,0-0.2,0-0.2,0c-0.1,0-0.2,0-0.2,0S36,42.6,36,42.6c-0.1-0.1-0.1-0.1-0.1-0.2c0-0.1-0.1-0.2-0.1-0.3c0-0.1,0-0.2,0.1-0.4
		s0.1-0.2,0.1-0.4c0.1-0.1,0.1-0.2,0.2-0.3c0.1-0.1,0.2-0.2,0.3-0.3c0.1-0.1,0.2-0.2,0.3-0.2c0.1,0,0.2-0.1,0.3-0.1c0,0,0.1,0,0.1,0
		s0,0,0.1,0.1s0,0,0,0.1s0,0,0.1,0c0,0,0,0,0.1,0s0,0,0.1,0s0,0,0.1,0s0,0,0.1,0s0,0,0.1,0c0,0,0,0,0.1,0c0,0,0,0,0,0.1
		c0,0,0,0.1,0,0.1c0,0.1,0,0.2,0,0.3c0,0.1,0,0.2-0.1,0.3s0,0.2-0.1,0.3c0,0.1,0,0.2,0,0.3c0,0.1,0,0.1,0,0.2c0,0,0,0.1,0.1,0.1
		c0,0,0.1,0,0.1,0c0,0,0.1,0,0.1-0.1c0,0,0.1-0.1,0.1-0.1c0,0,0.1-0.1,0.1-0.1c0.1-0.1,0.2-0.2,0.2-0.3L38.5,42.1z M36.4,41.9
		c0,0,0,0.1,0,0.1c0,0,0,0.1,0,0.1c0,0,0,0.1,0.1,0.1s0.1,0,0.1,0c0.1,0,0.1,0,0.2-0.1c0.1-0.1,0.1-0.1,0.1-0.2
		c0-0.1,0.1-0.2,0.1-0.2c0-0.1,0-0.1,0-0.2l0.2-0.7c-0.1,0-0.1,0-0.2,0.1c-0.1,0-0.1,0.1-0.2,0.1c-0.1,0.1-0.1,0.1-0.2,0.2
		c0,0.1-0.1,0.2-0.1,0.2c0,0.1-0.1,0.2-0.1,0.2C36.4,41.8,36.4,41.9,36.4,41.9z M37.2,39.8C37.3,39.7,37.3,39.7,37.2,39.8
		c0.1-0.1,0.1-0.2,0.1-0.2c0-0.1,0.1-0.1,0.1-0.2c0-0.1,0.1-0.1,0.1-0.2c0.1-0.2,0.1-0.3,0.2-0.5c0-0.1,0.1-0.1,0.1-0.1
		c0,0,0.1,0,0.1,0c0,0,0.1,0,0.1,0c0,0,0.1,0,0.1,0.1c0,0,0.1,0.1,0.1,0.1c0,0,0,0.1,0,0.1c0,0.1,0,0.2-0.1,0.2c0,0-0.1,0.1-0.1,0.1
		c0,0.1-0.1,0.1-0.1,0.2c0,0.1-0.1,0.1-0.1,0.2c0,0.1-0.1,0.1-0.1,0.2c0,0.1-0.1,0.1-0.1,0.1c0,0-0.1,0.1-0.1,0.1
		c0,0-0.1,0.1-0.1,0.1c0,0-0.1,0-0.1,0c0,0-0.1,0-0.1,0c0,0,0-0.1,0-0.1C37.2,39.9,37.2,39.9,37.2,39.8
		C37.2,39.8,37.2,39.8,37.2,39.8z"/>
	<path class="st0" d="M38.2,42.2c0-0.1,0-0.2,0-0.4s0-0.3,0.1-0.4c0-0.1,0-0.3,0.1-0.4c0-0.1,0-0.2,0.1-0.3c0-0.1,0.1-0.1,0.1-0.2
		c0.1-0.1,0.1-0.1,0.2-0.1c0.1,0,0.2,0,0.2,0.1c0,0.1,0.1,0.1,0.1,0.2c0,0,0,0.1,0,0.1c0,0,0,0.1,0,0.1c0,0.1,0,0.1,0,0.2
		c0,0.1,0,0.1,0,0.2c0,0,0,0.1,0,0.1c0,0,0,0.1,0,0.1h0.1c0,0,0,0,0-0.1c0,0,0-0.1,0.1-0.1c0-0.1,0.1-0.1,0.1-0.2
		c0-0.1,0.1-0.1,0.1-0.2c0-0.1,0.1-0.1,0.1-0.1s0-0.1,0.1-0.1c0.1-0.1,0.1-0.2,0.2-0.2c0.1,0,0.1-0.1,0.2-0.1c0.1,0,0.2,0,0.2,0.1
		c0,0.1,0.1,0.2,0.1,0.3c0,0,0,0,0,0.1s0,0.1,0,0.2c0,0.1,0,0.1,0,0.2c0,0.1,0,0.1,0,0.2c0,0.1,0,0.1,0,0.2c0,0.1,0,0.1,0,0.2
		c0,0.1,0,0.2,0,0.2c0,0.1,0.1,0.1,0.1,0.1c0,0,0.1,0,0.1,0s0.1,0,0.1-0.1c0,0,0.1-0.1,0.1-0.1c0,0,0.1-0.1,0.1-0.1
		c0.1-0.1,0.2-0.2,0.3-0.3l0,0.6l-0.1,0.1c-0.1,0.1-0.1,0.1-0.2,0.2c-0.1,0.1-0.1,0.1-0.2,0.1c-0.1,0-0.2,0.1-0.2,0.1
		c-0.1,0-0.2,0-0.3,0c-0.1,0-0.2-0.1-0.2-0.2c-0.1-0.1-0.1-0.3-0.1-0.6c0-0.1,0-0.2,0-0.3c0-0.1,0-0.2,0.1-0.4h0l-0.6,1.3
		c0,0.1-0.1,0.1-0.1,0.1c0,0-0.1,0-0.1,0c-0.1,0-0.1,0-0.2,0s-0.1-0.1-0.1-0.1c0,0,0-0.1,0-0.2C38.2,42.4,38.2,42.3,38.2,42.2z"/>
	<path class="st5" d="M42.6,42.7c-0.2,0-0.3,0-0.4-0.1c-0.1-0.1-0.2-0.1-0.3-0.2c-0.1-0.1-0.1-0.2-0.2-0.3s-0.1-0.2-0.1-0.4
		c0-0.1,0-0.2,0-0.3c0-0.1,0-0.2,0.1-0.3c0-0.1,0.1-0.2,0.1-0.3c0.1-0.1,0.1-0.2,0.2-0.2c0.1-0.1,0.2-0.1,0.2-0.2
		c0.1,0,0.2-0.1,0.3-0.1c0.1,0,0.2,0,0.3,0c0.1,0,0.2,0.1,0.2,0.1c0.1,0.1,0.1,0.1,0.1,0.2c0,0.1,0,0.1,0,0.2c0,0.1,0,0.1,0,0.2
		c0,0.1,0,0.1-0.1,0.1c0,0-0.1,0.1-0.1,0.1c0,0-0.1,0-0.1,0c-0.1,0-0.1,0-0.2-0.1c0,0,0-0.1,0-0.2c0,0,0-0.1,0-0.1c0,0,0-0.1,0-0.1
		c0,0,0-0.1,0-0.1s0,0-0.1,0c-0.1,0-0.1,0-0.2,0c0,0-0.1,0.1-0.1,0.1c0,0.1-0.1,0.1-0.1,0.2c0,0.1,0,0.1,0,0.2c0,0.1,0,0.1,0,0.2
		c0,0.1,0,0.1,0,0.1c0,0.1,0,0.1,0,0.2c0,0.1,0,0.1,0.1,0.2c0,0.1,0.1,0.1,0.1,0.1c0.1,0,0.1,0.1,0.2,0.1s0.2,0,0.3-0.1
		c0.1,0,0.2-0.1,0.3-0.2c0.1-0.1,0.2-0.2,0.3-0.2c0.1-0.1,0.2-0.2,0.2-0.2l0.2,0.3c-0.1,0.2-0.2,0.3-0.4,0.5
		c-0.1,0.1-0.1,0.1-0.2,0.2c-0.1,0.1-0.1,0.1-0.2,0.2c-0.1,0-0.2,0.1-0.2,0.1C42.8,42.7,42.7,42.7,42.6,42.7z"/>
	<path class="st5" d="M45.1,40.9c0,0.1,0.1,0.2,0.1,0.3c0,0.1,0,0.2,0,0.3c0,0.1,0,0.2,0,0.3c0,0.1-0.1,0.2-0.1,0.3
		c0,0.1-0.1,0.2-0.2,0.3c-0.1,0.1-0.1,0.2-0.2,0.2s-0.2,0.1-0.2,0.1s-0.2,0.1-0.3,0.1c-0.1,0-0.3,0-0.4-0.1
		c-0.1-0.1-0.2-0.1-0.2-0.2c-0.1-0.1-0.1-0.2-0.1-0.3s0-0.3,0-0.4c0-0.2,0-0.3,0.1-0.5c0.1-0.2,0.1-0.3,0.2-0.4
		c0.1-0.1,0.2-0.2,0.4-0.3s0.3-0.1,0.5-0.1c0.2,0,0.3,0,0.4,0.1c0.1,0,0.3,0.1,0.4,0.2c0.1,0.1,0.2,0.2,0.3,0.3
		c0.1,0.1,0.2,0.2,0.3,0.3l0,0.3c0-0.1-0.1-0.1-0.2-0.2c-0.1-0.1-0.2-0.1-0.2-0.2c-0.1-0.1-0.2-0.1-0.2-0.2
		C45.3,41,45.2,40.9,45.1,40.9L45.1,40.9z M44.4,42.3c0.1,0,0.1,0,0.2-0.1c0.1-0.1,0.1-0.1,0.1-0.2c0-0.1,0.1-0.2,0.1-0.3
		c0-0.1,0-0.2,0-0.3c0-0.1,0-0.1,0-0.2c0-0.1,0-0.1-0.1-0.2s-0.1-0.1-0.1-0.1c0,0-0.1,0-0.1,0c-0.1,0-0.1,0-0.2,0.1
		c-0.1,0.1-0.1,0.1-0.2,0.2c0,0.1-0.1,0.2-0.1,0.3s0,0.2,0,0.3c0,0.1,0,0.1,0,0.2c0,0.1,0,0.1,0.1,0.2c0,0.1,0.1,0.1,0.1,0.1
		C44.3,42.3,44.3,42.3,44.4,42.3z"/>
	<path class="st5" d="M45.8,42.2c0-0.1,0-0.2,0-0.4s0-0.3,0.1-0.4c0-0.1,0-0.3,0.1-0.4c0-0.1,0-0.2,0.1-0.3c0-0.1,0.1-0.1,0.1-0.2
		c0.1-0.1,0.1-0.1,0.2-0.1c0.1,0,0.2,0,0.2,0.1c0,0.1,0.1,0.1,0.1,0.2c0,0,0,0.1,0,0.1c0,0,0,0.1,0,0.1c0,0.1,0,0.1,0,0.2
		c0,0.1,0,0.1,0,0.2c0,0,0,0.1,0,0.1c0,0,0,0.1,0,0.1h0.1c0,0,0,0,0-0.1c0,0,0-0.1,0.1-0.1c0-0.1,0.1-0.1,0.1-0.2
		c0-0.1,0.1-0.1,0.1-0.2c0-0.1,0.1-0.1,0.1-0.1c0,0,0-0.1,0.1-0.1c0.1-0.1,0.1-0.2,0.2-0.2c0.1,0,0.1-0.1,0.2-0.1s0.2,0,0.2,0.1
		c0,0.1,0.1,0.2,0.1,0.3c0,0,0,0,0,0.1s0,0.1,0,0.2c0,0.1,0,0.1,0,0.2c0,0.1,0,0.1,0,0.2c0,0.1,0,0.1,0,0.2c0,0.1,0,0.1,0,0.2
		c0,0.1,0,0.2,0,0.2c0,0.1,0.1,0.1,0.1,0.1c0,0,0.1,0,0.1,0c0,0,0.1,0,0.1-0.1s0.1-0.1,0.1-0.1c0,0,0.1-0.1,0.1-0.1
		c0.1-0.1,0.2-0.2,0.3-0.3l0,0.6l-0.1,0.1c-0.1,0.1-0.1,0.1-0.2,0.2c-0.1,0.1-0.1,0.1-0.2,0.1c-0.1,0-0.2,0.1-0.2,0.1
		c-0.1,0-0.2,0-0.3,0c-0.1,0-0.2-0.1-0.2-0.2c-0.1-0.1-0.1-0.3-0.1-0.6c0-0.1,0-0.2,0-0.3c0-0.1,0-0.2,0.1-0.4h0l-0.6,1.3
		c0,0.1-0.1,0.1-0.1,0.1c0,0-0.1,0-0.1,0c-0.1,0-0.1,0-0.2,0c0,0-0.1-0.1-0.1-0.1c0,0,0-0.1,0-0.2C45.8,42.4,45.8,42.3,45.8,42.2z"
		/>
	<path class="st5" d="M50.2,42.7c-0.2,0-0.3,0-0.4-0.1c-0.1-0.1-0.2-0.1-0.3-0.2c-0.1-0.1-0.1-0.2-0.2-0.3c0-0.1-0.1-0.2-0.1-0.4
		c0-0.1,0-0.2,0-0.3c0-0.1,0-0.2,0.1-0.3c0-0.1,0.1-0.2,0.1-0.3c0.1-0.1,0.1-0.2,0.2-0.2c0.1-0.1,0.2-0.1,0.2-0.2
		c0.1,0,0.2-0.1,0.3-0.1c0.1,0,0.2,0,0.2,0c0.1,0,0.2,0.1,0.2,0.1c0.1,0.1,0.1,0.1,0.1,0.2c0,0.1,0.1,0.2,0.1,0.2
		c0,0.1,0,0.2-0.1,0.3c-0.1,0.1-0.1,0.2-0.2,0.3c-0.1,0.1-0.2,0.2-0.3,0.2c-0.1,0.1-0.2,0.1-0.4,0.2c0,0,0,0.1,0.1,0.1
		c0,0,0,0.1,0.1,0.1c0,0,0.1,0,0.1,0c0,0,0.1,0,0.1,0c0.1,0,0.2,0,0.3-0.1c0.1,0,0.2-0.1,0.3-0.2c0.1-0.1,0.2-0.1,0.3-0.2
		c0.1-0.1,0.2-0.1,0.2-0.2l0.3,0.3c-0.1,0.2-0.3,0.3-0.5,0.4c-0.1,0.1-0.1,0.1-0.2,0.1c-0.1,0-0.2,0.1-0.2,0.1
		c-0.1,0-0.2,0.1-0.3,0.1C50.4,42.7,50.3,42.7,50.2,42.7z M49.9,41.6c0.1,0,0.1,0,0.2,0c0.1,0,0.1-0.1,0.2-0.1
		c0.1,0,0.1-0.1,0.2-0.2c0-0.1,0.1-0.1,0.1-0.2c0-0.1,0-0.1,0-0.2c0,0-0.1-0.1-0.1-0.1c-0.1,0-0.1,0-0.2,0c-0.1,0-0.1,0.1-0.1,0.1
		c0,0-0.1,0.1-0.1,0.1c0,0.1,0,0.1,0,0.2s0,0.1,0,0.2C49.9,41.5,49.9,41.6,49.9,41.6z"/>
	<path class="st5" d="M51.3,42.2c0-0.1,0-0.2,0-0.4c0-0.1,0-0.3,0.1-0.4c0-0.1,0-0.3,0.1-0.4c0-0.1,0-0.2,0.1-0.3
		c0-0.1,0.1-0.1,0.1-0.2c0.1-0.1,0.1-0.1,0.2-0.1c0.1,0,0.2,0,0.2,0.1c0,0.1,0.1,0.1,0.1,0.2c0,0,0,0.1,0,0.1c0,0,0,0.1,0,0.1
		c0,0.1,0,0.1,0,0.2c0,0.1,0,0.1,0,0.2c0,0,0,0.1,0,0.1c0,0,0,0.1,0,0.1H52c0,0,0,0,0-0.1c0,0,0-0.1,0.1-0.1c0-0.1,0.1-0.1,0.1-0.2
		c0-0.1,0.1-0.1,0.1-0.2c0-0.1,0.1-0.1,0.1-0.1s0-0.1,0.1-0.1c0.1-0.1,0.1-0.2,0.2-0.2c0.1,0,0.1-0.1,0.2-0.1s0.2,0,0.2,0.1
		c0,0.1,0.1,0.2,0.1,0.3c0,0,0,0,0,0.1s0,0.1,0,0.2c0,0.1,0,0.1,0,0.2c0,0.1,0,0.1,0,0.2c0,0.1,0,0.1,0,0.2c0,0.1,0,0.1,0,0.2
		c0,0.1,0,0.2,0,0.2c0,0.1,0.1,0.1,0.1,0.1c0,0,0.1,0,0.1,0c0,0,0.1,0,0.1-0.1s0.1-0.1,0.1-0.1c0,0,0.1-0.1,0.1-0.1
		c0.1-0.1,0.2-0.2,0.3-0.3l0,0.6l-0.1,0.1c-0.1,0.1-0.1,0.1-0.2,0.2c-0.1,0.1-0.1,0.1-0.2,0.1c-0.1,0-0.2,0.1-0.2,0.1
		c-0.1,0-0.2,0-0.3,0c-0.1,0-0.2-0.1-0.2-0.2c-0.1-0.1-0.1-0.3-0.1-0.6c0-0.1,0-0.2,0-0.3c0-0.1,0-0.2,0.1-0.4h0l-0.6,1.3
		c0,0.1-0.1,0.1-0.1,0.1c0,0-0.1,0-0.1,0c-0.1,0-0.1,0-0.2,0c0,0-0.1-0.1-0.1-0.1c0,0,0-0.1,0-0.2C51.3,42.4,51.3,42.3,51.3,42.2z"
		/>
	<path class="st5" d="M53.3,42.7c0,0,0-0.1,0-0.1s0-0.1,0-0.2c0-0.1,0-0.2,0-0.3c0-0.1,0-0.2,0.1-0.3c0-0.1,0-0.2,0.1-0.4
		c0-0.1,0.1-0.2,0.1-0.3c0-0.1,0.1-0.2,0.1-0.3c0-0.1,0.1-0.1,0.1-0.2c0,0,0.1-0.1,0.1-0.1c0,0,0.1,0,0.1,0c0,0,0.1,0,0.1,0
		c0,0,0.1,0,0.1,0c0.1,0,0.1,0,0.1,0.1c0,0,0,0.1,0,0.1c0,0,0,0.1,0,0.1s0,0.1,0,0.1c0,0.1,0,0.1,0,0.1c0,0,0,0.1,0,0.1L54,41.4
		c0.1,0,0.2,0,0.3,0c0.1,0,0.2,0,0.3,0c0.1,0,0.2,0,0.3-0.1c0.1,0,0.3-0.1,0.5-0.2v0.5c-0.1,0.1-0.2,0.1-0.3,0.1
		c-0.1,0-0.2,0.1-0.3,0.1c-0.1,0-0.2,0-0.3,0c0,0.1,0.1,0.2,0.1,0.3c0,0.1,0.1,0.2,0.1,0.3c0,0.1,0,0.2,0,0.4c0,0,0,0.1,0,0.2
		c0,0.1,0,0.2,0,0.3c0,0.1,0,0.2-0.1,0.3c0,0.1-0.1,0.2-0.1,0.3c-0.1,0.1-0.1,0.2-0.2,0.2c-0.1,0.1-0.2,0.1-0.3,0.1s-0.2,0-0.3-0.1
		c-0.1-0.1-0.1-0.2-0.2-0.3c-0.1-0.1-0.1-0.3-0.1-0.5C53.3,43.2,53.3,43,53.3,42.7z M53.8,39.7c0,0,0-0.1,0-0.1c0,0,0-0.1,0.1-0.1
		c0,0,0.1-0.1,0.2-0.1c0.1,0,0.1,0,0.2,0c0.1,0,0.1,0,0.2,0s0.1,0,0.1,0.1c0,0,0.1,0.1,0.1,0.1c0,0,0,0.1,0,0.2c0,0.1,0,0.1,0,0.2
		c0,0.1,0,0.1-0.1,0.1c0,0-0.1,0.1-0.2,0.1c-0.1,0-0.1,0-0.2,0c-0.1,0-0.2,0-0.3-0.1C53.8,39.9,53.8,39.8,53.8,39.7z M54,41.6
		c0,0.2-0.1,0.5-0.1,0.8c0,0.3,0,0.5,0,0.8c0,0.1,0,0.2,0,0.2c0,0.1,0,0.1,0,0.1c0,0,0,0.1,0.1,0.1s0,0,0,0c0.1,0,0.1,0,0.1-0.1
		c0-0.1,0.1-0.1,0.1-0.2c0-0.1,0-0.2,0-0.3c0-0.1,0-0.2,0-0.3c0,0,0-0.1,0-0.2c0-0.1,0-0.1,0-0.2c0-0.1,0-0.1,0-0.2
		c0-0.1,0-0.1,0-0.2C54.1,41.9,54,41.8,54,41.6z"/>
	<path class="st5" d="M57.1,40.5c0,0,0,0.1,0,0.2c0,0.1,0,0.2,0,0.2c0,0.1,0,0.2-0.1,0.3c0,0.1,0,0.2-0.1,0.3c0,0.1,0,0.2,0,0.2
		c0,0.1,0,0.1,0,0.1c0,0,0,0.1,0,0.1s0,0.1,0,0.1c0,0,0,0.1,0,0.1c0,0,0,0,0.1,0c0,0,0.1,0,0.1,0c0.1,0,0.1,0,0.2-0.1
		c0.1,0,0.1-0.1,0.2-0.1c0.1,0,0.1-0.1,0.2-0.1c0.1,0,0.1-0.1,0.2-0.1s0.1-0.1,0.1-0.1c0,0.1,0,0.1,0,0.2c0,0,0,0.1,0,0.1
		c0,0,0,0.1,0,0.1c0,0,0,0.1,0,0.1c0,0-0.1,0.1-0.1,0.1s-0.1,0.1-0.2,0.1c-0.1,0-0.1,0.1-0.2,0.1c-0.1,0-0.1,0.1-0.2,0.1
		c-0.1,0-0.1,0.1-0.2,0.1c-0.1,0-0.1,0-0.2,0c-0.1,0-0.1,0-0.2,0c0,0-0.1-0.1-0.1-0.1c0,0-0.1-0.1-0.1-0.2c0-0.1,0-0.1-0.1-0.2
		c-0.1,0.1-0.1,0.2-0.2,0.2c-0.1,0.1-0.1,0.1-0.2,0.2c-0.1,0-0.1,0.1-0.2,0.1c-0.1,0-0.1,0-0.2,0c-0.1,0-0.1,0-0.2,0
		c0,0-0.1,0-0.1-0.1c0,0-0.1-0.1-0.1-0.2c0-0.1,0-0.2,0-0.3c0-0.1,0-0.3,0-0.5c0-0.2,0.1-0.4,0.1-0.7c0,0,0-0.1,0-0.1
		c0,0,0-0.1,0-0.1c0-0.1,0-0.1,0.1-0.2c0-0.1,0.1-0.1,0.1-0.1c0,0,0.1-0.1,0.1-0.1c0,0,0.1,0,0.1,0c0.1,0,0.2,0,0.2,0
		c0,0,0.1,0,0.1,0.1c0,0.1,0,0.2,0,0.3c0,0.1,0,0.2-0.1,0.3c0,0.1,0,0.2-0.1,0.3c0,0.1,0,0.2,0,0.3s0,0.1,0,0.2c0,0.1,0,0.1,0,0.1
		c0,0,0,0.1,0,0.1c0,0,0,0.1,0,0.1s0,0,0,0.1c0,0,0,0,0.1,0c0,0,0.1,0,0.1,0c0,0,0.1,0,0.1-0.1c0,0,0.1-0.1,0.1-0.1
		c0-0.1,0-0.1,0.1-0.2l0.2-1.2c0,0,0-0.1,0.1-0.1c0.1,0,0.1,0,0.2,0c0.1,0,0.2,0,0.2,0C57,40.5,57.1,40.5,57.1,40.5z"/>
	<path class="st5" d="M57.6,42.2c0-0.1,0-0.2,0-0.4s0-0.3,0.1-0.4c0-0.1,0-0.3,0.1-0.4c0-0.1,0-0.2,0.1-0.3c0-0.1,0.1-0.1,0.1-0.2
		c0.1-0.1,0.1-0.1,0.2-0.1c0.1,0,0.2,0,0.2,0.1c0,0.1,0.1,0.1,0.1,0.2c0,0,0,0.1,0,0.1c0,0,0,0.1,0,0.1c0,0.1,0,0.1,0,0.2
		c0,0.1,0,0.1,0,0.2c0,0,0,0.1,0,0.1c0,0,0,0.1,0,0.1h0.1c0,0,0,0,0-0.1c0,0,0-0.1,0.1-0.1c0-0.1,0.1-0.1,0.1-0.2
		c0-0.1,0.1-0.1,0.1-0.2c0-0.1,0.1-0.1,0.1-0.1s0-0.1,0.1-0.1c0.1-0.1,0.1-0.2,0.2-0.2c0.1,0,0.1-0.1,0.2-0.1c0.1,0,0.2,0,0.2,0.1
		c0,0.1,0.1,0.2,0.1,0.3c0,0,0,0,0,0.1s0,0.1,0,0.2c0,0.1,0,0.1,0,0.2c0,0.1,0,0.1,0,0.2c0,0.1,0,0.1,0,0.2c0,0.1,0,0.1,0,0.2
		c0,0.1,0,0.2,0,0.2c0,0.1,0.1,0.1,0.1,0.1c0,0,0.1,0,0.1,0s0.1,0,0.1-0.1c0,0,0.1-0.1,0.1-0.1c0,0,0.1-0.1,0.1-0.1
		c0.1-0.1,0.2-0.2,0.3-0.3l0,0.6L60,42.3c-0.1,0.1-0.1,0.1-0.2,0.2c-0.1,0.1-0.1,0.1-0.2,0.1c-0.1,0-0.2,0.1-0.2,0.1
		c-0.1,0-0.2,0-0.3,0c-0.1,0-0.2-0.1-0.2-0.2c-0.1-0.1-0.1-0.3-0.1-0.6c0-0.1,0-0.2,0-0.3c0-0.1,0-0.2,0.1-0.4h0l-0.6,1.3
		c0,0.1-0.1,0.1-0.1,0.1c0,0-0.1,0-0.1,0c-0.1,0-0.1,0-0.2,0c0,0-0.1-0.1-0.1-0.1c0,0,0-0.1,0-0.2C57.6,42.4,57.6,42.3,57.6,42.2z"
		/>
	<path class="st5" d="M62.6,42.3c-0.1,0.1-0.2,0.2-0.3,0.2c0,0-0.1,0.1-0.2,0.1c-0.1,0-0.1,0.1-0.2,0.1c-0.1,0-0.1,0-0.2,0.1
		c0,0-0.1,0-0.1,0c0,0-0.1,0-0.1,0s-0.1,0-0.2-0.1c-0.1,0-0.1-0.1-0.2-0.1c-0.1-0.1-0.1-0.1-0.1-0.2c-0.1,0.1-0.1,0.1-0.2,0.2
		c-0.1,0.1-0.1,0.1-0.2,0.1c-0.1,0-0.1,0.1-0.2,0.1c-0.1,0-0.2,0-0.2,0c-0.1,0-0.2,0-0.3-0.1c-0.1,0-0.1-0.1-0.2-0.2
		c-0.1-0.1-0.1-0.2-0.1-0.3c0-0.1,0-0.2,0-0.3s0-0.2,0-0.3c0-0.1,0.1-0.2,0.1-0.3c0.1-0.1,0.1-0.2,0.2-0.3c0.1-0.1,0.2-0.2,0.2-0.2
		c0.1-0.1,0.2-0.1,0.3-0.2c0.1,0,0.2-0.1,0.3-0.1c0-0.2,0-0.4,0.1-0.6c0-0.2,0.1-0.4,0.1-0.6c0.1-0.2,0.1-0.4,0.2-0.5
		c0.1-0.2,0.2-0.3,0.2-0.4c0.1-0.1,0.2-0.2,0.3-0.3c0.1-0.1,0.2-0.1,0.3-0.1c0.1,0,0.1,0,0.2,0.1c0.1,0,0.1,0.1,0.1,0.2
		c0,0.1,0.1,0.1,0.1,0.2c0,0.1,0,0.2,0,0.3c0,0.1,0,0.1,0,0.2c0,0.2-0.1,0.4-0.1,0.7c-0.1,0.2-0.1,0.4-0.2,0.6
		c-0.1,0.2-0.2,0.4-0.2,0.6c-0.1,0.2-0.2,0.4-0.3,0.6c0,0,0,0.1,0,0.1c0,0,0,0.1,0,0.1c0,0,0,0.1,0,0.1c0,0,0,0.1,0,0.1
		c0,0,0,0.1,0,0.1c0,0,0,0.1,0,0.1c0,0,0,0.1,0.1,0.1c0,0,0.1,0,0.1,0s0.1,0,0.1,0s0.1,0,0.1-0.1c0,0,0.1,0,0.1-0.1
		c0,0,0.1-0.1,0.1-0.1c0.1-0.1,0.2-0.1,0.3-0.2L62.6,42.3z M60.9,40.9c-0.1,0.1-0.2,0.1-0.3,0.2c-0.1,0.1-0.2,0.2-0.2,0.3
		c-0.1,0.1-0.1,0.2-0.1,0.3c0,0.1,0,0.2,0,0.3c0,0,0,0.1,0,0.1s0,0.1,0,0.1c0,0,0,0,0.1,0.1c0,0,0.1,0,0.1,0c0,0,0.1,0,0.1,0
		c0,0,0.1,0,0.1-0.1c0,0,0.1-0.1,0.1-0.1c0,0,0-0.1,0.1-0.1c0-0.1,0.1-0.2,0.1-0.2c0,0,0-0.1,0-0.1s0-0.1,0-0.2c0-0.1,0-0.1,0-0.2
		s0-0.1,0-0.2C61,41,61,41,60.9,40.9C61,40.9,60.9,40.9,60.9,40.9z M62.1,39.1c0-0.1,0-0.2,0-0.3c0-0.1,0-0.2,0-0.2
		c0,0,0-0.1-0.1-0.1c-0.1,0-0.1,0-0.1,0.1c0,0.1-0.1,0.2-0.1,0.2c0,0.1-0.1,0.2-0.1,0.3c0,0.1,0,0.2-0.1,0.4s0,0.2,0,0.3
		c0,0.1,0,0.2,0,0.2c0,0.1,0,0.2,0,0.2c0,0.1,0,0.1,0,0.2c0,0.1,0,0.1,0,0.2c0,0,0,0.1,0,0.1v0c0.1-0.2,0.2-0.4,0.3-0.6
		c0-0.1,0.1-0.2,0.1-0.3c0-0.1,0.1-0.2,0.1-0.3c0-0.1,0.1-0.2,0.1-0.3C62.1,39.3,62.1,39.2,62.1,39.1z"/>
	<path class="st5" d="M64,42.2c-0.1,0.1-0.1,0.1-0.2,0.2c-0.1,0.1-0.2,0.1-0.3,0.2c-0.1,0.1-0.2,0.1-0.3,0.1c-0.1,0-0.2,0.1-0.3,0.1
		c-0.1,0-0.2,0-0.2,0c-0.1,0-0.1-0.1-0.1-0.1s-0.1-0.1-0.1-0.2c0-0.1,0-0.1,0-0.2c0-0.1,0-0.2,0-0.4c0-0.1,0.1-0.3,0.1-0.4
		s0.1-0.3,0.1-0.4c0-0.1,0.1-0.3,0.1-0.4c0,0,0-0.1,0.1-0.1s0.1-0.1,0.1-0.1c0,0,0.1,0,0.1,0c0,0,0.1,0,0.1,0c0.1,0,0.1,0,0.1,0
		c0,0,0,0.1,0,0.1c0,0,0,0.1,0,0.2c0,0.1,0,0.1-0.1,0.2c0,0.1-0.1,0.2-0.1,0.3c0,0.1-0.1,0.2-0.1,0.3c0,0.1,0,0.2-0.1,0.3
		c0,0.1,0,0.2,0,0.2c0,0.1,0,0.1,0,0.2c0,0,0.1,0.1,0.1,0.1c0.1,0,0.1,0,0.2-0.1c0.1,0,0.1-0.1,0.2-0.2c0.1-0.1,0.1-0.1,0.2-0.2
		c0.1-0.1,0.1-0.1,0.2-0.2L64,42.2L64,42.2L64,42.2z M62.9,39.7c0,0,0-0.1,0-0.1c0,0,0-0.1,0.1-0.1c0,0,0.1-0.1,0.2-0.1
		c0.1,0,0.1,0,0.2,0c0.1,0,0.1,0,0.2,0s0.1,0,0.1,0.1c0,0,0.1,0.1,0.1,0.1c0,0,0,0.1,0,0.2c0,0.1,0,0.1,0,0.2c0,0.1,0,0.1-0.1,0.1
		c0,0-0.1,0.1-0.2,0.1c-0.1,0-0.1,0-0.2,0c-0.1,0-0.2,0-0.3-0.1C62.9,39.9,62.9,39.8,62.9,39.7z"/>
	<path class="st5" d="M66.4,42.1c0,0.1-0.1,0.1-0.2,0.2c-0.1,0.1-0.1,0.1-0.2,0.2c-0.1,0.1-0.2,0.1-0.2,0.2c-0.1,0-0.2,0.1-0.3,0.1
		c-0.1,0-0.2,0-0.3-0.1c-0.1-0.1-0.1-0.2-0.2-0.3c0,0-0.1,0.1-0.1,0.1c-0.1,0-0.1,0.1-0.2,0.1c-0.1,0-0.1,0.1-0.2,0.1
		c-0.1,0-0.2,0-0.2,0c-0.1,0-0.2,0-0.2,0c-0.1,0-0.1-0.1-0.2-0.1c-0.1-0.1-0.1-0.1-0.1-0.2c0-0.1-0.1-0.2-0.1-0.3
		c0-0.1,0-0.2,0.1-0.4c0-0.1,0.1-0.2,0.1-0.4c0.1-0.1,0.1-0.2,0.2-0.3c0.1-0.1,0.2-0.2,0.3-0.3c0.1-0.1,0.2-0.2,0.3-0.2
		c0.1,0,0.2-0.1,0.3-0.1c0,0,0.1,0,0.1,0s0,0,0.1,0.1s0,0,0,0.1c0,0,0,0,0.1,0s0,0,0.1,0c0,0,0,0,0.1,0c0,0,0,0,0.1,0s0,0,0.1,0
		s0,0,0.1,0c0,0,0,0,0.1,0c0,0,0,0,0,0.1c0,0,0,0.1,0,0.1c0,0.1,0,0.2,0,0.3c0,0.1,0,0.2-0.1,0.3s0,0.2-0.1,0.3c0,0.1,0,0.2,0,0.3
		c0,0.1,0,0.1,0,0.2c0,0,0,0.1,0.1,0.1c0,0,0.1,0,0.1,0c0,0,0.1,0,0.1-0.1c0,0,0.1-0.1,0.1-0.1c0,0,0.1-0.1,0.1-0.1
		c0.1-0.1,0.2-0.2,0.2-0.3L66.4,42.1z M64.3,41.9c0,0,0,0.1,0,0.1c0,0,0,0.1,0,0.1c0,0,0,0.1,0.1,0.1s0.1,0,0.1,0
		c0.1,0,0.1,0,0.2-0.1c0.1-0.1,0.1-0.1,0.1-0.2c0-0.1,0.1-0.2,0.1-0.2c0-0.1,0-0.1,0-0.2l0.2-0.7c-0.1,0-0.1,0-0.2,0.1
		c-0.1,0-0.1,0.1-0.2,0.1c-0.1,0.1-0.1,0.1-0.2,0.2s-0.1,0.2-0.1,0.2c0,0.1-0.1,0.2-0.1,0.2C64.3,41.8,64.3,41.9,64.3,41.9z"/>
</g>
</svg>
