<?xml version="1.0" encoding="utf-8"?>
<!-- Generator: Adobe Illustrator 22.1.0, SVG Export Plug-In . SVG Version: 6.00 Build 0)  -->
<svg version="1.1" id="Layer_1" xmlns="http://www.w3.org/2000/svg" xmlns:xlink="http://www.w3.org/1999/xlink" x="0px" y="0px"
	 viewBox="0 0 200 100" style="enable-background:new 0 0 200 100;" xml:space="preserve">
<style type="text/css">
	.st0{fill:#FFFFFF;}
	.st1{fill:#E8163F;}
	.st2{fill:#379640;}
	.st3{fill:#070606;}
</style>
<g>
	<g>
		<path class="st0" d="M135.8,30c-3-3.6-10.9-11-22.2-2.4c-14.1,10.8,3.4,35.7,19.1,24"/>
	</g>
	<g>
		<path class="st1" d="M124.1,56c-9.4-0.1-16.9-9.1-17-18l0,0c0-4.2,1.7-8.4,5.7-11.4l0,0c4-3.1,7.8-4,11.1-4l0,0
			c6.5,0,10.8,4.1,12.9,6.6l0,0c0.5,0.6,0.4,1.4-0.2,1.9l0,0c-0.6,0.5-1.4,0.4-1.9-0.2l0,0c-1.8-2.3-5.5-6.4-10.6-6.4l0,0
			c-2.7,0-6.6,0.9-10.2,3.7l0,0c-3.3,2.6-4.2,6.3-4.2,9.8l0,0c0,3.7,0.9,7.6,3.5,10.6l0,0c2.7,2.9,6.7,5.6,10.6,5.6l0,0
			c2.5,0,5.4-1.6,8.1-3.6l0,0c0.6-0.4,1.4-0.3,1.8,0.3l0,0c0.4,0.6,0.1,1.2-0.5,1.6l0,0C130.2,54.7,127.2,56,124.1,56L124.1,56
			C124.2,56,124.1,56,124.1,56L124.1,56z"/>
	</g>
	<g>
		<path class="st1" d="M127.3,38c0,0,2.9-3.3-2.2-6.9c0,0,5.8,0.1,6,2.9C131.1,34.8,130.3,37.6,127.3,38"/>
	</g>
	<g>
		<path class="st1" d="M134.6,49.9c-0.9-1.5-3-3.6-3-3.6c2.2,0,3.7,0,4.6-0.3c1.4-0.5,1.8,1.1,1.7,2.6c-0.1,2.8-1.1,4.3-2.2,4.5
			C135.7,53.2,135.8,52,134.6,49.9z"/>
	</g>
	<g>
		<path class="st1" d="M138.7,37.6c-0.2-0.8,1.7,2.8,4.4,4.2c2.6,1.4,2.9,2.5,2.9,2.5c-0.1,0.1-1,0.8-3.4,0.4
			c-1.6-0.2-4.4,0.7-4.9,0.3C137.6,45,139.4,41.2,138.7,37.6"/>
	</g>
	<g>
		<path class="st1" d="M126.7,39.7c0,0,3.4,2.1,2.8,4.9c-0.6,2.8-3.1,4.6-6.4,4.3C123,48.8,128.4,44.5,126.7,39.7"/>
	</g>
	<g>
		<path class="st0" d="M96.1,63.8C72.6,62,76.4,25.6,97.8,26.9c17,1.1,18.4,14.1,18.2,19.7l-1.7,4.9L96.1,63.8z"/>
	</g>
	<g>
		<path class="st1" d="M96,65.4c-6-0.4-10.3-3-13.2-6.7l0,0c-2.9-3.7-4.5-8.1-4.5-12.8l0,0c0-5.1,1.6-10.2,4.7-14.1l0,0
			c3.5-3.9,7.6-6,13.7-6.4l0,0c0.4,0,0.8,0,1.2,0l0,0c8.5,0.5,13.7,3.8,16.6,8.1l0,0c2.8,4.3,3.1,9.1,3.1,12.3l0,0
			c0,0.3,0,0.6,0,0.9l0,0c0,1-0.6,1.8-1.6,1.7l0,0c-1,0-1.5-0.9-1.5-1.9l0,0c0-0.2,0-0.5,0-0.8l0,0c0-2.8,0.3-7.4-2-10.8l0,0
			c-2.3-3.4-6.6-6.8-14.8-7l0,0c-0.3,0-0.7,0-1,0l0,0c-4.8,0-9.6,2.8-12.2,6l0,0c-2.5,3.2-3.7,7.8-3.7,12.2l0,0c0,4,1.7,7.8,4,10.8
			l0,0c2.3,2.9,6.3,4.7,11.4,5.1l0,0c1,0.1,1.7,0.9,1.7,1.9l0,0C97.8,64.8,97,65.3,96,65.4L96,65.4C96.1,65.4,96,65.4,96,65.4
			L96,65.4z"/>
	</g>
	<g>
		<path class="st1" d="M101.9,46.6c0,0,5.2-0.7,3.5-8c0,0,3.7,1.3,3.1,7.4C108.5,46,105,48.7,101.9,46.6"/>
	</g>
	<g>
		<path class="st1" d="M93.6,69.5c1.2,0.8,5.4,0,7.7-2.4c1.3-1.3,4-5.1,2.4-5.8c-1.1-0.5-2.4-1.7-4.4-3.4c0,0,0.7,2.1-0.1,5.6
			C98.5,67.1,93.6,69.5,93.6,69.5z"/>
	</g>
	<g>
		<path class="st1" d="M112.6,55.7c0.5-0.8-0.6,3.9,0.7,7.3c1.3,3.3,0.7,4.6,0.7,4.6c-0.2,0-1.2-0.3-3.4-2.4
			c-1.5-1.4-4.6-2.9-4.7-3.6C105.8,61.6,110.5,59.6,112.6,55.7"/>
	</g>
	<g>
		<path class="st1" d="M113,53.3c1.1,2.9,7.9-5.9,7.9-5.9s-5,4.2-8.8,0.9c0,0-2-1.9-0.9,0.5C112.4,51.2,112.9,53.1,113,53.3"/>
	</g>
	<g>
		<path class="st1" d="M100.1,48.1c0,0,1.4,4.6-1.3,6.7c-2.7,2.1-6.4,1.7-9.2-1.2C89.5,53.6,97.8,53.9,100.1,48.1"/>
	</g>
	<g>
		<g>
			<path class="st2" d="M112.1,24.2c-0.4-0.3-0.5-0.8-0.3-1.2l0,0c0,0,0.1-0.2,0.3-0.6l0,0c0.2-0.4,0.5-0.6,0.7-1.3l0,0
				c0.5-1.3,1.3-3.6,1.3-5.6l0,0c0-2.5-0.8-5.3-3.5-7.6l0,0c-2.7-2.3-7.9-4.4-15.8-4.6l0,0c-0.5,0-0.9-0.5-0.8-1l0,0
				c0.1-0.5,0.5-0.9,1-0.8l0,0c8.3,0.8,13.4,2.9,16.5,5.5l0,0c3.1,2.6,4.2,5.9,4.1,8.7l0,0c0,4.5-2.3,8.1-2.3,8.1l0,0l0,0
				c-0.2,0.3-0.5,0.4-0.8,0.4l0,0C112.4,24.3,112.3,24.3,112.1,24.2L112.1,24.2z"/>
		</g>
		<g>
			<path class="st2" d="M108.4,25.9c-5.9-0.8-9.5-3.2-11.6-6.1l0,0c-2.1-2.9-2.6-6.3-2.6-9.1l0,0c0-3.2,0.7-5.6,0.7-5.6l0,0
				C95,4.5,95.5,4.3,96,4.4l0,0c0.5,0.1,0.7,0.6,0.6,1.1l0,0c0,0-0.4,0.5-0.6,1.4l0,0c-0.2,0.9-0.3,2.2-0.3,3.7l0,0
				c0,2.5,0.5,5.8,2.3,8.3l0,0c1.8,2.5,5.1,4.4,10.6,5.1l0,0c0.5,0.1,0.8,0.5,0.8,1l0,0C109.3,25.5,109,25.8,108.4,25.9L108.4,25.9
				C108.5,25.9,108.4,25.9,108.4,25.9L108.4,25.9z"/>
		</g>
		<g>
			<path class="st2" d="M108.5,19.3C107.1,8.9,97.5,3.7,95.4,3l0,0c-0.5-0.2-1-0.4-0.8-0.9l0,0c0.2-0.5,0.7-0.7,1.1-0.5l0,0
				c2.6,1,12.7,6.6,14.3,18l0,0c0.1,0.5-0.3,0.9-0.8,1l0,0h-0.1l0,0C108.7,20.6,108.6,19.8,108.5,19.3L108.5,19.3z"/>
		</g>
	</g>
	<g>
		<path class="st1" d="M137.4,36.5c2.3,1.2,1.9-8.5,1.9-8.5s-1.1,5.9-5.2,5.9c0,0-2.3-0.1-0.3,0.8C135.9,35.5,137.2,36.4,137.4,36.5
			"/>
	</g>
</g>
<g>
	<path class="st3" d="M195.7,70.5c-1.1-1.6-6.4,0.4-10,1.7c-3.6,1.3-21,6.2-21,6.2c-1-1.1-3.8-3.9-6.9-3.2c-3.1,0.7,0.1,6.4,0.1,6.4
		c0.8,3.3,1.7,8.3,0.6,11.4c-1.1,3.1-3.7-7.8-5.1-14.4c-1.5-7.2-5.3-0.4-6.2,0.9c-3.8,5.5-12.5,14.2-12.5,14.2c-3,3.1-4.8-0.5-3.4-6
		c1.4-5.5,4-13.5,6-18.6c0,0,22.8-2.8,27.6-3.4c4.9-0.6,15.5-0.7,17.2-1.9c1.7-1.2,3.3-3.8-2.7-2.9c-6,0.9-37.8,4.2-40.6,4.5
		c0,0,1.4-4.8,3-8.1c1.6-3.4,1.9-4.5-0.5-4.4s-2.7,2.5-3.3,4.6c-0.6,2-3,8.5-3,8.5s-9.4,1.8-13.8,3s-5.4,0.1-3.9,2.6s4,0.6,7.9-0.4
		c3.8-1,8.7-1.8,8.7-1.8s-2,4.8-3.4,9.3c-2-0.2-2.4,0.4-3.1,1.1c-0.2,0.2-6.7,2.5-6.4,1.5c0.7-3.3-0.2-5.7-2.2-4.9
		c-2,0.7-1,4.8-1.5,6.4s-6.6,10.4-7.4,11.6c0,0-0.8-4.8,0.7-7.5s3.7-5.7,0.5-6.5c-2-0.5-2.6,2.6-3.2,3.8c-0.6,1.3-8.7,10.5-9.1,8.8
		s3.8-8.1,4.7-8.7c0.9-0.6,2.6-3.4,1.3-4.2c0,0-1.3-1.8-4.5,2.4c-2.1,2.8-8,10-12.5,11.1c0,0,0.2-4.1,2-7.1c1.8-3.1,4-8.3,1.3-8.3
		c-3.8-0.1-11.2,7-11.2,7s5.4-8.3,1.6-8.4S69.1,81,63.9,85.3c0,0,9.2-11.2,11.2-14.9c2-3.8,2.7-6-3.9-4.5s-20,6.5-32.1,11.1
		c0,0-19.3,8-24.9,8.1c0,0-5.2,0.2-6.2-0.1c-1-0.3-4.7-0.5-2.3,1.9c2.5,2.5,8.3,2.3,17.5-0.6s45-17.4,48.6-17.3c0,0-2.8,4.8-6.1,8.8
		c-3.2,4-9.7,12.4-11.4,14.9s-3.3,2.9-2,4.6s1.5,2.1,7.4-3.9s15.8-10.7,17.4-11.7S68.6,93.6,71,96.2c2.4,2.7,10-9.1,16-12
		c0,0-3,7.5-2.6,10.4c0.4,2.8,2.3,5.7,10.4-1.9c0,0,0.1,6.6,3.7,5.2c3.5-1.5,7.1-5.4,8.1-7c0,0-1,8.2,2.6,8c2.6-0.2,4.4-5.8,7.7-9.9
		c0,0-1.9,10.2,1.9,9.5s-1.3-10.4,3.5-13.8c3-2.1,5.7-1.7,6.8-1.8c-0.8,3-1.4,5.7-1.6,7.9c-0.6,6.6,4.1,13,12,3.1l2.6-3.5
		c0,0-1.9,8,2.7,8.7c4.5,0.7,7.4-11.2,7.4-11.2c1.3,5.2,4.1,11.4,6.1,11.2c2-0.2,3.5-9.4,3.5-9.4c1.8,3.2,4.6,7.5,7.8,6.8
		S165.8,81,165.8,81c3.4-0.7,21.3-5.9,25.4-6.9C195.3,72.9,196.7,72.1,195.7,70.5z M145,92.3c0.2-4.9,5.3-10.1,5.3-10.1
		C150.9,86.3,144.9,97.1,145,92.3z M167.9,92.2c-1.9,0.2-5.4-6.7-7-10.9l2.6-0.3C163.4,81.1,168.8,92.1,167.9,92.2z"/>
</g>
</svg>
