<?xml version="1.0" encoding="utf-8"?>
<!-- Generator: Adobe Illustrator 22.1.0, SVG Export Plug-In . SVG Version: 6.00 Build 0)  -->
<svg version="1.1" id="Layer_1" xmlns="http://www.w3.org/2000/svg" xmlns:xlink="http://www.w3.org/1999/xlink" x="0px" y="0px"
	 viewBox="0 0 600 400" style="enable-background:new 0 0 600 400;" xml:space="preserve">
<style type="text/css">
	.st0{fill:#FF8D00;}
	.st1{fill:#E8163F;}
	.st2{fill:#379640;}
</style>
<g>
	<g>
		<path class="st0" d="M442.3,168.3c-16.5-20.3-61-61.2-123.5-13.4c-78.6,60.3,18.8,199.1,106.5,133.9"/>
	</g>
	<g>
		<path class="st1" d="M377.3,313.2c-52.5-0.5-94.4-50.7-94.7-100.5l0,0c0-23.2,9.6-46.6,31.9-63.6l0,0
			c22.3-17.2,43.3-22.5,61.8-22.5l0,0c36,0.2,60.5,23,71.9,37l0,0c2.5,3.1,2.2,7.8-1.1,10.3l0,0c-3.1,2.5-7.8,2-10.3-1.1l0,0
			c-10.3-12.7-30.4-35.9-59.2-35.9l0,0c-15,0-36.6,5.3-57.1,20.8l0,0C302,172,297.3,193,297.3,212.4l0,0c0,20.7,5.1,42.6,19.7,58.9
			l0,0c14.9,16.3,37.7,31.2,58.9,31.2l0,0c13.9,0,30.1-8.7,45.1-19.7l0,0c3.3-2.4,7.8-1.8,10.3,1.4l0,0c2.4,3.3,0.4,6.5-2.9,8.9l0,0
			C411.1,306,394.5,313.2,377.3,313.2L377.3,313.2L377.3,313.2L377.3,313.2z"/>
	</g>
	<g>
		<path class="st1" d="M394.7,212.5c0,0,16.1-18.1-12.1-38.4c0,0,32.2,0.5,33.3,16.3C416,194.9,411.9,210.3,394.7,212.5"/>
	</g>
	<g>
		<path class="st1" d="M435.6,279.2c-5.1-8.5-16.8-19.9-16.8-19.9c12.3-0.2,20.5,0.2,25.7-1.6c7.8-2.5,9.8,6.2,9.4,14.7
			c-0.7,15.8-6,24.3-12.5,25C441.4,297.5,442.3,290.6,435.6,279.2z"/>
	</g>
	<g>
		<path class="st1" d="M458.2,210.3c-0.9-4.3,9.8,15.6,24.5,23.4c14.7,7.8,16.3,14.1,16.3,14.1c-0.7,0.7-5.4,4.2-19.2,2.2
			c-8.9-1.3-24.6,3.8-27.5,1.8C452.4,251.8,462.6,230.4,458.2,210.3"/>
	</g>
	<g>
		<path class="st1" d="M391.2,221.9c0,0,18.8,11.6,15.8,27.2c-3.3,15.8-17.2,25.7-35.9,23.9C371.1,273,401,249.1,391.2,221.9"/>
	</g>
	<g>
		<path class="st0" d="M221.1,356.7c-131.3-10.1-110-213,9.2-205.6c94.6,6,102.5,78.4,101.6,109.8l-9.4,27.4L221.1,356.7z"/>
	</g>
	<g>
		<path class="st1" d="M220.2,365.2c-33.3-2.5-57.2-17-73.5-37.5l0,0c-16.3-20.5-25.4-45.1-25.4-71.2l0,0c0-28.3,8.9-56.7,26.3-78.8
			l0,0c19.6-21.9,42.4-33.5,76.3-35.5l0,0c2.4,0,4.7,0,6.9,0.2l0,0c47.5,2.7,76.6,21.2,92.4,45.1l0,0c15.8,23.9,17.2,50.7,17.2,68.5
			l0,0c0,1.8,0,3.4,0,5.1l0,0c-0.2,5.6-3.4,9.8-8.9,9.6l0,0c-5.4-0.2-8.5-4.9-8.3-10.3l0,0c0-1.4,0-2.9,0-4.5l0,0
			c0-15.6,1.4-41.5-11.1-60.3l0,0c-12.7-18.7-37-37.9-82.6-39.1l0,0c-2-0.2-3.8-0.2-5.8-0.2l0,0c-26.4,0-53.4,15.9-67.8,33.7l0,0
			c-14.1,17.8-20.5,43.7-20.5,67.8l0,0c0,22.1,9.4,43.8,22.5,60.1l0,0c13,16.3,35.3,26.4,63.8,28.6l0,0c5.4,0.4,9.6,5.3,9.2,10.7
			l0,0c-0.4,5.3-4.7,7.8-10,7.8l0,0C220.8,365.2,220.6,365.2,220.2,365.2L220.2,365.2z"/>
	</g>
	<g>
		<path class="st1" d="M253.4,260.9c0,0,29-3.8,19.2-44.4c0,0,20.3,7.1,17.4,41.1C290,257.6,270.7,272.5,253.4,260.9"/>
	</g>
	<g>
		<path class="st1" d="M207,388.4c6.7,4.3,29.9,0.2,42.9-13.6c7.1-7.4,22.6-28.3,13.6-32.1c-6.2-2.5-13.4-9.2-24.6-18.8
			c0,0,3.8,12-0.4,31.3C234.5,374.8,207,388.4,207,388.4z"/>
	</g>
	<g>
		<path class="st1" d="M313,311.6c2.5-4.7-3.6,21.9,3.6,40.6s3.6,25.7,3.6,25.7c-1.3,0.2-6.9-1.8-19-13
			c-8.2-7.6-25.4-16.1-26.4-20.1C274.7,344.6,301,333.2,313,311.6"/>
	</g>
	<g>
		<path class="st1" d="M315,298.2c6.2,16.3,43.8-33.2,43.8-33.2s-27.7,23.7-48.9,5.3c0,0-11.2-10.5-4.9,2.9
			C311.5,286.6,314.6,297.1,315,298.2"/>
	</g>
	<g>
		<path class="st1" d="M242.9,269.2c0,0,8,25.4-7.2,37.1c-15.4,11.8-35.9,9.6-51.4-6.7C184.2,299.6,230.4,301.5,242.9,269.2"/>
	</g>
	<g>
		<g>
			<path class="st2" d="M310.1,135.7c-2.4-1.4-3.1-4.5-1.6-6.9l0,0c0,0,0.7-1.1,1.6-3.1l0,0c1.1-2,2.5-3.6,4-7.2l0,0
				c2.9-7.4,7.2-20.3,7.2-31l0,0c0-13.8-4.3-29.7-19.6-42.6l0,0c-15.2-12.9-44.2-24.3-88.2-25.5l0,0c-2.7-0.4-4.7-2.7-4.5-5.4l0,0
				c0.4-2.7,2.7-4.7,5.4-4.5l0,0c46,4.7,74.6,15.9,92.2,30.8l0,0C324.2,54.9,329.8,73,329.8,89l0,0c0,25-12.9,44.9-13,45.3l0,0l0,0
				c-0.9,1.4-2.5,2.4-4.2,2.4l0,0C311.9,136.4,311,136.1,310.1,135.7L310.1,135.7z"/>
		</g>
		<g>
			<path class="st2" d="M289.4,144.9c-32.6-4.3-53.1-17.6-64.7-34.1l0,0C213.1,94.3,210,75.5,210,60.1l0,0c0-17.8,4-31.2,4.2-31.3
				l0,0c0.7-2.7,3.6-4.2,6.2-3.4l0,0c2.7,0.7,4.2,3.6,3.4,6.2l0,0c0,0-2.4,2.9-3.3,8l0,0c-0.9,5.1-1.8,12.3-1.8,20.5l0,0
				c0,14.1,2.7,32.2,12.9,46.4l0,0c10,13.9,28.6,24.5,59.2,28.6l0,0c2.7,0.4,4.7,2.9,4.3,5.6l0,0c-0.4,2.5-2.5,4.3-4.9,4.3l0,0
				C289.8,145.1,289.6,145.1,289.4,144.9L289.4,144.9z"/>
		</g>
		<g>
			<path class="st2" d="M290.1,108.7c-7.8-58.1-61.2-87-73.4-91.1l0,0c-2.5-0.9-5.4-2.4-4.5-4.9l0,0c0.9-2.5,3.8-4,6.3-3.1l0,0
				c14.7,5.3,70.6,36.6,79.9,100.5l0,0c0.4,2.7-1.4,5.3-4.3,5.6l0,0c-0.2,0-0.5,0-0.7,0l0,0C291.2,116,290.5,111.2,290.1,108.7
				L290.1,108.7z"/>
		</g>
	</g>
	<g>
		<path class="st1" d="M451,204.4c12.9,6.9,10.9-47.5,10.9-47.5s-5.8,32.8-29.2,32.8c0,0-12.7-0.4-1.4,4.5
			C442.5,198.9,450.1,203.8,451,204.4"/>
	</g>
</g>
</svg>
