<?xml version="1.0" encoding="utf-8"?>
<!-- Generator: Adobe Illustrator 22.1.0, SVG Export Plug-In . SVG Version: 6.00 Build 0)  -->
<svg version="1.1" id="Layer_1" xmlns="http://www.w3.org/2000/svg" xmlns:xlink="http://www.w3.org/1999/xlink" x="0px" y="0px"
	 viewBox="0 0 600 400" style="enable-background:new 0 0 600 400;" xml:space="preserve">
<style type="text/css">
	.st0{fill:#E8163F;}
	.st1{fill:#379640;}
	.st2{fill:#FFFFFF;}
	.st3{fill:#FF8D00;}
</style>
<g>
	<g>
		<path d="M408.5,104.1c-9.1-11.2-33.7-33.8-68.2-7.4c-43.4,33.3,10.4,109.9,58.8,73.9"/>
	</g>
	<g>
		<path class="st0" d="M372.6,184.1c-29-0.3-52.1-28-52.3-55.5l0,0c0-12.8,5.3-25.7,17.6-35.1l0,0c12.3-9.5,23.9-12.4,34.1-12.4l0,0
			c19.9,0.1,33.4,12.7,39.7,20.4l0,0c1.4,1.7,1.2,4.3-0.6,5.7l0,0c-1.7,1.4-4.3,1.1-5.7-0.6l0,0c-5.7-7-16.8-19.8-32.7-19.8l0,0
			c-8.3,0-20.2,2.9-31.5,11.5l0,0c-10.2,7.9-12.8,19.5-12.8,30.2l0,0c0,11.4,2.8,23.5,10.9,32.5l0,0c8.2,9,20.8,17.2,32.5,17.2l0,0
			c7.7,0,16.6-4.8,24.9-10.9l0,0c1.8-1.3,4.3-1,5.7,0.8l0,0c1.3,1.8,0.2,3.6-1.6,4.9l0,0C391.3,180.1,382.1,184.1,372.6,184.1
			L372.6,184.1L372.6,184.1L372.6,184.1z"/>
	</g>
	<g>
		<path class="st0" d="M382.2,128.5c0,0,8.9-10-6.7-21.2c0,0,17.8,0.3,18.4,9C394,118.8,391.7,127.3,382.2,128.5"/>
	</g>
	<g>
		<path class="st0" d="M404.8,165.3c-2.8-4.7-9.3-11-9.3-11c6.8-0.1,11.3,0.1,14.2-0.9c4.3-1.4,5.4,3.4,5.2,8.1
			c-0.4,8.7-3.3,13.4-6.9,13.8C408,175.4,408.5,171.6,404.8,165.3z"/>
	</g>
	<g>
		<path class="st0" d="M417.3,127.3c-0.5-2.4,5.4,8.6,13.5,12.9c8.1,4.3,9,7.8,9,7.8c-0.4,0.4-3,2.3-10.6,1.2
			c-4.9-0.7-13.6,2.1-15.2,1C414.1,150.2,419.7,138.4,417.3,127.3"/>
	</g>
	<g>
		<path class="st0" d="M380.3,133.7c0,0,10.4,6.4,8.7,15c-1.8,8.7-9.5,14.2-19.8,13.2C369.2,161.9,385.7,148.7,380.3,133.7"/>
	</g>
	<g>
		<path d="M286.4,208.1c-72.5-5.6-60.7-117.6,5.1-113.5c52.2,3.3,56.6,43.3,56.1,60.6l-5.2,15.1L286.4,208.1z"/>
	</g>
	<g>
		<path class="st0" d="M285.9,212.8c-18.4-1.4-31.6-9.4-40.6-20.7l0,0c-9-11.3-14-24.9-14-39.3l0,0c0-15.6,4.9-31.3,14.5-43.5l0,0
			c10.8-12.1,23.4-18.5,42.1-19.6l0,0c1.3,0,2.6,0,3.8,0.1l0,0c26.2,1.5,42.3,11.7,51,24.9l0,0c8.7,13.2,9.5,28,9.5,37.8l0,0
			c0,1,0,1.9,0,2.8l0,0c-0.1,3.1-1.9,5.4-4.9,5.3l0,0c-3-0.1-4.7-2.7-4.6-5.7l0,0c0-0.8,0-1.6,0-2.5l0,0c0-8.6,0.8-22.9-6.1-33.3
			l0,0c-7-10.3-20.4-20.9-45.6-21.6l0,0c-1.1-0.1-2.1-0.1-3.2-0.1l0,0c-14.6,0-29.5,8.8-37.4,18.6l0,0c-7.8,9.8-11.3,24.1-11.3,37.4
			l0,0c0,12.2,5.2,24.2,12.4,33.2l0,0c7.2,9,19.5,14.6,35.2,15.8l0,0c3,0.2,5.3,2.9,5.1,5.9l0,0c-0.2,2.9-2.6,4.3-5.5,4.3l0,0
			C286.2,212.8,286.1,212.8,285.9,212.8L285.9,212.8z"/>
	</g>
	<g>
		<path class="st0" d="M304.2,155.2c0,0,16-2.1,10.6-24.5c0,0,11.2,3.9,9.6,22.7C324.4,153.4,313.8,161.6,304.2,155.2"/>
	</g>
	<g>
		<path class="st0" d="M278.6,225.6c3.7,2.4,16.5,0.1,23.7-7.5c3.9-4.1,12.5-15.6,7.5-17.7c-3.4-1.4-7.4-5.1-13.6-10.4
			c0,0,2.1,6.6-0.2,17.3C293.8,218.1,278.6,225.6,278.6,225.6z"/>
	</g>
	<g>
		<path class="st0" d="M337.1,183.2c1.4-2.6-2,12.1,2,22.4c4,10.3,2,14.2,2,14.2c-0.7,0.1-3.8-1-10.5-7.2c-4.5-4.2-14-8.9-14.6-11.1
			C316,201.4,330.5,195.1,337.1,183.2"/>
	</g>
	<g>
		<path class="st0" d="M338.2,175.8c3.4,9,24.2-18.3,24.2-18.3s-15.3,13.1-27,2.9c0,0-6.2-5.8-2.7,1.6
			C336.3,169.4,338,175.2,338.2,175.8"/>
	</g>
	<g>
		<path class="st0" d="M298.4,159.8c0,0,4.4,14-4,20.5c-8.5,6.5-19.8,5.3-28.4-3.7C266,176.6,291.5,177.6,298.4,159.8"/>
	</g>
	<g>
		<g>
			<path class="st1" d="M335.5,86.1c-1.3-0.8-1.7-2.5-0.9-3.8l0,0c0,0,0.4-0.6,0.9-1.7l0,0c0.6-1.1,1.4-2,2.2-4l0,0
				c1.6-4.1,4-11.2,4-17.1l0,0c0-7.6-2.4-16.4-10.8-23.5l0,0c-8.4-7.1-24.4-13.4-48.7-14.1l0,0c-1.5-0.2-2.6-1.5-2.5-3l0,0
				c0.2-1.5,1.5-2.6,3-2.5l0,0c25.4,2.6,41.2,8.8,50.9,17l0,0c9.7,8.1,12.8,18.1,12.8,26.9l0,0c0,13.8-7.1,24.8-7.2,25l0,0l0,0
				c-0.5,0.8-1.4,1.3-2.3,1.3l0,0C336.5,86.5,336,86.3,335.5,86.1L335.5,86.1z"/>
		</g>
		<g>
			<path class="st1" d="M324.1,91.2c-18-2.4-29.3-9.7-35.7-18.8l0,0c-6.4-9.1-8.1-19.5-8.1-28l0,0c0-9.8,2.2-17.2,2.3-17.3l0,0
				c0.4-1.5,2-2.3,3.4-1.9l0,0c1.5,0.4,2.3,2,1.9,3.4l0,0c0,0-1.3,1.6-1.8,4.4l0,0c-0.5,2.8-1,6.8-1,11.3l0,0
				c0,7.8,1.5,17.8,7.1,25.6l0,0c5.5,7.7,15.8,13.5,32.7,15.8l0,0c1.5,0.2,2.6,1.6,2.4,3.1l0,0c-0.2,1.4-1.4,2.4-2.7,2.4l0,0
				C324.3,91.3,324.2,91.3,324.1,91.2L324.1,91.2z"/>
		</g>
		<g>
			<path class="st1" d="M324.5,71.2c-4.3-32.1-33.8-48-40.5-50.3l0,0c-1.4-0.5-3-1.3-2.5-2.7l0,0c0.5-1.4,2.1-2.2,3.5-1.7l0,0
				c8.1,2.9,39,20.2,44.1,55.5l0,0c0.2,1.5-0.8,2.9-2.4,3.1l0,0c-0.1,0-0.3,0-0.4,0l0,0C325.1,75.2,324.7,72.6,324.5,71.2
				L324.5,71.2z"/>
		</g>
	</g>
	<g>
		<path class="st0" d="M413.3,124c7.1,3.8,6-26.2,6-26.2s-3.2,18.1-16.1,18.1c0,0-7-0.2-0.8,2.5C408.6,121,412.8,123.7,413.3,124"/>
	</g>
</g>
<g>
	<path class="st2" d="M592.7,228.5c-3.3-5.1-19.6,1.3-30.7,5.2c-11.1,3.9-64.5,18.9-64.5,18.9c-3-3.5-11.6-11.9-21.1-9.7
		c-9.5,2.1,0.3,19.6,0.3,19.6c2.4,10.1,5.1,25.4,1.7,35.1c-3.4,9.6-11.3-24-15.6-44.2c-4.7-22-16.3-1.4-19.1,2.6
		c-11.8,16.8-38.3,43.8-38.3,43.8c-9.4,9.6-14.8-1.7-10.5-18.6c4.2-16.9,12.4-41.6,18.4-57.2c0,0,70-8.5,84.9-10.4s47.7-2,52.9-5.7
		s10.1-11.7-8.3-8.8c-18.4,2.9-116.3,13-125.1,13.7c0,0,4.2-14.7,9.1-25s5.9-13.8-1.6-13.6c-7.5,0.3-8.2,7.8-10.2,14.1
		c-2,6.2-9.3,26-9.3,26s-28.8,5.6-42.4,9.1c-13.5,3.6-16.7,0.4-12,8.1c4.7,7.8,12.4,1.9,24.2-1.2c11.8-3.1,26.9-5.6,26.9-5.6
		s-6.3,14.7-10.4,28.7c-6.2-0.8-7.4,1.1-9.4,3.3c-0.7,0.7-20.5,7.7-19.8,4.7c2.3-10.1-0.6-17.5-6.7-15.2s-3,14.8-4.5,19.7
		s-20.2,32.1-22.8,35.6c0,0-2.5-14.8,2.1-23.2c4.6-8.4,11.5-17.6,1.6-19.9c-6.1-1.4-8,7.9-9.9,11.8c-1.9,3.8-26.8,32.2-28,27.1
		s11.8-24.9,14.5-26.7c2.7-1.8,8.1-10.6,4-12.8c0,0-4.1-5.6-13.9,7.5c-6.5,8.6-24.6,30.8-38.5,34.2c0,0,0.7-12.5,6.1-21.8
		c5.4-9.4,12.5-25.4,4-25.6c-11.7-0.2-34.4,21.6-34.4,21.6s16.8-25.6,5.1-25.9c-11.7-0.3-38.1,12.9-54.2,26.2c0,0,28.4-34.4,34.5-46
		s8.4-18.5-12.1-14c-20.4,4.5-61.6,19.9-98.7,34c0,0-59.4,24.6-76.6,24.8c0,0-15.9,0.5-19-0.4s-14.4-1.6-6.9,5.9
		c7.8,7.8,25.5,7.2,53.7-1.8c28.2-8.9,138.5-53.6,149.5-53.3c0,0-8.7,14.7-18.7,27.2c-9.8,12.2-29.8,38.2-35,45.9
		c-5.2,7.7-10.1,8.8-6.1,14.2c4,5.4,4.5,6.5,22.8-12c18.2-18.5,48.6-33,53.6-36c5-2.9-26.1,36.6-18.9,44.6
		c7.5,8.3,30.7-27.9,49.2-36.8c0,0-9.1,23.1-7.9,32c1.1,8.6,7,17.6,32-6c0,0,0.5,20.4,11.3,15.9s22-16.6,24.9-21.5
		c0,0-3,25.2,8,24.5c7.9-0.5,13.5-17.9,23.7-30.3c0,0-5.9,31.4,5.7,29.2c11.6-2.1-4-31.9,10.9-42.3c9.2-6.5,17.5-5.4,21.1-5.6
		c-2.4,9.3-4.4,17.7-5,24.2c-1.9,20.4,12.6,40,37.1,9.5l8-10.7c0,0-5.8,24.6,8.2,26.8c14,2.3,22.9-34.6,22.9-34.6
		c4,15.9,12.5,35,18.7,34.3c6.1-0.7,10.8-28.9,10.8-28.9c5.5,9.7,14.2,23.2,24.1,21c10-2.2-11.7-47.7-11.7-47.7
		c10.4-2.2,65.6-18.3,78.1-21.3C591.6,236,595.9,233.5,592.7,228.5z M436.9,295.6c0.6-15,16.4-31.1,16.4-31.1
		C454.8,277.4,436.3,310.6,436.9,295.6z M507.3,295.6c-5.7,0.7-16.7-20.6-21.7-33.4l7.9-0.9C493.5,261.3,509.9,295.2,507.3,295.6z"
		/>
</g>
<g>
	<path class="st2" d="M113.9,348.6c0,0.4,0,1-0.1,1.7s-0.2,1.5-0.3,2.3c-0.1,0.8-0.3,1.7-0.5,2.6s-0.3,1.7-0.5,2.5
		c-0.1,0.8-0.3,1.4-0.3,2c-0.1,0.6-0.1,1-0.1,1.2c0,0.4,0,0.8,0,1.2c0,0.4,0.1,0.7,0.1,0.9c0.1,0.3,0.2,0.5,0.3,0.6
		c0.2,0.1,0.4,0.2,0.7,0.2c0.3,0,0.7-0.1,1.2-0.2c0.5-0.2,1-0.4,1.5-0.7c0.5-0.3,1.1-0.6,1.6-0.9c0.6-0.4,1.1-0.7,1.6-1.1
		s1-0.8,1.4-1.2c0.4-0.4,0.7-0.7,1-1.1c0,0.5,0,0.9,0,1.4c0,0.4,0,0.8,0,1.2c0,0.4,0,0.7,0,1.1s0,0.8,0,1.3
		c-0.3,0.3-0.7,0.7-1.2,1.1s-1,0.8-1.6,1.1c-0.6,0.4-1.2,0.7-1.9,1.1c-0.7,0.3-1.3,0.7-2,0.9c-0.7,0.3-1.3,0.5-2,0.6
		c-0.7,0.2-1.3,0.2-1.9,0.2s-1.1-0.1-1.5-0.3c-0.4-0.2-0.8-0.5-1-0.9c-0.3-0.4-0.5-0.9-0.7-1.5s-0.4-1.2-0.5-1.9
		c-0.5,0.7-1.1,1.4-1.7,2s-1.2,1.1-1.8,1.5c-0.6,0.4-1.3,0.8-1.9,1s-1.3,0.4-1.9,0.4c-0.5,0-1-0.1-1.4-0.2c-0.4-0.2-0.8-0.4-1.2-0.8
		c-0.3-0.4-0.6-0.9-0.8-1.5c-0.2-0.6-0.3-1.4-0.3-2.4c0-1.2,0.1-2.6,0.4-4.4s0.6-3.8,1-6.1c0-0.2,0.1-0.5,0.2-0.9s0.2-0.8,0.3-1.3
		c0.1-0.5,0.3-0.9,0.5-1.4s0.5-0.9,0.7-1.3c0.3-0.4,0.6-0.7,1-0.9c0.4-0.2,0.8-0.4,1.3-0.4c0.8,0,1.4,0.1,1.7,0.3
		c0.3,0.2,0.5,0.4,0.5,0.6c-0.1,0.8-0.3,1.7-0.4,2.7c-0.2,1-0.3,2-0.5,3s-0.3,2-0.5,2.9s-0.3,1.8-0.4,2.5s-0.2,1.3-0.3,1.8
		c-0.1,0.5-0.1,0.7-0.1,0.7c0,0.3,0,0.5,0.1,0.8c0.1,0.2,0.1,0.5,0.2,0.7s0.2,0.4,0.4,0.5c0.2,0.1,0.4,0.2,0.6,0.2
		c0.3,0,0.7-0.1,1-0.3c0.3-0.2,0.7-0.4,1-0.7c0.3-0.3,0.6-0.7,0.8-1.2c0.2-0.5,0.4-1,0.5-1.6l2.2-11.5c0.1-0.4,0.4-0.7,0.9-0.9
		c0.5-0.2,1.1-0.4,1.8-0.4c0.8,0,1.4,0.1,1.8,0.4C113.7,347.9,113.9,348.2,113.9,348.6z"/>
	<path class="st2" d="M118.7,364.1c0-1,0.1-2.1,0.2-3.4s0.3-2.6,0.5-4c0.2-1.3,0.4-2.6,0.6-3.9c0.2-1.2,0.4-2.3,0.7-3.2
		c0.2-0.7,0.5-1.3,1-1.7c0.5-0.5,1.1-0.7,1.9-0.7s1.4,0.2,1.7,0.7c0.3,0.5,0.5,1.2,0.5,2c0,0.2,0,0.5-0.1,0.9c0,0.4-0.1,0.8-0.2,1.3
		s-0.1,0.9-0.2,1.4s-0.1,0.9-0.2,1.4c-0.1,0.4-0.1,0.8-0.2,1.1c0,0.3-0.1,0.5-0.1,0.6h0.5c0.1-0.2,0.2-0.4,0.4-0.8
		c0.2-0.4,0.4-0.8,0.7-1.3c0.3-0.5,0.5-1,0.8-1.5s0.6-1,0.8-1.5c0.3-0.5,0.5-0.9,0.7-1.3s0.4-0.7,0.5-0.8c0.5-0.8,1-1.4,1.6-1.7
		c0.6-0.3,1.3-0.5,2.1-0.5s1.4,0.3,1.8,0.9c0.4,0.6,0.7,1.5,0.7,2.6c0,0.2,0,0.4-0.1,0.8s-0.2,0.9-0.3,1.4s-0.2,1.1-0.3,1.8
		c-0.1,0.6-0.2,1.3-0.3,2s-0.2,1.3-0.3,2s-0.1,1.3-0.1,1.8c0,0.9,0.1,1.7,0.3,2.3c0.2,0.6,0.6,0.9,1.1,0.9c0.2,0,0.5-0.1,0.8-0.2
		s0.6-0.3,0.9-0.5c0.3-0.2,0.7-0.5,1-0.8c0.4-0.3,0.7-0.6,1-0.9c0.8-0.7,1.6-1.5,2.5-2.4l0.4,5.1l-1.1,0.9c-0.6,0.5-1.2,0.9-1.9,1.4
		c-0.6,0.5-1.3,0.9-2,1.3s-1.4,0.7-2.2,0.9c-0.8,0.2-1.5,0.3-2.4,0.3c-0.8,0-1.5-0.6-2.1-1.8c-0.6-1.2-0.8-2.9-0.8-5.2
		c0-0.9,0.1-1.9,0.2-2.9c0.1-1,0.3-2.2,0.5-3.4h-0.4l-5.9,11.7c-0.3,0.6-0.6,1-1,1.3c-0.4,0.2-0.8,0.3-1.3,0.3
		c-0.6,0-1.1-0.1-1.5-0.4s-0.7-0.6-0.9-1.1c-0.2-0.4-0.3-0.9-0.4-1.5C118.7,365.3,118.7,364.7,118.7,364.1z"/>
	<path class="st3" d="M151.9,364.1c0-0.7,0-1.4,0.1-2.3s0.2-1.8,0.3-2.8s0.3-2,0.5-3s0.4-2,0.6-2.9c0.2-0.9,0.4-1.8,0.6-2.5
		c0.2-0.8,0.4-1.4,0.6-1.9c0.1-0.3,0.2-0.6,0.4-0.8c0.1-0.2,0.3-0.3,0.4-0.5c0.2-0.1,0.4-0.2,0.6-0.2c0.2,0,0.5-0.1,0.9-0.1
		s0.7,0,0.9,0.1c0.2,0,0.4,0.1,0.5,0.3c0.1,0.1,0.2,0.3,0.2,0.6c0,0.3,0,0.6,0,1.1c0,0.6,0,1.2,0,2s0,1.6,0,2.3h0.2
		c0.3-0.6,0.6-1.3,1-2s0.8-1.4,1.3-2.1c0.5-0.6,1.1-1.2,1.7-1.6c0.6-0.4,1.4-0.7,2.2-0.7c0.3,0,0.6,0,0.8,0.1
		c0.3,0.1,0.5,0.2,0.7,0.4c0.2,0.2,0.4,0.4,0.5,0.7c0.1,0.3,0.2,0.6,0.2,0.9s0,0.6-0.1,1.1s-0.2,0.9-0.2,1.4c-0.1,0.5-0.2,1-0.2,1.5
		c-0.1,0.5-0.1,0.9-0.1,1.2c0,0.5,0.1,1,0.2,1.4c0.1,0.4,0.2,0.7,0.4,0.9c0.2,0.2,0.4,0.4,0.6,0.5c0.2,0.1,0.4,0.1,0.7,0.1
		c0.7,0,1.4-0.2,2.1-0.5c0.7-0.3,1.4-0.6,2-1c0.7-0.4,1.4-0.9,2.1-1.5l-0.3,5.3c-0.4,0.3-0.8,0.5-1.3,0.9c-0.5,0.3-1,0.6-1.6,0.9
		s-1.2,0.5-1.8,0.7s-1.2,0.3-1.9,0.3c-1.1,0-2-0.2-2.7-0.7s-1.2-1.1-1.6-1.8c-0.4-0.7-0.7-1.6-0.9-2.5s-0.4-1.9-0.5-2.8h-0.4
		l-4,11.3c-0.2,0.6-0.4,1.1-0.6,1.5c-0.2,0.4-0.4,0.7-0.6,0.9c-0.2,0.2-0.4,0.4-0.6,0.5c-0.2,0.1-0.5,0.1-0.7,0.1
		c-0.6,0-1.1-0.1-1.5-0.4s-0.7-0.6-0.9-1.1c-0.2-0.4-0.3-0.9-0.4-1.5C152,365.3,151.9,364.7,151.9,364.1z"/>
	<path class="st3" d="M179,368.8c-1.4,0-2.7-0.3-3.7-0.8c-1.1-0.5-1.9-1.2-2.7-2.1c-0.7-0.9-1.2-1.9-1.6-3c-0.4-1.1-0.5-2.3-0.5-3.6
		c0-0.8,0.1-1.7,0.2-2.7c0.2-0.9,0.4-1.9,0.8-2.8c0.3-0.9,0.8-1.8,1.3-2.6c0.5-0.8,1.1-1.5,1.8-2.2c0.7-0.6,1.5-1.1,2.3-1.5
		c0.9-0.4,1.8-0.6,2.8-0.6c0.8,0,1.6,0.1,2.3,0.4s1.4,0.7,1.9,1.1c0.5,0.5,1,1.1,1.3,1.8c0.3,0.7,0.5,1.5,0.5,2.3
		c0,0.9-0.2,1.9-0.7,2.8s-1.1,1.8-1.9,2.6c-0.8,0.8-1.8,1.6-2.9,2.2c-1.1,0.6-2.3,1.2-3.6,1.5c0.2,0.4,0.4,0.7,0.7,1
		c0.2,0.3,0.4,0.5,0.7,0.6c0.2,0.2,0.5,0.3,0.7,0.3c0.2,0.1,0.5,0.1,0.8,0.1c0.9,0,1.9-0.2,2.9-0.5c1-0.4,2-0.8,2.9-1.4
		c0.9-0.5,1.8-1.1,2.7-1.8c0.8-0.6,1.6-1.2,2.1-1.8l2.9,3c-1.3,1.4-2.7,2.6-4.2,3.6c-0.6,0.5-1.3,0.9-2.1,1.3
		c-0.7,0.4-1.5,0.8-2.3,1.2c-0.8,0.3-1.7,0.6-2.6,0.8C180.8,368.7,179.9,368.8,179,368.8z M176,358.2c0.5,0,1.1-0.1,1.8-0.4
		c0.6-0.3,1.2-0.6,1.8-1.1c0.5-0.4,1-0.9,1.4-1.4s0.6-1,0.6-1.5c0-0.7-0.1-1.2-0.4-1.7c-0.2-0.4-0.6-0.7-0.9-0.7
		c-0.6,0-1.2,0.1-1.7,0.4c-0.5,0.2-0.8,0.6-1.2,0.9c-0.3,0.4-0.6,0.8-0.7,1.3c-0.2,0.5-0.3,1-0.4,1.5c-0.1,0.5-0.2,1-0.2,1.4
		C176.1,357.5,176,357.9,176,358.2z"/>
	<path class="st3" d="M188.5,360.2c0.8-0.7,1.5-1.3,2.1-1.8c0.5-0.5,1-0.9,1.4-1.3s0.7-0.8,1-1.2c0.3-0.4,0.7-0.9,1.1-1.4
		c0.4-0.6,0.9-1.2,1.5-2s1.4-1.8,2.3-3c0.2-0.3,0.4-0.5,0.7-0.8c0.2-0.3,0.5-0.5,0.8-0.7s0.6-0.4,1-0.5s0.7-0.2,1.2-0.2
		c0.7,0,1.3,0.1,1.7,0.2c0.4,0.2,0.7,0.3,0.9,0.6c0.2,0.2,0.3,0.5,0.3,0.7s0,0.5,0,0.6c0,0.4-0.1,0.8-0.4,1.2
		c-0.3,0.4-0.6,0.9-0.9,1.3c-0.3,0.4-0.7,0.8-1,1.1c-0.3,0.3-0.5,0.6-0.5,0.8c0,0.5,0,0.9,0.1,1.3s0.2,0.8,0.3,1.1
		c0.1,0.4,0.2,0.8,0.3,1.2c0.1,0.4,0.2,0.9,0.3,1.4s0.2,1.2,0.3,1.9c0.1,0.7,0.1,1.5,0.1,2.5c0.5-0.4,1.1-0.7,1.7-1
		c0.6-0.3,1.3-0.6,2-0.9s1.4-0.7,2.1-1c0.7-0.4,1.4-0.8,2.2-1.4v5.1c-0.9,0.7-2,1.4-3.2,2s-2.5,1.2-3.9,1.7
		c-1.3,0.5-2.7,0.9-4.1,1.1c-1.4,0.3-2.7,0.4-3.9,0.4c-0.9,0-1.7-0.1-2.5-0.2c-0.8-0.2-1.4-0.4-2-0.8s-1-0.8-1.4-1.4
		s-0.6-1.3-0.7-2.1c-0.2,0-0.4,0.1-0.6,0.1c-0.2,0-0.4,0-0.6,0c-0.2,0-0.5,0-0.7,0s-0.4-0.1-0.5-0.2c-0.2-0.1-0.3-0.3-0.4-0.5
		c-0.1-0.2-0.1-0.5-0.1-0.9s0.1-0.7,0.3-1s0.4-0.6,0.6-0.8c0.2-0.2,0.5-0.5,0.7-0.6C188.2,360.4,188.3,360.3,188.5,360.2z
		 M191.3,363.1c0.2,0,0.4,0.1,0.6,0.3c0.2,0.2,0.5,0.5,0.8,0.7c0.3,0.3,0.6,0.5,1,0.7s0.8,0.3,1.3,0.3c0.6,0,1.1-0.1,1.5-0.3
		c0.4-0.2,0.7-0.5,0.9-0.8s0.4-0.7,0.5-1.1s0.1-0.9,0.1-1.3s0-0.8-0.1-1.2c-0.1-0.4-0.1-0.8-0.2-1.2c-0.1-0.4-0.2-0.7-0.3-1.1
		c-0.1-0.3-0.2-0.6-0.3-0.9L191.3,363.1z"/>
	<path class="st3" d="M227.5,363.8c-1.4,0.8-2.7,1.6-3.9,2.2c-1.1,0.6-2.1,1.2-3,1.6s-1.7,0.7-2.3,0.9c-0.7,0.2-1.3,0.3-1.9,0.3
		c-1.1,0-2.2-0.3-3-1c-0.9-0.7-1.6-1.7-2.2-3c-0.6-1.3-1-2.9-1.3-4.7c-0.3-1.9-0.4-3.9-0.4-6.2c0-0.9,0-1.9,0.1-2.9s0.2-2,0.3-3
		c-0.5-0.1-0.8-0.1-1-0.2s-0.5-0.1-0.8-0.2s-0.6-0.1-1.1-0.2c-0.4-0.1-1-0.1-1.9-0.2c-0.4,0-0.6-0.1-0.8-0.3
		c-0.2-0.1-0.3-0.3-0.4-0.5c-0.1-0.2-0.1-0.4-0.2-0.5c0-0.2,0-0.4,0-0.5c0-0.3,0.1-0.5,0.4-0.7c0.3-0.2,0.7-0.3,1.1-0.3
		c0.5-0.1,1-0.1,1.5-0.1s1.1,0,1.6,0s1,0,1.4,0s0.7,0,0.8,0c0.4-2,0.9-4,1.5-5.9s1.3-3.6,2.1-5.1s1.6-2.7,2.5-3.6s1.9-1.3,2.9-1.3
		c0.6,0,1.2,0.2,1.8,0.5c0.5,0.4,1,0.8,1.4,1.4s0.7,1.3,0.9,2.1c0.2,0.8,0.3,1.6,0.3,2.5c0,0.7-0.1,1.5-0.3,2.3s-0.5,1.7-0.9,2.5
		c-0.4,0.9-0.8,1.7-1.3,2.6s-1,1.7-1.5,2.6c0.1,0,0.4,0,0.7,0s0.7,0,1.1,0c0.4,0,0.9,0,1.3,0.1c0.5,0,0.9,0,1.4,0.1
		c0.5,0,0.9,0,1.3,0c0.4,0,0.7,0,1,0s0.5,0.2,0.7,0.5c0.1,0.3,0.2,0.6,0.2,1.1s-0.2,1-0.5,1.3s-0.6,0.5-1,0.5h-8.7
		c-0.4,0.6-0.9,1.2-1.3,1.8c-0.4,0.6-0.9,1.1-1.2,1.6c-0.1,0.9-0.1,1.9-0.2,2.8c0,0.4,0,0.8,0,1.2c0,0.4,0,0.8,0,1.2
		c0,0.4,0,0.8,0,1.2c0,0.4,0,0.7,0,1c0,0.8,0.1,1.5,0.2,2.1c0.2,0.6,0.4,1,0.7,1.4s0.6,0.6,1,0.8c0.4,0.2,0.9,0.2,1.4,0.2
		c0.3,0,0.7-0.1,1.2-0.2c0.5-0.2,1-0.4,1.6-0.6c0.6-0.3,1.2-0.6,1.8-0.9c0.6-0.4,1.2-0.8,1.9-1.2c0.6-0.4,1.2-0.9,1.7-1.4
		c0.6-0.5,1.1-1,1.5-1.5v5.8H227.5z M220.2,335.2c0-0.2,0-0.3,0-0.6c0-0.2-0.1-0.4-0.1-0.6c-0.1-0.2-0.2-0.3-0.3-0.5
		c-0.2-0.1-0.4-0.2-0.7-0.2c-0.4,0-0.8,0.3-1.2,1s-0.8,1.6-1.2,2.7s-0.7,2.3-1,3.6c-0.3,1.3-0.6,2.6-0.9,3.8c0.2,0,0.5,0.1,0.7,0.1
		s0.5,0,0.7,0.1c0.5-0.8,0.9-1.6,1.4-2.5s0.9-1.8,1.3-2.6c0.4-0.9,0.7-1.7,1-2.4C220.1,336.3,220.2,335.7,220.2,335.2z"/>
	<path class="st3" d="M240.6,351.9c0.4,0.9,0.8,1.8,1,2.8s0.3,1.9,0.3,2.8s-0.1,1.8-0.3,2.7c-0.2,0.9-0.5,1.8-0.8,2.6
		c-0.4,0.8-0.8,1.6-1.4,2.4c-0.5,0.7-1.1,1.4-1.8,1.9s-1.4,1-2.2,1.3s-1.7,0.5-2.6,0.5c-1.3,0-2.5-0.3-3.4-0.9s-1.7-1.3-2.3-2.3
		c-0.6-0.9-1-2-1.3-3.2s-0.4-2.4-0.4-3.6c0-1.7,0.2-3.2,0.7-4.6s1.2-2.7,2.1-3.7c0.9-1.1,2.1-1.9,3.4-2.5c1.3-0.6,2.8-0.9,4.5-0.9
		c1.4,0,2.8,0.2,4,0.7c1.2,0.4,2.4,1,3.5,1.8c1.1,0.7,2.1,1.6,3,2.6s1.8,2,2.6,3l-0.4,3.2c-0.4-0.5-1-1.1-1.6-1.8
		c-0.7-0.6-1.4-1.2-2.2-1.8c-0.8-0.6-1.5-1.2-2.3-1.7s-1.4-1-1.9-1.3H240.6z M233.7,364.5c0.5,0,1-0.3,1.5-0.8s0.9-1.2,1.3-2
		c0.4-0.8,0.7-1.7,0.9-2.6c0.2-1,0.3-1.9,0.3-2.7c0-0.7-0.1-1.3-0.2-1.9c-0.1-0.6-0.3-1.1-0.5-1.5s-0.5-0.8-0.8-1
		c-0.3-0.3-0.7-0.4-1.2-0.4c-0.6,0-1.2,0.3-1.8,0.8s-1,1.2-1.5,2c-0.4,0.8-0.8,1.7-1,2.7s-0.4,1.9-0.4,2.9c0,0.6,0.1,1.2,0.2,1.8
		c0.1,0.6,0.3,1,0.6,1.5c0.3,0.4,0.6,0.7,1,1C232.6,364.4,233.1,364.5,233.7,364.5z"/>
	<path class="st3" d="M246.5,364.1c0-0.7,0-1.4,0.1-2.3s0.2-1.8,0.3-2.8s0.3-2,0.5-3s0.4-2,0.6-2.9c0.2-0.9,0.4-1.8,0.6-2.5
		c0.2-0.8,0.4-1.4,0.6-1.9c0.1-0.3,0.2-0.6,0.4-0.8c0.1-0.2,0.3-0.3,0.4-0.5c0.2-0.1,0.4-0.2,0.6-0.2c0.2,0,0.5-0.1,0.9-0.1
		s0.7,0,0.9,0.1c0.2,0,0.4,0.1,0.5,0.3c0.1,0.1,0.2,0.3,0.2,0.6c0,0.3,0,0.6,0,1.1c0,0.6,0,1.2,0,2s0,1.6,0,2.3h0.2
		c0.3-0.6,0.6-1.3,1-2s0.8-1.4,1.3-2.1c0.5-0.6,1.1-1.2,1.7-1.6s1.4-0.7,2.2-0.7c0.3,0,0.6,0,0.8,0.1c0.3,0.1,0.5,0.2,0.7,0.4
		c0.2,0.2,0.4,0.4,0.5,0.7c0.1,0.3,0.2,0.6,0.2,0.9s0,0.6-0.1,1.1s-0.2,0.9-0.2,1.4c-0.1,0.5-0.2,1-0.2,1.5
		c-0.1,0.5-0.1,0.9-0.1,1.2c0,0.5,0.1,1,0.2,1.4s0.2,0.7,0.4,0.9c0.2,0.2,0.4,0.4,0.6,0.5s0.4,0.1,0.7,0.1c0.7,0,1.4-0.2,2.1-0.5
		s1.4-0.6,2-1c0.7-0.4,1.4-0.9,2.1-1.5l-0.3,5.3c-0.4,0.3-0.8,0.5-1.3,0.9c-0.5,0.3-1,0.6-1.6,0.9s-1.2,0.5-1.8,0.7
		c-0.6,0.2-1.2,0.3-1.9,0.3c-1.1,0-2-0.2-2.7-0.7s-1.2-1.1-1.6-1.8c-0.4-0.7-0.7-1.6-0.9-2.5c-0.2-0.9-0.4-1.9-0.5-2.8h-0.4l-4,11.3
		c-0.2,0.6-0.4,1.1-0.6,1.5c-0.2,0.4-0.4,0.7-0.6,0.9c-0.2,0.2-0.4,0.4-0.6,0.5c-0.2,0.1-0.5,0.1-0.7,0.1c-0.6,0-1.1-0.1-1.5-0.4
		s-0.7-0.6-0.9-1.1c-0.2-0.4-0.3-0.9-0.4-1.5C246.5,365.3,246.5,364.7,246.5,364.1z"/>
	<path class="st3" d="M289.6,363.3c-0.3,0.5-0.8,1-1.4,1.7c-0.6,0.6-1.2,1.3-2,1.9c-0.7,0.6-1.5,1.1-2.3,1.5s-1.7,0.6-2.5,0.6
		c-1,0-1.8-0.3-2.5-1c-0.7-0.6-1.2-1.6-1.7-2.8c-0.4,0.4-0.8,0.8-1.3,1.3c-0.5,0.4-1.1,0.8-1.7,1.2c-0.6,0.4-1.3,0.6-2,0.9
		c-0.7,0.2-1.4,0.3-2,0.3c-0.7,0-1.4-0.1-2.1-0.4s-1.3-0.7-1.8-1.3c-0.5-0.5-0.9-1.2-1.3-2c-0.3-0.8-0.5-1.7-0.5-2.7
		c0-1.1,0.2-2.3,0.5-3.5s0.8-2.3,1.3-3.5c0.6-1.1,1.2-2.2,2-3.2s1.6-1.9,2.5-2.6c0.9-0.8,1.9-1.4,2.9-1.8s2-0.7,3.1-0.7
		c0.3,0,0.6,0.1,0.8,0.2c0.2,0.1,0.4,0.3,0.5,0.5s0.3,0.3,0.4,0.5s0.3,0.3,0.5,0.4s0.4,0.1,0.6,0.1s0.4,0,0.6,0s0.3,0,0.5,0
		s0.3,0,0.5,0s0.4,0,0.6,0.1c0.2,0,0.4,0.1,0.5,0.3c0.2,0.2,0.3,0.4,0.3,0.6c0.1,0.3,0.1,0.6,0.1,1.1c0,0.7-0.1,1.5-0.2,2.4
		c-0.2,0.9-0.3,1.8-0.5,2.7c-0.2,0.9-0.3,1.9-0.5,2.8s-0.2,1.8-0.2,2.6c0,0.7,0.1,1.3,0.2,1.7c0.1,0.4,0.4,0.6,0.8,0.6
		c0.3,0,0.6-0.1,1-0.2c0.3-0.2,0.7-0.4,1-0.6c0.4-0.3,0.7-0.5,1.1-0.9c0.4-0.3,0.7-0.7,1-1c0.7-0.8,1.5-1.7,2.2-2.8L289.6,363.3z
		 M270.3,361.5c0,0.4,0,0.7,0.1,1.1s0.1,0.7,0.3,0.9c0.1,0.3,0.3,0.5,0.5,0.7s0.5,0.3,0.9,0.3c0.6,0,1.1-0.2,1.5-0.7
		c0.5-0.5,0.8-1.1,1.2-1.7c0.3-0.7,0.6-1.4,0.8-2.1c0.2-0.7,0.3-1.3,0.4-1.8l1.4-6.6c-0.6,0-1.2,0.2-1.8,0.5
		c-0.6,0.3-1.1,0.7-1.7,1.3c-0.5,0.5-1,1.1-1.4,1.8c-0.4,0.7-0.8,1.4-1.1,2.1c-0.3,0.7-0.6,1.5-0.7,2.2
		C270.4,360.1,270.3,360.9,270.3,361.5z M277.9,341.5c0.1-0.2,0.2-0.5,0.4-0.9c0.2-0.4,0.4-0.9,0.6-1.4s0.5-1,0.7-1.6
		s0.5-1.2,0.8-1.7c0.6-1.4,1.2-2.8,1.9-4.4c0.2-0.5,0.5-0.9,0.9-1.1s0.8-0.3,1.3-0.3c0.4,0,0.8,0.1,1.2,0.2c0.4,0.2,0.7,0.4,1,0.6
		c0.3,0.3,0.6,0.6,0.8,1c0.2,0.4,0.3,0.8,0.3,1.2c0,0.7-0.3,1.4-0.8,2.2c-0.3,0.4-0.6,0.8-1,1.3s-0.8,1-1.2,1.5
		c-0.4,0.5-0.8,1-1.2,1.5c-0.4,0.5-0.8,1-1.2,1.5c-0.4,0.5-0.7,0.9-1,1.3s-0.6,0.7-0.7,0.9c-0.3,0.3-0.5,0.5-0.8,0.6
		s-0.5,0.2-0.8,0.2c-0.4,0-0.7-0.1-0.9-0.4c-0.3-0.3-0.4-0.6-0.4-1.1c0-0.2,0-0.3,0.1-0.5C277.8,341.9,277.8,341.7,277.9,341.5z"/>
	<path class="st3" d="M286.9,364.1c0-1,0.1-2.1,0.2-3.4s0.3-2.6,0.5-4c0.2-1.3,0.4-2.6,0.6-3.9c0.2-1.2,0.4-2.3,0.7-3.2
		c0.2-0.7,0.5-1.3,1-1.7c0.5-0.5,1.1-0.7,1.9-0.7s1.4,0.2,1.7,0.7c0.3,0.5,0.5,1.2,0.5,2c0,0.2,0,0.5-0.1,0.9c0,0.4-0.1,0.8-0.2,1.3
		s-0.1,0.9-0.2,1.4s-0.1,0.9-0.2,1.4c-0.1,0.4-0.1,0.8-0.2,1.1c0,0.3-0.1,0.5-0.1,0.6h0.5c0.1-0.2,0.2-0.4,0.4-0.8
		c0.2-0.4,0.4-0.8,0.7-1.3c0.3-0.5,0.5-1,0.8-1.5s0.6-1,0.8-1.5c0.3-0.5,0.5-0.9,0.7-1.3s0.4-0.7,0.5-0.8c0.5-0.8,1-1.4,1.6-1.7
		c0.6-0.3,1.3-0.5,2.1-0.5c0.8,0,1.4,0.3,1.8,0.9s0.7,1.5,0.7,2.6c0,0.2,0,0.4-0.1,0.8s-0.2,0.9-0.3,1.4c-0.1,0.5-0.2,1.1-0.4,1.8
		c-0.1,0.6-0.2,1.3-0.3,2c-0.1,0.7-0.2,1.3-0.3,2c-0.1,0.7-0.1,1.3-0.1,1.8c0,0.9,0.1,1.7,0.3,2.3c0.2,0.6,0.6,0.9,1.1,0.9
		c0.2,0,0.5-0.1,0.8-0.2s0.6-0.3,0.9-0.5s0.7-0.5,1-0.8c0.4-0.3,0.7-0.6,1-0.9c0.8-0.7,1.6-1.5,2.5-2.4l0.4,5.1l-1.1,0.9
		c-0.6,0.5-1.2,0.9-1.9,1.4c-0.6,0.5-1.3,0.9-2,1.3s-1.4,0.7-2.2,0.9c-0.8,0.2-1.5,0.3-2.4,0.3c-0.8,0-1.5-0.6-2.1-1.8
		c-0.6-1.2-0.8-2.9-0.8-5.2c0-0.9,0.1-1.9,0.2-2.9s0.3-2.2,0.5-3.4H298l-5.9,11.7c-0.3,0.6-0.6,1-1,1.3c-0.4,0.2-0.8,0.3-1.3,0.3
		c-0.6,0-1.1-0.1-1.5-0.4s-0.7-0.6-0.9-1.1c-0.2-0.4-0.3-0.9-0.4-1.5C286.9,365.3,286.9,364.7,286.9,364.1z"/>
	<path class="st2" d="M327.1,368.8c-1.4,0-2.6-0.3-3.6-0.8s-1.9-1.2-2.6-2.1s-1.2-1.9-1.6-3s-0.5-2.3-0.5-3.5c0-0.9,0.1-1.8,0.3-2.7
		c0.2-0.9,0.4-1.9,0.8-2.8s0.8-1.8,1.3-2.6c0.5-0.8,1.1-1.6,1.8-2.2c0.7-0.6,1.4-1.1,2.3-1.5c0.8-0.4,1.8-0.6,2.8-0.6
		c0.9,0,1.7,0.1,2.4,0.4c0.7,0.3,1.4,0.6,1.9,1.1s0.9,1,1.2,1.7c0.3,0.6,0.4,1.3,0.4,2.1c0,0.5-0.1,1-0.2,1.5s-0.3,0.9-0.6,1.3
		c-0.3,0.4-0.6,0.7-1,1c-0.4,0.2-0.8,0.4-1.3,0.4c-0.7,0-1.2-0.2-1.4-0.6c-0.2-0.4-0.3-0.9-0.3-1.6c0-0.3,0-0.6,0-0.9s0-0.6,0-0.8
		c0-0.4,0-0.7-0.1-0.9c-0.1-0.2-0.2-0.4-0.5-0.4c-0.6,0-1.1,0.1-1.6,0.4c-0.4,0.3-0.8,0.7-1.1,1.2c-0.3,0.5-0.6,1-0.7,1.6
		c-0.2,0.6-0.3,1.2-0.4,1.8c-0.1,0.6-0.2,1.1-0.2,1.7c0,0.5,0,1,0,1.3c0,0.5,0,1.1,0.1,1.7s0.3,1.1,0.6,1.6c0.3,0.5,0.6,0.9,1.1,1.2
		c0.5,0.3,1.1,0.5,1.8,0.5c0.7,0,1.5-0.2,2.4-0.7c0.9-0.4,1.7-1,2.6-1.7s1.7-1.4,2.5-2.2c0.8-0.8,1.5-1.6,2.1-2.3l1.6,2.6
		c-1.1,1.6-2.3,3-3.7,4.3c-0.6,0.5-1.2,1.1-1.8,1.6c-0.7,0.5-1.3,1-2.1,1.4c-0.7,0.4-1.5,0.7-2.2,1
		C328.7,368.7,327.9,368.8,327.1,368.8z"/>
	<path class="st2" d="M350.6,351.9c0.4,0.9,0.8,1.8,1,2.8s0.3,1.9,0.3,2.8s-0.1,1.8-0.3,2.7c-0.2,0.9-0.5,1.8-0.8,2.6
		c-0.4,0.8-0.8,1.6-1.4,2.4c-0.5,0.7-1.1,1.4-1.8,1.9c-0.7,0.5-1.4,1-2.2,1.3c-0.8,0.3-1.7,0.5-2.6,0.5c-1.3,0-2.5-0.3-3.4-0.9
		s-1.7-1.3-2.3-2.3c-0.6-0.9-1-2-1.3-3.2s-0.4-2.4-0.4-3.6c0-1.7,0.2-3.2,0.7-4.6s1.2-2.7,2.1-3.7c0.9-1.1,2.1-1.9,3.4-2.5
		s2.8-0.9,4.5-0.9c1.4,0,2.8,0.2,4,0.7c1.2,0.4,2.4,1,3.5,1.8c1.1,0.7,2.1,1.6,3,2.6s1.8,2,2.6,3l-0.4,3.2c-0.4-0.5-1-1.1-1.6-1.8
		c-0.7-0.6-1.4-1.2-2.2-1.8c-0.8-0.6-1.5-1.2-2.3-1.7s-1.4-1-1.9-1.3H350.6z M343.6,364.5c0.5,0,1-0.3,1.5-0.8s0.9-1.2,1.3-2
		s0.7-1.7,0.9-2.6c0.2-1,0.3-1.9,0.3-2.7c0-0.7-0.1-1.3-0.2-1.9s-0.3-1.1-0.5-1.5s-0.5-0.8-0.8-1c-0.3-0.3-0.7-0.4-1.2-0.4
		c-0.6,0-1.2,0.3-1.8,0.8c-0.6,0.5-1,1.2-1.5,2c-0.4,0.8-0.8,1.7-1,2.7s-0.4,1.9-0.4,2.9c0,0.6,0.1,1.2,0.2,1.8
		c0.1,0.6,0.3,1,0.6,1.5s0.6,0.7,1,1C342.5,364.4,343,364.5,343.6,364.5z"/>
	<path class="st2" d="M356.4,364.1c0-1,0.1-2.1,0.2-3.4s0.3-2.6,0.5-4c0.2-1.3,0.4-2.6,0.6-3.9c0.2-1.2,0.4-2.3,0.7-3.2
		c0.2-0.7,0.5-1.3,1-1.7c0.5-0.5,1.1-0.7,1.9-0.7s1.4,0.2,1.7,0.7c0.3,0.5,0.5,1.2,0.5,2c0,0.2,0,0.5-0.1,0.9c0,0.4-0.1,0.8-0.2,1.3
		s-0.1,0.9-0.2,1.4s-0.1,0.9-0.2,1.4c-0.1,0.4-0.1,0.8-0.2,1.1c0,0.3-0.1,0.5-0.1,0.6h0.5c0.1-0.2,0.2-0.4,0.4-0.8
		c0.2-0.4,0.4-0.8,0.7-1.3c0.3-0.5,0.5-1,0.8-1.5s0.6-1,0.8-1.5c0.3-0.5,0.5-0.9,0.7-1.3s0.4-0.7,0.5-0.8c0.5-0.8,1-1.4,1.6-1.7
		c0.6-0.3,1.3-0.5,2.1-0.5c0.8,0,1.4,0.3,1.8,0.9s0.7,1.5,0.7,2.6c0,0.2,0,0.4-0.1,0.8s-0.2,0.9-0.3,1.4c-0.1,0.5-0.2,1.1-0.3,1.8
		c-0.1,0.6-0.2,1.3-0.3,2c-0.1,0.7-0.2,1.3-0.3,2c-0.1,0.7-0.1,1.3-0.1,1.8c0,0.9,0.1,1.7,0.3,2.3c0.2,0.6,0.6,0.9,1.1,0.9
		c0.2,0,0.5-0.1,0.8-0.2s0.6-0.3,0.9-0.5s0.7-0.5,1-0.8c0.4-0.3,0.7-0.6,1-0.9c0.8-0.7,1.6-1.5,2.5-2.4l0.4,5.1l-1.1,0.9
		c-0.6,0.5-1.2,0.9-1.9,1.4c-0.6,0.5-1.3,0.9-2,1.3s-1.4,0.7-2.2,0.9c-0.8,0.2-1.5,0.3-2.4,0.3c-0.8,0-1.5-0.6-2.1-1.8
		c-0.6-1.2-0.8-2.9-0.8-5.2c0-0.9,0.1-1.9,0.2-2.9s0.3-2.2,0.5-3.4h-0.4l-5.9,11.7c-0.3,0.6-0.6,1-1,1.3c-0.4,0.2-0.8,0.3-1.3,0.3
		c-0.6,0-1.1-0.1-1.5-0.4s-0.7-0.6-0.9-1.1c-0.2-0.4-0.3-0.9-0.4-1.5C356.5,365.3,356.4,364.7,356.4,364.1z"/>
	<path class="st2" d="M397.3,368.8c-1.4,0-2.7-0.3-3.7-0.8c-1.1-0.5-1.9-1.2-2.7-2.1c-0.7-0.9-1.2-1.9-1.6-3s-0.5-2.3-0.5-3.6
		c0-0.8,0.1-1.7,0.2-2.7c0.2-0.9,0.4-1.9,0.8-2.8c0.3-0.9,0.8-1.8,1.3-2.6c0.5-0.8,1.1-1.5,1.8-2.2c0.7-0.6,1.5-1.1,2.3-1.5
		c0.9-0.4,1.8-0.6,2.8-0.6c0.8,0,1.6,0.1,2.3,0.4c0.7,0.3,1.4,0.7,1.9,1.1c0.5,0.5,1,1.1,1.3,1.8c0.3,0.7,0.5,1.5,0.5,2.3
		c0,0.9-0.2,1.9-0.7,2.8s-1.1,1.8-1.9,2.6c-0.8,0.8-1.8,1.6-2.9,2.2s-2.3,1.2-3.6,1.5c0.2,0.4,0.4,0.7,0.7,1
		c0.2,0.3,0.4,0.5,0.7,0.6c0.2,0.2,0.5,0.3,0.7,0.3c0.2,0.1,0.5,0.1,0.8,0.1c0.9,0,1.9-0.2,2.9-0.5c1-0.4,2-0.8,2.9-1.4
		c0.9-0.5,1.8-1.1,2.7-1.8c0.8-0.6,1.6-1.2,2.1-1.8l2.9,3c-1.3,1.4-2.7,2.6-4.2,3.6c-0.6,0.5-1.3,0.9-2.1,1.3
		c-0.7,0.4-1.5,0.8-2.3,1.2c-0.8,0.3-1.7,0.6-2.6,0.8C399.1,368.7,398.2,368.8,397.3,368.8z M394.3,358.2c0.5,0,1.1-0.1,1.8-0.4
		c0.6-0.3,1.2-0.6,1.8-1.1c0.5-0.4,1-0.9,1.4-1.4s0.6-1,0.6-1.5c0-0.7-0.1-1.2-0.4-1.7c-0.2-0.4-0.6-0.7-0.9-0.7
		c-0.6,0-1.2,0.1-1.7,0.4c-0.5,0.2-0.8,0.6-1.2,0.9c-0.3,0.4-0.6,0.8-0.7,1.3c-0.2,0.5-0.3,1-0.4,1.5s-0.2,1-0.2,1.4
		C394.3,357.5,394.3,357.9,394.3,358.2z"/>
	<path class="st2" d="M407.4,364.1c0-1,0.1-2.1,0.2-3.4s0.3-2.6,0.5-4c0.2-1.3,0.4-2.6,0.6-3.9c0.2-1.2,0.4-2.3,0.7-3.2
		c0.2-0.7,0.5-1.3,1-1.7c0.5-0.5,1.1-0.7,1.9-0.7s1.4,0.2,1.7,0.7c0.3,0.5,0.5,1.2,0.5,2c0,0.2,0,0.5-0.1,0.9c0,0.4-0.1,0.8-0.2,1.3
		s-0.1,0.9-0.2,1.4s-0.1,0.9-0.2,1.4c-0.1,0.4-0.1,0.8-0.2,1.1c0,0.3-0.1,0.5-0.1,0.6h0.5c0.1-0.2,0.2-0.4,0.4-0.8
		c0.2-0.4,0.4-0.8,0.7-1.3c0.3-0.5,0.5-1,0.8-1.5s0.6-1,0.8-1.5c0.3-0.5,0.5-0.9,0.7-1.3s0.4-0.7,0.5-0.8c0.5-0.8,1-1.4,1.6-1.7
		c0.6-0.3,1.3-0.5,2.1-0.5c0.8,0,1.4,0.3,1.8,0.9s0.7,1.5,0.7,2.6c0,0.2,0,0.4-0.1,0.8s-0.2,0.9-0.3,1.4c-0.1,0.5-0.2,1.1-0.3,1.8
		c-0.1,0.6-0.2,1.3-0.3,2c-0.1,0.7-0.2,1.3-0.3,2c-0.1,0.7-0.1,1.3-0.1,1.8c0,0.9,0.1,1.7,0.3,2.3c0.2,0.6,0.6,0.9,1.1,0.9
		c0.2,0,0.5-0.1,0.8-0.2s0.6-0.3,0.9-0.5s0.7-0.5,1-0.8c0.4-0.3,0.7-0.6,1-0.9c0.8-0.7,1.6-1.5,2.5-2.4l0.4,5.1l-1.1,0.9
		c-0.6,0.5-1.2,0.9-1.9,1.4c-0.6,0.5-1.3,0.9-2,1.3s-1.4,0.7-2.2,0.9c-0.8,0.2-1.5,0.3-2.4,0.3c-0.8,0-1.5-0.6-2.1-1.8
		c-0.6-1.2-0.8-2.9-0.8-5.2c0-0.9,0.1-1.9,0.2-2.9s0.3-2.2,0.5-3.4h-0.4l-5.9,11.7c-0.3,0.6-0.6,1-1,1.3c-0.4,0.2-0.8,0.3-1.3,0.3
		c-0.6,0-1.1-0.1-1.5-0.4s-0.7-0.6-0.9-1.1c-0.2-0.4-0.3-0.9-0.4-1.5C407.4,365.3,407.4,364.7,407.4,364.1z"/>
	<path class="st2" d="M425.4,368.8c0-0.2,0-0.7,0.1-1.3c0.1-0.6,0.2-1.3,0.3-2.2c0.1-0.9,0.3-1.8,0.4-2.9c0.2-1.1,0.3-2.1,0.5-3.2
		s0.4-2.2,0.6-3.3c0.2-1.1,0.5-2.1,0.7-3.1s0.5-1.8,0.7-2.5s0.5-1.3,0.7-1.7c0.2-0.3,0.5-0.6,0.7-0.8c0.3-0.2,0.6-0.3,0.9-0.4
		s0.7-0.1,1.1-0.2c0.4,0,0.7,0,1.1,0c0.5,0,0.9,0.2,1.1,0.5s0.3,0.6,0.3,1c0,0.2,0,0.5-0.1,0.9s-0.2,0.8-0.3,1.3
		c-0.1,0.5-0.2,0.9-0.4,1.3c-0.1,0.4-0.2,0.7-0.3,0.9l-1.3,3.6c0.8-0.1,1.7-0.2,2.4-0.3c0.8-0.1,1.6-0.2,2.6-0.3
		c0.9-0.1,2-0.4,3.2-0.7c1.2-0.3,2.6-0.9,4.2-1.6v4.3c-1,0.5-2,1-3,1.3s-1.9,0.5-2.7,0.6c-0.9,0.2-1.9,0.3-2.8,0.3c0.4,1,0.7,2,1,3
		c0.3,0.9,0.5,1.9,0.7,3s0.3,2.2,0.3,3.3c0,0.2,0,0.7-0.1,1.4c0,0.7-0.1,1.6-0.3,2.5c-0.1,1-0.4,2-0.7,3.1c-0.3,1.1-0.7,2.1-1.3,3
		c-0.5,0.9-1.2,1.6-2,2.2s-1.8,0.9-2.9,0.9s-1.9-0.3-2.7-0.9c-0.7-0.6-1.3-1.5-1.8-2.7s-0.8-2.6-1-4.3
		C425.5,372.9,425.4,371,425.4,368.8z M430.4,340.8c0-0.3,0.1-0.7,0.2-1.2c0.1-0.4,0.4-0.8,0.7-1.2c0.3-0.4,0.8-0.7,1.4-1
		s1.3-0.4,2.1-0.4c0.5,0,1,0.1,1.5,0.2s0.9,0.3,1.2,0.6c0.3,0.2,0.6,0.6,0.8,1c0.2,0.4,0.3,0.9,0.3,1.4s-0.1,1-0.2,1.5
		c-0.2,0.5-0.4,0.9-0.8,1.3s-0.8,0.7-1.4,0.9c-0.5,0.2-1.2,0.3-2,0.3c-1.3,0-2.3-0.3-2.9-0.9C430.7,342.7,430.4,341.9,430.4,340.8z
		 M431.9,358.7c-0.4,2.3-0.7,4.7-1,7.1s-0.4,4.8-0.4,7.4c0,0.8,0.1,1.5,0.2,2.1c0.1,0.5,0.2,1,0.4,1.3c0.2,0.3,0.3,0.6,0.5,0.7
		s0.3,0.2,0.4,0.2c0.5,0,0.9-0.3,1.2-0.8c0.3-0.5,0.5-1.2,0.7-2c0.1-0.8,0.2-1.7,0.3-2.6c0-0.9,0.1-1.8,0.1-2.5c0-0.4,0-0.9-0.1-1.5
		c-0.1-0.5-0.2-1.1-0.2-1.7c-0.1-0.6-0.2-1.2-0.3-1.8c-0.1-0.6-0.3-1.2-0.4-1.8C432.7,361.5,432.3,360.1,431.9,358.7z"/>
	<path class="st2" d="M460.4,348.6c0,0.4,0,1-0.1,1.7s-0.2,1.5-0.3,2.3c-0.1,0.8-0.3,1.7-0.5,2.6s-0.3,1.7-0.5,2.5
		c-0.1,0.8-0.3,1.4-0.3,2c-0.1,0.6-0.1,1-0.1,1.2c0,0.4,0,0.8,0,1.2c0,0.4,0.1,0.7,0.1,0.9c0.1,0.3,0.2,0.5,0.3,0.6
		c0.2,0.1,0.4,0.2,0.7,0.2c0.3,0,0.7-0.1,1.2-0.2c0.5-0.2,1-0.4,1.5-0.7c0.5-0.3,1.1-0.6,1.6-0.9c0.6-0.4,1.1-0.7,1.6-1.1
		s1-0.8,1.4-1.2c0.4-0.4,0.7-0.7,1-1.1c0,0.5,0,0.9,0,1.4c0,0.4,0,0.8,0,1.2c0,0.4,0,0.7,0,1.1s0,0.8,0,1.3
		c-0.3,0.3-0.7,0.7-1.2,1.1s-1,0.8-1.6,1.1c-0.6,0.4-1.2,0.7-1.9,1.1c-0.7,0.3-1.3,0.7-2,0.9c-0.7,0.3-1.3,0.5-2,0.6
		c-0.7,0.2-1.3,0.2-1.9,0.2s-1.1-0.1-1.5-0.3c-0.4-0.2-0.8-0.5-1-0.9c-0.3-0.4-0.5-0.9-0.7-1.5s-0.4-1.2-0.5-1.9
		c-0.5,0.7-1.1,1.4-1.7,2s-1.2,1.1-1.8,1.5c-0.6,0.4-1.3,0.8-1.9,1s-1.3,0.4-1.9,0.4c-0.5,0-1-0.1-1.4-0.2c-0.4-0.2-0.8-0.4-1.2-0.8
		c-0.3-0.4-0.6-0.9-0.8-1.5c-0.2-0.6-0.3-1.4-0.3-2.4c0-1.2,0.1-2.6,0.4-4.4s0.6-3.8,1-6.1c0-0.2,0.1-0.5,0.2-0.9s0.2-0.8,0.3-1.3
		c0.1-0.5,0.3-0.9,0.5-1.4s0.5-0.9,0.7-1.3c0.3-0.4,0.6-0.7,1-0.9c0.4-0.2,0.8-0.4,1.3-0.4c0.8,0,1.4,0.1,1.7,0.3
		c0.3,0.2,0.5,0.4,0.5,0.6c-0.1,0.8-0.3,1.7-0.4,2.7c-0.2,1-0.3,2-0.5,3s-0.3,2-0.5,2.9s-0.3,1.8-0.4,2.5s-0.2,1.3-0.3,1.8
		c-0.1,0.5-0.1,0.7-0.1,0.7c0,0.3,0,0.5,0.1,0.8c0.1,0.2,0.1,0.5,0.2,0.7s0.2,0.4,0.4,0.5c0.2,0.1,0.4,0.2,0.6,0.2
		c0.3,0,0.7-0.1,1-0.3c0.3-0.2,0.7-0.4,1-0.7c0.3-0.3,0.6-0.7,0.8-1.2c0.2-0.5,0.4-1,0.5-1.6l2.2-11.5c0.1-0.4,0.4-0.7,0.9-0.9
		c0.5-0.2,1.1-0.4,1.8-0.4c0.8,0,1.4,0.1,1.8,0.4S460.4,348.2,460.4,348.6z"/>
	<path class="st2" d="M465.2,364.1c0-1,0.1-2.1,0.2-3.4s0.3-2.6,0.5-4c0.2-1.3,0.4-2.6,0.6-3.9c0.2-1.2,0.4-2.3,0.7-3.2
		c0.2-0.7,0.5-1.3,1-1.7c0.5-0.5,1.1-0.7,1.9-0.7s1.4,0.2,1.7,0.7c0.3,0.5,0.5,1.2,0.5,2c0,0.2,0,0.5-0.1,0.9c0,0.4-0.1,0.8-0.2,1.3
		s-0.1,0.9-0.2,1.4s-0.1,0.9-0.2,1.4c-0.1,0.4-0.1,0.8-0.2,1.1c0,0.3-0.1,0.5-0.1,0.6h0.5c0.1-0.2,0.2-0.4,0.4-0.8
		c0.2-0.4,0.4-0.8,0.7-1.3c0.3-0.5,0.5-1,0.8-1.5s0.6-1,0.8-1.5c0.3-0.5,0.5-0.9,0.7-1.3s0.4-0.7,0.5-0.8c0.5-0.8,1-1.4,1.6-1.7
		c0.6-0.3,1.3-0.5,2.1-0.5c0.8,0,1.4,0.3,1.8,0.9s0.7,1.5,0.7,2.6c0,0.2,0,0.4-0.1,0.8s-0.2,0.9-0.3,1.4c-0.1,0.5-0.2,1.1-0.3,1.8
		c-0.1,0.6-0.2,1.3-0.4,2c-0.1,0.7-0.2,1.3-0.3,2c-0.1,0.7-0.1,1.3-0.1,1.8c0,0.9,0.1,1.7,0.3,2.3c0.2,0.6,0.6,0.9,1.1,0.9
		c0.2,0,0.5-0.1,0.8-0.2s0.6-0.3,0.9-0.5s0.7-0.5,1-0.8c0.4-0.3,0.7-0.6,1-0.9c0.8-0.7,1.6-1.5,2.5-2.4l0.4,5.1l-1.1,0.9
		c-0.6,0.5-1.2,0.9-1.9,1.4c-0.6,0.5-1.3,0.9-2,1.3s-1.4,0.7-2.2,0.9c-0.8,0.2-1.5,0.3-2.4,0.3c-0.8,0-1.5-0.6-2.1-1.8
		c-0.6-1.2-0.8-2.9-0.8-5.2c0-0.9,0.1-1.9,0.2-2.9s0.3-2.2,0.5-3.4h-0.4l-5.9,11.7c-0.3,0.6-0.6,1-1,1.3c-0.4,0.2-0.8,0.3-1.3,0.3
		c-0.6,0-1.1-0.1-1.5-0.4s-0.7-0.6-0.9-1.1c-0.2-0.4-0.3-0.9-0.4-1.5C465.2,365.3,465.2,364.7,465.2,364.1z"/>
	<path class="st2" d="M511.6,364.4c-1.1,0.8-2.1,1.6-3.2,2.2c-0.4,0.3-0.9,0.5-1.4,0.8s-1,0.5-1.4,0.7c-0.5,0.2-0.9,0.4-1.4,0.5
		c-0.4,0.1-0.9,0.2-1.2,0.2c-0.2,0-0.5,0-0.9-0.1s-0.9-0.3-1.4-0.6c-0.5-0.3-1-0.7-1.5-1.2s-0.9-1.2-1.3-2.1
		c-0.6,0.5-1.1,1.1-1.8,1.5c-0.6,0.5-1.3,0.9-1.9,1.3c-0.7,0.4-1.3,0.7-2,0.9c-0.7,0.2-1.4,0.3-2.1,0.3c-1,0-1.8-0.2-2.5-0.6
		s-1.3-1-1.8-1.7s-0.8-1.5-1.1-2.4c-0.2-0.9-0.4-1.8-0.4-2.8s0.1-1.9,0.4-2.9c0.2-1,0.6-1.9,1.1-2.9c0.5-0.9,1-1.8,1.7-2.6
		c0.7-0.8,1.4-1.5,2.3-2.2c0.9-0.6,1.8-1.2,2.8-1.6s2.1-0.7,3.2-0.8c0-1.9,0.2-3.8,0.5-5.7c0.3-1.9,0.7-3.7,1.2-5.4
		c0.5-1.7,1.1-3.3,1.7-4.7c0.7-1.4,1.4-2.7,2.2-3.7c0.8-1.1,1.6-1.9,2.5-2.5s1.8-0.9,2.8-0.9c0.7,0,1.3,0.2,1.8,0.6s0.9,0.9,1.2,1.5
		c0.3,0.6,0.5,1.3,0.7,2.1c0.1,0.8,0.2,1.6,0.2,2.5c0,0.5,0,1.1-0.1,1.6c-0.2,2.1-0.6,4.1-1.1,6s-1.1,3.7-1.8,5.5
		c-0.7,1.8-1.5,3.6-2.3,5.3c-0.8,1.8-1.6,3.6-2.4,5.5c-0.1,0.2-0.2,0.5-0.2,0.8c-0.1,0.3-0.1,0.6-0.2,1s-0.1,0.7-0.2,1.1
		c0,0.4-0.1,0.7-0.1,1.1s0,0.9,0.1,1.2c0.1,0.4,0.1,0.7,0.3,1c0.1,0.3,0.3,0.6,0.5,0.7c0.2,0.2,0.5,0.3,0.8,0.3s0.6-0.1,0.9-0.2
		s0.7-0.3,1.1-0.5s0.8-0.4,1.1-0.7c0.4-0.2,0.8-0.5,1.1-0.8c0.8-0.6,1.7-1.3,2.6-2.1L511.6,364.4z M496,351.8
		c-1,0.5-1.9,1.1-2.7,1.9c-0.8,0.8-1.4,1.6-1.9,2.6c-0.5,0.9-0.9,1.8-1.2,2.8c-0.3,0.9-0.4,1.8-0.4,2.5c0,0.3,0,0.6,0.1,0.9
		s0.2,0.6,0.4,0.8c0.2,0.2,0.4,0.4,0.8,0.6c0.3,0.2,0.8,0.2,1.3,0.2c0.3,0,0.5-0.1,0.8-0.2s0.5-0.3,0.8-0.5c0.2-0.2,0.5-0.5,0.7-0.7
		c0.2-0.3,0.4-0.6,0.6-0.9c0.4-0.7,0.8-1.5,1.2-2.3c0-0.2-0.1-0.5-0.1-1s-0.1-1-0.1-1.5c0-0.6,0-1.1,0-1.7s0-1.2,0-1.6
		c0-0.5,0-0.9,0-1.2C496.1,351.9,496,351.8,496,351.8z M506.6,335.4c0.1-1.1,0.1-1.9,0.1-2.5c0-0.8-0.1-1.4-0.2-1.7
		c-0.1-0.3-0.3-0.5-0.6-0.5c-0.5,0-0.9,0.3-1.3,0.9s-0.7,1.4-1,2.3s-0.6,2-0.8,3.1c-0.2,1.1-0.4,2.2-0.6,3.3c-0.2,1.1-0.3,2-0.4,2.9
		s-0.2,1.5-0.2,1.8c-0.1,0.7-0.1,1.4-0.1,2.1s-0.1,1.3-0.1,1.9s0,1.1,0,1.5s0,0.7,0,1v0.2c0.9-2,1.6-3.9,2.4-5.8
		c0.3-0.8,0.6-1.7,0.9-2.6s0.6-1.8,0.8-2.7c0.3-0.9,0.5-1.8,0.7-2.7C506.4,337.1,506.6,336.2,506.6,335.4z"/>
	<path class="st2" d="M524,364c-0.5,0.5-1.2,1-2,1.6s-1.7,1.1-2.6,1.6c-0.9,0.5-1.9,0.9-2.9,1.2c-1,0.3-1.9,0.5-2.8,0.5
		c-0.8,0-1.4-0.1-2-0.3c-0.5-0.2-1-0.5-1.3-0.9s-0.6-0.9-0.7-1.4c-0.1-0.6-0.2-1.2-0.2-1.9c0-0.9,0.1-2.1,0.3-3.3
		c0.2-1.3,0.5-2.6,0.8-3.9s0.7-2.7,1-4c0.4-1.3,0.7-2.6,0.9-3.7c0.1-0.4,0.3-0.7,0.6-1s0.7-0.5,1.1-0.7c0.4-0.2,0.8-0.3,1.2-0.4
		s0.8-0.1,1.2-0.1c0.6,0,1.1,0.1,1.3,0.3c0.2,0.2,0.3,0.5,0.3,0.9c0,0.3-0.1,0.8-0.2,1.4c-0.2,0.6-0.3,1.3-0.6,2.1
		c-0.2,0.8-0.5,1.6-0.7,2.6c-0.3,0.9-0.5,1.8-0.7,2.7c-0.2,0.9-0.4,1.8-0.6,2.7c-0.2,0.9-0.2,1.6-0.2,2.3c0,0.7,0.1,1.2,0.2,1.6
		c0.2,0.4,0.5,0.6,0.9,0.6c0.5,0,1.1-0.2,1.8-0.6s1.3-0.8,2-1.4c0.7-0.5,1.3-1.1,2-1.7c0.6-0.6,1.2-1.1,1.7-1.5v4.7H524z
		 M513.9,340.8c0-0.3,0.1-0.7,0.2-1.2c0.1-0.4,0.4-0.8,0.7-1.2c0.3-0.4,0.8-0.7,1.4-1c0.6-0.3,1.3-0.4,2.1-0.4c0.5,0,1,0.1,1.5,0.2
		s0.9,0.3,1.2,0.6c0.3,0.2,0.6,0.6,0.8,1s0.3,0.9,0.3,1.4s-0.1,1-0.2,1.5c-0.2,0.5-0.4,0.9-0.8,1.3c-0.4,0.4-0.8,0.7-1.4,0.9
		c-0.5,0.2-1.2,0.3-2,0.3c-1.3,0-2.3-0.3-2.9-0.9C514.2,342.7,513.9,341.9,513.9,340.8z"/>
	<path class="st2" d="M546,363.3c-0.3,0.5-0.8,1-1.4,1.7c-0.6,0.6-1.2,1.3-2,1.9c-0.7,0.6-1.5,1.1-2.3,1.5s-1.7,0.6-2.5,0.6
		c-1,0-1.8-0.3-2.5-1c-0.7-0.6-1.2-1.6-1.7-2.8c-0.4,0.4-0.8,0.8-1.3,1.3c-0.5,0.4-1.1,0.8-1.7,1.2c-0.6,0.4-1.3,0.6-2,0.9
		c-0.7,0.2-1.4,0.3-2,0.3c-0.7,0-1.4-0.1-2.1-0.4c-0.7-0.3-1.3-0.7-1.8-1.3c-0.5-0.5-0.9-1.2-1.3-2c-0.3-0.8-0.5-1.7-0.5-2.7
		c0-1.1,0.2-2.3,0.5-3.5s0.8-2.3,1.3-3.5c0.6-1.1,1.2-2.2,2-3.2s1.6-1.9,2.5-2.6c0.9-0.8,1.9-1.4,2.9-1.8s2-0.7,3.1-0.7
		c0.3,0,0.6,0.1,0.8,0.2s0.4,0.3,0.5,0.5s0.3,0.3,0.4,0.5c0.1,0.2,0.3,0.3,0.5,0.4s0.4,0.1,0.6,0.1c0.2,0,0.4,0,0.6,0
		c0.2,0,0.3,0,0.5,0s0.3,0,0.5,0s0.4,0,0.6,0.1c0.2,0,0.4,0.1,0.5,0.3c0.2,0.2,0.3,0.4,0.4,0.6c0.1,0.3,0.1,0.6,0.1,1.1
		c0,0.7-0.1,1.5-0.2,2.4c-0.2,0.9-0.3,1.8-0.5,2.7c-0.2,0.9-0.3,1.9-0.5,2.8s-0.2,1.8-0.2,2.6c0,0.7,0.1,1.3,0.2,1.7
		c0.1,0.4,0.4,0.6,0.8,0.6c0.3,0,0.6-0.1,1-0.2c0.3-0.2,0.7-0.4,1-0.6c0.4-0.3,0.7-0.5,1.1-0.9c0.4-0.3,0.7-0.7,1-1
		c0.7-0.8,1.5-1.7,2.2-2.8L546,363.3z M526.7,361.5c0,0.4,0,0.7,0.1,1.1s0.1,0.7,0.3,0.9c0.1,0.3,0.3,0.5,0.5,0.7s0.5,0.3,0.9,0.3
		c0.6,0,1.1-0.2,1.5-0.7c0.5-0.5,0.8-1.1,1.2-1.7c0.3-0.7,0.6-1.4,0.8-2.1s0.3-1.3,0.4-1.8l1.4-6.6c-0.6,0-1.2,0.2-1.8,0.5
		s-1.1,0.7-1.7,1.3c-0.5,0.5-1,1.1-1.4,1.8c-0.4,0.7-0.8,1.4-1.1,2.1s-0.6,1.5-0.7,2.2C526.8,360.1,526.7,360.9,526.7,361.5z"/>
</g>
</svg>
