<?xml version="1.0" encoding="utf-8"?>
<!-- Generator: Adobe Illustrator 22.1.0, SVG Export Plug-In . SVG Version: 6.00 Build 0)  -->
<svg version="1.1" id="Layer_1" xmlns="http://www.w3.org/2000/svg" xmlns:xlink="http://www.w3.org/1999/xlink" x="0px" y="0px"
	 viewBox="0 0 600 400" style="enable-background:new 0 0 600 400;" xml:space="preserve">
<style type="text/css">
	.st0{fill:#FB8B08;}
	.st1{fill:#FA8908;}
	.st2{fill:#FB7F08;}
	.st3{fill:#FB8408;}
	.st4{fill:#FB7B08;}
	.st5{fill:#FB7708;}
	.st6{fill:#FB9308;}
	.st7{fill:#FD9A08;}
	.st8{fill:#FB9608;}
	.st9{fill:#FB9808;}
	.st10{fill:#FB7308;}
	.st11{fill:#FB4E08;}
	.st12{fill:#FB8008;}
	.st13{fill:#FB7608;}
	.st14{fill:#FB7A08;}
	.st15{fill:#FB8208;}
	.st16{fill:#FB5C08;}
	.st17{fill:#FB4807;}
	.st18{fill:#FB5D08;}
	.st19{fill:#FB4307;}
	.st20{fill:#FB4507;}
	.st21{fill:#FB2E06;}
	.st22{fill:#FB3E08;}
	.st23{fill:#FB5808;}
	.st24{fill:#FB2906;}
	.st25{fill:#FB6A08;}
	.st26{fill:#FB5A08;}
	.st27{fill:#FB4F08;}
	.st28{fill:#FB6908;}
	.st29{fill:#FB6408;}
	.st30{fill:#FB6009;}
	.st31{fill:#FB6108;}
	.st32{fill:#FB7008;}
	.st33{fill:#FB3C08;}
	.st34{fill:#FB6B08;}
	.st35{fill:#FB5B08;}
	.st36{fill:#FB5208;}
	.st37{fill:#FB7208;}
	.st38{fill:#FB8108;}
	.st39{fill:#FB6E08;}
	.st40{fill:#FB9108;}
	.st41{fill:#FB4D08;}
	.st42{fill:#FB8308;}
	.st43{fill:#FB7D08;}
	.st44{fill:#FB6C08;}
	.st45{fill:#FB8D08;}
	.st46{fill:#FB8708;}
	.st47{fill:#FB5708;}
	.st48{fill:#FB8C08;}
	.st49{fill:#FB8F08;}
	.st50{fill:#FB8E08;}
	.st51{fill:#FB8A08;}
	.st52{fill:#FB7908;}
	.st53{fill:#FB8908;}
	.st54{fill:#FB2504;}
	.st55{fill:#FB9009;}
	.st56{fill:#FB6508;}
	.st57{fill:#FC8703;}
	.st58{fill:#FB2807;}
	.st59{fill:#FC8D08;}
	.st60{fill:#FB3908;}
	.st61{fill:#FB3508;}
	.st62{fill:#FB3A08;}
	.st63{fill:#FC3F08;}
	.st64{fill:#FB2808;}
	.st65{fill:#FC4D08;}
	.st66{fill:#FB3608;}
	.st67{fill:#FC4708;}
	.st68{fill:#FB5908;}
	.st69{fill:#FB4908;}
	.st70{fill:#FC4208;}
	.st71{fill:#FB5608;}
	.st72{fill:#FB6809;}
	.st73{fill:#FB7C08;}
	.st74{fill:#FB6708;}
	.st75{fill:#FB2101;}
	.st76{fill:#FB2208;}
	.st77{fill:#FB2308;}
	.st78{fill:#FB2408;}
	.st79{fill:#FB2708;}
	.st80{fill:#FB2508;}
	.st81{fill:#FC2508;}
	.st82{fill:#FB5F08;}
</style>
<g>
	<g>
		<path class="st0" d="M0.4,111.5c0-16.4,0-32.8,0-49.1C1,60.9,2,59.7,3.1,58.6c8.1-8.1,16.2-16.2,24.3-24.3
			c1.1-1.1,2.3-2.1,3.7-2.7c189.2,0,378.3,0,567.5,0c1.5,0,1.8,0.3,1.8,1.8c0,111.3,0,222.6,0,333.9c0,1.7-0.5,1.9-2,1.9
			c-91,0-182,0-273,0c-0.7-0.6-0.8-1.3-0.9-2.2c0-1.1,0-2.2,0-3.4c0-39.9,0-79.8,0.1-119.7c0-4-1.8-7-3.4-10.3
			c-0.3-0.6-1-0.8-1.6-1.2c-3.9-2.1-8-1.2-12.1-0.9c-0.7,0.1-1.5,0.4-2.1,0.9c-1.5,1.3-3.3,1.9-5.1,2.6c-0.7,0.3-1.4,0.2-1.9-0.2
			c-2.2-1.5-4.8-2.6-6.8-4.4c-0.4-0.5-0.7-1.1-0.6-1.8c0.2-0.2,0.3-0.4,0.6-0.7c-0.4,0.3-0.5,0.5-0.7,0.7c-0.2,0.1-0.3,0.2-0.5,0.2
			c-0.3,0-0.6-0.2-0.8-0.5c-0.3-0.8,0.1-1.3,0.7-1.7c0.5-0.9,0.3-1.8,0.3-2.8c0-38.8,0-77.6,0-116.4c0,38.8,0,77.6,0,116.4
			c0,0.9,0.2,1.9-0.3,2.7c-0.9,0-1.1-0.7-1.2-1.4c-0.1-0.8-0.1-1.6-0.1-2.4c0-39,0-77.9,0-116.9c0-1.1,0-2.1,0.2-3.2
			c-0.1-1.4,0.1-2.7,0.3-4c0.5-2.7-0.1-5.4-0.6-8c-0.3-1.1-1.3-1.6-1.8-2.5c-0.7-0.8-1.6-0.5-2.5-0.5c-20.9,0-41.7,0-62.6,0
			c-49,0-97.9,0-146.9,0c-1.1,0-2.3-0.4-2.9,1c-0.3,0.6-1,0.9-1.2,1.5c-0.8,3.3-1.2,6.5-0.3,9.9c0.2,0.7,0.1,1.3,0.1,2
			c0,0.2,0,0.5,0,0.7c0.1,1.1,0.1,2.2,0.1,3.4c0,23.2,0,46.4,0,69.7c0,1.2,0,2.4-0.1,3.5c-0.9,1.4-1.6,1.6-2.8,0.7
			c-0.6-0.4-1-0.9-1.5-1.4C45.3,157.4,24,136.1,2.7,114.9C1.7,113.9,0.9,112.8,0.4,111.5z"/>
		<path class="st0" d="M257.2,369.1c-69.1,0-138.2,0-207.4,0c-0.6-0.5-0.8-1.1-0.8-1.8c0-4.1-0.3-8.2,0.2-12.2
			c0.9-1.1,2-1.8,3.3-2.3c2.1-0.8,4.2-1.6,6.3-2.4c1.5-0.5,2.2-1.5,2.1-3.1c0-5.4,0-10.9,0-16.3c0-1.9-0.4-2.1-2.1-1.6
			c-2.2,0.7-4.3,1.6-6.5,2.4c-0.8,0.3-1.7,0.6-2.5,0.2c-1.4-0.7-1.2-2-1.1-3.1c0.5-5.5,0.7-11,0.1-16.4c-0.9-7.8-0.3-15.6-0.6-23.3
			c0-0.9,0-1.8,0.2-2.6c0.1-0.4,0.4-0.8,0.9-0.8c0.4,0.1,0.6,0.5,0.6,0.8c0.1,0.6,0.1,1.1,0.1,1.7c0,4.6,0,9.2,0,13.8
			c0,1.6,0.2,3.1,0.9,4.5c0.4,0.4,0.9,0.4,1.4,0.2c2.3-0.9,4.6-1.6,6.8-2.6c1.2-0.5,1.7-1.3,1.7-2.6c0-5.7,0-11.4,0-17
			c0-1.5-0.3-1.8-1.9-1.2c-2.2,0.7-4.3,1.6-6.5,2.4c-0.8,0.3-1.5,0.6-2.3,0.2c-1.3-0.4-1.3-1.5-1.3-2.6c0-5.7,0-11.3,0-17
			c0-1.1-0.6-2.3,0.2-3.4c2.8-2,6.2-2.8,9.3-4.1c2.3-0.9,2.4-1.1,2.4-3.6c0-1.9,0-3.9,0.1-5.8c0-0.9,0.2-1.8,1.2-2.1
			c1-0.3,1.6,0.3,2.4,0.7c2,1.1,3.8,2.5,5.8,3.6c3.5,1.9,6.7,4.2,10.1,6.3c2.9,1.8,5.9,3.5,8.7,5.3c0.8,0.5,1.4,1.2,2.2,1.7
			c2.4,1.5,5,2.6,7.3,4.2c1.5,1.3,3.3,1.9,4.9,3.1c2.4,1.8,5.1,3.1,7.6,4.7c1.4,1.6,3.5,2,5.2,3.2c1.9,1.7,4.3,2.5,6.3,4.1
			c0.6,0.4,1.3,0.7,1.9,1.2c1.8,1.4,3.9,2.3,5.8,3.5c1.2,1.6,3.3,1.8,4.7,3c1.1,0.9,2.5,1.6,3.6,2.6c1.8,1,3.7,1.7,5.4,2.9
			c1.8,1.8,4.2,2.6,6.3,3.9c5.5,3.5,11,7,16.6,10.4c5.4,3.3,10.9,6.6,16.3,10c5.8,3.6,11.6,7.3,17.5,10.9
			c5.4,3.3,10.8,6.7,16.2,10.1c5.5,3.4,11,6.9,16.5,10.3c5.7,3.5,11.3,7,17,10.5c2,1.2,3.9,2.4,5.8,3.7
			C256.9,367.7,257.6,368.2,257.2,369.1z"/>
		<path class="st1" d="M50.6,308.7c-1.5,0.4-1.1-0.8-1.1-1.4c0-4.6,0-9.2,0-13.8c0-2.3,0-4.6,0-7.2c-0.6,1-0.4,1.6-0.4,2.3
			c0,6.3-0.4,12.6,0.1,18.9c0.5,5.6,0.6,11.1,0.6,16.7c0,1.7,0.1,3.5-0.3,5.2c-0.2,0.8-0.4,1.8,0.7,2.3c0.3,0.5,0.5,1.2,0.5,1.8
			c0.1,6.4,0.1,12.8,0,19.2c0,0.8-0.3,1.6-0.9,2.2c0,4.8,0,9.5,0,14.3c-16.5,0-33,0-49.5,0c0-85.9,0-171.8,0-257.6
			c0.6,0.6,1.3,1.1,1.9,1.8c21.7,21.7,43.5,43.5,65.2,65.2c0.8,0.8,1.4,1.6,2.6,1.7c1.1,0.6,0.9,1.7,0.9,2.7c0.1,4,0,8,0,12
			c0,9.8,0,19.6,0,29.3c0,1.2,0.1,2.5-0.2,3.7c-0.1,0.5-0.5,0.7-0.9,0.9c-4.8,3.4-9.9,6.2-14.8,9.4c-0.7,0.5-1.5,0.9-2.3,1.2
			c-0.8,0.3-1.4,0.8-1.6,1.7c-0.5,0.9-0.4,1.8-0.4,2.7c0,5.4,0,10.8,0,16.2c0,1.2-0.1,2.4-0.9,3.3c-0.4,1.6,0,3.2,0,4.8
			c-0.1,5.3,0,10.7,0,16c0,0.6-0.1,1.3,0.8,1.3c0.4,1,0.1,2,0.1,2.9c0,5,0,10.1,0,15.1C50.8,305.3,50.6,307,50.6,308.7z"/>
		<path class="st2" d="M257.2,369.1c-4.4-3.1-9-5.8-13.6-8.6c-7.9-5-15.8-9.9-23.8-14.8c-11.1-6.8-22.2-13.6-33.2-20.5
			c-7.7-4.8-15.3-9.6-23-14.4c-5.7-3.6-11.5-7-17.2-10.6c-1-0.6-2-1.3-2.9-2c0.4-0.8,1.2-0.8,1.9-0.9c1.4-0.1,2.9-0.1,4.3,0
			c3.6,1.9,7.1,4.1,10.7,6.3c5.8,3.6,11.6,7.3,17.6,10.9c1.9,1.2,4.2,1.6,6.4,1.8c1.3,0.1,2.5-0.6,3.4-1.5c-1.1-0.4-2.7-0.5-2.1-2.4
			c0.1-0.2,0.2-0.3,0.4-0.4c0.2-0.1,0.3-0.1,0.5-0.1c2.3,1.2,4.5,1.1,6.8-0.3c6.7-4.1,13.4-8.4,20.2-12.5c1.3-0.8,2.7-1.6,3.8-2.7
			c0.9-0.2,1.7-0.7,2.5-1.2c5.3-3.2,10.3-6.7,15.6-9.8c5.5-3.2,10.9-6.7,16.4-10.1c3.5-2.2,7.1-4.4,10.6-6.6
			c7.2-4.6,14.4-9.3,21.8-13.6c0.9-0.5,1.7-1,2.6-1.5c1-0.5,1.6-1.3,1.7-2.5c0.7-6.5,0.1-13,0.3-19.5c0-1.1-0.3-2.3,0.9-3.1
			c0.2,0,0.5,0,0.7,0c0.1,0.2,0.2,0.4,0.2,0.6c0.7,3.7,0.2,7.3,0.3,11c0,0.2,0.1,0.4,0.1,0.6c0.1,2.2-0.7,4.3-0.4,6.5
			c0.1,1-0.1,2.2,1,2.8c1.7,0,2.8-1.3,4.1-2c0.9-0.5,1.8-0.9,2.7-0.1c0.6,0.9,0.4,1.9,0.4,2.9c0,4.1,0,8.2,0,12.3
			c0,2.3,0.4,2.5,2.5,1.8c2.2-0.7,4.3-1.5,6.5-2.4c0.7-0.3,1.4-0.5,2.2-0.1c0.9,0.3,1.1,1.1,1.1,2c0.1,6.2,0.3,12.4-0.1,18.6
			c0,0.3-0.1,0.7-0.1,1c-0.1,0.9,0,1.9-0.8,2.6c-1.7,1.4-3.8,1.8-5.7,2.6c-1.1,0.5-2.3,1-3.5,1.3c-1.6,0.5-2.1,1.5-2.1,3.1
			c0,5.4,0,10.8,0,16.2c0,2,0.4,2.3,2.4,1.6c2.2-0.8,4.3-1.7,6.4-2.5c0.8-0.3,1.5-0.5,2.3-0.1c1,0.4,1.1,1.3,1.1,2.2
			c0.1,6.4,0.1,12.7,0,19.1c0,1-0.4,1.8-1.2,2.4c-1.1,1.3-2.7,1.4-4.1,2c-1.7,0.7-3.5,1.3-5.2,2c-1.2,0.5-1.7,1.3-1.8,2.6
			c0,5.6,0,11.2,0,16.8c0,1.5,0.5,1.9,2,1.4c2.1-0.7,4.2-1.6,6.3-2.4c0.8-0.3,1.6-0.6,2.5-0.2c1,0.3,1.4,1,1.4,2
			c0.1,3.5,0.1,6.9,0,10.4c0,0.7-0.3,1.3-0.8,1.8C292.8,369.1,275,369.1,257.2,369.1z"/>
		<path class="st1" d="M299.6,234.5c1.5-1.1,3.3-1.4,4.7-2.8c1-1,2.7-1.5,4.4-1.4c2.6,0.3,5.2-0.8,7.8-0.1c1.6,0.4,3,1.3,4.6,1.6
			c0.6,0.1,1.1,0.6,1.3,1.2c0.6,2.1,1.7,4.1,2.8,6c0.5,0.8,0.3,1.7,0.3,2.6c0,42.5,0,84.9,0,127.4c-1.5,0-3,0-4.5,0
			c-0.7-0.6-0.8-1.3-0.9-2.2c0-1.1,0-2.2,0-3.4c0-35.5,0-71.1,0-106.6c0-3.4-0.4-6.8-0.3-10.3c0-2.6-1.1-5-2.7-7.1
			c-1.7-2.2-4.8-3-7.4-2.3c-1.3,0.4-2.5,1.1-3.9,1.2c-2.5-0.2-4.3-1.7-6.1-3.2C299.5,235.2,299.5,234.8,299.6,234.5z"/>
		<path class="st3" d="M305.2,237.9c1.6,0.1,2.7-1,4.2-1.5c3.4-1.1,7.8,0.8,9.3,3.9c1,2,2.2,4.1,2.1,6.3c-0.2,2.6,0.2,5.1,0.2,7.6
			c0,38.3,0,76.6,0,114.9c-1.4,0-2.8,0-4.1,0c-0.5-0.4-0.8-1-0.8-1.6c0-0.6,0-1.1,0-1.7c0-36.7,0-73.3,0-110c0-3.4,0.1-6.7-0.5-10.1
			c-0.2-1.2-0.7-2.1-1.5-2.9c-1.1-1.1-1.5-1-2.2,0.5c-0.6,1.3,0.2,2.7-0.4,3.9c-0.1,0.2-0.3,0.3-0.4,0.5c-0.2,0.1-0.4,0.1-0.6,0.1
			c-1.3-1-0.7-2.5-0.9-3.8c-0.1-1,0.4-2.2-0.8-2.8c-0.3-0.2-0.5-0.5-0.8-0.6c-0.4-0.5-1-0.6-1.6-0.9
			C305.6,239.3,304.9,238.9,305.2,237.9z"/>
		<path class="st1" d="M31.1,31.6C21,42,10.8,52.3,0.4,62.4c0-9.8,0-19.7,0-29.5c0-1,0.2-1.3,1.2-1.2C11.4,31.6,21.3,31.6,31.1,31.6
			z"/>
		<path class="st4" d="M310.9,247.6c0-1.4,0-2.7,0-4.1c1.6-0.6,2.9-0.1,3.8,1.6c1.2,2.4,1.7,5,1.6,7.6c-0.1,1.4-0.1,2.9-0.1,4.3
			c0,36.4,0,72.8,0,109.2c0,1,0.3,2.2-0.7,2.9c-0.9,0-1.8,0-2.6,0c-0.7-0.5-0.8-1.2-0.9-2c0-0.9,0-1.7,0-2.6c0-25,0-49.9,0-74.9
			c0-1.6,0.5-3.2-0.2-4.8c0.2-3.7,0.2-7.5,0.2-11.2c0-4.6-0.3-9.2-0.5-13.8c-0.1-2.3,0.3-4.6,0.3-6.9
			C311.7,251.1,311.1,249.4,310.9,247.6z"/>
		<path class="st2" d="M315.4,369.1c0-38.7,0-77.3,0-116c0-2.3-0.3-4.5-1.1-6.6c-0.6-1.7-1.7-2.7-3.4-3.1c0-1.2-0.3-2.6,1.5-3
			c0.4-0.1,1-0.2,1.2,0.1c1,1.5,2.6,2.4,3,4.5c0.9,4.5,0.3,8.9,0.3,13.4c0,36.9,0,73.7,0,110.6C316.4,369.1,315.9,369.1,315.4,369.1
			z"/>
		<path class="st5" d="M312.4,284.4c0.6,0.9,0.4,1.8,0.4,2.7c0,27.3,0,54.7,0,82c-0.8,0-1.5,0-2.2,0c0-3.9,0-7.7,0-11.6
			c0-0.9,0.1-1.8-1.1-2c0.5-7.1,0.2-14.3,0.3-21.4c0-0.6,0.2-1.2-0.2-1.8c0.9-0.6,1.1-1.5,1.1-2.6c0-6,0-12,0-18
			c0-0.8,0.3-1.8-0.7-2.3c-0.5-1-0.1-2-0.1-2.9c0-5.5,0-11.1,0-16.6c0-1-0.1-2,0.4-2.9c0.5-0.8,1.1-1.6,0.5-2.6c0-0.2,0-0.5,0-0.7
			C311.6,282.6,311.7,284.2,312.4,284.4z"/>
		<path class="st6" d="M289.9,228.5c0,7.9,0,15.7,0,23.6c-1,0.2-1.1-0.6-1.2-1.3c-0.1-1-0.4-1.3-1.4-0.7c-5,3-9.9,6-14.7,9.2
			c-2.7,1.8-5.4,3.6-8.2,5.2c-0.6,0.3-1.1,0.5-1.8,0.5c-14.5,0.1-29.1,0-43.6,0.1c-9.8,0-19.6,0-29.4,0c-0.9,0-2.1-0.4-2.5,1
			c1.1,1.4,2.7,1.1,4.1,1.3c1.7,0.2,3.4,0,5,0c18.1,0,36.3,0,54.4,0c1,0,2.4-0.5,2.8,0.8c0.3,1.2-1.1,1.4-1.9,2
			c-1.2,0.8-2.3,1.9-3.6,2.7c-1.4,1-2.8,1.4-4.4,0.5c-1-0.7-2.1-0.8-3.2-0.8c-17,0-34.1,0-51.1,0c-0.8,0-2.2-0.4-2.1,0.8
			c0,1,1.4,0.7,2.2,0.7c12,0,24.1,0,36.1,0c0.7,0,1.4,0,2.1,0c3.9,0.7,7.8,0.8,11.7,0.7c0.7,0,1.4,0,1.7,0.8
			c0.2,0.8-0.2,1.3-0.9,1.7c-6.2,3.9-12.5,7.7-18.8,11.4c-1.2,0.7-2.6,1.2-4,0.1c-0.6-1-0.4-2.1-0.4-3.1c-0.1-1.5-0.8-2.3-2.3-2.3
			c-8.3,0-16.6,0-24.9,0c-0.7,0-1.3,0.2-1.8,0.8c-1,0.7-1,1.8-1,2.9c0,7.5,0,15.1,0,22.6c0,0.9,0.2,1.8-0.6,2.5c0,0.1,0,0.2,0,0.4
			c-0.5,0.2-0.9-0.2-1-0.6c-0.3-1.5-1.4-1.8-2.7-2.1c-2.5-0.7-4.8-2.1-7-3.4c-3.1-1.9-6.2-4-9.4-5.7c-1-0.5-2.5-0.9-2.1-2.7
			c1.2-1.1,2.7-0.5,4.1-0.7c0.8-0.1,2,0,1.1-1.4c-2.8-1.2-5.7-0.9-8.5-0.8c-2.6,0.1-4.7-0.6-6.9-2.1c-1.5-1.1-3.2-2.3-5.4-2.2
			c-0.7,0-1.5-0.2-1.2-1.3c0.5-0.5,1.3-0.4,1.9-0.6c5,0.4,9.9,0.2,14.9,0.2c1.7,0,3.5-0.2,5-1.1c0.3-1-0.5-1-1.1-1.1
			c-0.7-0.1-1.5,0-2.2-0.1c-8.8-0.1-17.6,0.3-26.3-0.4c-1-1.5-2.3-2.5-3.7-3.5c-0.8-0.6-0.9-1.7,0.2-2.5c1.2-0.3,2.4-0.2,3.5-0.2
			c9,0,18,0,27,0c0.9,0,2.4,0.4,2.4-0.7c0-1.3-1.6-0.8-2.5-0.8c-10.6-0.1-21.2,0-31.8-0.1c-2.5-0.1-5-0.9-7.6-0.7
			c-0.4,0-0.8-0.2-1.2-0.5c-1.4-1.2-2.8-2.5-4.8-2.7c-0.4-0.1-0.8-0.4-0.8-0.9c0-0.6,0.5-0.6,1-0.7c0.2,0,0.4,0,0.6,0
			c3.6,0.2,7.1-0.2,10.6-0.7c11.3-0.1,22.6,0,33.9-0.1c0.9,0,2.6,0.6,2.6-0.8c0-1-1.7-0.7-2.6-0.7c-14.7,0-29.5,0-44.2,0
			c-1.2,0-2.5,0.1-3.7-0.3c-1.9-0.8-3.3-2.4-5.4-3c-0.5-0.1-0.8-0.6-0.6-1.2c0.1-0.5,0.6-0.6,1-0.6c0.7-0.1,1.4,0,2.1,0
			c16,0,31.9,0,47.9,0c1.9,0,3.9-0.1,5.6-1.1c0.2-1-0.5-1-1.1-1.1c-0.7-0.1-1.5-0.1-2.2-0.1c-17.7,0-35.3,0-53,0
			c-3.3,0-6.6-0.3-9.9,0.1c-0.4-0.1-0.7-0.2-1.1-0.2c-2.8-1.4-5.6-3-8.6-3.8c-0.4-0.1-0.9-0.4-0.8-0.9c0-0.7,0.6-0.7,1.1-0.8
			c0.7-0.1,1.4,0,2.1,0c22.7,0,45.4,0,68.1,0c1.9,0,3.9,0,5.5-1.2c0.1-1-0.6-1-1.2-1.1c-0.8-0.1-1.6-0.1-2.4-0.1c-23,0-46,0-69,0
			c-1.4,0-2.7,0.1-4.1-0.1c-3.7-2.3-7.2-4.8-10.9-7.1c-3.6-2.2-7-4.9-11.1-6.4c-0.5-0.2-0.7-0.5-0.8-0.9c-0.1-3.5,0-7.1,0-10.6
			c0-0.7,0.1-1.4,0.5-1.9c0-16,0-32,0-48c0-25.9,0-51.8,0-77.6c0.5-0.7,1.2-0.8,2-0.9c1.1-0.1,2.2,0,3.4,0c32.5,0,65,0,97.4,0
			c5.9,0,11.8,0.3,17.7,0.2c31.9-0.5,63.7-0.1,95.6-0.2c0.9,0,1.9,0,2.8,0.2c0.3,0.2,0.7,0.3,0.9,0.7c0,40.4,0,80.8,0,121.2
			c0,1-0.2,2,0.4,2.9c0.1,0.1,0.2,0.2,0.1,0.2c0,0.1-0.1,0.1-0.1,0.1C290.1,227.5,290,228,289.9,228.5z"/>
		<path class="st4" d="M289.1,102.5c-73,0-146,0-219,0c0-0.1,0-0.3,0-0.4c-0.3-4.2-0.3-8.5,0-12.7c0.3-0.4,0.6-0.7,1.1-0.8
			c0.5-0.8,1.2-1,2.1-0.9c0.9,0,1.8,0,2.8,0c69.8,0,139.5,0,209.3,0c0.9,0,1.9-0.3,2.6,0.6c0.8,0.3,1.2,1.1,1.9,1.5
			c0.4,3.9,0.1,7.8,0.2,11.8C290.1,102.2,289.5,102.3,289.1,102.5z"/>
		<path class="st7" d="M550.5,152.8c0.6,0.4,1.2,0.4,1.9,0.4c0.5-0.3,1-0.3,1.5,0c2.2,0.8,4.5,1.5,6.7,2.3c2,0.5,3.6,1.4,4.9,3
			c0.1,0.1,0.2,0.2,0.4,0.4c0.2,0,0.3,0.2,0.4,0.4c1.7,2,3.7,3.7,4.9,6c0.2,0,0.3,0.2,0.4,0.4c0.8,1.7,1.5,3.5,2.3,5.2
			c0.2,0.2,0.2,0.5,0,0.7c0.4,1.5,0.2,3.3,1.5,4.5c0.6,0.2,1.5,0.1,1.5,1.1c0.7,0.6,1.5,1.3,2.2,1.9c0.2,0,0.3,0.2,0.4,0.4
			c0.2,0.9,0.9,1.5,1.5,2.2c0.3,0.1,0.4,0.4,0.4,0.7c0.6,1.4,0.7,2.9,1.5,4.1c0.3,0.4,0.3,0.7,0,1.1c-0.6,0.9-0.4,1.9-0.4,2.9
			c0,1.4-0.3,2.7-1.1,3.8c-0.5,0.6-0.9,1.3-1.9,1.1c-1,0.1-2.1-0.2-3,0.4c-0.6,0.3-1.2,0.2-1.8,0.2c-21.8,0-43.7,0-65.5,0
			c-1.3,0-2.5,0-3.5-0.9c-0.5-0.8-1.1-1.4-1.9-1.9c-0.4-0.4-0.8-0.9-0.4-1.5c0-2.4-0.2-4.8,0.4-7.1c-0.5-0.9,0-1.5,0.4-2.2
			c0.4-0.8,0.7-1.5,1.1-2.3c-0.1-0.8-0.2-1.5,0.8-1.9c2-2.8,4.2-5.6,7.2-7.5c1.8-1.1,3.7-1.8,5.6-2.6c1-1.5,2.6-1.4,4.2-1.5
			c2.6,0.5,4-1.1,5.2-3l0,0c0.2-0.3,0.3-0.7,0.7-0.8c0.4-0.4,0.7-0.8,1.1-1.1c0.1-1.4,1-2,2.3-2.3c1.3-1,2.5-2,3.8-3
			c0.3-0.7,0.7-1,1.5-0.8c0.5-0.1,0.9-0.3,1.1-0.7c0.1-0.1,0.2-0.1,0.4,0c1.3-0.5,2.5-1,3.8-1.5c0.1-0.1,0.2-0.1,0.4,0
			c2.1-0.4,4.3-0.1,6.4-0.7C549.8,152.5,550.1,152.5,550.5,152.8z"/>
		<path class="st8" d="M331.1,136.3c-0.1-2.7,0-5.4,1.5-7.9c0,0,0,0,0,0c0.5-0.7,1-1.5,1.5-2.2c0-0.5,0.3-0.7,0.7-0.7
			c2.2-1.5,4.6-2.5,7.2-2.9c0.8-0.1,1.4-0.5,1.8-1.2c0-0.5,0.3-0.7,0.7-0.8c0.3-0.4,0.5-0.7,0.8-1.1c0.6-1.4,1.6-2.2,3-2.6
			c1.5-0.6,3-1.2,4.5-1.9c0.2-0.2,0.5-0.2,0.7,0c1.4,0,2.8,0,4.1,0c0.2-0.2,0.5-0.2,0.7,0c2.3,0.6,4.4,1.8,6.4,3
			c0.8,0,0.8,0.7,1.1,1.1c0.1,0.1,0.3,0.2,0.4,0.4c0.4,0.5,1,0.8,1.1,1.5c0.9,1.8,1.7,3.6,1.9,5.6c1.4,0.5,2.2,1.6,3,2.6l0,0
			c0.7,1.3,2.2,2.3,1.5,4.1c-0.1,3.8-0.8,4.5-4.4,4.5c-12.3,0-24.5,0-36.8,0C331.5,137.9,331,137.4,331.1,136.3z"/>
		<path class="st6" d="M466.1,79.2c-1.5-2.8-0.6-5.2,0.9-7.6c0.4-0.6,0.9-1.2,1.3-1.8c0.7-0.8,1.5-1.4,2.6-1.5c2,0,3.5-0.6,4.8-2.3
			c2.3-3.1,5.7-4.1,9.5-3.7c0.4-0.3,0.7-0.3,1.1,0c0.4,0.2,0.8,0.5,1.1,0.7c1.9,0,3.2,1.1,4.1,2.6c0.9,1.8,1.7,3.7,2.3,5.6
			c1.1-0.1,1.5,0.7,1.9,1.5c0.2,1.2,1.1,2.2,1.1,3.5c0,2.2-0.4,2.8-2.7,2.8c-4.2,0-8.5,0-12.7,0c-4.9,0-9.7,0-14.6,0
			C466.6,79.5,466.4,79.4,466.1,79.2z"/>
		<path class="st9" d="M394.1,276.1c2.9-1.8,6-2.4,9.4-1.5c2.8,0.5,5.3,3.4,5.6,6.4c0,0.5,0,1.1,0.4,1.5c0.3,0,0.6,0.1,0.7,0.4
			c0.5,0.7,1,1.5,1.5,2.2v0c-0.1,1.4,0.2,2.8-0.4,4.1c-0.6,0.7-1.4,0.8-2.2,0.7c-7.5-0.3-15.1-0.3-22.6,0c-0.8,0-1.6,0-2.2-0.7
			c-0.6-1.3-0.3-2.7-0.4-4.1c0.3-0.6,0.5-1.3,0.8-1.9c0.1-0.7,0.1-1.5,1.1-1.5c1.4-1.3,3-2.3,5.1-2.3c1,0,1.3-0.7,1.7-1.5
			C392.6,277,393.1,276.3,394.1,276.1z"/>
		<path class="st10" d="M481.9,149.8c-1.6-0.6-0.5-1.8-0.7-2.8c-0.1-0.7,0.6-1,1.3-1c1.3,0,2.6,0,3.9,0c1-0.3,2-0.3,3,0
			c11.9,0,23.8,0,35.7,0c-0.4,1.4-0.3,3-1.8,3.9c-1-0.5-1.9-0.3-2.9,0.3c-4.8,2.9-9.4,5.9-14.1,8.8c-1,0.6-2.1,1.1-3.3,0.5
			c-5.6-3.2-11-6.8-16.5-10.2c-0.9-0.6-1.8-1.4-3-1.4C482.1,147.9,482.3,149.1,481.9,149.8z"/>
		<path class="st1" d="M288,88.2c-71.1,0-142.3,0-213.4,0c-1.1,0-2.3-0.2-3.3,0.4c0.2-1.1,1-1.5,2.1-1.5c0.4,0,0.9,0,1.3,0
			c70.2,0,140.4,0,210.6,0C286.2,87.2,287.7,86.5,288,88.2z"/>
		<path class="st2" d="M502.9,159.5c1.7-0.2,3.1-1.3,4.5-2.2c4.5-3,9.2-5.7,13.8-8.6c1.9-1.2,1.9-1.2,2,1c0.7,0.4,1.6-0.7,2.2,0.3
			c0,1.1,0,2.3,0.1,3.4c0.1,0.1,0.2,0.3,0.2,0.5c0,0.2-0.1,0.3-0.3,0.5c-1.6,1.7-1.6,1.9,0.1,3.5c0,1,0,2,0,3
			c0.2,0.2,0.2,0.5,0.2,0.7c0,0.2-0.1,0.3-0.3,0.5c-1.7,1.7-1.6,2,0.2,3.6c0.4,0.9,0.2,1.4-0.9,1.4c-0.5,0-1-0.1-1.4,0.2
			c-1.5,0-3,0.4-4.5,0.8c-0.1,0-0.3,0-0.4-0.1c-0.4-0.7-0.1-1.2,0.3-1.5c-2.1,1.4-2.8,1.3-2.9-0.5c0.1-0.2,0.3-0.4,0.6-0.6
			c0.6-0.1,1.2-0.2,1.9-0.2c0.1,0-0.1-0.3-0.1-0.1c0,0.1,0,0.1-0.1,0.1c-0.6-0.1-1.2,0.3-1.7-0.3c-0.3-0.2-0.6-0.2-0.9-0.2
			c-0.7-0.1-0.9-0.8-1.3-1.1c-0.3-0.2-0.6-0.4-1-0.2c-0.4,0.4-0.8,0.8-1.2,1.1c-0.1,0-0.2,0-0.2,0.1
			C508.3,163.6,505.8,161.2,502.9,159.5z"/>
		<path class="st11" d="M305.2,237.9c1,0.7,2,1.5,3.1,2.2c0.1,0.7-0.4,0.8-0.9,0.9c-1.2,0.3-2.5,0.5-3.7,0.3
			c-3.5-0.5-7.1-0.3-10.7-0.3c-0.9,0-1.9-0.1-2.7-0.5c0-3.2,0-6.5,0-9.7c0-0.7-0.1-1.4,0.4-2c0.5,0.2,1.1,0.4,1.5,0.8
			c2.3,1.9,5,3.2,7.5,4.8C301.5,235.6,303.4,236.8,305.2,237.9z"/>
		<path class="st1" d="M290.2,227c0-0.1,0-0.2,0-0.4c0-41,0-81.9,0-122.9c0.9,0.5,0.7,1.2,0.7,1.8c0,39.6,0,79.2,0,118.9
			C291,225.3,291.2,226.3,290.2,227z"/>
		<path class="st12" d="M362.3,200.7c0,0.3,0,0.5,0,0.8c-0.7,0.6-0.8,1.2,0,1.9c0,0.5,0,1,0,1.5c0,0.1,0,0.2-0.1,0.2
			c-0.2,0.5-0.2,0.9,0,1.4c0,0.1,0,0.2,0.1,0.2c0,0.3,0,0.5,0,0.8c0.2,0.2,0.3,0.5,0.1,0.8c-0.3,0.5-0.7,0.7-1.2,0.3
			c-0.9,0.3-1.7,0-2.3-0.7c0-0.2,0-0.4,0-0.6c-0.1-0.1-0.2-0.1-0.4-0.2c-0.8-0.4-1.9,0.6-2.6-0.4c-0.7-0.8-1.6-1.4-2.6-1.9
			c-0.4-0.1-0.5-0.5-0.8-0.7c-0.1,0-0.3,0-0.4,0c-0.3-1.4,0.9-1.7,1.7-2.1c1.4-0.8,2.7-1.7,4.1-2.6c-4.7-0.8-9.4,0.2-14-0.8
			c-0.6,0.1-0.8,0.6-1.1,1c-1-2.2,0.7-1.7,1.8-1.9c0.1-0.2,0.3-0.2,0.4,0c5,0,9.9,0,14.9,0c0.8,0,1.6-0.1,2.3,0.4
			c0,0.1,0,0.1-0.1,0.2c-0.4,0.5-0.3,1,0.1,1.5C362.4,200.1,362.4,200.4,362.3,200.7z"/>
		<path class="st13" d="M343.5,198.1c5.2,0,10.3,0,15.5,0c0.5,0,1.3-0.3,1.4,0.5c0.1,0.6-0.6,0.7-1,0.9c-2.4,1.5-4.8,3-7.2,4.5
			c-2.8-1.7-5.5-3.5-8.3-5.2C343.2,198.9,343.3,198.5,343.5,198.1z"/>
		<path class="st14" d="M534.8,314.7c-1.8-1-3.5-2-5.3-3c-0.6-0.3-1.1-0.8-1.9-0.3c-0.4,0.1-0.5-0.1-0.4-0.4c-0.3-0.8,0-1.1,0.8-1.1
			c4.8,0.3,9.5,0.3,14.3,0c1.2,0.6,0.7,1.4,0.4,2.2c-1.6-0.1-2.7,0.8-4,1.6C537.5,314.4,536.3,315.4,534.8,314.7z"/>
		<path class="st15" d="M534.8,314.7c1.8-0.7,3.5-1.6,4.9-2.9c1.2-1,2.1-1.1,2.9,0.2c0.4,0.8,0.4,1.7,0.4,2.6
			c-0.3,0.3-0.4,0.6-0.4,1c-0.2,0.5-0.2,1.1,0,1.6c0.2,0.6,0.7,1.4,0.1,1.9c-0.7,0.6-1.2-0.3-1.8-0.6
			C538.7,317.6,536.6,316.3,534.8,314.7z"/>
		<path class="st1" d="M505.5,195.1c2.6,1,5.3,0.7,7.9,0.7c21,0,42,0,62.9,0c-0.7,0.5-1.6,0.4-2.4,0.4c-22,0-44,0-65.9,0
			C507.2,196.2,505.8,196.9,505.5,195.1z"/>
		<path class="st1" d="M466.1,79.2c0.3,0,0.5,0,0.8,0c0.7,0.5,1.6,0.4,2.4,0.4c7.7,0,15.5,0,23.2,0c0.7,0,1.3,0,2.5,0
			c-1,0.9-1.8,0.7-2.5,0.7c-6.7,0-13.4,0-20,0c-1.4,0-2.9,0-4.3,0.2C467.2,80.7,465.9,80.9,466.1,79.2z"/>
		<ellipse class="st1" cx="495.2" cy="174.9" rx="16.5" ry="0.3"/>
		<path class="st1" d="M331.1,136.3c0.4,0.6,0.9,1.1,1.5,1.5c0.8,0.5,1.7,0.4,2.5,0.4c10.5,0,21,0,31.5,0c0.7,0,1.3,0,2.2,0
			c-0.6,0.5-1.1,0.4-1.5,0.4c-11.2,0-22.4,0-33.5,0c-0.7,0-1.5-0.1-2.2-0.3C330.7,137.8,330.2,137.2,331.1,136.3z"/>
		<path class="st1" d="M384.4,289.2c1,0.3,1.9,0.4,2.9,0.4c7,0,14.1,0,21.1,0c1,0,2-0.1,2.9-0.4c-0.4,1.4-1.4,1.1-2.4,1.1
			c-7.4-0.5-14.8-0.5-22.1,0C385.8,290.4,384.7,290.6,384.4,289.2z"/>
		<path class="st16" d="M481.1,161.4c0.6-0.1,1.2-0.3,1.9-0.4c1.1,1.2,0.5,2.5,0.4,3.8c-1.9,1.1-2.2,0.9-2.2-1.3
			C481.1,162.8,481.1,162.1,481.1,161.4L481.1,161.4z"/>
		<path class="st17" d="M483.3,157.2c-0.7,0-1.7,1-2.1-0.5c-0.5-2,0.1-3.1,1.8-3.7C484.1,154.4,483.6,155.8,483.3,157.2z"/>
		<path class="st18" d="M525.4,158c-0.8,0.1-1.8,0.9-2.1-0.4c-0.2-1.1-0.6-2.5,0.9-3.2c0.4-0.2,0.8-0.3,1.2-0.5
			c0.4,1.2,0.2,2.5,0,3.7C525.4,157.7,525.4,157.9,525.4,158z"/>
		<path class="st1" d="M525.3,161.8c0-0.3,0-0.5,0-0.8c0.5,0.7,1.2,1.4,0.8,2.4c-0.2,0.5-0.5,1,0.1,1.3c0.6,0.3,0.7-0.5,1.1-0.7
			c0.2-0.1,0.4-0.2,0.6-0.3c-1.2,3.5-1.6,3.8-4.9,3.7c0.4-0.8,2.3,0.4,1.9-1.5C524.4,164.5,524.2,163.1,525.3,161.8z"/>
		<path class="st19" d="M481.9,169.3c0.4-0.1,0.7-0.3,1.1-0.4c1.2,1.2,0.5,2.5,0.3,3.7c-0.5,0.3-1,0.5-1.4,0.8
			C481.1,172.4,481.1,170.5,481.9,169.3z"/>
		<path class="st20" d="M525.3,150.1c-0.7-0.1-1.6,0.9-2.2-0.3c0.4-1.4,0.4-2.9,1.9-3.7c0.1,0,0.2,0,0.3,0
			C525.6,147.4,525.9,148.8,525.3,150.1L525.3,150.1z"/>
		<path class="st1" d="M503.2,191.8c0.1,0.5,0.3,1,0.4,1.5c-1.6-1.1-2-2.7-1.8-4.4c0.1-1.1,0.4-2.1,0.3-3.2
			C503.6,187.5,502.2,189.9,503.2,191.8z"/>
		<path class="st1" d="M542.2,309.9c-0.7,0.5-1.6,0.4-2.4,0.4c-3.3,0-6.6,0-9.9,0c-0.7,0-1.4,0.1-2-0.4c3.4,0,6.8,0,10.2,0
			c2.7,0,2.7,0,4.1-1.9C543,308.6,542,309.2,542.2,309.9z"/>
		<path class="st1" d="M409.1,281c-1.2-2.7-2.7-5.1-5.6-6.4c0.5-0.4,0.9-0.3,1.4,0c2.1,1,3.2,2.9,4.4,4.8
			C409.6,279.9,409.5,280.5,409.1,281z"/>
		<path class="st1" d="M565.5,158.4c-1.8-0.7-3.2-2.1-4.9-3c0.9-0.6,1.8-1.2,2.4,0.5c0.2,0.5,0.9,0.5,1.5,0.7
			C565.4,156.8,565.8,157.4,565.5,158.4z"/>
		<path class="st21" d="M516.1,166.2c0.1,0.3-0.1,1,0.4,0.7c1.2-0.8,2.5-0.5,3.8-0.9c-1.2,0.2-1.4,1.4-2.1,2.1c-0.8,0-1.7,0-2.5,0
			c-0.3-0.3-0.7-0.5-1.2-0.5c-0.5-0.1-0.9-0.4-0.8-1c0.2-0.3,0.4-0.4,0.7-0.5C515,166.1,515.5,165.7,516.1,166.2z"/>
		<path class="st22" d="M355.9,206.7c1,0.1,1.9-1.2,3-0.4c0.2,0.4,0.9,0.3,1.1,0.8c-0.1,0.6-0.6,0.8-1.1,0.8c-0.8,0-1.6,0-2.4-0.1
			C356,207.7,355.2,207.6,355.9,206.7z"/>
		<path class="st1" d="M583.5,190.7c0.1-1.5-0.6-3.2,1.8-3.9C584.8,188.2,585.6,190.1,583.5,190.7z"/>
		<path class="st1" d="M372.4,129.1c-1-0.9-2.2-1.5-3-2.6c0.9-0.3,0.1-1.2,0.5-1.7c1,0.1,1.3,1.1,2.4,1.3c-1.3,0.3-1.6,0.8-0.7,1.6
			C371.9,128.1,372.3,128.5,372.4,129.1z"/>
		<path class="st23" d="M481.9,149.8c-0.3-0.4-0.4-0.9-0.4-1.4c0.1-0.6-0.3-1.4,0.4-1.6c0.7-0.2,1.2,0.5,1.4,1.1
			C483.5,149,482.9,149.6,481.9,149.8z"/>
		<path class="st1" d="M289.1,102.5c0.7-0.6,0.8-1.5,0.8-2.4c0-3.5,0-6.9,0-10.4c0.8,2.4,0.3,4.8,0.3,7.2c0,1.8,0.4,3.7-0.3,5.5
			C289.6,102.5,289.4,102.5,289.1,102.5z"/>
		<path class="st24" d="M513.7,166.7c0.4,0.1,0.8,0.2,1.2,0.3c0.2,0.4,0.3,0.7-0.2,1c-1.7,0.3-3.3-1-5-0.3c0-0.5,0.4-0.7,0.6-1.1
			c0.2-0.4,0.6-0.6,1-0.8C512.3,165.9,513,166.3,513.7,166.7z"/>
		<path class="st1" d="M529.5,308.8c3.6,0,7.2,0,10.8,0c0,0.1,0,0.2,0,0.2c-3.6,0-7.2,0-10.8,0C529.5,308.9,529.5,308.9,529.5,308.8
			z"/>
		<path class="st1" d="M582.7,187.6c0-0.4,0-0.7,0-1.1c0.9,1.2-0.1,2.9,0.8,4.1c0,0.6,0.3,1.2,0.6,1.7c0.2,0.3,0.4,0.7,0,1
			c-0.4,0.2-0.7-0.1-0.9-0.4c-0.7-0.9-0.4-2-0.4-3C582.7,189.1,582.7,188.4,582.7,187.6z"/>
		<path class="st1" d="M70.1,89.4c0,4.2,0,8.5,0,12.7c-0.8-2.5-0.3-5.1-0.3-7.6C69.8,92.8,69.4,91,70.1,89.4z"/>
		<path class="st1" d="M373.9,133.2c-0.5-1.4-1-2.7-1.5-4.1c2,1.2,2.3,3.1,2.5,5.2C374.1,134.3,374.3,133.5,373.9,133.2z"/>
		<path class="st1" d="M402.6,273.6c-1.4,0.2-2.7,0.5-4-0.1c-0.4-0.2-0.9-0.4-0.6-1c0.3-0.5,0.9-0.6,1.3-0.2
			C400.2,273.2,401.3,273.6,402.6,273.6z"/>
		<path class="st2" d="M513.7,166.7c-0.9,0.8-1.5-0.3-2.3-0.4c-0.7,0.1-0.7-0.4-0.7-0.9c0.2-0.2,0.5-0.4,0.7-0.7c0,0,0.1,0,0.1,0
			c1.2-0.3,2.3,0,3.2,0.9c0.1,0.4,0,0.7-0.3,1C514.2,166.6,514,166.7,513.7,166.7z"/>
		<path class="st1" d="M491.6,65.8c-1.3-1-2.5-2.1-4.1-2.6c0.6-1.2,1.3-0.1,1.8,0.1C490.4,63.7,491.6,64.2,491.6,65.8z"/>
		<path class="st1" d="M411.7,285.1c0.1-1.1,0.7-1.1,1.3-0.5c0.7,0.7,0.8,1.6,0.4,2.6C413,286.4,412.9,285.4,411.7,285.1
			L411.7,285.1z"/>
		<path class="st1" d="M471,68.4c-0.9,0.5-1.8,1-2.6,1.5c-0.4,0.1-0.8,0.2-1.2,0.4C467.4,69.1,469.4,68.2,471,68.4z"/>
		<path class="st1" d="M348.4,116.8c-1,0.9-2,1.7-3,2.6c0-1.9,1.6-2.4,2.8-3.2C348.4,116.1,348.4,116.5,348.4,116.8z"/>
		<path class="st1" d="M291,228.5c0.3-0.7,0.5-1.4,1.2-1.1c0.7,0.3,1.3,0.8,1.5,1.5c0.1,0.7-0.5,0.5-0.9,0.3
			C292.2,228.9,291.8,228.1,291,228.5z"/>
		<path class="st1" d="M527.2,311c0.1,0.1,0.3,0.3,0.4,0.4c-0.6,0.5-1.2,1.1-1.8,1.6C525.4,310.9,525.7,310.5,527.2,311z"/>
		<path class="st1" d="M532.1,159.5c-0.9,0.6-1.6,1.4-2.3,2.3c-1.2-0.7-0.1-1.4,0.2-1.7C530.6,159.6,531.2,158.5,532.1,159.5z"/>
		<path class="st1" d="M394.1,276.1c-0.5,0.6-1,1.2-1.5,1.9c-1.7-0.6-0.3-1.2,0.1-1.6C393,276,393.4,274.6,394.1,276.1z"/>
		<path class="st1" d="M481.9,169.3c-0.6,1.4-0.7,2.8,0,4.1c0.2,0.3,0.8,0.3,0.6,0.8c-0.1,0.2-0.4,0.1-0.6,0
			C480.8,173.5,480.8,170,481.9,169.3z"/>
		<path class="st1" d="M579.4,195.5c0.6-0.4,1.2-0.8,1.9-1.1c-0.5,1.5-1.1,1.9-3.5,1.8C578.4,195.9,578.9,195.7,579.4,195.5z"/>
		<path class="st1" d="M340,199c1.3,0.8,1.4,1.6,0.9,2.7C340,200.9,340.1,200.1,340,199z"/>
		<path class="st1" d="M505.9,178.3c-0.3,0.6-0.5,1.2-0.8,1.9c-0.2-0.3-0.4-0.6-0.6-0.9c-0.2-0.4-0.3-0.9,0-1.2
			C505.1,177.5,505.5,178.1,505.9,178.3z"/>
		<path class="st25" d="M342.9,206.5c-0.5-0.2-0.5-0.6-0.4-1.1c0-0.4,0.1-0.8,0.6-0.7c0.5,0.1,0.5,0.6,0.5,1.1
			C343.6,206.2,343.3,206.5,342.9,206.5z"/>
		<path class="st1" d="M495.7,72.9c-0.6-0.5-1.2-1-1.9-1.5c1.2-1.3,1.3,0.5,2,0.7C496.1,72.2,496.8,72.8,495.7,72.9z"/>
		<path class="st1" d="M334.9,125.4c-0.2,0.2-0.5,0.5-0.7,0.7c-0.4-0.1-0.9,0-1.1-0.5c-0.1-0.4,0.2-0.5,0.5-0.7
			C334.1,124.7,334.6,124.6,334.9,125.4z"/>
		<path class="st1" d="M504,182.4c-0.1,0.7-0.3,1.5-0.4,2.2c-0.2,0.1-0.6,0.5-0.7,0c-0.1-0.9,0.1-1.8,0.8-2.5c0,0,0.1,0,0.1,0.1
			C504,182.3,504,182.3,504,182.4z"/>
		<path class="st1" d="M550.5,152.8c-0.4,0-0.7,0-1.1,0c-1.1,0-2.2,0-3.3,0c0-0.1,0-0.2,0-0.3c1.6,0,3.2,0,4.8,0
			c0,0,0.1,0.1,0.1,0.1C550.8,152.6,550.7,152.7,550.5,152.8z"/>
		<path class="st1" d="M344.6,120.5c-0.2,0.3-0.5,0.5-0.7,0.8c-1-0.4-0.7-1.1-0.1-1.5C344.5,119.3,344.5,120,344.6,120.5z"/>
		<path class="st22" d="M510.7,165.4c0.6,0,0.6,0.5,0.7,0.9c-0.3,0.1-0.7,0.2-1,0.3c-0.8-0.7-1.5,0.2-2.3,0l0,0
			C508.8,165.9,509.9,165.8,510.7,165.4z"/>
		<path class="st1" d="M366,119c-0.4-0.4-0.7-0.7-1.1-1.1c-0.1-0.3-0.4-0.7-0.3-0.8c0.3-0.4,0.6-0.1,0.9,0.1
			C365.9,117.7,366.2,118.3,366,119z"/>
		<path class="st1" d="M537.4,155.7c-0.5,0.3-1,0.5-1.5,0.8c-0.7-1.3,0.6-1.3,1.1-1.6C537.5,154.7,537.5,155.3,537.4,155.7z"/>
		<path class="st1" d="M525.3,150.1c0-1.4,0-2.7,0-4.1C525.7,147.4,526.6,148.8,525.3,150.1z"/>
		<path class="st26" d="M343.5,202.1c0,0.3-0.1,0.7-0.5,0.7c-0.5,0-0.5-0.4-0.5-0.8c0-0.3,0.2-0.6,0.6-0.6
			C343.4,201.4,343.4,201.8,343.5,202.1z"/>
		<path class="st27" d="M343.4,209.1c0,0.3-0.2,0.6-0.5,0.6c-0.4,0-0.4-0.4-0.4-0.7c0-0.3,0.1-0.6,0.5-0.6
			C343.4,208.5,343.4,208.8,343.4,209.1z"/>
		<path class="st1" d="M525.4,157.6c0-1.2,0-2.5,0-3.7c0-0.1,0-0.3,0-0.4C526.5,154.9,525.6,156.2,525.4,157.6z"/>
		<path class="st1" d="M385.9,281.7c-0.4,0.5-0.7,1-1.1,1.5c-0.4-0.6-0.1-1.2,0.1-1.7C385.3,280.5,385.7,281,385.9,281.7z"/>
		<path class="st1" d="M527.3,317c-0.3,0.4-0.3,0.8,0,1.2c0.4,0.5,0.4,1,0,1.5c-1.2-1.4-0.8-2.7,0-4.1
			C527.7,316,527.6,316.5,527.3,317z"/>
		<path class="st1" d="M576.8,177.1c-0.5-0.4-1-0.7-1.5-1.1c0.8-0.9,1.3,0,1.8,0.4C577.5,176.6,577.1,177,576.8,177.1z"/>
		<path class="st28" d="M362.2,203.4c-0.5,0-1-0.1-1-0.8c0-0.7,0.4-0.9,1-1.1C362.2,202.1,362.2,202.7,362.2,203.4z"/>
		<path class="st1" d="M581.3,182.4c-0.1-0.2-0.3-0.5-0.4-0.7c0.2-0.5,0.6-1,1.1-0.5C582.4,181.8,581.6,182,581.3,182.4z"/>
		<path class="st1" d="M571.5,165.5c-0.1-0.1-0.2-0.3-0.4-0.4c0.5-0.4,1-0.8,1.7-1.4C572.7,164.9,572.3,165.3,571.5,165.5z"/>
		<path class="st1" d="M483.3,157.2c0-1.4,0.4-2.8-0.3-4.1C484.4,154.4,483.8,155.8,483.3,157.2z"/>
		<path class="st1" d="M483.4,164.7c-0.1-1.3,0.3-2.6-0.4-3.8C484.5,162.1,483.6,163.5,483.4,164.7z"/>
		<path class="st1" d="M483.3,172.6c-0.1-1.3,0.4-2.6-0.3-3.7C484.5,170,483.6,171.3,483.3,172.6z"/>
		<path class="st1" d="M383.3,286c-0.1-0.7-0.2-1.4,0.2-2.1C384,285,384,285,383.3,286z"/>
		<path class="st29" d="M361.1,208.6c0.4-0.1,0.7-0.2,1.1-0.4c0.2,0.1,0.3,0.2,0.4,0.4c-0.1,0.3-0.2,0.5-0.3,0.8
			c0,0.7-0.3,0.6-0.8,0.4C361.4,209.4,361.3,209,361.1,208.6z"/>
		<path class="st1" d="M498.3,72.1c0,0.3-0.1,0.5-0.4,0.5c-0.3,0-0.4-0.2-0.4-0.5c0-0.3,0.1-0.5,0.4-0.5
			C498.1,71.7,498.2,71.9,498.3,72.1z"/>
		<path class="st28" d="M542.6,317.3c-0.8-0.5-0.7-1.1-0.4-1.8c0.4-0.2,0.5,0.1,0.7,0.4C542.9,316.4,542.7,316.9,542.6,317.3z"/>
		<path class="st1" d="M362.3,200.7c-0.1-0.3-0.3-0.5-0.4-0.8c-0.3-0.7-0.2-1.3,0.4-1.9c0,0,0,0,0,0
			C362.6,199,363.3,199.9,362.3,200.7z"/>
		<path class="st1" d="M497.6,79.1c-0.4-0.9-0.5-1.5,0.5-2.2C497.9,77.8,497.8,78.3,497.6,79.1z"/>
		<path class="st1" d="M367.5,120.9c-0.6-0.3-1-0.8-1.1-1.5C367.1,119.6,368,119.8,367.5,120.9z"/>
		<path class="st1" d="M361.5,209.8c0.3-0.1,0.5-0.3,0.8-0.4c0.9,0.6-0.1,1.1,0,1.8C361.5,210.9,361.9,210.1,361.5,209.8z"/>
		<path class="st1" d="M566.2,159.1c-0.1-0.1-0.2-0.2-0.4-0.4c0.3-0.4,0.5-0.9,1.2-0.9C567.2,158.6,566.7,158.8,566.2,159.1z"/>
		<path class="st1" d="M579.4,179.4c-0.1-0.1-0.3-0.2-0.4-0.4c0.5-0.2,1-0.5,1.5-0.1c0.1,0,0,0.2,0,0.3
			C580.2,179.7,579.8,179.5,579.4,179.4z"/>
		<path class="st1" d="M382.6,286.9c-0.1,0.1-0.2,0.3-0.4,0.3c-0.3,0-0.5-0.1-0.5-0.4c0-0.1,0.2-0.3,0.3-0.4
			C382.4,286.4,382.5,286.6,382.6,286.9z"/>
		<path class="st1" d="M543,153.5c-0.1,0-0.2,0-0.4,0c-0.2,0-0.7,0-0.6-0.3c0.3-0.5,0.9-0.6,1.4-0.3
			C543.7,153.1,543.1,153.3,543,153.5z"/>
		<path class="st1" d="M353.6,114.9c-0.2,0-0.5,0-0.7,0c-0.4-0.2-0.7-0.4-0.1-0.7C353.3,114,353.8,114.1,353.6,114.9z"/>
		<path class="st1" d="M410.2,279.2c-0.1-0.4,0.1-0.5,0.4-0.6c0.2,0,0.5,0,0.6,0.3c0.1,0.3-0.1,0.5-0.4,0.5
			C410.6,279.4,410.4,279.2,410.2,279.2z"/>
		<path class="st1" d="M374.7,129c0.4,0.1,0.5,0.3,0.5,0.6c0,0.1-0.2,0.3-0.4,0.3c-0.3,0-0.4-0.3-0.4-0.5
			C374.4,129.2,374.6,129.1,374.7,129z"/>
		<path class="st1" d="M405,272.9c0,0.3-0.1,0.5-0.3,0.4c-0.2-0.1-0.4-0.2-0.6-0.4c-0.1-0.2,0.1-0.4,0.3-0.3
			C404.7,272.7,404.9,272.8,405,272.9z"/>
		<path class="st30" d="M527.9,313.4c-0.2,0.2-0.3,0.4-0.4,0.4c-0.3,0.1-0.5-0.1-0.4-0.4c0-0.1,0.2-0.3,0.4-0.3
			C527.6,313.1,527.7,313.2,527.9,313.4z"/>
		<path class="st31" d="M343.5,198.1c0.1,0.2,0.3,0.5,0.4,0.7c-0.4,0.2-0.7,0.5-1.1,0.7C342.7,199,342.7,198.4,343.5,198.1z"/>
		<path class="st29" d="M527.3,319.6c0-0.5,0-1,0-1.5C528.2,318.7,528.2,319.2,527.3,319.6z"/>
		<path class="st1" d="M358.5,114.9c-0.2,0-0.5,0-0.7,0c0.2-0.5,0.5-0.9,1.1-0.5C359.1,114.6,358.7,114.8,358.5,114.9z"/>
		<path class="st1" d="M481,150.7c0.1,0.3,0.3,0.5,0.2,0.6c-0.1,0.2-0.3,0.4-0.5,0.5c-0.2,0.1-0.3-0.1-0.3-0.3
			C480.6,151.3,480.8,151.1,481,150.7z"/>
		<path class="st1" d="M489.4,146c-1,0-2,0-3,0C487.4,145.5,488.4,145.5,489.4,146z"/>
		<path class="st1" d="M543,315.9c-0.2-0.1-0.5-0.2-0.7-0.4c-0.3-0.8,0.3-0.7,0.7-0.8C543,315.1,543,315.5,543,315.9z"/>
		<path class="st1" d="M296.4,230.6c-0.3,0.1-0.5,0.2-0.7,0.3c0-0.1-0.1-0.3-0.1-0.4c0.1-0.1,0.3-0.2,0.4-0.2
			C296.1,230.2,296.2,230.4,296.4,230.6z"/>
		<path class="st1" d="M332.6,128.4c-0.3,0-0.7,0-0.9-0.4c-0.1-0.2,0-0.4,0.3-0.3C332.4,127.7,332.5,128,332.6,128.4
			C332.6,128.4,332.6,128.4,332.6,128.4z"/>
		<path class="st1" d="M480.9,174.6c0.2,0.1,0.4,0.2,0.4,0.3c0,0.3-0.3,0.3-0.5,0.3c-0.1,0-0.2-0.2-0.3-0.3
			C480.7,174.9,480.8,174.8,480.9,174.6z"/>
		<path class="st1" d="M573.8,171.5c0-0.2,0-0.5,0-0.7c0.3-0.2,0.6-0.2,0.7,0.2C574.5,171.5,574.2,171.6,573.8,171.5z"/>
		<path class="st32" d="M527.3,317c0-0.5,0-1,0-1.5C528.3,316,527.9,316.5,527.3,317z"/>
		<path class="st33" d="M508.1,166.6c-0.4,0.5-1,0.6-1.9,0.8C506.9,166.7,507.5,166.6,508.1,166.6
			C508.1,166.6,508.1,166.6,508.1,166.6z"/>
		<path class="st1" d="M481.1,161.4c-0.3-0.4-0.6-0.9-0.5-1.5C481.4,160.3,481,160.9,481.1,161.4
			C481.1,161.4,481.1,161.4,481.1,161.4z"/>
		<path class="st1" d="M480.2,62.4c-0.1-0.1-0.1-0.2-0.2-0.4c0,0,0.2-0.2,0.3-0.2c0.1,0.1,0.3,0.2,0.4,0.3
			C480.5,62.2,480.4,62.3,480.2,62.4z"/>
		<path class="st1" d="M362.6,208.6c-0.1-0.1-0.3-0.2-0.4-0.4c0-0.3,0-0.5,0-0.8C363.5,207.5,362.7,208.2,362.6,208.6z"/>
		<path class="st1" d="M341.5,205.5c-0.1,0.1-0.2,0.1-0.3,0.2c0-0.1-0.1-0.2-0.1-0.3c0-0.1,0.2-0.1,0.3-0.2
			C341.4,205.3,341.4,205.4,341.5,205.5z"/>
		<path class="st1" d="M292.1,229.7c-0.6-0.2-1.1-0.4-1.5-0.8c0-0.1,0-0.2,0-0.4c0.1,0,0.2,0,0.4,0
			C291.4,228.9,291.7,229.3,292.1,229.7z"/>
		<path class="st1" d="M345.3,204.9c-0.1,0.1-0.3,0.1-0.4,0.2c-0.1-0.2-0.2-0.3-0.2-0.5c0-0.1,0.2-0.2,0.3-0.4
			C345,204.4,345.1,204.6,345.3,204.9z"/>
		<path class="st34" d="M514.8,168.1c0.1-0.3,0.1-0.7,0.2-1c0.6,0.1,0.7,0.6,0.7,1.1C515.4,168.1,515.1,168.1,514.8,168.1z"/>
		<path class="st1" d="M538.9,155c-0.1,0-0.2,0-0.4,0c-0.2-0.2-0.3-0.5,0-0.7c0.1-0.1,0.2-0.1,0.3,0
			C539.1,154.4,539,154.7,538.9,155z"/>
		<path class="st1" d="M410.2,282.9c-0.2-0.1-0.5-0.3-0.7-0.4c0.1-0.2,0.2-0.5,0.5-0.3C410.3,282.3,410.4,282.5,410.2,282.9z"/>
		<path class="st1" d="M371.8,139c0.1,0.1,0.2,0.1,0.2,0.2c-0.1,0.1-0.2,0.2-0.2,0.2c-0.1,0-0.2-0.1-0.2-0.2
			C371.7,139.2,371.7,139.1,371.8,139z"/>
		<path class="st1" d="M528.8,162.9c-0.2,0.3-0.5,0.5-0.7,0.8C528.1,163.2,527.9,162.5,528.8,162.9z"/>
		<path class="st1" d="M529.2,159.4c-0.2,0-0.3,0.1-0.4,0.1c0,0-0.1-0.2-0.1-0.3c0.1-0.1,0.3-0.1,0.4-0.2
			C529.1,159.2,529.2,159.3,529.2,159.4z"/>
		<path class="st1" d="M486.4,62.4c-0.4,0-0.7,0-1.1,0c0.4-0.3,0.8-0.5,1.3-0.2c0,0,0,0.1,0,0.1C486.5,62.3,486.4,62.3,486.4,62.4z"
			/>
		<path class="st1" d="M345,197.7c-0.1,0-0.3,0-0.4,0c-0.1-0.3-0.3-0.8,0.2-0.8C345.3,196.9,344.9,197.4,345,197.7z"/>
		<path class="st1" d="M344.5,200.9c0.1,0.1,0.2,0.2,0.2,0.2c-0.1,0-0.2,0.1-0.3,0.1c0,0-0.1-0.1-0.1-0.1
			C344.3,201,344.4,201,344.5,200.9z"/>
		<path class="st1" d="M553.9,153.1c-0.5,0-1,0-1.5,0C552.9,152.9,553.4,152.4,553.9,153.1z"/>
		<path class="st1" d="M352.5,204.1c0.3,0.2,0.5,0.5,0.8,0.7C352.3,205.4,352.4,204.7,352.5,204.1z"/>
		<path class="st1" d="M362.3,204.9c0.4,0.6,0.4,1.2,0,1.9c0,0,0,0,0,0C361.8,206.1,361.8,205.5,362.3,204.9L362.3,204.9z"/>
		<path class="st1" d="M344.4,209.3c0.1,0.1,0.2,0.2,0.2,0.3c0,0.1-0.1,0.2-0.1,0.3c0,0-0.2-0.1-0.2-0.1
			C344.3,209.7,344.4,209.5,344.4,209.3z"/>
		<path class="st20" d="M50.6,308.7c-0.9-0.3-0.8-1-0.8-1.7c0-6.5,0-13.1,0-19.6c0-0.8,0.2-1.5,0.8-2c3.1-1.1,6.2-2.2,9.3-3.4
			c1.4-0.5,2-0.6,2,1.2c-0.1,6.4-0.1,12.8,0,19.3c0,1.3-0.4,1.9-1.6,2.3C57.1,306.1,53.9,307.5,50.6,308.7z"/>
		<path class="st35" d="M49.9,354.9c0-7,0-14,0-21.1c0-0.7,0-1.5,0.4-2.2c3.3-1.2,6.6-2.4,9.8-3.6c1.3-0.5,1.8-0.3,1.8,1.2
			c0,6.5,0,13,0,19.5c0,1.2-0.5,1.8-1.5,2.2C56.9,352.2,53.4,353.5,49.9,354.9z"/>
		<path class="st35" d="M49.9,263.4c0-7.4,0-14.7,0-22.1c0-0.5-0.3-1.2,0.7-1.2c0.1,0,0.2,0,0.3,0c6-0.3,12-0.1,17.9-0.1
			c0.2,0,0.4,0.1,0.6,0.2c0.4,0.7,0.6,1.4-0.1,2c-0.6,0.6-1.4,0.5-2.1,0.1c-1-0.6-2-0.6-3.1-0.6c-2.7,0-5.3,0-8.2,0
			c0.6,1.3,1.6,1.7,2.4,2.3c1,0.7,2.2,1.2,3.2,2c0.6,0.4,1.4,0.9,1,1.9c-0.9,0.4-0.7,1.2-0.7,1.9c0,2.2-0.1,4.5,0,6.7
			c0.1,1.5-0.4,2.3-1.9,2.9C56.6,260.7,53.3,262.1,49.9,263.4z"/>
		<path class="st12" d="M139.1,285.9c9.5,0,19,0,28.6,0c3.3,0,3.3,0,3.3,3.4c-0.6,0.4-1.3,0.2-2,0.2c-6,0-11.9,0-17.9,0
			c-0.6,0-1.2-0.2-1.8,0.2c-0.6,0-1.2,0-1.9,0c-1.8,1.6-3.8,0.8-5.8,0.6c-0.5-0.1-1-0.4-1.6-0.4c2.1,0.3,4,1.2,5.5,2.5
			c1.4,1.2,2.9,1.3,4.5,1.3c0.6,0,1.3,0,1.9,0.1c0.7,0.1,1.4,0.3,1.2,1.3c-0.1,0.2-0.3,0.3-0.5,0.4c-4.2,0.7-8.4,0.6-12.6,0
			c-0.5-0.1-1-0.5-1.6-0.2c-2.4-1.5-4.7-3-7.1-4.5c-0.5-0.3-0.9-0.7-1.2-1.1c1-1.3,2.5-1.3,3.9-1.2c1.6,0.1,3.1,0.1,4.6-0.3
			c2.3,0.4,4.7,0.1,6.9,0.5c-0.9-0.1-1.9-0.3-2.6-1.1c-0.4-0.5-1.2-0.4-1.8-0.3c-2.2,0-4.4,0-6.5-0.2c-0.7,0-1.3,0.2-2,0.1
			c-0.7-0.1-1.5-0.3-1.2-1.3C133.1,284.6,137.6,284.7,139.1,285.9z"/>
		<path class="st36" d="M62.6,248c-2.2-2-5.1-3.1-7.4-5c-0.5-0.4-1.2-0.6-0.9-1.4c0.2-0.8,1-0.6,1.6-0.6c3.2,0,6.5,0,9.7,0
			c0.7,0,1.3,0.1,1.9,0.6c1.2,0.9,1.8,0.5,1.9-0.9c-0.8-4-0.8-8,0-12c0.3-0.1,0.5-0.2,0.8-0.3c0,4.4,0,8.7,0,13.1
			c0.9,0.5,0.8,1.5,0.8,2.3c0.1,1-0.2,2.1,0.2,3.1c-0.1,0.9,0,1.9-0.2,2.8c-0.1,1,0.4,2.2-0.8,2.9C67.4,251.3,65.1,249.5,62.6,248z"
			/>
		<path class="st12" d="M70.1,252.5c0-1,0-2,0-3c0.7-1.2,1.6-0.8,2.4-0.3c2.4,1.5,4.8,2.9,7.2,4.4c4,2.5,8.2,4.7,12,7.4
			c0.5,0.4,1.1,0.5,1.2,1.3c-0.5,1.1-0.3,2.4-1.3,3.4c-0.2,0.1-0.4,0.1-0.5-0.1c-2.6-1.5-5.1-3-7.7-4.6
			C79,258.2,74.4,255.6,70.1,252.5z"/>
		<path class="st37" d="M138.4,295.2c0.2-0.5,0.5-0.6,1-0.6c4.4,0.5,8.8,0.1,13.2,0.2c0.4,0.4,0.9,0.6,1.4,0.9
			c1.6,0.8,1.7,1.7,0.4,3.1c-1.4,0.4-2.7-0.1-4-0.6c-2.3,0-4.5,0-6.8,0C141.9,297.3,140.1,296.2,138.4,295.2z"/>
		<path class="st12" d="M124.1,286.2c-2.8-1.7-5.5-3.5-8.3-5.2c0.4-0.8,1.2-0.8,1.9-0.9c1.7-0.2,3.3,0.1,5,0.1
			c0.7-0.2,1.4-0.1,2,0.1c1.5,1.3,3.3,2,4.9,3.3c1.4,1.1,1.4,1.8,0,3C127.8,287.1,126,286.5,124.1,286.2z"/>
		<path class="st38" d="M110.6,278c-2.5-1.6-5-3.2-7.5-4.9c0.5-1,1.4-0.8,2.3-0.9c1.8-0.2,3.6,0.5,5.3,0.1c0.9-0.2,1.7-0.2,2.6,0.1
			c1.1,1.5,2.7,2.3,4,3.4c0.8,0.6,1.8,0.4,2.7,0.5c0.8,0.2,1.9,0.2,1.3,1.5c-0.4,0.2-0.8,0.3-1.2,0.4c-3,0.1-6.1,0.5-9-0.5
			C111,277.8,110.8,277.9,110.6,278z"/>
		<path class="st32" d="M124.1,286.2c1.8-0.8,3.8-0.2,5.6-0.4c0.5-0.3,1-0.4,1.5,0c1.2,0.7,2.5,0.3,3.8,0.4c0.9,0.9,2,1.3,3.1,1.8
			c0.5,0.2,1.2,0.4,1,1.2c-3-0.1-6,0.1-9,0.4C127.8,289.1,126.2,287.3,124.1,286.2z"/>
		<path class="st32" d="M110.6,278c2-0.8,4.1-0.2,6.2-0.4c1.2-0.1,2.3,0,3.5,0c0.7,0.4,1.4,0.7,2,1.2c0.7,0.5,1.3,1.2,0.6,2.2
			c-2.4,0-4.8,0-7.1,0C114.1,280,112.4,279,110.6,278z"/>
		<path class="st12" d="M91.1,265.6c0.1,0,0.3,0,0.4,0c1.7-1.5,3.7-0.8,5.6-0.8c0.8,0,1.6,0.3,2.4,0c0.6-0.1,1.1,0,1.5,0.3
			c-0.2,1.7,1.1,2.2,2.2,2.9c0.8,0.5,1.4,1.3,0.5,2.3c-1.8,0.9-3.6-0.1-5.4-0.1C95.8,268.7,93.3,267.4,91.1,265.6z"/>
		<path class="st39" d="M98.2,270.1c1.8-0.8,3.8-0.2,5.6-0.4c0.5-0.8,1.3-0.8,2.1-0.7c1.6,0.8,3,2,4.7,2.8c0.5,0.2,0.8,0.8,0.4,1.4
			c-2.6,0-5.2,0-7.9,0C101.5,272.1,99.9,271.1,98.2,270.1z"/>
		<path class="st40" d="M28.1,168.5c1.7,0.9,3.3,1.9,4.1,3.7c0.5,1.3,1.1,2.6,2.1,3.7c0.8,0.9,1.2,2.1,0.7,3.3
			c-0.6,1.3-1.8,1.3-3.1,1.3c-5.2,0-10.5,0-15.7,0c-1.2,0-2.7,0.5-3.3-1.1c-0.6-1.6-0.1-3.2,0.9-4.4c1-1.3,2.2-2.6,4.1-2.7
			c0.8,0,1.3-0.6,1.8-1.2c1.5-1.9,3.7-2.5,6-3.1C26.7,167.8,27.2,169.3,28.1,168.5L28.1,168.5z"/>
		<path class="st41" d="M69.3,228.5c0.6,0.8,0.4,1.8,0.4,2.7c-0.2,3.1,0.4,6.3-0.4,9.4c0,0,0,0,0,0c-2.9-0.4-5.8-0.1-8.7-0.2
			c-3.3-0.1-6.7,0.2-10-0.2c0,0-0.1,0-0.1,0C56.7,236,63,232.1,69.3,228.5z"/>
		<path class="st42" d="M42.7,166.6c0.1,1.9,0.8,3.9-0.3,5.8c-0.1,0.1-0.1,0.3,0,0.3c0.5,0.4,1,0.9,0.5,1.3
			c-0.7,0.6-0.9-0.5-1.4-0.8c-0.9-0.4-1.8-1.3-2.9-0.4c-0.3,0.2-0.7,0.1-1.1,0.1c-0.7,0-1.5-0.1-1.8-0.8c-0.3-0.9,1.1-0.4,1.1-1.5
			c-0.2-0.7-1.5-0.6-1.9-1.4c0-0.2,0-0.4,0.1-0.5c1.7-1.2,3.3-2.6,5.5-3.3C41.8,165,42.5,165.3,42.7,166.6z"/>
		<path class="st43" d="M42.7,166.6c-1.2-1.2-2.4-0.7-3.4,0.1c-1.4,1.1-2.8,1.9-4.5,2.5c-1.7-0.6-3-2-4.6-2.7
			c-0.8-0.4-1.4-1.1-2.4-0.6c-0.2,0.1-0.5,0-0.6-0.3c-0.1-0.3,0.1-0.5,0.3-0.6c0.5-0.1,1-0.2,1.5-0.2c4.1,0,8.2,0,12.3,0
			C42.7,164.7,43.5,165.1,42.7,166.6z"/>
		<path class="st34" d="M28.1,168.5c-0.3-0.1-0.6-0.2-0.6-0.6c0-0.1,0.2-0.2,0.2-0.2C28.1,167.9,28.1,168.2,28.1,168.5
			C28.1,168.5,28.1,168.5,28.1,168.5z"/>
		<path class="st35" d="M310.5,286.3c0,6.9,0,13.8,0,20.7c0,0.9,0.1,1.9-0.8,2.6c-3.1,0.8-6,2.3-9.1,3.4c-2.4,0.9-2.5,0.8-2.5-1.7
			c0-6,0.1-12.1,0-18.1c0-1.8,0.7-2.6,2.2-3.1c3.3-1.1,6.5-2.4,9.8-3.7C310.2,286.1,310.4,286.1,310.5,286.3z"/>
		<path class="st20" d="M309.4,332.4c1.1,0,1.1,0.8,1.1,1.6c0,6.5,0,13,0,19.4c0,1-0.4,1.7-1.1,2.2c-3.2,0.8-6.1,2.3-9.1,3.3
			c-1.8,0.6-2.1,0.5-2.1-1.4c0-6.3,0-12.6,0-18.9c0-1.3,0.4-2.1,1.7-2.5C303,334.9,306.2,333.6,309.4,332.4z"/>
		<path class="st20" d="M309,240.5c0.9-0.6,1.5-0.7,1.5,0.7c0,2.2,0,4.3,0,6.5c0.3,0.4,0.5,0.9,0.5,1.4c0,4.4,0.2,8.9-0.1,13.3
			c-0.2,0.6-0.8,0.5-1.1,0.7c-3.3,1.2-6.5,2.3-9.8,3.6c-1.5,0.6-1.9,0.2-1.9-1.3c0-5.8,0-11.6,0-17.3c-1.1-0.8-0.4-1.5,0.3-1.9
			C301.8,244,304.9,241.3,309,240.5z"/>
		<path class="st0" d="M263.2,264.1c5.1-3.3,10.2-6.6,15.3-9.9c3.2-2.1,6.5-4,9.8-6c0.9-0.5,1.1,0,1.1,0.7c0.1,1-0.2,2.1,0.4,3.1
			c-1.1,1.8-3,2.6-4.7,3.6c-11.6,6.9-22.9,14.2-34.3,21.2c-7.2,4.4-14.4,8.8-21.5,13.3c-3.2,2-6.5,4-9.7,6c-0.6,0.4-1.1,0.9-1.9,0.5
			c-0.6-0.4-0.7-1-0.5-1.6c3.1-1.8,6.1-3.7,9.1-5.7c2.9-1.8,5.8-3.6,8.6-5.5c1.7-1.2,3.6-2.1,5.4-3.2c3.2-2,6.5-3.9,9.7-5.9
			c3.1-1.9,6.1-4,9.3-5.8c0.5-0.3,0.1-0.4-0.2-0.5c-1.1-0.3-2.5,0.8-3.3-0.8c0.1-1,0.9-1,1.7-1.1c1.2-0.1,2.4,0,3.6-0.1
			C263.6,266.6,263.7,266.3,263.2,264.1z"/>
		<path class="st44" d="M217.9,294.9c0,0.6,0,1.2,0,1.9c-0.5,1.9-2.4,2.3-3.7,3.1c-6.9,4.4-13.9,8.7-20.9,13.1
			c-1.9,1.2-3.9,0.7-5.8,0.6c-0.7,0-0.6-0.8-0.7-1.4c-0.3-0.6-0.2-1.2-0.2-1.8c0-9,0-18,0-26.9c0.4-1.3,0.9-0.6,1.3,0
			c0.3,0.4,0.1,1,0.1,1.5c0,6.9,0,13.9,0,20.8c0,2.6,0.7,3.1,3,2c2.5-1.3,5-2.5,6.9-4.7c0.5-0.5,1-0.9,1.7-1.2c5-2,9.3-4.9,13.4-8.3
			c2-1.6,3.4-2,5.2-0.9c0.3,0.4,0.3,0.8,0.2,1.3C218.4,294.2,218.3,294.6,217.9,294.9z"/>
		<path class="st45" d="M164.3,298.3c5,3.1,9.9,6.4,15.2,9.1c1.8,0.9,3.5,1.9,5.6,1.9c0.8,0,0.9,0.4,1,1.1c0,0.7-0.1,1.5,0.4,2.2
			c-0.1,1.1,0.5,1.5,1.6,1.5c0.9,0,1.8-0.4,2.6,0.3c-3.8,1.3-7.4,1.2-11-0.8c-6.6-3.6-12.8-7.7-19.1-11.7c-1.1-0.7-2.3-1.2-3.4-2
			c-0.8-0.6-1.3-1.3-0.3-2.1c2.1-0.6,4.3-0.3,6.4-0.2C163.6,297.5,164,297.8,164.3,298.3z"/>
		<path class="st46" d="M156.4,298.3c0.4,0.3,0.7,0.7,1.1,0.9c4.2,2.3,8,5.2,12.2,7.6c3.7,2.2,7.3,4.7,11.3,6.6
			c3.1,1.5,6.4,0.9,9.6,1c-4.5,3.5-8.4,3.7-13.4,0.7c-3-1.9-6.1-3.7-9.1-5.6c-5.6-3.5-11.2-6.9-16.7-10.4c-0.4-0.2-0.6-0.6-1-0.9
			c1.4,0,2.7,0,4.1,0C155.1,297.9,155.8,297.6,156.4,298.3z"/>
		<path class="st47" d="M309,240.5c-3.2,2-6.4,4-9.6,6c-0.6,0.4-1.5,0.5-1.3,1.6c-1.7,0.4-3,1.8-4.5,2.5c-0.6,0.3-1.1,0.7-1.8,0.9
			c-1,0.2-1.4-0.1-1.4-1.2c0-3.1,0.3-6.2-0.1-9.3c0-0.1,0-0.3,0-0.4c4-0.7,8-0.4,12-0.2c2,0.1,4,0.5,6-0.2
			C308.5,240.2,308.8,240.3,309,240.5z"/>
		<path class="st13" d="M309.7,263c0.2-0.1,0.5-0.2,0.7-0.4c0.5-1.7,0.1-3.4,0.2-5.2c0.1-3.3-0.2-6.6,0.2-9.8v0
			c1.8,2.8,2.1,5.8,1.4,8.9c-0.2,0.9-0.3,1.7-0.2,2.6c0.9,6.7,0.6,13.4,0.7,20.1c0,1.7-0.2,3.4-0.4,5.2c-0.8,0.1-1.1-1-1.9-0.8
			c0-6.2,0-12.3,0-18.5C310.5,264.4,310.7,263.5,309.7,263z"/>
		<path class="st46" d="M186.8,282.9c0,9.7,0,19.5,0,29.2c-0.1,0-0.2,0-0.4,0c0-9.1,0-18.2,0-27.3c0-0.8-0.1-1.6,0.4-2.3
			C187,282.6,187,282.8,186.8,282.9z"/>
		<path class="st11" d="M290.3,240.9c0.8,2.8,0.2,5.6,0.3,8.4c0,1,0.1,1.8,1.2,2.1c-1,0.7-1.5,0.6-1.5-0.8
			C290.3,247.4,290.3,244.1,290.3,240.9z"/>
		<path class="st13" d="M310.5,286.3c-0.1,0-0.2,0-0.4,0c0.4-0.6,0.2-1.3,0.4-1.9C310.9,285,311.8,285.6,310.5,286.3z"/>
		<path class="st4" d="M310.9,247.6c0,4.3,0,8.6,0,12.9c0,0.7,0.1,1.5-0.4,2.2c0-5,0-10,0-15C310.6,247.6,310.8,247.6,310.9,247.6z"
			/>
		<path class="st48" d="M177.7,245.7c-28,0-56,0-84,0c-2.9,0-3-0.1-3-2.9c0-37.7,0-75.5,0-113.2c0-0.5,0.1-1,0.1-1.5
			c0.1-1.7,0.8-2.4,2.7-2.4c56.2,0.1,112.5,0,168.7,0c2.4,0,2.4,0.1,2.4,2.4c0,38.3,0,76.6,0,114.9c0,2.6-0.1,2.7-2.8,2.7
			C233.8,245.8,205.8,245.7,177.7,245.7z"/>
		<path class="st10" d="M186.8,282.9c0-0.1,0-0.2,0-0.4c9.6,0,19.2,0,28.7,0c1.9,0,2.6,0.6,2.4,2.5c-0.1,1.3,0,2.6,0,3.9
			c1.1,1.5,1.1,2.4,0,3.8c-1.5-0.4-2.9,0.1-3.8,1.1c-2.7,2.9-6.3,4.4-9.5,6.6c-1.5,1-2.8,2.3-4.8,2.4c-0.4,0-0.8,0.5-1.2,0.8
			c-2.7,2.7-5.8,4.5-9.5,5.7c-1.7,0.5-2.1-0.1-2.1-1.7c0.1-7.9,0.1-15.7,0.1-23.6C187.2,283.5,187.3,283.1,186.8,282.9z"/>
		<path class="st2" d="M91.9,254.4c25.3,0,50.5,0,75.8,0c3.3,0,3.3,0,3.3,3.4c-0.7,0.4-1.5,0.2-2.2,0.2c-24.8,0-49.6,0-74.4,0
			c-1,0-2,0.2-3,0C90.3,255.9,90.4,255.2,91.9,254.4z"/>
		<path class="st2" d="M225,259.6c-12.5,0-25,0-37.5,0c-1.1,0-2.4,0.2-2.3-1.6c0-1.1,0.5-1.8,1.7-1.8c0.4,0,0.7,0,1.1,0
			c24.7,0,49.5,0,74.2,0c0.9,0,2.3-0.5,2.5,1.2c0.3,1.7-0.2,2.2-2.2,2.2C250,259.6,237.5,259.6,225,259.6z"/>
		<path class="st2" d="M263.2,264.1c1.5-0.1,1.5,0.9,1.5,2c0,1.2-0.7,1.4-1.7,1.4c-2.3,0-4.6,0-6.9,0c-0.4,0.7-1.1,1-1.8,0.7
			c-1.4-0.7-2.9-0.5-4.4-0.5c-20.9,0-41.7,0-62.6,0c-1.4,0-2.1-0.3-2.1-1.7c-0.2-1.7,0.8-1.9,2.2-1.9c14.4,0,28.8,0,43.2,0
			C241.5,264.1,252.4,264.1,263.2,264.1z"/>
		<path class="st2" d="M102.8,262.3c21.9,0,43.7,0,65.6,0c2.8,0,3.2,0.6,2.3,3.4c-0.6,0.3-1.3,0.2-2,0.2c-16,0-32.1,0-48.1,0
			c-3.4,0-6.8-0.2-10.2,0.6c-2.2-1.2-4.4-2.4-6.8-3C103,263.2,102.6,262.9,102.8,262.3z"/>
		<path class="st2" d="M228,275c-13.5,0-27,0-40.5,0c-0.9,0-2.1,0.3-2.3-1.3c-0.2-1.7,0.2-2.1,2.3-2.1c15.2,0,30.5,0,45.7,0
			c3,0,6,0,9,0c0.8,0,1.7,0,1.8,1.1c0.5,0.8,0.9,1.6,0.2,2.4c-0.6,0.7-1.5,0.8-2.2,0.6c-3.7-1.1-7.4-0.3-11.1-0.5
			C230,275.1,229,275.4,228,275z"/>
		<path class="st49" d="M228,275c4.6,0,9.2-0.1,13.8,0c1.7,0,2.6-0.4,2.4-2.3c1.5,0.6,2.6-0.1,3.8-1c1.6-1.2,3-2.8,5.3-3.4
			c-0.8-0.8-1.6-0.5-2.2-0.5c-21.1,0-42.2,0-63.4,0c-1.3,0-2.6,0-2.4-1.9c0.4,1.5,1.5,1.5,2.8,1.5c22.7,0,45.4,0,68.1,0
			c1.2,0.7,2.5,0.3,3.7,0.4c0.5,0.7,0.1,1-0.5,1.3c-4.5,2.5-8.7,5.5-13.2,8c-3.1,1.8-6,3.8-9,5.7c-3.5,2.2-6.9,4.4-10.5,6.5
			c-2.2,1.3-4.5,2.7-6.6,4.2c-0.7,0.5-1.4,1.1-2.3,0.2c0-0.4,0-0.7,0-1.1c0-1.3,0-2.5,0-3.8c2.8-0.2,4.8-1.9,7-3.2
			c5.1-3,10-6.1,15.1-9.1c0.3-0.2,0.6-0.3,0.5-0.7c-0.2-0.5-0.7-0.4-1.1-0.4c-3,0-6,0-9,0C229.6,275.4,228.7,275.5,228,275z"/>
		<path class="st2" d="M118.5,269.7c16.7,0,33.5,0,50.2,0c1.1,0,2.3-0.2,2.3,1.6c0,1.8-1,1.8-2.3,1.8c-12.1,0-24.2,0-36.3,0
			c-3.8,0.4-7.7,0.1-11.5,0.2c-2.1-0.2-3.4-1.7-5.1-2.6c-0.4-0.2-0.6-0.8-0.1-1.2C116.7,268.9,117.5,269.6,118.5,269.7z"/>
		<path class="st2" d="M134.6,277.6c11.4,0,22.7,0,34.1,0c0.9,0,2.1-0.4,2.3,1.2c0.2,1.7-0.2,2.2-2.1,2.2c-11,0-22.1,0-33.1,0
			c-1.2,1.2-2.7,0.9-4.1,0.5c-0.6-0.4-0.8-1.1-1.4-1.5c-0.9-0.7-1.1-1.6-0.1-2.5C131.7,277.5,133.1,277.3,134.6,277.6z"/>
		<path class="st46" d="M91.5,257.7c26.5,0,53,0,79.5,0c-0.9,0.6-1.8,0.4-2.7,0.4c-24.3,0-48.7,0-73,0c-0.7,0-1.5,0-2.2,0
			c3.4,0.5,5.9,3,9,4.1c-0.5,1-1.5,0.9-2.3,0.8c-1.6-0.1-3.2-0.1-4.8,0.2c-0.8-0.3-1.8-0.2-2.3-1.1c-2.3-0.2-3.5-2.1-5.3-3.1
			c-5.2-3-10.3-6.2-15.4-9.3c-0.5-0.3-1.1-0.6-1.8-0.3c0-0.9,0-1.8,0-2.6c0.5-1.8,1.1-2.2,2.7-1.3c3.4,1.9,6.5,4.3,9.9,6.2
			c2.2,1.3,4.3,2.6,6.5,4C90.1,256.4,91,256.9,91.5,257.7z"/>
		<path class="st45" d="M91.5,257.7c-1.7-0.2-2.9-1.3-4.2-2.1c-4.9-3-9.9-6-14.7-9.3c-1-0.7-1.8-0.8-2.4,0.5c0-1.9,0-3.7,0-5.6
			c0.9-0.8,1.5-0.6,2.5,0.2c2.2,1.7,4.7,2.9,7.1,4.4c3.5,2.2,7,4.5,10.5,6.8c0.6,0.4,1.4,0.9,1.6,1.7
			C91.2,255.4,91.6,256.6,91.5,257.7z"/>
		<path class="st50" d="M153,294.9c-1.6-0.7-3.3-0.3-5-0.4c-1.1-0.1-1.9-0.4-2.9-1.1c-2.2-1.6-4.3-3.8-7.5-3.8c3.2,0,6.5,0,9.7,0
			c0.4,0.3,0.9,0.4,1.4,0.4c3.5-0.2,5.8,2.2,8.2,4.1c0.6,0.5,1.1,0.4,1.7,0.4c3.4,0,6.7,0,10.1,0c0.7,0,1.5-0.1,2.2,0.4
			c-0.5,0.6-1.1,0.8-1.8,0.8c-4.8,0.1-9.6,0.1-14.4,0C154.1,295.7,153.4,295.6,153,294.9z"/>
		<path class="st43" d="M153,294.9c6,0,12,0,18,0c0,0.4,0,0.9,0,1.3c0.2,1.6-0.6,2.2-2.1,2.1c-1.5-0.1-3.1,0-4.6,0
			c-2.6,0-5.2,0-7.9,0c-0.6,0-1.3,0-1.9,0c0.4-0.8,0.1-1.3-0.6-1.6c-0.8-0.4-1.3-0.9-1.3-1.8C152.7,294.9,152.9,294.9,153,294.9z"/>
		<path class="st50" d="M118.5,269.7c-1,0-2,0-3,0c-0.8,1.2-2.1,0.8-3.2,0.9c-0.7,0.1-1.5,0-2.2-0.1c-1.6-1.1-3.4-1.9-5-3.1
			c-1.1-0.8-0.9-1.6,0.4-1.9c1.1-0.3,2.3-0.6,3.5-0.2c0.3,0.1,0.6,0.2,0.9,0.4c20.3,0,40.5,0,60.8,0c-0.9,0.6-1.8,0.4-2.7,0.4
			c-17.6,0-35.1,0-52.7,0c-0.7,0-1.4,0-2.1,0c-0.1,0.2-0.1,0.4-0.2,0.6C115.6,266.3,116.6,268.7,118.5,269.7z"/>
		<path class="st51" d="M131.6,281c1.4,0,2.8,0,4.1,0c0.2,1.5,1.5,1.8,2.6,2.3c1.7,0.7,1.9,1.5,0.8,2.5c-2.6,0-5.3,0-7.9,0
			c-0.5,0-1,0-1.5,0c0.8-0.8,0.1-1.1-0.5-1.5c-1.5-1.1-3.2-1.9-4.4-3.4C126.4,279.7,129.9,279.7,131.6,281z"/>
		<path class="st51" d="M134.6,277.6c-1.5,0-3,0-4.5,0c-0.4,0.4-0.8,0.7-1.4,0.8c-1.9,0.2-3.9,0.1-5.8,0c-0.6,0-1.1-0.2-1.4-0.8
			c-0.2-0.1-0.5-0.3-0.7-0.3c-3.1,0.7-5-1.6-7.3-3c-1-0.6-0.3-0.9,0.1-1.3c1.4-1.5,3.1-0.8,4.7-0.7c0.7,0,1.4,0.3,2.1,0.7
			c4,0,8,0,12,0c-1.7,0.7-3.4,0.3-5.1,0.4c-2,0.1-4.1,0-6.2,0.2c2.3-0.2,3.7,1.2,5,2.7c0.7,0.8,1.4,0.9,2.3,0.9
			C130.4,277.4,132.6,276.8,134.6,277.6z"/>
		<path class="st52" d="M109.9,265.6c-0.2,0-0.5,0-0.7,0c-1.9,0.5-4-0.2-6,0.7c-0.6,0.3-1.5,0-1.9-0.7c-0.5,0-1,0-1.5,0
			c-1.5-0.6-3-1-4.3-2.2c-0.4-0.3-0.8-0.6-0.6-1.2c2.4,0,4.8,0,7.1,0c0.2,0,0.5,0,0.7,0c2,0.2,3.8,1.1,5.6,2.1
			C108.9,264.7,109.5,265,109.9,265.6z"/>
		<path class="st50" d="M149.2,289.6c0.7-0.5,1.6-0.4,2.4-0.4c6.5,0,12.9,0,19.4,0c-0.7,0.5-1.6,0.4-2.4,0.4
			C162.2,289.6,155.7,289.6,149.2,289.6z"/>
		<ellipse class="st53" cx="132.4" cy="94.6" rx="37.5" ry="0.3"/>
		<path class="st54" d="M188.6,95.4c0.4,1.5,1.3,1.6,2.6,1.3c0.9-0.3,1.8-0.3,2.8,0.2c-1.1,0.1-2.1,0.3-3.2,0.4
			c-2.5,0.2-2.7,0.4-2.9,3.3c1.8-3.2,5.1-1.7,7.6-2.9c-0.6,0.7-0.6,0.6-1.5,0.9c-0.7,0.2-1.7,0.3-1.3,1.5c0.3,1.1-0.9,0.9-1.2,0.9
			c-1.1-0.1-2.2,0-3.3,0.2c-1.2,0.2-0.8-1-1.3-1.5c-0.8,1.3-4.2,2-5.2,1c-0.5-0.5-0.7-0.5-1.1-0.1c-0.1,0.1-0.4,0.2-0.5,0.2
			c-1.3-0.3-1.6-0.3-2.5,0.3c0.1-1.4,1.4-2,1.8-3.3c-2.7,0.4-4.9,2.2-8.1,2.1c3-1,5.4-1.9,7.9-2.7c0.4-0.1,1.2-0.3,1.1,0.1
			c-0.4,1.7,1.3,1.1,1.6,1.6c0.7,1.3,1.7,0.2,2.4,0.6c0.2,0.3,0.2,0,0.3-0.1c1.1,0.5,1.5-1.2,2.6-0.7c0.2,0.1,0.6-0.3,0.5-0.6
			c-0.3-0.8-1,0.2-1.5-0.4C187.1,97.1,188.5,96.9,188.6,95.4L188.6,95.4z"/>
		<ellipse class="st55" cx="243.4" cy="94.1" rx="50.8" ry="0.1"/>
		<path class="st49" d="M207.8,96.2c23.7,0,47.5,0,71.2,0c0,0.1,0,0.1,0,0.2c-23.7,0-47.4,0-71.2,0
			C207.8,96.3,207.8,96.2,207.8,96.2z"/>
		<path class="st56" d="M100.8,95.2c0,1.3-1.5,2.7-2.8,2.8c-1.6,0-3.1-1.5-3-3.2c0.1-1.4,1.6-2.8,3.1-2.7
			C99.3,92.2,100.8,93.8,100.8,95.2z"/>
		<path class="st57" d="M88.3,98c-1.3,0-2.9-1.4-3-2.6c-0.1-1.4,1.5-3,3.1-3.1c1.4-0.1,2.6,1.2,2.7,2.8C91.1,96.5,89.8,97.9,88.3,98
			z"/>
		<path class="st58" d="M78.4,97.9c-1.4,0-2.9-1.4-3-2.8c-0.1-1.4,1.4-2.9,2.8-3c1.5-0.1,3.1,1.4,3.1,2.9
			C81.3,96.4,79.9,97.9,78.4,97.9z"/>
		<path class="st59" d="M158.6,96.8c-17.5,0-35,0-52.5,0c0-0.1,0-0.2,0-0.3c17.5,0,35,0,52.5,0C158.6,96.6,158.6,96.7,158.6,96.8z"
			/>
		<path class="st32" d="M183.4,91.6c-0.2-0.4-0.5-0.7-0.6-1.1c-0.2-0.6-0.3-1.4,0.5-1.7c0.8-0.2,1.3,0.2,1.3,1.1
			c0,0.9,1.4,0.5,1.4,1.4c0.3,0.1,0.2,0.3,0,0.4c-0.2,0.1-0.5,0.2-0.7,0.3C184.5,92.5,183.9,92,183.4,91.6z"/>
		<path class="st60" d="M183.4,91.6c0.6,0.1,1.3,0.3,1.9,0.4c0.2,0.8,0.5,1.5,0.6,2.3c0.2,1,0.8,1.1,1.6,1.1l0,0
			c-1.2,0.5-2.3,0.7-2.3-1c0-1.5-0.8-2.2-2.2-2.2c-1.3,0-2.1,1.2-1.9,2.7c0.1,0.4,0.2,0.8,0.3,1.2l-0.1,0.1
			C179.8,94,180.5,92.3,183.4,91.6z"/>
		<path class="st61" d="M181.5,96.1c0.5,0.1,1.1,0.3,1.6,0.3c0.3,0,0.6-0.1,0.7,0.3c0,0.1-0.1,0.3-0.2,0.5c-0.2,0.2-0.5,0.4-0.8,0.1
			C182.4,96.9,181.9,96.5,181.5,96.1C181.5,96.2,181.5,96.1,181.5,96.1z"/>
		<path class="st62" d="M187.5,95.4c0.2-0.3,0.3-0.9,0.8-0.7c0.2,0,0.2,0.5,0.3,0.8c0,0,0,0,0,0C188.3,95.4,187.9,95.4,187.5,95.4
			C187.5,95.4,187.5,95.4,187.5,95.4z"/>
		<path class="st63" d="M186,91.7c0-0.1,0-0.3,0-0.4c0.5,0,1-0.1,1.4,0.3C187,92,186.4,91.5,186,91.7z"/>
		<path class="st64" d="M184.8,96.2c0.3-0.1,0.4,0.1,0.4,0.3c0,0.2-0.1,0.3-0.2,0.5c-0.1-0.1-0.3-0.2-0.4-0.3
			C184.6,96.5,184.7,96.3,184.8,96.2z"/>
		<path class="st65" d="M184.5,99.4c-0.2,0.3-0.3,0.9-0.8,0.7c-0.2-0.1,0.2-0.5,0.5-0.6C184.2,99.5,184.3,99.5,184.5,99.4z"/>
		<path class="st17" d="M525.3,161.8c-0.1,1.4,0.4,2.8-0.3,4.1c-0.6,0-1.6,0.8-1.8-0.5c-0.1-1.1-0.6-2.4,0.7-3.2
			C524.4,162,524.9,161.9,525.3,161.8z"/>
		<path class="st66" d="M516.4,164.4c0.7,1,1.8,0.6,3.2,0.9c-1.3,0.3-2.2,0.5-3.1,0.7c-0.5,0.1-1.1,0.5-1.6,0
			c-0.2-1.1,0.9-1,1.3-1.5C516.2,164.4,516.3,164.4,516.4,164.4z"/>
		<path class="st41" d="M514.5,165.5c-1.1,0.3-2.1,0-3-0.8c-0.1-0.8-0.2-1.7,0.7-2.2c0.1,0,0.2,0.1,0.2,0.1c0.5,0.7,0.8,1.7,1.9,1.8
			c0.1,0.1,0.3,0.2,0.3,0.4c0,0.2,0,0.4,0,0.5C514.6,165.4,514.6,165.4,514.5,165.5z"/>
		<path class="st67" d="M512.3,162.5c0.9-0.3,2.1-1.3,2.2,0.8c-0.1,0.1-0.1,0.1-0.2,0.2C513.3,163.7,512.8,163.1,512.3,162.5
			L512.3,162.5z"/>
		<path class="st68" d="M514.9,165.5c0.4,0.3,1,0.3,1.5,0.4c-0.1,0.1-0.2,0.2-0.3,0.3c-0.5,0.1-1.1,0.3-1.6,0.4c0-0.4,0-0.7,0-1.1
			c0,0,0,0,0,0C514.7,165.4,514.8,165.4,514.9,165.5z"/>
		<path class="st69" d="M514.5,163.3c0.4,0.4,0.5,1,1.1,1.1c0,0.1,0,0.2,0.1,0.3c-0.4,0.5-0.8,0.4-1.2,0.1l0,0
			C513.7,164.3,513.9,163.8,514.5,163.3L514.5,163.3z"/>
		<path class="st70" d="M515.6,164.4c0.3-0.3,0.3-0.9,0.9-0.7c0,0-0.1,0.4-0.2,0.7c0,0,0,0,0,0C516.1,164.6,515.9,164.6,515.6,164.4
			L515.6,164.4z"/>
		<path class="st18" d="M362.3,198.1c0,0.7,0,1.3-0.4,1.9C361,199.2,360.7,198.5,362.3,198.1z"/>
		<path class="st36" d="M362.2,204.9c0,0.6,0,1.2,0,1.8C361.2,206.1,361.2,205.5,362.2,204.9z"/>
		<path class="st71" d="M360,207.1c-0.5,0-1-0.2-1.1-0.8C359.3,206.5,360.3,205.9,360,207.1z"/>
		<path class="st36" d="M50.6,240.1c5.5,0,10.9,0,16.4,0c0.8,0,1.6-0.1,2.3,0.4c-5.5,0-10.9,0-16.4,0
			C52.2,240.5,51.4,240.6,50.6,240.1z"/>
		<path class="st5" d="M139.1,289.2c-1.1-0.6-2.3-0.6-3.4-1.3c-0.8-0.5-1-0.9-0.7-1.7c2.7,0,5.4,0,8.1,0c0.5,0,1.6-0.4,1.1,1
			c-0.2,0.5,0.4,0.5,0.7,0.5c1.2,0.3,2.4,0.6,3.5,0.9c0,0.2,0,0.4-0.1,0.6C145.3,289.2,142.2,289.2,139.1,289.2z"/>
		<path class="st32" d="M94.9,262.3c1.8,0.9,3.5,1.9,4.9,3.4c-2.7,0-5.5,0-8.2,0c0.2-1.2-0.7-2.7,1.1-3.4
			C93.4,262.2,94.1,262.3,94.9,262.3z"/>
		<path class="st5" d="M121.5,277.6c2.9,0,5.7,0,8.6,0c-0.4,1.5,1.6,2,1.5,3.4c-2.2,0-4.5,0-6.7,0c-0.6,0-1.3,0-1.9,0
			c-0.3-1.6-2.3-1.8-2.6-3.4C120.8,277.6,121.1,277.6,121.5,277.6z"/>
		<path class="st5" d="M120.4,273.1c-2.2,0-4.5,0-6.7,0c-0.9,0-1.8,0-2.6,0c-1.6-1.1-3.4-2-4.9-3.4c1.2-1.6,2.5-0.3,3.8,0
			c1.9,0,3.8,0,5.6,0C117.4,270.4,119,271.6,120.4,273.1z"/>
		<path class="st46" d="M109.9,269.7c-1.3,0-2.5,0-3.8,0c-0.7,0-1.5,0-2.2,0c-1.7-1.4-3.4-2.8-5.8-3.3c1.2-0.7,2.4-0.1,3.2-0.8
			c2.6,0,5.2,0,7.9,0c-1.2,0.8-2.7,0-4.1,0.7C106.8,267.4,108.5,268.4,109.9,269.7z"/>
		<path class="st72" d="M42.7,171.2c-0.1,0.1-0.2,0.2-0.3,0.3c-0.1-0.1-0.2-0.3-0.2-0.4c0-0.1,0.1-0.2,0.2-0.3
			C42.6,170.8,42.7,170.9,42.7,171.2z"/>
		<path class="st0" d="M217.9,293.7c1,0.1,1.9-0.3,2.5-1c2.2-2.1,5-3.2,7.5-4.8c3.7-2.3,7.5-4.4,11-6.9c3.3-2.4,6.8-4.3,10.3-6.4
			c3.4-2,6.7-4,10-6.1c0.2-0.1,0.4-0.5,0.6-0.7c0.6,0.1,1.2-0.2,1.9,0.4c-1.3,1.3-3,2-4.6,2.9c-3.2,1.8-6.1,4.1-9.3,5.9
			c-3.5,2.1-6.9,4.5-10.5,6.5c-5.1,2.8-9.7,6.1-14.7,9.1c-1.1,0.7-2.3,1.3-3.3,2c-0.5,0.4-1,0.5-1.6,0.2
			C217.9,294.5,217.9,294.1,217.9,293.7z"/>
		<path class="st2" d="M95.3,204.1c0-24,0-48,0-72c0-3,0-3,2.9-3c53.3,0,106.6,0,159.9,0c2.9,0,2.9,0,2.9,3c0,21.4,0,42.7,0,64.1
			c-0.1,0.1-0.3,0.2-0.5,0.2c-1.5-0.3-2.4-1.6-3.4-2.5c-4.1-3.7-8.2-7.3-12.3-11c-4.5-4.1-9.1-8.2-13.6-12.3
			c-3.1-2.9-6.4-5.6-9.4-8.6c-2-1.9-2.4-1.9-3.9,0.4c-7.7,11.3-15.2,22.7-22.8,34c-0.6,0.9-1,2-2.3,2.3c-2,0-3.8-0.9-5.5-1.7
			c-7-3.3-14.1-6.2-21.1-9.3c-4.4-2-8.9-3.9-13.4-5.8c-0.9-0.4-1.7-0.3-2.5,0c-5.1,1.8-9.9,4.1-14.9,6.1c-8.9,3.5-17.5,7.6-26.4,11
			c-3.9,1.5-7.6,3.4-11.5,4.9C96.7,204.4,96,204.7,95.3,204.1z"/>
		<path class="st10" d="M95.3,204.1c5.8-2.5,11.7-5,17.5-7.5c6.5-2.8,12.9-5.6,19.4-8.3c6.1-2.6,12.3-5,18.5-7.5
			c0.6-0.3,1.2-0.2,1.8,0.1c11.1,4.9,22.3,9.8,33.3,14.7c2.3,1,4.6,1.9,6.9,2.9c0.6,0.8,0.2,1.4-0.2,2c-3.4,4.9-6.7,9.9-10,14.9
			c-3.8,5.8-7.8,11.4-11.6,17.2c-1.4,2.2-3.1,4.3-4.4,6.5c-0.9,1.6-0.8,1.8,0.9,1.9c0.4,0,0.7,0,1.1,0c29,0,58.1,0,87.1,0
			c3.9,0,4-0.1,4-4c0-12.6,0-25.1,0-37.7c0-1.1-0.4-2.4,0.9-3.2c0.1,0,0.2,0,0.4,0c0,14.5,0,29,0,43.5c0,2.6,0,2.6-2.6,2.6
			c-53.5,0-107.1,0-160.6,0c-2.6,0-2.6,0-2.6-2.6C95.2,227.9,95.2,216,95.3,204.1z"/>
		<path class="st2" d="M515.6,164.4c0.2,0,0.5,0,0.7,0c-0.3,0.7-0.7,1.1-1.5,1.2c-0.1,0-0.3,0-0.4,0c0-0.3,0-0.5,0-0.8
			C514.9,164.7,515.3,164.7,515.6,164.4z"/>
		<path class="st73" d="M514.5,163.2c0,0.5-0.3,1,0,1.5c-2.3,0.5-2.8,0.1-2.3-2.3C513.1,162.5,513.9,162.5,514.5,163.2z"/>
		<path class="st74" d="M260.6,196.2c0,14.4,0,28.7,0,43.1c0,2.7,0,2.7-2.7,2.7c-30.7,0-61.3,0-92,0c-0.6,0-1.5,0.4-1.9-0.4
			c-0.2-0.6,0.5-1.1,0.8-1.6c4.5-6.8,9-13.6,13.6-20.3c4.6-6.9,9.3-13.7,14-20.6c0.1-0.2,0.2-0.4,0.3-0.7
			c8.2-12.3,16.4-24.5,24.7-36.8c1.9-2.9,2-2.9,4.6-0.5c7.3,6.6,14.7,13.1,21.9,19.8c5,4.6,10.1,9.1,15.2,13.6
			C259.7,195.1,260.1,195.7,260.6,196.2z"/>
		<path class="st0" d="M138.4,165.9c-7.8,0.3-14.4-6.4-14.5-14.1c-0.1-8.8,7.6-15,14.7-14.9c7.9,0.2,14.3,6.2,14.4,14.6
			C153,159.2,146.7,166.2,138.4,165.9z"/>
		<path class="st75" d="M230.3,236.9c-2.7,3.5-2.6,2.5-3.4,0.7c-0.5,0-0.8,0.4-1.1,0.6c-0.9,0.7-1.6,1-2.6-0.2
			c-0.7-0.8-1.6,1.3-2.7,0.7c-0.6-0.3-0.8-0.9-0.6-1.6c0.1-0.6,0.3-1.2,0.5-2c-1.5,0.5-2.2,1.8-3.2,2.6c-0.5,0.4-0.9,1.1-1.6,0.6
			c-0.6-0.5-0.1-1.2,0.1-1.7c0.3-0.7,0.7-1.4,1.3-2.4c-2.3,0.7-3.7,2-5.2,3.2c-0.3,0.2-0.5,0.5-0.8,0.8c-0.5,0.4-0.9,1.1-1.6,0.5
			c-0.6-0.5,0.1-1,0.4-1.4c1.4-1.9,2.8-3.7,4.2-5.5c0.4-0.5,0.7-1.1,1.2-1.8c-1-0.4-1.7,0.1-2.4,0.3c-4.6,1.7-9.3,3.4-13.9,5
			c-1.4,0.5-2.9,1-4.4,0.3c-0.3-0.1-0.7-0.3-0.6-0.8c0.1-0.4,0.5-0.4,0.8-0.4c4.9,0.3,9-2.4,13.4-3.8c2.4-0.8,4.9-1.6,7.3-2.4
			c0.5-0.2,1.1-0.5,1.6,0.1c0.5,0.6,0.1,1.2-0.3,1.7c-0.7,1.1-1.4,2.1-2.4,3.5c1.3-0.6,2.2-1,3.1-1.3c1.3-0.5,2.4-0.6,1.9,1.4
			c0.3-0.2,0.5-0.2,0.6-0.3c0.7-0.4,1.4-1.2,2.2-0.6c0.8,0.6,0,1.5-0.2,2.2c-0.1,0.2-0.2,0.5-0.3,0.7c-0.1,0.4-0.4,0.9,0,1.2
			c0.4,0.4,0.8-0.2,1.1-0.4c1.2-0.8,1.8-2.1,2.8-3c0.3-0.3,0.7-0.7,1.1-0.3c0.5,0.4,0.1,0.8-0.2,1.1c-0.5,0.8-1.3,1.4-1.3,2.6
			c1.4-0.7,2.1-1.8,2.8-3c0.2-0.4,0.5-0.9,1-0.6c0.5,0.2,0.4,0.7,0.2,1.2c-0.3,0.7-0.8,1.4-0.4,2.5c1.1-1.1,2-2.2,2.1-3.7
			c0.1-0.5,0.1-1.1,0.7-1.2c0.6-0.2,0.6,0.4,0.9,0.8c0.9,1,1.8,0.1,2.5-0.3c0.8-0.5,1.1-1.5,1-2.5c-0.1-0.4-0.6-0.2-1-0.1
			c-0.9,0.2-1.7,0.4-2.5,0.6c-0.5,0.1-1.1,0.2-1.2-0.5c-0.1-0.5,0.5-0.7,0.9-0.8c1-0.2,1.9-0.5,2.9-0.6c1.4-0.2,2.3-0.9,2.5-2.3
			c0.1-0.4,0.2-0.7,0.4-1.1c0.2-0.6,0.4-1.4,1.2-1.2c0.9,0.3,0.3,1,0.1,1.6c-0.2,0.6-0.9,1.3-0.5,1.9c0.5,0.7,1.4,0.3,2.1,0.2
			c3.5-0.4,7.1-0.8,10.6-1.2c0.5-0.1,1.3-0.3,1.4,0.5c0,0.6-0.7,0.8-1.3,0.9c-2.8,0.3-5.6,0.5-8.4,0.8c-0.6,0.1-1.1,0.1-1.7,0.2
			c-1.2,0.4-2.9-0.4-3.7,1c-1.1,2-1.9,4.2-2,6.6c0,0.4,0,0.8,0.4,1c0.4,0.2,0.7-0.2,1-0.4c1.5-1.5,2.9-2.9,4.1-4.6
			c0.3-0.4,0.5-0.9,1.1-0.8c0.5,0.1,0.7,0.7,0.8,1.2c0.4,1.3,0.5,2.8,1.4,4.2c0.5-1.5,0.2-2.6-0.2-3.8c-0.2-0.5-0.5-1.1,0-1.6
			c0.5-0.4,1.1-0.3,1.6,0c0.9,0.6,1.8,0.4,2.7,0.1c2.1-0.6,4.2-1.3,6.3-1.9c0.6-0.2,1.6-0.9,1.9,0.1c0.2,0.8-0.9,0.8-1.5,1
			c-2.2,0.6-4.3,1.3-6.5,1.8c-1.1,0.3-1.4,0.8-0.9,1.9c0.3,0.7,0.5,1.5,0.8,2.3c0.1,0.4,0.2,0.9-0.3,1.2c-0.5,0.3-0.9,0.1-1.2-0.3
			c-0.9-1.1-1.5-1.4-1.9,0.4c-0.2,1-1,0.9-1.5,0.1c-0.4-0.6-0.7-1.3-1.1-2c-0.9,0.8-0.8,2.7-2.4,2.8c-1.1,0.1-1-1.1-1.4-1.7
			c-0.6,0-0.8,0.5-1.2,0.9c-0.7,0.6-1.3,1.3-2.3,0.7c-0.9-0.5-1.2-1.4-1.1-2.4c0-0.2,0.1-0.4,0.1-0.6c0-0.7,0.8-1.7-0.3-1.9
			c-1-0.2-1.9,0.6-2.1,1.7c-0.1,0.5,0,1.1-0.1,1.7c0,0.5,0.1,1.2-0.5,1.3c-0.8,0.1-0.7-0.7-0.8-1.2
			C230.4,237.5,230.7,237.1,230.3,236.9z"/>
		<path class="st76" d="M224.3,228.1c-3.7,0.1-6.3-2.4-6.4-6c-0.1-4.3,2.3-7,6.2-7.1c0.6,0,1.1,0,1.7,0c0.2,0.2,0.6,0,0.8,0.3
			c1.2,0.6,2.1,0.6,3.3-0.3c2.8-1.9,6.2-1,7.5,1.8l0,0c-0.8,0-1.2-0.6-1.7-1.1c-1.2-1-2.5-1.5-4.2-0.8c-2.3,0.9-2.5,1.1-1.4,3.3
			c0.6,1.2,0.6,2.2,0.2,3.8c-0.6-0.1-0.5-0.7-0.5-1c0-2.3-1.1-3.8-3.1-4.7c-2.3-1-4.6-0.7-6.5,1c-1.6,1.5-2.1,3.7-1.5,5.9
			c0.5,2,1.8,3.4,4,3.8C223.5,227.1,224.1,227.3,224.3,228.1L224.3,228.1z"/>
		<path class="st18" d="M226.2,208.5c-0.3,0.5,0.5,0.7,0.3,1.3c-1.1-0.8-2.1-1.5-3.2-2.2c2.1-0.7,5.2,0.6,6.3,2.4
			c0.8,1.4,0.6,3.1-0.6,4.3C229.5,209.8,229.2,209,226.2,208.5z"/>
		<path class="st77" d="M236.2,223.2c-0.7,1.9-2.3,2-3.8,1.8c-1.3-0.2-3-0.2-3.5-2c1.8-1.1,2.1,1.3,3.5,1.4
			C233.9,224.5,235,223.6,236.2,223.2L236.2,223.2z"/>
		<path class="st18" d="M226.5,215.3c-0.3-0.1-0.5-0.2-0.8-0.3c-1.7-1.5-3-3.2-2.6-5.7c0-0.2,0-0.5,0.5-0.6c0.2,1.3,0,2.7,0.7,3.8
			c0.7,1.2,2,1.6,3.2,2C227.4,215.2,226.8,215,226.5,215.3z"/>
		<path class="st78" d="M224.2,228.1c0.6-0.4,0.3-1.6,1.3-1.5c0.4,0,0.8,0.3,0.7,0.7c0,1-0.7,1.5-1.4,2c-0.4,0.2-0.8,0.4-1.3,0.2
			C223.4,228.9,224.3,228.7,224.2,228.1C224.3,228.1,224.2,228.1,224.2,228.1z"/>
		<path class="st78" d="M229.7,228.7c-1.2-0.3-2.1-0.8-2.3-1.7c-0.1-0.4,1-1.2,1.3-1.1C229.8,226.4,229.4,227.6,229.7,228.7z"/>
		<path class="st77" d="M224.8,223.3c-0.2,1.9-0.8,2.2-2.7,1.4C223,224.2,223.9,223.7,224.8,223.3z"/>
		<path class="st78" d="M240.2,221.1c-2.6,0.6-2.7,0.5-2.1-1.7C238.7,220,239.4,220.4,240.2,221.1z"/>
		<path class="st79" d="M236.3,223.3c0-0.5-0.5-1.1,0.4-1.4c0.3-0.1,0.6,0,0.8,0.3c0.3,0.5,0.2,1-0.2,1.4
			C236.8,224.1,236.6,223.4,236.3,223.3C236.2,223.2,236.3,223.3,236.3,223.3z"/>
		<path class="st80" d="M227.1,219.9c0.6,0.6,1.1,1.3,0.4,2c-0.1,0.1-0.6,0.2-0.7,0.1C226.1,221.3,227.4,220.7,227.1,219.9z"/>
		<path class="st80" d="M234.3,220.2c0.8,1.4,0.2,2-1.2,2.7C233.6,221.8,233.9,221.1,234.3,220.2z"/>
		<path class="st64" d="M237.4,216.9c0.7-0.6,0.8-0.1,0.7,0.5c-0.1,0.5-0.1,1.2-0.9,1.1c-0.5-0.1-0.5-0.4-0.3-0.8
			C237.1,217.4,237.2,217.1,237.4,216.9C237.4,216.9,237.4,216.9,237.4,216.9z"/>
		<path class="st81" d="M234.7,219.1c-0.3-0.8-0.5-1.3-0.8-2.1C235,217.3,235.3,217.8,234.7,219.1z"/>
		<path class="st18" d="M245.6,233.5c1.2,1,1.3,2.1,1.6,3.2C246.3,235.9,245.6,235,245.6,233.5z"/>
		<path class="st82" d="M240.1,237.4c0-1.2,0.4-1.9,1.1-2.4C241.3,235.8,240.9,236.5,240.1,237.4z"/>
	</g>
</g>
</svg>
