<?xml version="1.0" encoding="utf-8"?>
<!-- Generator: Adobe Illustrator 22.1.0, SVG Export Plug-In . SVG Version: 6.00 Build 0)  -->
<svg version="1.1" id="Layer_1" xmlns="http://www.w3.org/2000/svg" xmlns:xlink="http://www.w3.org/1999/xlink" x="0px" y="0px"
	 viewBox="0 0 600 400" style="enable-background:new 0 0 600 400;" xml:space="preserve">
<style type="text/css">
	.st0{fill:#FB9418;}
	.st1{fill:#FC9518;}
	.st2{fill:#FC9218;}
	.st3{fill:#FC9018;}
	.st4{fill:#FD9A18;}
	.st5{fill:#FC9818;}
	.st6{fill:#FC9918;}
	.st7{fill:#FC8E18;}
	.st8{fill:#FC8018;}
	.st9{fill:#FC8518;}
	.st10{fill:#FC7A18;}
	.st11{fill:#FC8118;}
	.st12{fill:#FC8718;}
	.st13{fill:#FC8618;}
	.st14{fill:#FC8017;}
	.st15{fill:#FC7F18;}
	.st16{fill:#FC9118;}
	.st17{fill:#FC8318;}
	.st18{fill:#FC8F18;}
	.st19{fill:#FC7617;}
	.st20{fill:#FC8A18;}
	.st21{fill:#FC7717;}
	.st22{fill:#FC7C18;}
	.st23{fill:#FC7516;}
	.st24{fill:#FC7518;}
	.st25{fill:#FC7618;}
	.st26{fill:#FC7718;}
	.st27{fill:#FD7618;}
	.st28{fill:#FC8818;}
</style>
<g>
	<g>
		<path class="st0" d="M417.4,33.4c60.4,0,120.7,0,181.1,0c1.5,0,2,0.2,2,1.9c-0.1,110.5-0.1,220.9,0,331.4c0,1.5-0.2,1.8-1.8,1.8
			c-94.2,0-188.3,0-282.5,0c-0.7-0.5-0.8-1.2-0.9-2c-0.1-1.1,0-2.2,0-3.3c0-35.8,0-71.6,0-107.3c0-3-0.7-5.9-0.9-8.9
			c0-0.4-0.2-0.8-0.4-1.2c-0.7-1.2-1.4-1.3-2.2-0.1c-0.2,0.2-0.3,0.5-0.5,0.7c-1.6,0.5-1.4-0.7-1.5-1.6c-0.2-1.2,0.4-2.5-0.9-3.4
			c-0.6-0.7-1.8-0.7-2-1.8c0.3-1.9,1.5-3.2,3.7-3.1c2.6,0.1,5.3,0.4,7.5,2.3c0.6,0.5,0.7,1.6,1.5,1.5c1,0,1.5-1,2.1-1.7
			c10.2-10.1,20.5-20.3,30.7-30.4c0.8-0.8,1.6-1.7,3-1.7c0.5-0.1,0.9,0.1,1.2,0.5c1.2,1.2,2,1.3,3.1,0c-0.7-1.5-2.7-1.8-4.4-0.6
			c-1.4,0.4-2.3-0.2-2.8-1.4c-0.1-0.7,0.2-1.2,0.8-1.6c2.8-1.8,5.4-4,8.8-4.6c4.2-4.6,8.7-8.9,13.1-13.3
			c31.6-31.3,63.2-62.7,94.8-94.1c0.4-0.4,0.8-0.8,1.2-1.2c0.9-0.8,0.8-1.5,0-2.3c-1.7-1.7-3.5-3.4-5.2-5.1
			c-15.6-15.5-31.3-31-46.9-46.6C418.1,35.4,416.8,34.8,417.4,33.4z"/>
		<path class="st1" d="M355.1,206.5c-0.6,0.5-1.2,1-1.8,1.6c-11,10.9-22,21.8-32.9,32.7c-1.6,1.6-1.7,1.6-2.4-0.4
			c-0.3-0.9-0.9-1.4-1.6-1.7c-2.5-1.1-4.9-2.2-7.8-1c-0.8,0.4-1.1,1-1.5,1.5c-1,0.9-1.8,0.2-2.5-0.3c-4.6-3-9.7-5.5-14-9
			c-0.2-0.2-0.6-0.3-0.8-0.4c-0.2-0.2-0.3-0.3-0.3-0.5c0-0.2-0.1-0.5-0.1-0.7c0-5,0-10,0-15.1c0-35.1,0-70.2,0-105.3
			c0-1.4,0-2.8-0.4-4.2c0-3.3,0.1-6.6,0-9.9c0-2.6-0.8-3.3-3.4-3.4c-0.9,0-1.7,0-2.6,0c-69,0-138,0-207.1,0c-4.8,0-4.9,0.1-4.9,4.9
			c0,2.8,0.1,5.6-0.1,8.4c0.1,1.1,0.1,2.2,0.1,3.3c0,39.1,0,78.3,0,117.4c0,0.9,0,1.9,0,2.8c0,0.3-0.2,0.6-0.3,0.9
			c-2.3,2.1-5.1,3.4-7.7,5.1c-3.1,2-6.2,3.9-9.3,5.8c-0.9,0.6-2.3,0.5-2.8,1.7c-0.8,2.7-0.8,5.4-0.7,8.1c0,3,0,5.9,0,8.9
			c0,1.2,0.2,2.5,0.9,3.5c0.4,0.3,0.8,0.2,1.2,0.1c2.3-0.8,4.6-1.7,6.8-2.5c1.3-0.5,2-1.3,1.9-2.8c0-2.1-0.1-4.2,0-6.3
			c0-1,0.1-1.9,1.3-2.2c0.8-0.2,1.4,0.2,2.1,0.6c1.9,1.2,3.9,2.3,5.7,3.7c2.8,0.8,4.9,2.9,7.3,4.4c5.4,3.1,10.5,6.5,15.9,9.6
			c1.8,1.1,3.6,2.1,5.3,3.4c1.5,1.5,3.6,1.9,5.2,3.2c0.4,0.3,0.6,0.8,1,1c6.6,3.2,12.5,7.6,18.9,11.2c0.3,0.2,0.6,0.4,0.8,0.7
			c1.4,1.1,3.1,1.8,4.6,2.7c3.2,1.9,6.6,3.6,9.5,6c1.9,1.2,3.8,2.2,5.7,3.3c0.4,0.4,0.8,0.9,1.4,1.2c7.2,3.9,13.9,8.5,20.9,12.7
			c5.6,3.3,11.1,6.7,16.6,10.1c6.1,3.8,12.2,7.5,18.3,11.3c6.8,4.2,13.7,8.4,20.5,12.6c6.4,4,13,7.6,19.1,12.1
			c0.6,0.4,1.3,0.5,1.9,0.8c3.9,2.7,8.1,5,12.2,7.5c0.5,0.9,2.1,1.1,1.7,2.6c-84.9,0-169.7,0-254.6,0c-1.5,0-2-0.1-2-1.8
			c0.1-110.5,0.1-220.9,0-331.4c0-1.5,0.2-1.8,1.8-1.8c138.4,0,276.8,0,415.2,0c0.6,0.6,1.1,1.3,1.8,1.9
			c17.5,17.4,35,34.8,52.5,52.1c1.4,1.4,1.2,2-0.1,3.3c-35.9,35.6-71.8,71.2-107.7,106.8c-0.5,0.5-1.1,1-1.7,1.5
			c-4.8,0.2-9.7,0.1-14.5,0.1c-1,0-2,0.1-2.9-0.2c2,1.1,4.1,2.2,6,3.5c0.8,0.5,1.5,1.1,1.6,2.1c0.9,0.5,1.6,1.3,2.6,1.5
			c0.1,0.1,0.1,0.2,0.1,0.2C355.2,206.4,355.2,206.5,355.1,206.5z"/>
		<path class="st2" d="M256.9,368.4c-0.5-1-1.6-1.2-2.2-1.9c0.6-1.5,0-2.4-1.5-2.8c-0.7-0.2-1.4-0.4-1.6-1.2
			c-0.4-1.6-1.5-1.8-2.8-1.7c-0.9,0-1.5-0.4-1.9-1.2c-1-1.9-2.3-2.1-4.2-0.6c-3.4-2-6.7-4-10-6c-9.1-5.7-18.3-11.3-27.5-16.9
			c-10.2-6.3-20.3-12.9-30.6-19c-5.3-3.2-10.5-6.4-15.8-9.6c-4.7-2.8-9.3-5.8-13.9-8.7c-0.3-0.2-0.5-0.5-0.8-0.8
			c0.4-0.8,1.2-0.8,1.9-0.8c2.2-0.1,4.4-0.2,6.6,0.1c6.4,4.2,13.1,7.8,19.6,11.9c2.7,1.8,5.5,3.5,8.4,4.7c3.4,1.4,6.9,1.5,10-0.9
			c2.1-0.8,3.9-2.2,5.8-3.4c6.6-4.1,13.3-8,19.8-12.2c0.5-0.3,0.9-0.9,1.4-1.2c2.5-1.2,4.8-2.9,7.1-4.3c5.7-3.6,11.4-7.1,17.1-10.6
			c6.5-4,13-8.1,19.5-12c5.8-3.4,11.4-7.3,17.3-10.6c2.7-1.5,5.4-3.3,8.1-5c1-0.6,2-1.5,3.4-1.1c0.4,0.2,0.8,0.4,1.1,0.7
			c1.4,0.9,2.1,0.8,2.9-0.6c0.4-0.7,0.9-1.3,1.8-1.5c1.5-0.2,2.4,0.4,2.3,1.8c0,4.8,0.3,9.5-0.2,14.3c-0.1,1.1,0.4,1.3,1.2,1
			c1.1-0.5,2.1-0.4,3.2,0.2c1,0.5,3.3-0.4,3.9-1.4c0.5-0.8,1.1-1.3,2.2-1c1,0.3,1.2,1.2,1.2,2.1c0,4.3,0,8.7,0,13c0,0.2,0,0.5,0,0.7
			c-0.1,0.7-0.5,1.4-1,1.5c-2.1,0.2-2,3.6-4.7,3c-1.7-0.4-3.4-0.1-3.7,2.2c-0.1,0.7-0.9,1.3-1.6,1.4c-1.2,0.2-1.3,1-1.3,1.9
			c0,6.9,0,13.8,0,20.7c0,0.8,0.1,1.5,0.5,2.1c0.4,0.6,0.6,1.3,1.5,1.1c0.8-0.2,1-0.8,1.1-1.5c0.1-0.6,0-1.2,0.1-1.9
			c0.8-1.2,1.9-1.7,3.3-1.6c1.1,0.5,2.6,0.9,1.4,2.7c0.8-0.2,1.4-0.6,2.1-0.6c1.4,0.1,2.3,0.8,2.3,2.1c0,4.7,0,9.4,0,14.1
			c0,1.2-0.6,1.8-1.9,1.8c-2-0.1-3.8,1.1-5.8,1.1c-1.6,0.1-3.3,3-3.8,4.5c-1.8,5.4-0.4,11-0.9,16.5c-0.2,2.3,1,4.3,1.3,6.4
			c0,0.1,0,0.3,0.1,0.3c1.2,0,2.3-0.4,3.5-0.1c0.5,0.1,0.3-0.9,0.5-1.4c0.2-0.5,0-1,0.2-1.5c0.9-1,2-1.7,3.4-1c0.5,0.8,1,1.7,2,2.1
			c0.9,0.3,1.3,1.1,1.3,2.1c0,2.2,0,4.5,0,6.7c0,0.7-0.3,1.2-0.8,1.6c-16.6,0-33.2,0-49.9,0c-0.6-0.8-1.2-0.9-1.9,0
			C257.1,368.4,257,368.4,256.9,368.4z"/>
		<path class="st3" d="M310.5,246.3c0.4-0.5,0.4-1,0.4-1.6c0-0.7,0.1-1.4,0.9-1.6c0.8-0.2,1.6,0,2.2,0.6c0.7,0.7,1.1,1.6,1.2,2.5
			c0.1,2.5,1,5,1,7.5c0,38.2,0,76.5,0,114.7c-1.9,0-3.8,0-5.6,0c-0.8-0.6-0.8-1.5-0.8-2.3c0.1-3.8-0.1-7.6-0.2-11.4
			c0.1-6.6,0-13.1,0-19.7c0-1.1,0.2-2.2,0.2-3.3c-0.3-6.4,0.1-12.8-0.2-19.2c-0.1-1.1-0.2-2.1-0.6-3.1c1.3-7.2,0.3-14.4,0.6-21.6
			c0-0.6-0.2-1.1-0.3-1.6c1-6.5,0.4-13.1,0.4-19.6c0-1.2,0-2.3-0.1-3.5c0.1-4.7,0-9.3,0.1-14C309.7,248,309.4,246.9,310.5,246.3z"/>
		<path class="st2" d="M310.1,354.6c0.6,1.4,0.3,2.9,0.4,4.4c0,3.1,0,6.3,0,9.4c-0.5,0-1,0-1.5,0c0-2.6,0-5.2,0-7.8
			c0-1.5-0.7-2.2-2.2-2.1c-0.5,0-1.2,0.5-1.5-0.1c-0.3-0.6,0.6-0.7,0.8-1.1c0.1-0.3,0.2-0.7,0.3-1.1
			C306.8,354.3,308.3,353.7,310.1,354.6z"/>
		<path class="st2" d="M257.2,368.4c0.1-0.7-1.2-1.7,0.2-2.1c0.9-0.3,1.5,0.2,1.6,1.2c0,0.3,0,0.6,0,0.9
			C258.5,368.4,257.9,368.4,257.2,368.4z"/>
		<path class="st4" d="M525.4,167.7c1.8-0.6,2.2-2.4,3.2-3.7c4.9-6.6,11.6-10.1,19.6-10.3c10.6-0.2,18.7,4.4,23.8,13.9
			c1,1.8,1.9,3.7,2,5.7c0.1,2,1,3.3,2.6,4.4c3.1,2.1,5,5,5.7,8.6c0.5,2.3,0.1,4.6-0.3,6.8c-0.2,1.4-1.4,2.3-2.8,2.8
			c-1.1,0.4-2.3,0.5-3.5,0.5c-22,0-44,0-66,0c-1.3,0-2.6-0.1-3.8-0.7c-1.8-0.8-2.6-2.2-2.8-4.1c-0.6-8.5,2.7-15.1,9.7-20.2
			c1.7-1.2,3.6-1.6,5.3-2.6c1.3-1.4,3-1.6,4.7-1.4C523.8,167.5,524.6,167.7,525.4,167.7z"/>
		<path class="st5" d="M481.4,80.9c-4.4,0-8.9,0.1-13.3,0c-2.6-0.1-2.5-0.4-2.8-2.9c-0.5-3.9,3.6-8.3,7.8-8.5c0.9,0,1.5-0.5,1.9-1.2
			c1.2-1.8,2.8-3.2,4.8-3.9c4.6-1.8,10.1-0.1,12.5,4.2c1.4,2.4,2.5,5,4.1,7.2c0.4,0.6,0.8,1.2,0.7,2c-0.3,2.9-0.7,3.3-3.8,3.3
			c-4,0-8,0-12,0C481.4,81,481.4,80.9,481.4,80.9z"/>
		<path class="st6" d="M397.7,289.5c-3.6,0-7.2,0-10.8,0c-2.4,0-2.8-0.5-2.8-2.8c0-3.9,2.6-6.9,6.6-7.5c1.1-0.2,1.8-0.7,2.4-1.5
			c3.8-5.3,12.2-4.6,15.1,1.2c0.9,1.8,1.6,3.7,3,5.2c0.7,0.8,1,1.8,0.8,2.9c-0.2,1.8-1.1,2.5-2.8,2.5
			C405.3,289.4,401.5,289.5,397.7,289.5z"/>
		<path class="st7" d="M502.9,160.3c-6-3.8-12-7.5-18-11.3c-0.8-0.5-1.3-0.4-1.5,0.5c-0.2,0.9-0.8,1.3-1.6,1.2
			c-1-0.1-0.6-1.1-0.6-1.7c0-0.8-0.3-1.9,1-2.1c0.5-0.1,1.1-0.1,1.7-0.1c13.7,0,27.5,0,41.2,0c-0.1,1.1-0.7,1.9-1.6,2.4
			c-5.1,3.1-10.1,6.2-15.2,9.3C506.6,159.6,505,161,502.9,160.3z"/>
		<path class="st8" d="M310.5,246.3c0,4.7,0,9.5,0,14.2c0,0.9,0,1.7-0.4,2.5c-0.2,0.8-0.9,1.1-1.6,1.4c-1.9,0.8-3.9,1.6-5.9,2.1
			c-0.2,0.1-0.4,0.1-0.5,0.2c-0.6,0.4-1.2,0.7-1.9,0.7c-0.6,0.1-1.2,0.4-1.9,0c-0.6-0.5-0.4-1.3-0.4-1.9c0-4-0.1-7.9,0-11.9
			c0-1.7-1.1-3.2-0.4-4.9c-0.1-1.3,0.4-2.2,1.6-2.9c2.6-1.5,5-3.2,7.6-4.7c0.7-0.4,1.4-0.8,2.3-0.5c1.1-0.8,1.5-0.5,1.5,0.8
			C310.5,243.1,310.5,244.7,310.5,246.3z"/>
		<path class="st2" d="M502.9,160.3c2.7-0.8,4.9-2.5,7.3-4c3.5-2.1,7-4.4,10.6-6.5c0.7-0.4,1.6-0.7,2.4-1c0.9,0.5,1.3,1.5,1.9,2.2
			c0.4,1.2,0.4,2.5,0.4,3.7c-0.9,1.3-2.1,2.6-0.4,4.1c0.4,1.2,0.3,2.5,0.4,3.7c-1.2,1.3-1.9,2.6-0.4,4.1c-0.2,0.5,0.1,0.8,0.4,1.1
			c-2.4,0.4-4.7,0.7-7.1,1.1c0,0,0,0,0,0c-0.3-0.4-0.3-1-1-0.9c-0.5,0.1-1.1,0.7-1.4-0.1c-0.2-0.8,0.1-1.5,0.8-1.6
			c-0.7,0.7-1.6,1.6-3,1.9c-1.4,0.2-2.7-0.5-2.9-1.8c0.3-0.6,0.3-1.1-0.4-1.4C507.5,163.9,505.5,161.6,502.9,160.3z"/>
		<path class="st9" d="M309,240.7c-3.2,2-6.4,4-9.5,6c-0.6,0.4-1.2,0.6-1.3,1.4c-0.3,0.2-0.4,0.6-0.7,0.8c-0.8,0.5-1.3,1.1-2,1.7
			c-1.1,0.5-2.1,1.3-3.3,1.8c-1.6,0.8-2.4,0.4-2.5-1.4c0-6.8,0-13.6,0-20.5c0-0.6,0.1-1.1,0.6-1.5c2.7,1.6,5.4,3.3,8.1,4.9
			c2.9,1.7,5.7,3.8,8.8,5.2C307.7,239.8,308.6,239.9,309,240.7z"/>
		<path class="st3" d="M352.5,204.6c-2.6-1.6-5.3-3.3-7.9-4.9c-0.4-0.2-0.7-0.6-1.1-0.1c-0.3,0.4-0.8,0.5-1-0.1
			c-0.2-0.5,0-1,0.6-1.1c0.5-0.1,1-0.1,1.5-0.1c5.2,0,10.3,0,15.5,0c0.8,0,1.7-0.2,2.1,0.7c-0.1,0.7,0.1,2-1.3,0.9
			c-0.5-0.4-1,0.1-1.4,0.3C357.2,201.6,354.9,203.1,352.5,204.6z"/>
		<path class="st10" d="M510.7,166.2c1.7,1.9,3.1,1.9,4.9-0.1c0.4-0.4,0.9-0.5,3.8-0.1c-1.4,0.4-2.8,0-3.4,1.7
			c1.1-0.3,2-1.4,2.8-0.5c0.4,0.4-0.1,1.2-0.6,1.6c-2.6-0.5-5.3-0.2-7.9-0.5c-0.2,0-0.6,0.2-0.4-0.2c0.8-1.8-0.8-0.7-1.3-1.1
			C509.2,166.5,509.9,166.3,510.7,166.2z"/>
		<path class="st3" d="M355.1,206.5c0-0.1,0-0.2,0-0.4c-0.2-0.5-0.7-0.9-0.2-1.5c0.4-0.4,0.9-0.5,1.4-0.3c1.5,0.6,3.5,0.4,4.1,2.5
			c-2.1,1.3-3.3,1.4-4.5,0.4C355.6,207,355.4,206.7,355.1,206.5z"/>
		<path class="st11" d="M525,166.6c-0.7,0-1.6,0.7-1.8-0.5c-0.1-1.1-0.6-2.4,0.7-3.2c0.4-0.2,0.9-0.3,1.4-0.5
			C525.2,163.9,525.7,165.3,525,166.6z"/>
		<path class="st12" d="M525,158.8c-0.6,0.2-1.5,0.7-1.7-0.3c-0.3-1.1-0.6-2.3,0.6-3.2c0.4-0.3,1-0.4,1.5-0.6
			C525.2,156.1,525.7,157.5,525,158.8z"/>
		<path class="st11" d="M525,151c-2.5,0.8-1.7-1.1-1.9-2.2c0.4-0.8,1.2-1.3,1.9-1.9C525.6,148.3,525.6,149.6,525,151z"/>
		<path class="st13" d="M481.5,164.5c0.2-1-0.4-2.5,1.3-2.4c1.1,0.1,0.5,1.3,0.6,2c0.1,1.1-0.4,1.9-1.5,1.8
			C480.8,165.9,481.7,165,481.5,164.5z"/>
		<path class="st14" d="M481.5,156.5c0.1-1-0.2-2.2,1.2-2.2c1,0,0.6,1,0.7,1.6c0.1,0.9,0.1,2.1-1.1,2.2
			C481.1,158.2,481.7,157,481.5,156.5z"/>
		<path class="st15" d="M483.4,171.6c0,1,0,2.2-1.3,2.1c-1-0.1-0.5-1.2-0.6-1.8c-0.1-0.9,0-2,1.2-2
			C483.8,169.9,483.2,171.1,483.4,171.6z"/>
		<path class="st8" d="M355.9,207.2c0.6,0,1.2,1,1.8-0.4c0.5-1.1,1.8,0.2,2.7,0c-0.3,2.4-2.2,1.2-3.5,1.5
			C356.2,208.4,355.4,208.3,355.9,207.2z"/>
		<path class="st3" d="M361.7,205.6c0.5,0.1,0.5,0.5,0.5,0.8c0,0.4,0,0.8-0.5,0.8c-0.4,0-0.5-0.4-0.5-0.8
			C361.2,206,361.2,205.7,361.7,205.6z"/>
		<path class="st3" d="M361.7,203.6c-0.4,0-0.5-0.3-0.6-0.6c0-0.5,0.1-0.9,0.6-1c0.4,0,0.4,0.4,0.4,0.7
			C362.2,203.1,362.2,203.5,361.7,203.6z"/>
		<path class="st5" d="M70.1,228.4c0-0.3,0-0.5,0-0.8c2.5-0.7,2.5-0.7,2.5-3.5c0-37.9,0-75.8,0-113.7c0-1.3,0-2.6,0.1-3.9
			c0.1-1.4,0.8-2.2,2.3-2.2c0.6,0,1.2,0,1.9,0c31.4,0,62.9,0,94.3,0c1.7,0,3.3-0.3,4.8-1.2c2.1-0.5,4.3-0.3,6.4-0.2
			c0.5,0.1,0.9,0.4,1.1,0.9c0.2,0.4,0.6,0.6,0.9,0.4c1.1-0.8,2.6-0.4,3.7-1.2c1.3,0,2.6,0.1,3.8-0.1c0.7-0.1,1.3,0.1,1.8,0.7
			c0.5,0.8,1.4,0.8,2.2,0.8c29.9-0.2,59.7,0,89.6-0.1c0.6,0,1.1,0,1.7-0.1c1.6-0.2,2.1,0.3,2.2,2c0,0.6,0,1.2,0,1.9
			c0,39.4,0,78.8,0,118.1c0,0.9-0.2,1.8,0.6,2.4c0,0.1,0,0.2,0,0.4c0.4,2.1,0.1,4.2,0.2,6.3c0,3.5,0,7.1,0,10.6
			c-1.3,0.5-1.3-0.5-1.2-1.2c0.1-1.4-0.2-2.8-0.6-4.1c-0.8-0.2-0.4,0.5-0.4,0.7c0.1,1.4-0.3,2.6-1,3.8c-0.6,0.5-1.2,1-1.9,1.1
			c-1.5,0.1-2.8,0.7-3.8,1.8c-0.6,0.5-1.2,0.8-1.8,1.3c-0.5,0.2-0.9,0.5-1.2,0.9c-0.5,0.9-1.2,1.3-2.3,1.3c-0.9,0-1.7,0.4-2.1,1.3
			c-0.1,0.2-0.2,0.3-0.4,0.4c-0.6,0.2-1.1,0.5-1.6,0.9c-0.7,0.3-1.4,0.7-2.2,0.8c-0.8-0.1-1.5-0.2-2.2-0.9c-0.8-0.9-1.4-0.5-1.5,0.6
			c-0.4,0.8-1.4,1.1-1.9,1.8c-0.2,0.1-0.3,0.2-0.5,0.3c-0.8,0.2-1.7,0.2-2.5,0.3c-24.8,0.1-49.6,0-74.4,0c-0.4,0-0.9,0-1.3-0.1
			c-0.7-0.1-1.4-0.2-1.5-1.1c-0.1-1,0.8-1.1,1.5-1.4c0.8-0.3,1.6,0,2.4,0.2c0.9,0.2,1.9,0.2,2.8,0.2c22,0,43.9,0,65.9,0
			c0.9,0,1.8,0.2,2.5-0.3c-0.2-0.7-0.8-0.4-1.2-0.4c-23.4,0-46.8,0-70.2,0c-0.8,0-1.6,0.1-2.4,0.4c-0.7,0.3-1.6,0.2-1.7,1.2
			c0,1.1,1,1.1,1.7,1.3c0.4,0.2,0.5,0.6,0.5,1c0,0.1,0,0.1,0,0.2c-0.1,0.7-1.7,0.8-0.8,1.9c0.7,0.9,1.6,0.4,2.4,0
			c10.5-0.1,21,0,31.5,0c12.2,0,24.4,0,36.5,0c0.5,0,1,0,1.5,0c0.6,0,1.1,0.2,1.3,0.9c0.2,0.7-0.4,0.9-0.9,1.2
			c-2.6,1.6-5.5,1.3-8.4,1.2c-0.7,0-1.5-0.1-2.2-0.1c-19.4,0-38.8,0-58.3,0c-1,0-2-0.2-2.9,0.6c-0.2,0.2-0.4,0.5-0.7,0.6
			c-1.3,0.6-1.3,1.3-0.2,2.1c0.2,0.1,0.2,0.4,0.3,0.7c0.6,1,1.6,0.7,2.5,0.7c18.6,0,37.2,0,55.8,0c0.6,0,1.1,0,1.7,0
			c1.1,0.1,1.6,0.7,1.2,1.8c-0.8,0.9-2,1.4-2.9,2.4c-0.9,0.2-1.9,0.2-2.8,0.2c-17.3,0-34.5,0-51.8,0c-0.7,0-1.5,0-2.2-0.1
			c-0.4,0-0.7-0.2-1-0.3c-0.5-0.2-1.1-0.3-1.5,0.2c-0.3,0.5-0.2,1.1,0.2,1.5c0.7,0.7,0.7,1.5,0.8,2.3c0.3,0.6,0.6,1.1,1.1,1.5
			c0.8,0.4,1.6,0.1,2.4,0.1c12.8,0,25.6,0,38.4,0c0.7,0,1.4,0,2.1,0.1c1.7,0.2,1.9,0.6,1.1,2.3c-0.5,0.8-1.4,1.3-2.2,1.7
			c-1.9-0.4-2.7,1.1-3.7,2.2c-0.6,0.4-1.2,0.8-1.9,1.2c-0.8,0.4-1.4,1-2.2,1.3c-0.8,0.1-1.5,0-2.2-0.5c-0.6-2.4-2.4-2.7-4.6-2.7
			c-7.4,0.1-14.7,0-22.1,0c-1,0-2-0.2-2.9,0.5c-0.9,1.4-1.1,3-1.1,4.6c0,6.9,0,13.9,0,20.8c0,2.6-0.5,2.9-3,2.1
			c-2.4-0.8-4.7-1.7-6.7-3.2c-2.4-1.7-5.4-2.5-7.8-4.4c-1.3-1-2.7-1.8-4.1-2.6c-1.2-0.6-2.5-1.5-2.4-3.2c0.4-0.9,1.3-0.8,2.1-0.9
			c1.1-0.1,2.2,0,3.3-0.1c0.7-0.1,1.6-0.1,1.1-1.3c-1.4-0.8-3-0.9-4.5-0.9c-2.4,0-4.9-0.1-7.3,0c-2.1,0.2-3.8-0.5-5.4-1.6
			c-1.4-1-2.9-1.9-4.7-2.3c-0.7-0.2-1.4-0.5-1.2-1.4c0.1-0.8,0.9-0.7,1.5-0.7c5.6,0,11.1-0.1,16.7,0c1.9,0,3.7-0.4,5.6-0.6
			c0.2,0,0.4,0,0.6,0c1,0,1.3-0.7,1.1-1.5c-0.2-1.1-0.9-0.4-1.4-0.3c-0.7,0.2-1.4,0.4-2.2,0.3c-4.7-0.3-9.5-0.1-14.2-0.1
			c-1.2,0-2.4,0-3.6-0.1c-0.9-0.1-1.9-0.2-2.8-0.1c-0.6,0-1.2,0-1.7-0.4c-0.7-0.7-0.8-1.6-1.4-2.3c-0.8-1-0.3-1.9,1-2.1
			c0.8-0.1,1.6-0.4,2.4-0.1c2.1,0.5,4.2,0.2,6.3,0.3c3.9,0,7.7,0.1,11.6,0c1.3,0,2.5,0.9,3.8,0.3c0.1-0.1,0.3-0.3,0.4-0.4
			c1.3-0.4,1.8-1.4,1.9-2.6c0.1-0.9-0.4-1.5-1.4-1.6c-0.7-0.1-1.5,0-2.1-0.3c-1.4-0.8-2.8-0.9-4.4-0.9c-7.4,0-14.7,0-22.1,0
			c-0.8,0-2.3,0.4-2.3-0.8c0-1.2,1.4-0.8,2.3-0.8c7.8,0,15.6,0,23.4,0c1.3,0,2.6,0.5,3.9,0c0.5-0.5,0.9-1,1-1.7c0-0.4,0.1-0.7,0.3-1
			c0.2-0.4,0.8-0.4,0.7-0.9c-0.1-0.4-0.6-0.3-0.9-0.4c-0.8-0.1-1.7,0.1-2.3-0.7c-0.4-0.8-1.1-0.9-1.9-0.9c-11.8,0-23.6,0-35.5,0
			c-1.4,0-2.9-0.1-4.2,0.6c-0.2,0-0.4,0.1-0.6,0c-0.8-0.4-2.1-0.5-1.9-1.7c0.2-1.3,1.4-0.9,2.3-0.9c12.2,0,24.4-0.1,36.6,0.1
			c3,0,5.4-1.2,8.1-1.9c1.4-0.3,0.8-1.8,0.2-2.8c-0.4-0.5-0.9-0.8-1.3-1.2c-0.3-0.8-1-0.9-1.8-0.7c-0.9,0.2-1.7,0.1-2.6,0.1
			c-15.1,0-30.2,0-45.3,0c-3.6,0-7.2-0.1-10.8,0.3c-2.1,0.2-3-0.9-2.3-2.9c0.8-0.6,1.8-0.4,2.7-0.4c15.5,0,30.9,0,46.4,0
			c4,0,8,0.2,11.9-0.6c0.6-0.1,1.2,0.2,1.9,0.2c0.1-0.1,0.2-0.2,0.2-0.3c0.1-0.4,0-0.9,0.2-1.3c0-0.1,0.1-0.2,0.2-0.3
			c0.2-0.4,1-0.6,0.5-1.2c-0.5-0.4-0.6,0.4-1,0.5c-0.2,0.1-0.3,0.2-0.5,0.2c-0.5,0.1-0.8-0.1-1.2-0.4c-0.3-0.6-0.9-0.9-1.5-0.9
			c-0.6-0.1-1.1-0.1-1.7-0.1c-19,0-38.1,0-57.1,0c-1.3,0-2.8-0.2-3.6,1.3c-2.4,0.9-4.8,0.5-7.3,0.2c-1.2-1-0.4-1.5,0.6-1.7
			c0.8-0.2,1.6,0,2.1,0c-1.2,0.1-2.7,0-4-1.2c-0.4-0.3-0.9-0.3-1.4-0.3c-1.1,0.1-1.8-0.7-2.7-1.1c-2.6-1.1-4-4.1-7.2-4.2
			c-0.9,0-1.5-0.8-2-1.6c-0.8-1.2-1.7-2.1-3.2-2.4c-0.6-0.1-1-0.5-1.4-0.9c-0.7-0.6-1.4-1-2.3-1c-0.5,0-1,0-1.4-0.4
			c-1-0.8-2-1.2-3.3-1c-0.7,0.1-1.2-0.3-1.5-0.9c-0.4-2.8-0.2-5.5-0.2-8.3C69.3,229.5,69.5,228.9,70.1,228.4z"/>
		<path class="st16" d="M183,103.7c-2.2,0-4.5,0-6.7,0c-0.7,0.8-1.6,0.3-2.4,0.5c-0.7,0.3-1.5,0.3-2.2,0.2c-2.5-0.6-5-0.5-7.5-0.5
			c-24.8,0-49.6,0-74.4,0c-5.6,0-11.2-0.2-16.8,0.6c-1,0-2.1,0.1-2.8-0.8c0-3.8-0.1-7.6-0.1-11.3c0-2,1.1-3,3.1-2.8
			c0.8,0.1,1.6,0,2.4,0c69.8,0,139.7,0,209.5,0c0.8,0,1.6,0,2.4,0c1.2,0.1,2.2,0.7,2.2,1.9c0.1,4.1,0.5,8.2-0.2,12.2
			c-0.5,0.8-1.3,0.5-2,0.6c-0.6,0.1-1.2,0.3-1.9,0.1c-4.6-0.9-9.2-0.5-13.8-0.5c-19.9-0.1-39.9,0-59.8,0c-5.2,0-10.5-0.2-15.7,0.6
			c-1.1,0-2.2,0-3.2-0.8c-1.8,0.1-3.5,0.4-5.2,0C186.2,104,184.6,104.9,183,103.7z"/>
		<path class="st6" d="M352.4,138.7c-5.9,0-11.7,0-17.6,0c-3,0-3.7-0.7-3.7-3.6c0-6,4.3-10.8,10.7-11.6c1.1-0.2,1.8-0.6,2.4-1.5
			c4.7-6.4,12.4-8.1,19.2-3.9c3.2,2,5.2,5,5.9,8.7c0.2,1,0.5,1.7,1.5,2.2c2.1,1.3,3.7,5.1,3.1,7.5c-0.4,1.6-1.6,2.2-3.2,2.2
			C364.5,138.7,358.5,138.7,352.4,138.7z"/>
		<path class="st5" d="M174,103.7c0.8,0,1.5,0,2.2,0c-0.7,2.1-2.7,0.6-3.9,1.4c-0.4,0.3-1.2,0.1-1.8,0.1c-31.2,0-62.5,0-93.7,0
			c-3.3,0-3.3,0-3.3,3.3c0,39.2,0,78.4,0,117.6c0,0.6,0,1.1,0,1.7c0,1.2-0.1,2.2-1.6,0.9c-0.5-0.4-1.2-0.7-1.8-1
			c0-41.3,0-82.6,0-123.9c0.9,0,1.8,0,2.6,0c0.6-0.3,1.3-0.2,2-0.2c32.4,0,64.8,0,97.2,0C172.7,103.5,173.4,103.4,174,103.7z"/>
		<path class="st2" d="M98.2,270.1c-3.3-2-6.5-4-9.8-6c-4.2-2.6-8.3-5.2-12.5-7.7c-2.1-1.2-3.9-2.9-6.2-3.8c-0.2-1-0.7-2-0.1-3.1
			c0.9-1,1.8-0.9,3-0.5c3.8,1.5,7,4,10.4,6.1c3.1,1.9,6.1,4,9.4,5.6c1.2,0.6,2.4,0.8,3.6,0.7c2.4-0.2,4.8,0.5,7.2,0
			c21.3,0.5,42.7,0.4,64,0.3c0.8-0.1,1.6-0.1,2.4,0c1.7,0.3,2.5,1.5,2,3.2c-0.2,0.6-0.5,1-1.2,1c-0.7,0-1.4,0-2,0.3
			c-0.8,0.2-1.6,0.1-2.4,0.1c-13.6,0-27.2-0.1-40.8,0c-4.4,0-8.8,0.4-13.3,0.2c-3.1-0.2-6.3,0.2-9.5,0c0.2,1.5,2.8,1.8,1.6,3.7
			C102.2,271.1,100.2,270.4,98.2,270.1z"/>
		<path class="st5" d="M287.6,103.7c0.6,0,1.2,0,1.9,0c0.6,0.8,0.4,1.8,0.4,2.7c0,39.2,0,78.4,0,117.6c0,1.6,0.6,3.2,0,4.8
			c-0.9-0.2-0.7,0.7-1,1c-0.2,0.3-0.5,0.6-0.9,0.6c-0.6-0.1-0.7-0.5-0.7-1c-0.1-0.6-0.2-1.4,0.4-1.7c1.3-0.8,1.1-2,1.1-3.1
			c0-38.9,0-77.8,0-116.7c0-0.6,0-1.1,0-1.7c-0.1-0.9-0.5-1.4-1.5-1.2c-1.5,0.3-3,0.2-4.5,0.2c-27.6,0-55.2,0-82.9,0
			c-1.2,0-2.5,0-3.7,0.2c-1.4,0.2-2.6-0.2-3-1.7c1,0,2,0,3,0c0.6-0.3,1.3-0.2,2-0.2c29.2,0,58.3,0,87.5,0
			C286.3,103.5,287,103.4,287.6,103.7z"/>
		<path class="st8" d="M49.9,285.7c3.4-1.3,6.9-2.5,10.3-3.8c1.2-0.5,1.7-0.4,1.7,1.1c0,6.6,0,13.1,0,19.7c0,0.8-0.1,1.4-1,1.8
			c-3.7,1.4-7.3,2.9-11,4c-0.3-0.5-0.2-1-0.2-1.4c0-6.6,0-13.2,0-19.8C49.7,286.7,49.6,286.2,49.9,285.7z"/>
		<path class="st13" d="M49.9,331.5c3.6-1.4,7.2-2.7,10.9-4.1c1.5-0.5,1.1,0.7,1.1,1.4c0,5,0,9.9,0,14.9c0,5.9,0,5.9-5.5,8
			c-2.1,0.8-4.3,1.6-6.5,2.4c-0.2-0.3-0.2-0.6-0.2-0.9c0-7,0-14,0-20.9C49.7,332.1,49.7,331.8,49.9,331.5z"/>
		<path class="st16" d="M124.1,286.1c-4.3-2.6-8.6-5.1-12.8-7.8c-2.7-1.7-5.2-3.5-7.8-5.2c0.3-0.6,0.8-0.8,1.4-0.8
			c2-0.1,4-0.3,6,0.2c2.6,2.8,5.8,4.4,9.7,4.2c2-0.1,4,0.2,6,0.3c1.1,0.1,2.1-0.2,3.1-0.4c11.8,0.5,23.6,0.4,35.4,0.4
			c1.4,0,2.9,0.1,4.3,0.2c2,0.2,2.2,0.4,2.2,2.3c0,0.5,0,1-0.3,1.4c-0.4,0.4-0.8,0.5-1.4,0.5c-3.9,0-7.9,0-11.8,0
			c-5.7,0-11.5,0.1-17.2,0.3c-2.2,0.1-4.5,0-6.7-0.3c-2.7,0.6-5.5-0.1-8.4,0.4c0.9,1.6,4.6,1.2,2.9,4.2
			C127.1,287,125.6,286.1,124.1,286.1z"/>
		<path class="st17" d="M70.1,249.6c-0.1,1,0.2,2-0.4,3c-2.4-1.5-4.8-3-7.1-4.5c-3.2-1-6.2-2.3-7.5-5.7c-0.3-0.8-1-0.8-1.6-1
			c-1.2-0.4-2.6,0.7-3.7-0.4c-0.3-0.8,0.4-0.9,0.9-1.1c5.9-3.7,11.8-7.3,17.7-11c0.5-0.3,1.1-0.5,1.8-0.5c0,3.5,0,6.9,0,10.4
			c1.3,1.2,0.6,2.7,0.9,4.1C70.9,245.2,71.6,247.6,70.1,249.6z"/>
		<path class="st13" d="M49.9,241.1c1.8-1,3.6-0.3,5.5-0.3c0.4,0,1.1,0.1,0.9,0.7c-0.7,2.5,1.4,3.2,2.8,4.1c1.2,0.8,2.5,1.6,3.6,2.6
			c-0.9,0.4-0.7,1.2-0.7,1.9c0,2.3,0,4.7,0,7c0,1.2-0.4,1.9-1.6,2.3c-3.5,1.3-7,2.6-10.4,4c-0.3-0.4-0.2-1-0.2-1.4
			c0-6.5,0-13,0-19.4C49.7,242,49.6,241.5,49.9,241.1z"/>
		<path class="st2" d="M289.9,246.3c0-5.7,0-11.4,0-17.1c0.1,0,0.2,0,0.4,0c0,7.2,0,14.3,0,21.5c0,1.5,0.2,2,1.7,1
			c1.1-0.8,2.4-1.4,3.6-2c0.8-0.1,1.3-0.6,1.9-1.1c0.3-0.1,0.5-0.2,0.8-0.4c0,5.6,0,11.3,0,16.9c0,0.8-0.3,1.7,0.7,2.1
			c0.6,0.1,1.1,0.1,1.5-0.4c0.4-0.4,0.9-0.6,1.5-0.7c0.1,0.1,0.2,0.1,0.4,0c2.5-1.2,5.2-2.2,7.9-3c0.5,0.7,0.4,1.4,0.4,2.2
			c0,6.1,0,12.2,0,18.4c0,0.9,0.1,1.9-0.8,2.6c0.2,1-0.6,1.2-1.3,1.5c-2,0.9-4,1.6-6.1,2.3c-3.2,1.1-3.4,1.3-3.4,4.6
			c0,4.4,0.1,8.9,0,13.3c0,2,0,3.8,2.1,4.7c0.7,2.4,0.3,3.6-1.4,4.4c-0.5,0.3-1.2,0.4-1.5-0.1c-0.8-1.1-1.8-2.3-1.7-3.8
			c0.4-7.3,0.2-14.6,0.1-21.9c0-1.3-0.1-2.3,1.7-2c0.9,0.1,1.2-0.5,1.4-1.2c0.6-2.6,0.8-2.7,3.5-2.6c0.6,0,1.1,0,1.7,0.1
			c0.6,0.1,1,0.1,1-0.7c-0.1-1.2,0.5-1.7,1.6-1.8c1.1-0.1,1.7-0.8,1.7-2c0-4.3,0-8.7,0-13c0-0.6,0-1.4-0.8-1.5
			c-1-0.1-0.8,0.7-0.8,1.3c0.1,0.6-0.4,1.3-0.7,1.2c-1.8-0.7-3.7,1.9-5.5-0.2c-0.5-0.6-1-0.1-1.5,0.2c-0.7,0.4-1.5,0.9-2.3,0.5
			c-0.9-0.4-1.5-1.2-0.6-2c1-0.8,0.9-1.8,0.9-2.8c0-3.5,0-7.1,0-10.6c0-0.8,0.3-1.8-0.9-2.1c-1.2-0.3-1.7,0.5-1.9,1.5
			c-0.2,1-1,1.4-1.9,1.4c-0.9,0-1.9,0.1-2.4-1c-0.1-0.3-0.5-0.6-0.7-0.8c-0.9-0.7-0.8-1.7-1.1-2.7
			C289.3,249,288.6,247.4,289.9,246.3z"/>
		<path class="st3" d="M124.1,286.1c1.4-0.7,3-0.2,4.5-0.4c0.6-0.8,1.5-0.8,2.3-0.9c2.3,0,4.7-0.1,7,0.1c1.9-0.1,3.8-0.2,5.7-0.1
			c0.8,0,1.6,0.1,2.1,0.9c0.6,0,1.2,0,1.9,0c0.6-0.3,1.2-0.4,1.9,0c6.2,0,12.5,0,18.7,0c0.9,0.5,2-0.2,3,0.4c0.7,1.1,0.3,2-0.3,2.9
			l0,0c-0.6,0.4-1.2,0.2-1.8,0.2c-4.9,0-9.9,0.1-14.8,0c-4.2-0.1-8.4,0.2-12.6,0.9c-1.3,0.2-2.6,0.1-4,0.2c2.8,2.2,2.8,2.2,2,4
			c-0.4,0.5-0.9,0.5-1.5,0.3c-2-0.8-3.6-2.3-5.5-3.4C129.9,289.7,127,287.9,124.1,286.1z"/>
		<path class="st18" d="M138.4,294.7c0.4-0.1,0.8-0.2,1.1-0.4c0.9-0.9,2.2-0.9,3.3-0.8c3,0.2,6.1-0.1,9,0.4c5.8,1,11.6,0.4,17.3,0.6
			c0.8,0,1.5,0.2,1.9,0.9c-0.1,2.4-0.3,2.6-2.7,2.6c-1.7,0-3.5,0-5.2,0c-0.1,0.1-0.2,0.4-0.4,0.4c-3.3,0.6-6.6,1.1-9.8-0.4
			c-3,0-6,0-9,0C141.8,297.4,140.1,296,138.4,294.7z"/>
		<path class="st0" d="M35.1,165.5c2.1,0,4.1,0,6.2,0c1.1,0,1.6,0.2,1.6,1.7c0,1.4-0.9,2.8,0,4.3c0.5,0.8-0.3,1.8-1.4,1.6
			c-1.2-0.2-2.3,0-3.4,0.4c-0.6,0.3-1.4,0.1-2-0.2c-0.5-0.3-1.1-0.7-0.1-1.1c1.4-0.6,0.6-1.1-0.1-1.5c-2.2-1.3-4.5-2.6-6.7-3.9
			c-0.2-0.1-0.4-0.2-0.6-0.4c-0.4-0.2-1.3,0.7-1.3-0.2c0-0.9,1-0.7,1.7-0.7C31,165.5,33.1,165.5,35.1,165.5z"/>
		<path class="st7" d="M111,273.1c-2.5,0-5,0-7.5,0c-2-0.6-3.6-1.9-5.2-3c2-0.8,4-0.2,6-0.4c0.4-0.7,1.1-0.8,1.8-0.8
			c2.4-0.1,4.9-0.2,7.3,0.1c1.5,0.8,2.8,1.9,4.4,2.5c0.8,0.3,1.4,1.1,0.6,2C115.8,274.1,113.3,274.5,111,273.1z"/>
		<path class="st2" d="M242.6,359.1c-0.2-0.5-1-1-0.6-1.6c0.3-0.5,1-0.1,1.6-0.1c0.4,0,0.8,0,1.1-0.1c1.7-0.8,2.6-0.1,2.8,1.6
			c0.1,0.8,0.4,1.3,1.3,1c0.9-0.2,1.7,0.2,2.6,0.3c0.3,0,0.9,0.4,0.9,0.5c-0.6,2.3,1.5,2,2.5,2.7c0.8,0.6,1.5,1.3,1.5,2.2
			c0,0.9-1,0.7-1.6,0.8C250.6,364,246.5,361.8,242.6,359.1z"/>
		<path class="st0" d="M49.9,241.1c0,7.4,0,14.9,0,22.3c-0.4-0.5-0.4-1-0.4-1.6c0-6.7,0-13.4,0-20.1c0-0.8-0.1-1.7,1.1-1.8
			C50.4,240.3,50.1,240.7,49.9,241.1z"/>
		<path class="st0" d="M49.9,331.5c0,7.6,0,15.1,0,22.7c-0.5-0.7-0.4-1.5-0.4-2.3c-0.1-6.6,0.2-13.3-0.2-19.9
			C49.3,331.5,49.5,331.4,49.9,331.5z"/>
		<path class="st0" d="M49.9,285.7c0,7.6,0,15.1,0,22.7c-0.4-0.5-0.4-1.2-0.4-1.8c0-6.4,0-12.8,0-19.1
			C49.5,286.9,49.5,286.3,49.9,285.7z"/>
		<path class="st0" d="M343.5,209.5c0,0.4-0.1,0.8-0.5,0.8c-0.5,0-0.5-0.4-0.5-0.8c0-0.4,0.1-0.8,0.5-0.8
			C343.5,208.6,343.4,209.1,343.5,209.5z"/>
		<path class="st0" d="M343,203.5c-0.4,0-0.5-0.3-0.5-0.6c0-0.4,0-0.8,0.5-0.9c0.4-0.1,0.5,0.3,0.5,0.6
			C343.5,202.9,343.4,203.3,343,203.5z"/>
		<path class="st0" d="M343.4,205.9c0,0.3,0,0.7-0.4,0.7c-0.4,0.1-0.5-0.2-0.6-0.5c0-0.3,0.1-0.6,0.4-0.7
			C343.3,205.2,343.4,205.5,343.4,205.9z"/>
		<path class="st0" d="M42.9,174.6c-0.1,0.1-0.2,0.2-0.4,0.2c-0.3,0-0.4-0.2-0.4-0.5c0-0.1,0.2-0.3,0.4-0.3
			C42.9,174,43,174.3,42.9,174.6z"/>
		<path class="st0" d="M27.8,168.3c0.1,0.3,0.2,0.4,0.2,0.5c0,0.1-0.1,0.2-0.2,0.3c-0.2,0.1-0.3-0.1-0.3-0.3
			C27.5,168.7,27.6,168.6,27.8,168.3z"/>
		<path class="st0" d="M27.3,174.1c0.2-0.2,0.3-0.3,0.4-0.4c0.1,0.1,0.2,0.2,0.2,0.4c0,0.1-0.1,0.3-0.2,0.3
			C27.6,174.3,27.5,174.2,27.3,174.1z"/>
		<path class="st7" d="M186.8,282.4c9.3,0,18.5,0,27.8,0c3.3,0,3.3,0,3.3,3.3c1.2,1,0.8,2.3,0.9,3.6c0.1,0.9-0.2,1.8-0.1,2.7
			c0,1.5,0.7,3.2-0.7,4.5c-0.3,2-2.4,2.3-3.6,3.1c-7.2,4.6-14.6,8.8-21.8,13.6c-0.5,0.3-1,0.5-1.6,0.4c-0.9,0.3-1.9,0.7-2.9,0.7
			c-1.6,0.1-2.4-0.9-1.8-2.3c0.4-0.9,0.4-1.8,0.4-2.7c0-8.3,0-16.6,0-24.9C186.6,283.7,186.4,283,186.8,282.4z"/>
		<path class="st1" d="M217.9,296.5c0-1.5,0-3,0-4.5c2.7-2.6,5.5-5,9.1-6.2c0.2-0.1,0.4-0.1,0.5-0.2c3.8-3.9,9.2-5.3,13.5-8.5
			c0.8-0.6,1.6-1.2,2.6-1.3c0.5,0,0.8-0.3,1.1-0.7c1.6-2.3,4-3.3,6.5-4.3c1.8-0.8,3.3-2.3,4.6-3.9c1.8-0.8,3.8-0.3,5.7-0.4
			c2-0.1,2.2-0.3,2.4-2.4c0-1,0.4-1.8,1.2-2.2c1.8-0.9,3.2-2.3,5.1-3c1.4-0.5,2.4-1.5,3.5-2.4c4-2.9,8.4-5.2,12.6-7.8
			c0.2-0.1-0.1,0,0.2-0.1c2.1-1.2,3-0.8,3.4,1.5c0,0.9,0,1.7,0,2.6c-3.2,1.5-6.1,3.5-9.2,5.3c-3.5,2.1-7,4.2-10.5,6.4
			c-4.5,2.8-9.1,5.6-13.6,8.5c-3.5,2.2-7,4.3-10.5,6.5c-5.5,3.4-11.1,6.8-16.6,10.3c-3.5,2.2-7.1,4.1-10.4,6.5
			C218.7,296.7,218.3,296.7,217.9,296.5z"/>
		<path class="st8" d="M310.1,354.6c-1.3,0.4-2.7,0.6-3.8,1.5c-1,0.4-2,0.7-3,1.1c-0.1,0.5-0.4,0.8-0.8,1.1c-4.2,1.8-4.6,1.5-5-2.9
			c-0.4-5.3-0.2-10.7-0.1-16c0-2.6,0.8-4.9,3.9-5.4c0.5-0.1,0.9-0.3,1.4-0.6c0.5-0.3,1-0.3,1.5-0.4c1.6-0.6,3.1-1.4,4.8-1.7
			c0.2-0.1,0.3-0.1,0.5-0.1c0.4,0,0.7-0.1,1,0.2c0,6.8,0,13.6,0,20.4C310.5,352.8,310.6,353.7,310.1,354.6z"/>
		<path class="st13" d="M301.1,312.5c-3,0.5-3,0.5-3-2.5c0-5.7,0.1-11.4-0.1-17c-0.1-2,0.8-2.8,2.5-3.3c3.1-1,6.2-2.1,9.2-3.5
			c0.9,0.4,0.7,1.2,0.7,1.9c0,6.3,0,12.6,0,18.9c0,1-0.2,1.8-1.1,2.3c-0.5,1.7-2.1,1.6-3.4,2.1c-0.6,0.2-1.2,0.2-1.8,0.2
			C303,311.5,302.1,312,301.1,312.5z"/>
		<path class="st1" d="M186.8,282.4c0,9.7,0,19.4-0.1,29.1c0,1.7,0.4,2.4,2.1,2.1c0.7-0.1,1.4,0,2.1,0c-3.6,2.5-7.4,2.6-11.3,0.8
			c-6.1-2.9-11.6-6.9-17.5-10.3c-2.5-1.5-5-3-7.6-4.4c-0.7-0.4-1.4-0.8-1.6-1.7c3.4,0,6.7,0,10.1,0c1.1,1.4,2.3,2.7,4.2,3.1
			c0.7,0.1,1.2,1.1,1.8,1.5c4.9,2.8,9.6,5.9,15,7.9c2.2,0.8,2.2,0.8,2.2-1.6c0-8.1,0-16.1,0-24.2
			C186.4,283.9,186.2,283.1,186.8,282.4z"/>
		<path class="st2" d="M304.1,311.4c1.5-1.2,3.5-1.5,5.3-2.2c1.4,0.2,1.1,1.3,1.1,2.1c0,6.7,0,13.5,0,20.2c-0.2,0.1-0.5,0.2-0.7,0.4
			c-0.1-0.1-0.3-0.1-0.4,0c-1.6,0.8-3.2,1.4-4.9,1.9c-0.5-0.3-0.8,0.2-1.1,0.4c-1.1,0.5-2.1,1.1-3.3,1.3c-1.5,0.4-2,1.2-2,2.8
			c0.1,6.1,0,12.3,0,18.4c0,2.1,0.3,2.2,2.2,1.5c0.8-0.3,1.6-0.4,2.3-0.6c0.4,0.2,0.8,0.4,1.1,0.7c-0.1,0.7,0,1.5-0.3,2.2
			c-0.4,1.3-1.4,1.4-2.1,0.3c-0.6-0.9-0.9-0.6-1.4-0.1c-0.3,0.3-0.7,0.5-1.1,0.7c-0.5,0.2-1,0.1-1.4-0.3c-0.4-0.4-0.5-0.9-0.1-1.3
			c0.7-0.7,0.5-1.5,0.2-2.3c-0.8-1.7-0.9-3.4-0.9-5.2c0-3.5,0-7.1,0-10.6c0-1.5-0.2-3.1,0.9-4.4c0.7-0.9-0.6-2,0.3-3.1
			c0.8-1,3.9-3.3,5.2-3.2c1.3,0.1,2.4-1.1,3.6-0.9c2.5,0.4,2.5-1,2.4-2.8c-0.1-3.8,0-7.7,0-11.5c0-2.2-0.6-2.5-2.7-1.8
			c-0.7,0.2-1.3,0.4-2,0.3c-0.8-0.2-1.2-0.9-1-1.5c0.2-0.9,0.8-0.2,1.3-0.1c0.3,0.1,0.5,0.1,0.7-0.2
			C305.3,311.7,304.4,311.9,304.1,311.4z"/>
		<path class="st2" d="M303.8,358.3c-0.5-0.1-0.9-0.3-1.1-0.7c0.3-0.1,0.5-0.2,0.8-0.4C303.5,357.6,303.6,358,303.8,358.3z"/>
		<path class="st2" d="M300.4,266.7c-0.2,1.2-0.9,0.7-1.5,0.4C299.4,267,299.9,266.9,300.4,266.7z"/>
		<path class="st2" d="M302.2,266c0.1,0.1,0.3,0.2,0.4,0.3c0,0-0.1,0.2-0.2,0.2c-0.4,0-0.5-0.3-0.6-0.6C302,266,302.1,266,302.2,266
			z"/>
		<path class="st17" d="M514.2,166c-0.6,0.7-1.3,0.5-1.9,0c-0.8-0.6-0.9-1.4-0.3-2.4C511.2,166,513.9,164.6,514.2,166z"/>
		<path class="st2" d="M297.4,248.5c0,1.4-1,1.2-1.9,1.1C296,249.1,296.6,248.7,297.4,248.5z"/>
		<path class="st5" d="M255.7,267.5c0.7,0.5,1.4,1,0,1.4c-0.8,0.2-1.3,0.6-1.8,1.2c-1.7,2.1-4.7,2.1-6.7,3.8
			c-3.7,3.2-8.2,5.1-12.1,7.8c-0.9,0.6-1.8,1-2.8,1.4c-0.7,0.2-1.5,0.5-2,1c-3.2,3.3-7.7,4.4-11.1,7.5c-0.4,0.4-0.9,0.5-1.4,0.5
			c0-2.1,0-4.2,0-6.3c0.7,0,1.5,0,2.2,0c0.4-0.6,0.9-1.1,1.5-1.5c0.6-0.2,1.2-0.5,1.9-0.7c1.1-1,2.6-1.4,3.8-2.2
			c0.6-0.3,1.1-1,1.9-1.1c2-0.8,1.1-2.2,0.8-3.5c-0.6-0.6-1.3-0.4-2-0.4c-12.7,0-25.4,0-38.2,0c-0.9,0-1.9-0.2-2.4,0.9
			c-0.7,0.7-1.5,1.1-2.5,0.4c-0.6-0.2-1-0.4-0.8-1.1c0.7-0.5,0.4-1.8,1.5-2c0.7-0.3,1.5-0.3,2.2-0.3c14,0,28,0,42,0
			c0.4,0,0.9,0,1.3,0.1c0.9,0.2,1.9,0.3,2.9,0c2.5-0.2,5.1-0.1,7.6-0.1c0.5,0,1,0.1,1.4-0.4c0.3-0.7,0.3-1.5,0.7-2.1
			c0.2-0.9,0.8-1.4,1.5-1.9c0.6-0.4,0.6-0.9-0.2-1c-0.7-0.1-1.4-0.1-2-0.1c-18.7,0-37.3,0-56,0c-1.3,0-2.9,0.3-2.9-1.9
			c-0.7-1-0.3-1.8,0.4-2.6c0.7-1.1,1.8-1.5,3-1.5c19.9,0,39.7,0,59.6,0c2.2,0,4.3,0.6,6.5,0.1c1.4-0.3,2.3-1.8,3.9-1.4
			c-1.1-0.7-2.3-0.5-3.4-0.5c-21.7,0-43.5,0-65.2,0c-0.8,0-1.5,0-2.2,0.4c-1.1-0.3-0.8-1-0.5-1.8c0.8-0.7,1.9-0.6,2.9-0.6
			c23.7,0,47.4-0.1,71.1,0c1,0,2.1,0.4,3.1-0.1c0.8-0.6,0.4-1.6,0.6-2.4c-0.4-1.8,0.9-1.4,1.9-1.5c0.4-0.6,1-0.8,1.6-0.3
			c0.8,0.7,1.5,0.5,2.2,0c0.7-0.5,1.4-0.8,2.2-0.7c0.6-0.1,1-0.5,1.5-0.7c0.9-0.9,1.7-1.6,3.1-1.6c1.3,0,1.8-1.5,2.5-2.5
			c0.3-0.9,1-1.2,1.9-1.1c1.5-0.3,2.5-1.5,3.8-2.2c0.6-0.2,1.2-0.5,1.9-0.7c1-0.8,1.2-1.8,1.2-3.1c0-0.7-0.4-1.9,1.1-1.8
			c0.4,2.1,0.7,4.2,1.1,6.3c0,1.4,0,2.7,0,4.1c-0.5-1.7-1.6-1.6-2.8-0.8c-2.4,1.5-5,2.7-7.3,4.3c-2.7,1.8-5.5,3.5-8.1,5.5
			c-1.4,1.1-3.2,1.8-4.8,2.7c-1,0.6-1.9,1.2-2.4,2.2c-0.4,0.7-1.1,0.8-1.8,0.8c-1.1,0.1-2.2,0.1-3.4,0.1c-22.9,0-45.8,0-68.8,0
			c-1.1,0-2.3-0.1-3.3,0.2c-0.7,0.4-0.8,0.8,0,1.2c1.1,0.3,2.1,0.2,3.2,0.2c17.5,0,35,0,52.4,0c3.5,0,7,0,10.5,0
			C254.1,266.6,255.2,266.5,255.7,267.5z"/>
		<path class="st5" d="M265.5,126.8c2,0.6,2.7,1.8,2.7,3.9c-0.1,37.4-0.1,74.7,0,112.1c0,2.4-1.9,3.6-2.4,5.6
			c-0.1,0.3-0.6,0.4-1,0.2c-0.4-0.3-0.3-0.7,0-1c0.3-0.4,0.6-0.7-0.1-0.9c-0.4-38.5-0.1-77-0.2-115.4
			C264.6,129.7,264.5,128.1,265.5,126.8z"/>
		<path class="st5" d="M265.5,126.8c-0.9,38.5-0.1,77.1-0.4,115.6c0,1.4,0.9,2.9-0.4,4.3c-1-0.3-2.1-0.4-3.1-0.4
			c-55.5,0-111.1,0-166.6,0c-1.1,0-2.1,0.1-3.1,0.4c-1.2,0.1-1.6-0.8-1.8-1.7c-0.1-0.5-0.1-1.1-0.1-1.7c0-37.8,0-75.6,0-113.4
			c0-0.9-0.1-1.9,0.4-2.7c0.1-0.5,0.3-0.9,0.8-1.1c0.7-0.5,1.4-0.4,2.2-0.4c56.1,0,112.2,0,168.3,0c0.8,0,1.6,0,2.4,0.4
			C264.6,126.1,265.2,126.2,265.5,126.8z"/>
		<path class="st2" d="M171,255.6c0,0.6,0,1.2,0,1.9c0.2,0.4,0,0.6-0.4,0.7c-0.7,0-1.3-0.1-1.9-0.4c-0.7,0.4-1.5,0.2-2.2,0.2
			c-18.8,0-37.6-0.1-56.4,0.1c-4.5,0-9.1,0.4-13.6,0.6c-0.9,0-1.7,0.1-2.6,0c-3.2-0.1-4-1.5-2.8-4.5c1.9-0.8,3.8-1.1,5.5,0.2
			c2.5,0,5,0,7.5,0c1.1-1,2.4-0.9,3.7-0.9c13.3,0,26.6,0,39.9,0c5.9,0,11.9,0,17.8,0c1.1,0,2.3-0.2,3.1,0.9c0.4,0,0.8,0,1.1,0
			C171,254.1,171.3,254.5,171,255.6z"/>
		<path class="st2" d="M264,256.3c1.1,1,0.9,2.2,0.4,3.4c-1.1,0.3-2.2,0.3-3.4,0c-24.9,0-49.8,0-74.6,0c-1.2,0.4-1.6,0.1-1.1-1.1
			c0-0.4,0-0.7,0-1.1c-0.2-0.2-0.2-0.5,0-0.7c1-0.5,2.1-0.4,3.1-0.4c24.5,0,48.9,0,73.4,0c0.6-0.3,1.2-0.3,1.9,0
			C263.8,256.3,263.9,256.3,264,256.3z"/>
		<path class="st1" d="M91.5,254.5c0,0.6,0,1.1,0,1.7c-0.1,1.2,0.4,1.7,1.6,1.7c0.6,0,1.1,0,1.7,0c24.6,0,49.3,0,73.9,0
			c-0.8,0.6-1.8,0.4-2.7,0.4c-19.6,0-39.2,0-58.8,0c-0.5,0.7-1.3,0.8-2.1,0.9c-1.5,0-3.1,0-4.7,0.1c0.7,1.2,2.9,1.2,2.3,3.2
			c-2.2,0-4.5-0.1-6.7,0c-2.8,0.1-5.1-1.1-7.4-2.6c-3.5-2.4-7.3-4.5-10.9-6.8c-1.8-1.2-3.7-2.3-5.7-3.1c-0.7-0.3-1.3-0.5-1.9-0.1
			c0-2.2,0-4.5,0-6.7c0.6-1.2,1.5-1,2.6-0.6c2.8,0.9,4.9,2.9,7.4,4.4c3.3,1.9,6.3,4.2,9.7,5.9C90.6,252.9,91.5,253.3,91.5,254.5z"/>
		<path class="st2" d="M244.1,271.6c0,1,0,2,0,3c-0.5,0.8-1.2,0.7-1.9,0.4c-2.9,0-5.8,0-8.6,0c-0.6,0.4-1.2,0.5-1.9,0
			c-15.5,0-31,0-46.5,0c-1.2-1.5-1.1-2.5,0.4-3.4c19.3,0,38.5,0,57.8,0C243.6,271.4,243.9,271.4,244.1,271.6z"/>
		<path class="st2" d="M118.5,273.1c-0.3-0.5-0.8-0.9-1.3-0.9c-1.6-0.2-2.6-1.3-3.6-2.4c0.1-0.2,0.3-0.4,0.5-0.5
			c3-0.8,6.1-0.4,9.2-0.2c1.1-0.1,2.1,0.4,3.2,0.4c1.6-0.3,3.2-0.4,4.8-0.4c11.5,0,23,0,34.4,0c0.9,0,1.9-0.1,2.6,0.7
			c0.9,0,1.7,0,2.6,0c0.7,0.7,0.7,1.5,0,2.2c0,0.4,0,0.7,0,1.1c-0.6,0.7-1.5,0.6-2.3,0.6c-9,0-18,0-27,0c-6.1,0-12.2,0.6-18.3,0.3
			c-1-0.1-2.1,0.1-3.1,0C119.7,273.9,118.9,273.9,118.5,273.1z"/>
		<path class="st5" d="M91.5,254.5c-5.7-3-11.1-6.5-16.4-10c-1.4-0.9-3-2.1-4.9-1.5c0-1.4,0-2.7,0-4.1c1.6-0.3,3.2-1.3,4.4,0.7
			c0.1,0.1,0.2,0.2,0.3,0.2c2.2-0.6,3.2,1.4,4.9,2c1.6,0.6,2.7,1.5,3.5,2.8c0.5,0.9,1.2,1.3,2.3,1.4c1.5,0.1,2.8,0.6,3.5,2.1
			c0.4,0.9,1.8,0.6,2.2,1.2c1.6,2.3,4.7,1.3,6.6,3.1c0.7,0.7,2,0.2,3.1,0.3c0.7,0.1,1.8-0.1,1.8,0.9c0,0.9-1.1,0.5-1.7,0.6
			c-1.4,0.2-2.9-0.3-4.2,0.4C95,254.5,93.3,254.5,91.5,254.5z"/>
		<path class="st5" d="M264,126.1c-57.6,0-115.2,0-172.9,0c0.7-1,1.8-0.7,2.7-0.7c22,0,44.1,0,66.1,0c33.5,0,67.1,0,100.6,0
			C261.8,125.3,263,125.1,264,126.1z"/>
		<path class="st5" d="M102.8,262.3c-0.8-1.1-1.9-1.8-3.2-2.2c-0.7-0.2-1.5-0.4-1.3-1.3c0.2-0.9,1.1-0.6,1.7-0.6c2.4,0,4.9,0,7.3,0
			c0,1.2,0.4,2.3,1.8,1.9c2.4-0.6,4.8-0.1,7.2-0.1c16.5,0,33,0,49.4,0c1.1,0,2.1,0,3-0.8c0.4,1.7,0,2.3-1.7,2.2
			c-15.7,0-31.5,0-47.2,0c15.1,0,30.2,0,45.3,0c0.7,0,1.8-0.5,2.2,0.7C145.7,262.3,124.2,262.3,102.8,262.3z"/>
		<path class="st5" d="M168.8,254.5c-21.5,0-43,0-64.5,0c0.2-1.4,1.1-1.9,2.5-1.9c20,0,40,0,60,0
			C168.1,252.6,168.9,252.9,168.8,254.5z"/>
		<path class="st5" d="M123.4,273.1c15.9,0,31.7,0,47.6,0c-0.1,0.6-0.3,1.1-0.8,1.5c-1.5,0.5-3,0-4.4,0c-8.5,0-17,0-25.5,0
			c-0.6,0-1.2,0-1.9,0.3c0.4,1.4,1.6,1.2,2.6,1.2c8.2,0,16.4,0,24.5,0c1.2,0,2.2,0.1,3.2,0.8c0.8,0,1.5,0,2.2,0c1.6,1,1.6,3.2,0,4.1
			c0-0.2,0-0.5,0-0.7c0-2.6,0-2.6-2.6-2.6c-9.5,0-19.1,0-28.6,0c-3.5,0-7,0-10.5,0c-0.7-0.5-1.6-0.4-2.4-0.4
			c-1.6,0.1-2.8-0.6-3.8-1.7C122.4,274.7,122.2,273.8,123.4,273.1z"/>
		<path class="st5" d="M185.3,256.7c0,0.2,0,0.5,0,0.7c-1.5,0.3-2.6,0.1-2.8-1.7c-0.2-1.3-0.2-2.2,1.5-1.6c0.2,0.1,0.5,0.1,0.5,0.1
			c1.6-2.1,3.6-0.4,5.3-0.5c22.8-0.1,45.6-0.1,68.4-0.1c0.7,0,1.4,0,2.1,0.1c0.6,0.1,1.2,0.3,1.2,1c0,0.8-0.7,0.7-1.2,0.8
			c-0.6-0.5-1.4-0.4-2.2-0.4c-22.8,0-45.6,0-68.4,0c-0.7,0-1.5-0.2-2.2,0.4c-0.7-0.1-1.3-0.3-2-0.3c-0.4,0-0.9,0-1.1,0.5
			C184.2,256.4,184.8,256.6,185.3,256.7z"/>
		<path class="st5" d="M167.2,262.3c-0.8-0.5-1.7-0.4-2.5-0.4c-15.7,0-31.3,0-47,0c-0.7,0-1.5,0.2-2.3-0.4c0.9-0.6,1.7-0.4,2.4-0.4
			c15.9,0,31.7,0,47.6,0c1.5,0,3,0.1,3.3-1.9c0.9,0.1,1.7,0.3,1.5,1.5c0.1,0.6,0.8,0.4,1.1,0.7c0.7,0.7,1.1,1.6,1.1,2.6
			c0,1.5-0.3,2.5-2.1,2c-0.3-0.1-0.8-0.1-1.1,0.1c-1.9,1.6-4.2,1.2-6.4,1.2c-12,0-23.9,0-35.9,0c-0.4,0-0.9,0-1.3,0
			c-0.4,0-1-0.1-1.1,0.4c-0.1,0.5,0.5,0.6,0.9,0.8c0.3,0.2,0.6,0.4,0.9,0.6c0.1,0.1,0.1,0.2,0.1,0.2c0,0.1-0.1,0.1-0.1,0.1
			c-1,0-2,0-3,0c-0.8-0.7-1.4-1.4-0.9-2.6c0.5-1.1,1.5-1,2.4-1c13.6,0,27.3,0,40.9,0c0.9,0,1.9,0.2,2.6-0.5c0.9-0.2,2.1,0.5,2.6-0.9
			c0.5-1.5-0.1-2.4-1.8-2.5C168.5,262.3,167.9,262.3,167.2,262.3z"/>
		<path class="st5" d="M90.4,127.2c0,38.6,0,77.2,0,115.8c0,1.4-0.2,2.9,1.5,3.6c-1.2,0.7-1.6-0.3-2-1c-0.4-0.8-0.3-1.7-0.3-2.6
			c0-37.6,0-75.2,0-112.8C89.6,129.2,89.5,128.1,90.4,127.2z"/>
		<path class="st5" d="M231.4,276.8c-0.1,0.7-0.5,1.4-0.5,2.1c0,1.1-0.9,1.1-1.7,1.2c0.1-0.5,0.9-0.7,0.6-1.2
			c-0.3-0.5-1-0.2-1.6-0.2c-13.5,0-27.1,0-40.6,0c-1,0-2.2,0.4-2.6-1.1c0.6-0.2,1.2-0.5,1.9-0.7c0.7-0.5,1.5-0.6,2.3-0.6
			c13.4,0,26.8,0,40.2,0C230,276.3,230.8,276.2,231.4,276.8z"/>
		<path class="st1" d="M171,295.4c-0.9-0.7-1.9-0.7-3-0.8c-7.8,0-15.5-0.1-23.3-0.1c-1.7,0-3.5-0.2-5.2-0.2c0.3-0.9,0.1-1.6-0.8-2.2
			c-1.2-0.7-2.4-1.5-4-2.5c12.4-0.9,24.4-0.5,36.3-0.6c-0.7,0.5-1.6,0.4-2.4,0.4c-6.6,0-13.2,0-19.8,0c-0.7,0-1.4-0.1-2,0.2
			c-0.1,0.4,0.2,0.5,0.4,0.5c2.6,0.1,4.4,1.6,6.3,3c1.2,0.9,2.4,1.2,3.8,1.2c3.9,0,7.8,0,11.8,0C169.9,294.3,170.9,294.1,171,295.4z
			"/>
		<path class="st5" d="M168.8,276.8c-4.6-0.7-9.3-0.3-14-0.4c-4.7-0.1-9.5-0.1-14.2,0c-1.6,0-3-0.8-4.5-1c-0.4-0.1-0.7-0.3-0.7-0.7
			c0-0.5,0.4-0.6,0.8-0.6c0.7-0.1,1.4-0.2,2-0.2c9,0,18,0,26.9,0c1.7,0,3.5,0.3,5.2,0.7c-0.5,1.1-1.5,0.7-2.3,0.7
			c-8.6,0-17.1,0-25.7,0c-0.7,0-1.3,0-2,0c0,0.1,0,0.2,0,0.4c0.6,0,1.3,0,1.9,0c7.8,0,15.6,0,23.4,0
			C166.8,275.7,168,275.7,168.8,276.8z"/>
		<path class="st5" d="M145.9,285.7c-2.6,0-5.2,0-7.9,0c-1-1.2-2-2.2-3.6-2.7c-0.9-0.3-1.6-0.9-0.9-2.1c12.1,0,24.2,0,36.4,0
			c0.4,0.3,0.8,0.6,0.4,1.1c-0.4,0.2-0.8,0.4-1.2,0.3c-7.2-0.8-14.4-0.1-21.6-0.3c-0.4,0.1-0.7,0.1-1.1,0.3
			c-0.5,0.2-1.4-0.2-1.6,0.6c-0.1,0.6,0.8,0.7,1.2,0.9C147.5,284.5,145.8,285.1,145.9,285.7z"/>
		<path class="st5" d="M126.4,269.7c0-0.1,0-0.2,0-0.4c1.3-1.2,3-1.1,4.6-1.1c11.8-0.1,23.6,0,35.3-0.1c1.1,0,2.1,0.1,2.1,1.5
			C154.4,269.7,140.4,269.7,126.4,269.7z"/>
		<path class="st5" d="M187.5,255.6c-0.1-0.5,0.1-0.7,0.6-0.7c0.5,0,1,0,1.5,0c22.9,0,45.8,0,68.8,0c0.6,0,1.7-0.7,1.9,0.7
			C236,255.6,211.8,255.6,187.5,255.6z"/>
		<path class="st5" d="M147.4,282c0.6-0.4,1.3-0.4,2-0.4c6.2,0,12.5,0,18.7,0c0.8,0,1.5,0,2.2,0.4c-0.2,1.3-1.1,1.2-1.9,0.9
			c-1.1-0.5-2.2-0.5-3.3-0.5c-5.1,0-10.2,0-15.3,0C148.9,282.4,148.1,282.5,147.4,282z"/>
		<path class="st5" d="M185.6,271.6c-0.7,1.1-0.3,2.2-0.4,3.4c0,0.8-0.3,1.3-1.1,1.5c0.1-0.9-0.3-1.4-0.9-2.1
			c-0.9-0.9-1-2.2-0.1-3.1C183.8,270.6,184.9,270.5,185.6,271.6z"/>
		<path class="st5" d="M269.6,254.5c-0.9,1.2-1.7,2.5-3,0.4c-0.1-0.1-0.5,0-0.7,0c-0.3-0.1-0.5-0.3-0.8-0.4
			c-0.6-0.2-1.1-0.5-0.8-1.2c0.2-0.6,0.8-0.3,1.2-0.4C267.2,252.6,268.2,254.1,269.6,254.5z"/>
		<path class="st5" d="M185.2,258.6c0,0.7,0.4,1.1,1.1,1.1c0,0.5,0,1.1,0.4,1.5c-0.6,1.2-1.5,0.6-2.2,0.1c-0.6-0.4-1.6-0.6-1.4-1.5
			C183.4,258.7,184.4,258.7,185.2,258.6z"/>
		<path class="st5" d="M288.8,240c-0.7,0.7-0.9,1.6-0.7,2.4c0.4,1.5-0.2,2.2-1.6,2.4c0.8-1.6,0.8-3.3,0.8-5.1c0-0.7,0-1.6,1-1.4
			C289.1,238.5,289,239.3,288.8,240z"/>
		<path class="st5" d="M183,103.7c1.6,0,3.3,0,4.9,0c-0.3,0.8-0.5,1.7-1.7,0.9c-0.6-0.4-1,0.1-1.4,0.5c-0.4,0.4-0.9,0.6-1.3,0.1
			C183.1,104.8,182.2,104.5,183,103.7z"/>
		<path class="st5" d="M171,289.1c0-1,0-2,0-3c-0.1-0.1-0.4-0.1-0.4-0.4c0.8-1.1,1.5-0.8,1.7,0.2C172.7,287.2,172.6,288.6,171,289.1
			z"/>
		<path class="st5" d="M227.2,281.3c-0.8,1.5-2.3,1.8-3.8,2.2c0.4-1,2-1.5,1.4-3.1c-0.1-0.4,0.7-0.5,1.1,0
			C226.3,280.9,226.6,281.3,227.2,281.3z"/>
		<path class="st5" d="M171,255.6c-0.1-0.6-0.5-1-1.1-1.1c0.1-0.7-0.2-1.7,1-1.8c0.7-0.1,1.1,0.4,1.3,1
			C172.6,254.9,171.8,255.2,171,255.6z"/>
		<path class="st5" d="M279,248.9c-0.3,1.6-1.2,2.8-3,2.8c-1.1,0-1.6,1.1-2.6,1.2c0.2-0.8,0.7-1.6,1.3-1.6
			C276.7,251.4,277.7,250,279,248.9z"/>
		<path class="st5" d="M184.5,264.1c0,0.9,0.1,1.8-0.4,2.6c-0.7,0.4-1.3,0.2-1.7-0.6c-0.3-0.7,0.1-1.2,0.7-1.5
			C183.6,264.5,184,264.3,184.5,264.1z"/>
		<path class="st5" d="M170.2,282c-0.1-0.4-0.2-0.7-0.4-1.1c0.4,0,0.7,0,1.1,0c1.2-1.4,1-2.7,0-4.1c1.5,0,1.5,1.1,1.5,2.2
			C172.4,280.5,172,281.8,170.2,282z"/>
		<path class="st5" d="M284.6,245.5c-1,1.1-1.8,2.7-3.8,2.2C281.9,246.7,283.1,245.9,284.6,245.5z"/>
		<path class="st5" d="M171.4,293.5c-0.6,0-1-0.3-1-0.8c-0.1-0.4,0.1-0.8,0.6-0.7c0.6,0.1,1.1,0.2,1.2,0.9
			C172.2,293.3,171.8,293.4,171.4,293.5z"/>
		<path class="st5" d="M171,272c0-0.7,0-1.5,0-2.2c0.6,0.2,1.3,0.4,1.3,1.1C172.3,271.6,171.6,271.8,171,272z"/>
		<path class="st5" d="M244.1,271.6c-0.2,0-0.5,0-0.8,0c0.1-1.2,0.9-1.6,1.9-1.9C244.9,270.4,244.5,271,244.1,271.6z"/>
		<path class="st5" d="M170.6,258.2c0.1-0.2,0.3-0.5,0.4-0.7c0.4,0.1,1.1,0.1,0.8,0.7C171.6,258.7,171,258.5,170.6,258.2z"/>
		<path class="st5" d="M181.3,104.2c0.2,0.3,0.4,0.4,0.4,0.6c0.1,0.2-0.1,0.5-0.4,0.4c-0.2-0.1-0.3-0.3-0.4-0.5
			C181,104.6,181.1,104.4,181.3,104.2z"/>
		<path class="st5" d="M171.4,261.5c-0.5-0.1-1.1,0.2-1.5-0.3c-0.2-0.2,0.1-0.4,0.3-0.5C170.6,261,171,261.3,171.4,261.5z"/>
		<path class="st5" d="M273.4,253c-0.4,0.5-0.6,1.2-1.5,0.7C272.2,253.2,272.7,253,273.4,253z"/>
		<path class="st1" d="M170.6,285.7c0.1,0.1,0.2,0.2,0.4,0.4c-0.9-0.1-1.8,0.2-2.6-0.4C169.1,285.7,169.9,285.7,170.6,285.7z"/>
		<path class="st5" d="M221.6,284.2c-0.4,0.6-0.9,1.1-1.5,1.5C220.3,284.9,220.8,284.4,221.6,284.2z"/>
		<path class="st5" d="M149.6,285.7c-0.6,0-1.2,0-1.9,0C148.4,285.2,149,284.8,149.6,285.7z"/>
		<path class="st5" d="M263.6,256.3c-0.6,0-1.2,0-1.9,0C262.4,255.9,263,255.9,263.6,256.3z"/>
		<ellipse class="st0" cx="243.4" cy="95.5" rx="50.7" ry="0.3"/>
		<path class="st19" d="M188.9,96.3c0,2.2,1,1.9,2,1.7c1-0.2,2-0.2,3,0.1c-1.1,0.1-2.1,0.3-3.2,0.4c-2.2,0.2-2.6,0.6-2.8,3.7
			c2-3.3,5.2-2.1,7.7-3.2c-0.4,0.8-1.2,0.6-1.9,0.9c-0.6,0.3-1.2,0.5-1,1.3c0.3,1.2-1.1,1.2-1.3,1c-0.9-0.5-1.8,0-2.5,0.1
			c-1.2,0.2-1.7-0.1-1.9-1.3c-0.9,1.2-4,1.8-5.2,1.2c-1.9-0.9-2.7-0.9-4.2,0.1c0.1-1.4,1.3-2,1.7-3.1c-2.6,0.2-4.8,2.1-7.9,1.9
			c2.8-1,5.3-1.8,7.7-2.7c0.3-0.1,1-0.2,1,0.1c-0.7,2.3,2.6,0.8,2.5,2.6c0,0.1,0.4-0.1,0.6-0.2c0.7-0.6,1.3-0.8,2,0
			c0.1,0.1,0.2,0.1,0.2,0.2c0.1-0.2,0.2-0.3,0.3-0.5c0.1-0.3,0.2-0.8,0.7-0.6c0.6,0.2,1.2,0,1.1-0.5c-0.1-0.9-0.9,0-1.4-0.5
			C187.1,98.4,188.3,98.1,188.9,96.3z"/>
		<path class="st0" d="M174,103.7c-33.7,0-67.5,0-101.2,0c0.7-0.5,1.4-0.4,2.2-0.4c32.3,0,64.6,0,96.9,0
			C172.6,103.4,173.3,103.2,174,103.7z"/>
		<path class="st0" d="M287.6,103.7c-30.5,0-61,0-91.5,0c0.7-0.5,1.4-0.4,2.2-0.4c29.1,0,58.1,0,87.2,0
			C286.2,103.4,287,103.2,287.6,103.7z"/>
		<path class="st20" d="M97.7,99.2c-1.5,0-2.8-1.6-2.8-3.2c0-1.4,1.6-2.8,3-2.7c1.3,0.1,2.8,1.7,2.8,3
			C100.7,97.7,99.1,99.2,97.7,99.2z"/>
		<path class="st0" d="M278.6,97.7c-23.5,0-47,0-70.5,0c0-0.1,0-0.1,0-0.2c23.5,0,47,0,70.5,0C278.6,97.6,278.6,97.6,278.6,97.7z"/>
		<path class="st21" d="M77.6,93.3c1.8-0.3,2.8,0.7,3.5,2.2c0.5,1.1,0.1,2-0.8,2.8c-1.3,1.2-2.6,1.2-3.8,0.1
			c-1.2-1.2-1.5-2.4-0.3-3.8c0.2-0.3,0.5-0.6,0.7-0.9C77,93.4,77.3,93.3,77.6,93.3z"/>
		<path class="st0" d="M91.1,96.3c0,1.5-1.4,2.6-3.1,2.6c-1.4-0.1-2.6-1.3-2.5-2.7c0-1.3,1.4-2.7,2.6-2.8
			C89.9,93.4,91.2,94.7,91.1,96.3z"/>
		<path class="st22" d="M181.5,97.4c-1.2-0.9-1-2.1-0.5-3.2c0.5-1,1.4-1.3,2.5-1.2c1.3,0.1,2,0.8,2.3,2.1c0.2,0.7,0.2,1.5,1.2,1.8
			c-0.9,0.2-1.8,0.1-1.7-1c0-1.7-0.8-2.5-2.3-2.4c-1.4,0.1-1.9,1.4-1.5,3.2C181.4,96.9,181.4,97.2,181.5,97.4L181.5,97.4z"/>
		<path class="st10" d="M181.5,97.4c0.5,0.1,1.1,0.2,1.6,0.3c0.3,0,0.7,0,0.7,0.4c0,0.1-0.1,0.3-0.3,0.4c-0.3,0.3-0.5,0.2-0.8-0.1
			C182.4,98.1,181.9,97.7,181.5,97.4C181.5,97.4,181.5,97.4,181.5,97.4z"/>
		<path class="st21" d="M185,98.2c-0.2-0.2-0.3-0.3-0.3-0.4c0-0.1,0-0.2,0.1-0.3c0.2-0.1,0.3,0,0.4,0.2
			C185.2,97.8,185.1,98,185,98.2z"/>
		<path class="st0" d="M77.6,93.3c-0.3,0.1-0.5,0.2-0.8,0.4C76.8,92.9,77.2,93,77.6,93.3z"/>
		<path class="st5" d="M168.4,265.6c-0.4,1.5-1.6,1.1-2.6,1.1c-12.8,0-25.6,0-38.3,0c-0.5,0-1,0-1.5,0c-3,0-3,0-2.5,3
			c-3.1,0-6.2,0-9.4,0c-0.8-0.9-2-1.2-3-1.8c-0.5-0.3-1-0.7-1-1.4c0-1,1-0.5,1.4-0.9C130.4,265.6,149.4,265.6,168.4,265.6z"/>
		<path class="st1" d="M111.4,265.6c-1.1,0.6-0.9,1,0.1,1.6c1.1,0.6,2.7,0.7,2.5,2.5c-0.1,0-0.3,0-0.4,0c-3.1,0-6.2,0-9.4,0
			c-0.9-1-2-1.7-3.1-2.3c-0.5-0.3-1-0.6-0.8-1.3c0.2-0.6,0.8-0.5,1.3-0.5C104.9,265.6,108.1,265.6,111.4,265.6z"/>
		<path class="st1" d="M123.4,273.1c-0.3,1.5,1.6,3.5,3.6,3.7c0.9,0.1,1.8-0.1,2.4,0.8c-3.4,0-6.8,0-10.2,0c-3,0-5.5-1.3-7.6-3.3
			c-0.3-0.3-0.5-0.7-0.5-1.2c2.5,0,5,0,7.5,0C120.1,273.1,121.8,273.1,123.4,273.1z"/>
		<path class="st1" d="M133.5,280.9c0.2,1.1,1.2,1.2,2,1.6c1.3,0.7,3,1.1,2.5,3.2c-3.1,0-6.2,0-9.4,0c0-1-0.5-1.5-1.4-1.7
			c-1-0.3-1.9-1-2.8-1.5c-0.4-0.2-1-0.5-0.8-1.1c0.2-0.6,0.8-0.5,1.3-0.5C127.8,280.9,130.6,280.9,133.5,280.9z"/>
		<path class="st2" d="M255.7,267.5c-23.4,0-46.7,0-70.1,0c-0.3-1.1-0.3-2.2,0-3.4c26.2,0,52.5,0,78.7,0c0.9,2.8,0.5,3.3-2.3,3.3
			C260,267.5,257.9,267.5,255.7,267.5z"/>
		<path class="st2" d="M309.4,331.9c-0.3-0.1-0.6-0.2-0.6-0.6c0-0.1,0.3-0.3,0.4-0.3c0.4,0.1,0.5,0.5,0.6,0.8
			C309.6,331.9,309.5,331.9,309.4,331.9z"/>
		<path class="st2" d="M303.4,334.1c0.3-0.4,0.5-0.9,1.1-0.9c0,0,0,0.3,0.1,0.5C304.1,333.9,303.8,334,303.4,334.1z"/>
		<path class="st5" d="M231.4,276.8c-14.9,0-29.8,0-44.6,0c0.4-1,1.2-1.1,2.1-1.1c13.6,0,27.1,0,40.7,0
			C230.4,275.7,231.3,275.6,231.4,276.8z"/>
		<path class="st1" d="M185.6,264.1c0,1.1,0,2.2,0,3.4C185.1,266.4,185.1,265.3,185.6,264.1z"/>
		<path class="st5" d="M231.8,274.9c0.6,0,1.2,0,1.9,0C233,275.7,232.4,276.1,231.8,274.9z"/>
		<path class="st1" d="M261,259.7c1.1,0,2.2,0,3.4,0C263.3,260.2,262.1,260.2,261,259.7z"/>
		<path class="st1" d="M242.2,274.9c0.7,0,1.3-0.1,1.9-0.4C243.7,275.8,243,275.3,242.2,274.9z"/>
		<path class="st5" d="M237.3,276.7c-0.1,0.1-0.1,0.3-0.2,0.3c-0.2,0-0.4,0-0.4-0.1c-0.1-0.2,0-0.3,0.2-0.3
			C237,276.6,237.2,276.7,237.3,276.7z"/>
		<path class="st1" d="M178.1,126.8c27.7,0,55.5,0,83.2,0c3.2,0,3.4,0.2,3.4,3.4c0,20.8,0.3,41.7-0.1,62.5
			c-0.3,16.8,0,33.6-0.3,50.4c0,2.8-0.1,2.8-2.8,2.8c-55.4,0-110.7,0-166.1,0c-0.2,0-0.5,0-0.7,0c-3.1-0.1-3.6-0.5-3.6-3.6
			c0-28.2,0-56.3,0-84.5c0-9.2,0-18.5,0-27.7c0-3,0.3-3.3,3.3-3.3C122.3,126.8,150.2,126.8,178.1,126.8z"/>
		<path class="st2" d="M95.3,204.2c0-23.7,0-47.4,0-71.1c0-3,0-3,3-3c53.2,0,106.5,0,159.7,0c3,0,3,0,3,3c0,20.1,0,40.2,0,60.3
			c0,1,0.1,2-0.4,2.9c-0.8,0.5-1.3,0-1.8-0.5c-4.7-4-9.2-8.1-13.9-12.2c-4.3-3.8-8.4-7.7-12.8-11.4c-3.3-2.9-6.6-5.9-9.8-8.9
			c-0.5-0.4-0.9-0.9-1.4-1.3c-1-0.8-1.8-0.9-2.6,0.3c-2.2,3.5-4.7,6.9-7,10.3c-3.9,5.8-7.6,11.6-11.7,17.3c-1.8,2.5-3.6,5.1-5.2,7.7
			c-0.5,0.7-0.9,1.5-1.9,1.7c-2.2,0-4.1-1.2-6-2c-7.4-3.3-14.9-6.6-22.4-9.8c-3.9-1.7-7.7-3.5-11.6-5c-0.8-0.3-1.4-0.3-2.1,0
			c-5,1.9-9.9,4-14.8,6.1c-4.3,1.9-8.6,3.5-12.9,5.3c-7.3,3.1-14.8,5.9-22,9.2c-1.1,0.5-2.3,0.9-3.5,1.3
			C96.5,204.8,95.8,204.9,95.3,204.2z"/>
		<path class="st20" d="M192.7,199c7.5-11,14.9-22,22.4-32.9c1.1-1.6,2.1-3.3,3.2-5c0.6-0.9,1.2-1.2,2.1-0.4
			c3.2,2.9,6.4,5.7,9.6,8.5c6.1,5.5,12.2,10.9,18.3,16.4c4.1,3.6,8.2,7.2,12.3,10.9c0.4,0.9,0.4,1.8,0.4,2.7c0,13.6,0,27.2,0,40.7
			c0,2.7,0,2.7-2.7,2.7c-31.4,0-62.7,0-94.1,0c-1.1-0.6-1-1.5-0.4-2.4c1.3-2.3,2.9-4.5,4.4-6.6c3.7-5.3,7.3-10.6,10.9-15.9
			c3.7-5.3,7.2-10.6,10.7-16.1C190.6,200.4,191.5,199.5,192.7,199z"/>
		<path class="st7" d="M192.7,199c-2.5,3.6-4.9,7.3-7.4,10.9c-3,4.5-6,8.9-9.1,13.4c-2,3-4.1,6.1-6.1,9.1c-1.9,2.8-3.8,5.6-5.7,8.4
			c-0.4,0.6-0.5,1.1-0.2,1.7c-22,0-44,0-66,0c-3,0-3,0-3-3c0-11.8,0-23.6,0-35.3c3.7-0.8,7-2.6,10.4-4.1c5.5-2.4,11.1-4.5,16.5-6.8
			c3.5-1.5,7-3,10.5-4.5c5.3-2.2,10.7-4.1,15.8-6.6c2.8-1.4,5-0.3,7.3,0.7c4.1,1.7,8.1,3.6,12.1,5.3c5.9,2.6,11.7,5.2,17.6,7.7
			C187.9,197,190.3,198,192.7,199z"/>
		<path class="st1" d="M138.2,166.6c-7.4,0.3-14.3-6.2-14.3-13.8c-0.1-8.7,6.2-14.8,14.4-14.8c8.5,0,14.6,6.1,14.6,14.5
			C152.9,160.6,146.8,166.7,138.2,166.6z"/>
		<path class="st23" d="M229.9,237.7c-0.4,0.5-0.7,0.9-1.1,1.3c-0.6,0.5-1.2,0.6-1.4-0.3c-0.2-1.5-0.8-0.8-1.4-0.3
			c-0.8,0.5-1.6,1.4-2.5,0c-0.4-0.6-0.9-0.1-1.3,0.2c-0.6,0.3-1.2,0.8-1.9,0.2c-0.6-0.5-0.5-1.2-0.3-1.9c0.1-0.5,0.2-0.9,0.3-1.6
			c-1.5,0.7-2.2,1.9-3.3,2.7c-0.4,0.3-0.8,1-1.4,0.6c-0.7-0.5-0.2-1.1,0-1.7c0.3-0.7,0.8-1.4,1.3-2.4c-2.3,0.5-3.7,2-5.2,3.1
			c-0.3,0.2-0.5,0.5-0.8,0.8c-0.5,0.4-1,1.1-1.6,0.5c-0.6-0.5,0.1-1,0.4-1.4c1.4-1.8,2.8-3.6,4.2-5.5c0.4-0.5,0.7-1.1,1.1-1.7
			c-0.1-0.1-0.2-0.3-0.3-0.4c-2.1,0.7-4.1,1.4-6.2,2.2c-3.8,1.3-7.4,3-11.3,3.9c-1,0.2-2,0.3-2.9-0.1c-0.3-0.1-0.6-0.3-0.5-0.7
			c0-0.4,0.4-0.4,0.7-0.4c6.8,0.1,12.3-3.9,18.6-5.5c1.2-0.3,2.8-1.5,3.6-0.5c1,1.2-0.8,2.3-1.5,3.5c-0.3,0.4-0.5,0.8-1.1,1.7
			c1.3-0.6,2.1-1,3-1.3c1.2-0.4,2.5-1,2,1.5c0.5-0.4,0.8-0.6,1-0.7c0.6-0.3,1.2-0.9,1.9-0.3c0.6,0.5,0.1,1.2-0.1,1.7
			c-0.3,0.8-0.8,1.5-0.6,2.6c1.2-0.5,2.1-1.3,2.9-2.3c0.4-0.5,0.9-1,1.4-1.5c0.3-0.3,0.6-0.5,1-0.2c0.3,0.3,0.1,0.7-0.1,1
			c-0.5,0.8-1.4,1.4-1.3,2.7c1-0.6,1.7-1.4,2.3-2.3c0.4-0.6,0.6-1.7,1.5-1.3c0.7,0.3,0.1,1.2-0.2,1.8c-0.2,0.4-0.4,0.9,0.1,1.5
			c1.1-1,1.7-2.2,2-3.6c0.2-0.8,0.5-1.8,1.5-0.4c0.8,1.1,1.6,0.1,2.3-0.1c1-0.4,1.2-1.4,1.2-2.3c0-0.5-0.5-0.4-0.9-0.3
			c-0.9,0.2-1.8,0.4-2.7,0.6c-0.4,0.1-1,0.2-1.1-0.4c-0.2-0.6,0.4-0.7,0.8-0.8c0.4-0.1,0.9-0.2,1.3-0.2c2.5-0.2,4.3-1.1,4.6-3.8
			c0.1-0.5,0.3-1.3,1-1c0.8,0.3,0.3,0.9,0.1,1.4c-0.8,2.6-0.8,2.5,1.9,2.2c3.5-0.4,6.9-0.8,10.4-1.2c0.5-0.1,1.2-0.2,1.3,0.4
			c0.2,0.8-0.7,0.8-1.1,0.9c-2.7,0.3-5.4,0.6-8.2,0.9c-1.4,0.1-2.7,0.3-4.1,0.4c-0.6,0.1-1.3,0.2-1.6,0.8c-0.9,2-1.8,4.1-1.9,6.4
			c0,0.4-0.1,0.8,0.3,1c0.5,0.2,0.8-0.2,1.1-0.5c1.4-1.3,2.8-2.7,3.9-4.3c0.3-0.4,0.5-1.1,1.2-0.9c0.6,0.2,0.7,0.8,0.9,1.3
			c0.3,1.2,0.7,2.5,1.1,4.2c0.7-1.8,0.2-3-0.1-4.3c-0.3-1.3,0.2-1.9,1.4-1.3c1.3,0.6,2.4,0.4,3.6,0c2-0.6,3.9-1.2,5.9-1.8
			c0.6-0.2,1.4-0.7,1.6,0.1c0.3,0.9-0.8,0.9-1.4,1.1c-2.2,0.6-4.3,1.3-6.5,1.8c-1.2,0.3-1.6,0.8-1,2c0.1,0.3,0.3,0.6,0.3,0.9
			c0.2,0.8,1,1.7,0.2,2.4c-0.8,0.6-1.4-0.3-2-0.9c-0.5-0.5-0.8-0.1-0.9,0.4c-0.2,0.6-0.1,1.4-1,1.4c-0.7,0-0.9-0.8-1.2-1.3
			c-0.2-0.4-0.4-0.8-0.6-1.2c-0.8,0.8-0.8,2-1.8,2.6c-1.6,0.8-1.5-0.8-2.1-1.5c-0.6,0.1-0.9,0.5-1.2,0.9c-0.6,0.6-1.2,1.2-2.1,0.7
			c-0.8-0.4-1.2-1.3-1.2-2.2c0-0.2,0-0.4,0-0.6c0.1-0.7,0.8-1.8-0.4-2c-1.1-0.2-1.7,0.8-1.9,1.9c-0.1,0.3,0,0.6-0.1,0.9
			c-0.1,0.5,0.2,1.3-0.4,1.5C230.4,239.2,230.5,238.1,229.9,237.7z"/>
		<path class="st24" d="M237.4,217.2c-1-0.2-1.6-0.9-2.4-1.5c-1.1-0.7-2.1-0.9-3.4-0.5c-2.5,0.9-2.6,1.1-1.5,3.4
			c0.6,1.2,0.6,2.3,0.1,3.7c-0.5-0.2-0.3-0.6-0.4-0.9c-0.3-3-1.5-4.4-4.3-5c-2.2-0.5-4.9,0.5-5.9,2.2c-1.5,2.5-1.4,5.3,0.4,7.3
			c0.7,0.8,1.7,1.3,2.7,1.5c0.7,0.1,1.3,0.3,1.5,1.2l0,0c-2.9,0.3-4.9-1.2-5.9-3.6c-1.1-2.6-0.8-5.2,1.2-7.5
			c1.9-2.1,4.3-2.4,6.9-1.6c1.4,0.5,2.4,0.4,3.7-0.4C232.9,213.6,236,214.5,237.4,217.2L237.4,217.2z"/>
		<path class="st25" d="M236.2,223.6c-1.3,2.1-5.5,2.6-7,0.7c-0.2-0.3-0.5-0.8-0.1-1c0.5-0.2,1.4-0.2,1.6,0.1c1.5,2.5,3.3,1.2,5,0.4
			C235.9,223.7,236.1,223.6,236.2,223.6L236.2,223.6z"/>
		<path class="st25" d="M229.6,228.1c0.1,0.5,0.1,1-0.4,0.9c-0.8-0.2-1.7-0.7-1.9-1.5c-0.1-0.6,0.8-1.1,1.3-1.1
			C229.7,226.4,229.2,227.5,229.6,228.1z"/>
		<path class="st24" d="M224.2,228.4c0.2-0.4,0.4-0.8,0.6-1.1c0.2-0.4,0.5-0.5,0.9-0.3c0.5,0.2,0.6,0.6,0.4,1.1
			c-0.5,1-1.1,1.8-2.6,1.8C223.9,229.3,224.1,228.9,224.2,228.4C224.3,228.4,224.2,228.4,224.2,228.4z"/>
		<path class="st25" d="M240,221.3c-2.2,0.6-2.2,0.6-2-1.4C238.9,220,239.2,221,240,221.3z"/>
		<path class="st24" d="M225,223.6c-0.5,1.9-1.5,2-3.1,1.4C223.1,224.5,223.9,224.1,225,223.6z"/>
		<path class="st25" d="M236.3,223.6c0-0.5-0.4-1.1,0.4-1.4c0.3-0.1,0.6,0.1,0.8,0.3c0.3,0.4,0.2,0.8,0,1.2
			C236.9,224.4,236.6,223.8,236.3,223.6C236.2,223.6,236.3,223.6,236.3,223.6z"/>
		<path class="st19" d="M227.2,220.1c0.5,0.8,1,1.4,0.4,2.1c-0.2,0.2-0.7,0.3-0.8,0.1C226.5,221.6,226.9,221,227.2,220.1z"/>
		<path class="st26" d="M234.4,220.2c0.5,1.6,0.1,2.4-1.3,3C233.5,222.1,233.9,221.4,234.4,220.2z"/>
		<path class="st26" d="M237.4,217.3c1.1-0.6,0.7,0.3,0.7,0.7c0,0.4-0.2,0.9-0.7,0.9c-0.6-0.1-0.5-0.5-0.3-0.9
			C237.2,217.7,237.3,217.5,237.4,217.3C237.4,217.2,237.4,217.3,237.4,217.3z"/>
		<path class="st27" d="M234.8,219.1c-0.6-0.4-0.7-0.9-0.8-1.8C234.9,217.7,235.3,218.2,234.8,219.1z"/>
		<path class="st12" d="M245.8,233.8c1.1,1,1,2.1,1.4,3.1C246.5,236.1,245.6,235.4,245.8,233.8z"/>
		<path class="st28" d="M241.2,235.3c0,0.8-0.3,1.5-1.1,2.2C240.2,236.4,240.5,235.7,241.2,235.3z"/>
	</g>
</g>
</svg>
